<svg xmlns="http://www.w3.org/2000/svg" viewBox="0 0 24 24"><title>rt</title><path d="M12.29,16c-2.32.46-8.34,1.52-8.34,4.08,0,.64,0,1.27.08,1.87h16.9c.05-.61.08-1.23.08-1.87,0-2.56-6.75-3.62-8.71-4.08" style="fill:none;stroke:#000;stroke-linecap:round;stroke-linejoin:round;stroke-width:2px"/><path d="M8.85,12.44C9.58,13.38,10.71,15,12,15c2.21,0,4-2.79,4-5" style="fill:none;stroke:#000;stroke-linecap:round;stroke-linejoin:round;stroke-width:2px"/><path d="M6,18.19V10c0-4.42,2.92-8,6.53-8s6.53,3.58,6.53,8L19,18" style="fill:none;stroke:#000;stroke-linecap:round;stroke-linejoin:round;stroke-width:2px"/><path d="M8,12s4-3,5-6c0,0,2,5,4,4" style="fill:none;stroke:#000;stroke-linecap:round;stroke-linejoin:round;stroke-width:2px"/></svg>