<svg xmlns="http://www.w3.org/2000/svg" viewBox="0 0 24 24"><title>3</title><g id="Layer_4" data-name="Layer 4"><path d="M16.56,21.5H7.44c-1.12,0-3.05.08-3.05-1,0,0-2-9-2-9.12a2,2,0,0,1,2-1.85H19.61a2,2,0,0,1,2,1.85c0,.12-2,9.12-2,9.12C19.61,21.58,17.68,21.5,16.56,21.5Z" style="fill:none;stroke:#000;stroke-miterlimit:10;stroke-width:2.5px"/><line x1="7.06" y1="13.63" x2="7.96" y2="17.95" style="fill:none;stroke:#000;stroke-miterlimit:10;stroke-width:2.299999952316284px"/><line x1="16.82" y1="13.63" x2="16" y2="18" style="fill:none;stroke:#000;stroke-miterlimit:10;stroke-width:2.299999952316284px"/><line x1="12" y1="13" x2="12" y2="18.14" style="fill:none;stroke:#000;stroke-miterlimit:10;stroke-width:2.299999952316284px"/><line x1="12.09" y1="3.04" x2="17.77" y2="8.06" style="fill:none;stroke:#000;stroke-miterlimit:10;stroke-width:2.299999952316284px"/><line x1="12.09" y1="3.04" x2="5.84" y2="8.06" style="fill:none;stroke:#000;stroke-miterlimit:10;stroke-width:2.299999952316284px"/></g></svg>