<svg xmlns="http://www.w3.org/2000/svg" viewBox="0 0 24 24"><title>4</title><g id="Layer_4" data-name="Layer 4"><g id="Layer_4-2" data-name="Layer 4"><polygon points="18 16 18 19 6 19 6 16 4 15 4 21 20 21 20 15 18 16"/><path d="M3,3v7a3.8,3.8,0,0,0,3.5,4,3.47,3.47,0,0,0,2.6-1.3,3.88,3.88,0,0,0,5.8,0A3.32,3.32,0,0,0,17.5,14,3.8,3.8,0,0,0,21,10V3Zm14.5,9a2.14,2.14,0,0,1-1.7-.8A5,5,0,0,0,16,10V9H14v1c0,.4.1.7.1,1.1A3.12,3.12,0,0,1,12,12a3.12,3.12,0,0,1-2.1-.9c0-.4.1-.7.1-1.1V9H8v1a5,5,0,0,0,.2,1.2,2.14,2.14,0,0,1-1.7.8C5.1,12,5,10.6,5,9V5H19V9C19,10.6,19,12,17.5,12Z"/></g></g></svg>