<svg xmlns="http://www.w3.org/2000/svg" viewBox="0 0 24 24"><title>4</title><g id="Layer_4" data-name="Layer 4"><line x1="13.82" y1="11.36" x2="13.82" y2="17.64" style="fill:none;stroke:#fff;stroke-linecap:round;stroke-linejoin:round;stroke-width:2px"/><line x1="10.45" y1="14.5" x2="10.45" y2="17.64" style="fill:none;stroke:#fff;stroke-linecap:round;stroke-linejoin:round;stroke-width:2px"/><path d="M6,11.36v8.18A2.46,2.46,0,0,0,8.45,22h7.09A2.46,2.46,0,0,0,18,19.55V8" style="fill:none;stroke:#fff;stroke-linecap:round;stroke-linejoin:round;stroke-width:2.200000047683716px"/><path d="M14.71,8H6.29A2.3,2.3,0,0,1,4,5.71V5.44A2.44,2.44,0,0,1,6.44,3H17.56A2.44,2.44,0,0,1,20,5.44v.27A2.3,2.3,0,0,1,17.71,8" style="fill:none;stroke:#fff;stroke-linecap:round;stroke-linejoin:round;stroke-width:2px"/></g></svg>