<svg xmlns="http://www.w3.org/2000/svg" viewBox="0 0 24 24"><title>4</title><g id="Layer_4" data-name="Layer 4"><path d="M22.08,10.56l-2.48-.34a6.68,6.68,0,0,0-.7-1.81l1.6-2q.43-.52.1-.92L19.12,4a.67.67,0,0,0-1,0l-2,1.52a6.65,6.65,0,0,0-1.78-.77l-.24-2.52q-.07-.66-.59-.73l-2.14,0c-.35,0-.56.26-.62.7l-.37,2.48A6,6,0,0,0,9.32,5a5.08,5.08,0,0,0-.75.38l-2-1.6q-.52-.43-.92-.1L4.14,5.16a.67.67,0,0,0,0,1l1.52,2a7.24,7.24,0,0,0-.8,1.81l-2.52.24q-.66.07-.73.59l0,2.14q0,.53.7.62l2.5.37a7.36,7.36,0,0,0,.73,1.81l-1.6,2q-.43.52-.1.92l1.48,1.54a.67.67,0,0,0,1,0l2-1.52A6.15,6.15,0,0,0,9,19a10.27,10.27,0,0,0,1,.39l.27,2.52c0,.44.24.68.59.73l2.14,0q.53,0,.62-.7l.34-2.5a8.06,8.06,0,0,0,1.81-.7l2,1.57c.35.29.65.32.92.1l1.54-1.48a.67.67,0,0,0,0-1l-1.52-2a7.11,7.11,0,0,0,.78-1.81L22,13.91c.44,0,.68-.24.72-.59l0-2.14Q22.74,10.65,22.08,10.56Zm-8.64,4.22a3,3,0,1,1,1.48-4A3,3,0,0,1,13.45,14.78Z" style="fill:none;stroke:#fff;stroke-linecap:round;stroke-linejoin:round;stroke-width:2px"/></g></svg>