<svg width="16" height="16" viewBox="0 0 16 16" fill="none" xmlns="http://www.w3.org/2000/svg">
<path d="M0.100753 9.34976L6.65024 15.8992C3.30562 15.3339 0.666104 12.6944 0.100753 9.34976Z" fill="white"/>
<path d="M0 7.57169L8.42831 16C8.92954 15.9732 9.41854 15.9003 9.89113 15.7855L0.214498 6.10887C0.0996698 6.58146 0.0267824 7.07046 0 7.57169Z" fill="white"/>
<path d="M0.633982 4.85104L11.149 15.366C11.5319 15.2017 11.8995 15.0083 12.2489 14.7886L1.21136 3.7511C0.991728 4.1005 0.798347 4.46807 0.633982 4.85104Z" fill="white"/>
<path d="M1.92375 2.78618C3.39193 1.08023 5.56692 0 7.99422 0C12.4157 0 16 3.58431 16 8.00578C16 10.4331 14.9198 12.6081 13.2138 14.0762L1.92375 2.78618Z" fill="white"/>
</svg>
