<svg xmlns="http://www.w3.org/2000/svg" width="559" height="346"><defs><linearGradient id="a" x1="47.379%" x2="52.041%" y1="50.002%" y2="50.002%"><stop offset="0%" stop-color="#332D59"/><stop offset="100%" stop-color="#494691"/></linearGradient><linearGradient id="b" x1="100%" x2="0%" y1="50%" y2="50%"><stop offset="0%" stop-color="#D0C4FF" stop-opacity="0"/><stop offset="100%" stop-color="#D0C4FF"/></linearGradient><linearGradient id="c" x1=".036%" x2="100.018%" y1="50.001%" y2="50.001%"><stop offset="0%" stop-color="#35C5CD"/><stop offset="100%" stop-color="#44DB99"/></linearGradient><linearGradient id="d" x1="-.057%" x2="100.037%" y1="50.037%" y2="50.037%"><stop offset="0%" stop-color="#0F9"/><stop offset="100%" stop-color="#35C5CD"/></linearGradient><linearGradient id="e" x1="50.008%" x2="50.008%" y1="100.011%" y2=".064%"><stop offset="0%" stop-color="#35C5CD"/><stop offset="100%" stop-color="#0F9"/></linearGradient><linearGradient id="f" x1="50.027%" x2="50.027%" y1="100.045%" y2=".143%"><stop offset="0%" stop-color="#FFF"/><stop offset="100%" stop-color="#FFF" stop-opacity="0"/></linearGradient><linearGradient id="g" x1="0%" y1="50%" y2="50%"><stop offset="0%" stop-color="#D0C4FF" stop-opacity="0"/><stop offset="100%" stop-color="#D0C4FF"/></linearGradient><linearGradient id="h" x1="200.892%" x2="-100.834%" y1="50.028%" y2="50.028%"><stop offset="0%" stop-color="#0B38FF"/><stop offset="69.83%" stop-color="#211E39" stop-opacity="0"/></linearGradient><linearGradient id="i" x1="-.022%" x2="99.96%" y1="50.001%" y2="50.001%"><stop offset="0%" stop-color="#35C5CD"/><stop offset="100%" stop-color="#44DB99"/></linearGradient><linearGradient id="j" x1=".049%" x2="99.92%" y1="50.037%" y2="50.037%"><stop offset="0%" stop-color="#0F9"/><stop offset="100%" stop-color="#35C5CD"/></linearGradient><linearGradient id="k" x1="50.002%" x2="50.002%" y1="100.011%" y2=".064%"><stop offset="0%" stop-color="#35C5CD"/><stop offset="100%" stop-color="#0F9"/></linearGradient><linearGradient id="l" x1="49.969%" x2="49.969%" y1="100.045%" y2=".143%"><stop offset="0%" stop-color="#FFF"/><stop offset="100%" stop-color="#FFF" stop-opacity="0"/></linearGradient><linearGradient id="m" x1="-100.851%" x2="200.875%" y1="50.028%" y2="50.028%"><stop offset="30.17%" stop-color="#211E39" stop-opacity="0"/><stop offset="100%" stop-color="#0B38FF"/></linearGradient><linearGradient id="n" x1=".053%" x2="100.035%" y1="49.988%" y2="49.988%"><stop offset="0%" stop-color="#35C5CD"/><stop offset="100%" stop-color="#44DB99"/></linearGradient><linearGradient id="o" x1="-.023%" x2="100.07%" y1="50.018%" y2="50.018%"><stop offset="0%" stop-color="#0F9"/><stop offset="100%" stop-color="#35C5CD"/></linearGradient><linearGradient id="p" x1="50.042%" x2="50.042%" y1="99.992%" y2=".045%"><stop offset="0%" stop-color="#35C5CD"/><stop offset="100%" stop-color="#0F9"/></linearGradient><linearGradient id="q" x1="50.044%" x2="50.044%" y1="100.002%" y2=".1%"><stop offset="0%" stop-color="#FFF"/><stop offset="100%" stop-color="#FFF" stop-opacity="0"/></linearGradient><linearGradient id="r" x1="-100.887%" x2="200.839%" y1="50.016%" y2="50.016%"><stop offset="30.17%" stop-color="#211E39" stop-opacity="0"/><stop offset="100%" stop-color="#0B38FF"/></linearGradient><linearGradient id="s" x1="201.021%" x2="-101.041%" y1="50.016%" y2="50.016%"><stop offset="0%" stop-color="#0B38FF"/><stop offset="69.83%" stop-color="#211E39" stop-opacity="0"/></linearGradient><linearGradient id="t" x1="-.036%" x2="99.946%" y1="50.035%" y2="50.035%"><stop offset="0%" stop-color="#35C5CD"/><stop offset="100%" stop-color="#44DB99"/></linearGradient><linearGradient id="u" x1=".02%" x2="99.891%" y1="50.003%" y2="50.003%"><stop offset="0%" stop-color="#0F9"/><stop offset="100%" stop-color="#35C5CD"/></linearGradient><linearGradient id="v" x1="49.974%" x2="49.974%" y1="100.059%" y2="-.053%"><stop offset="0%" stop-color="#35C5CD"/><stop offset="100%" stop-color="#0F9"/></linearGradient><linearGradient id="w" x1="49.955%" x2="49.955%" y1="100.153%" y2="-.118%"><stop offset="0%" stop-color="#FFF"/><stop offset="100%" stop-color="#FFF" stop-opacity="0"/></linearGradient><linearGradient id="x" x1="-.022%" x2="99.96%" y1="49.995%" y2="49.995%"><stop offset="0%" stop-color="#35C5CD"/><stop offset="100%" stop-color="#44DB99"/></linearGradient><linearGradient id="y" x1="49.969%" x2="49.969%" y1="100.053%" y2=".079%"><stop offset="0%" stop-color="#0F9"/><stop offset="100%" stop-color="#35C5CD"/></linearGradient><linearGradient id="z" x1=".049%" x2="99.92%" y1="49.947%" y2="49.947%"><stop offset="0%" stop-color="#0F9"/><stop offset="100%" stop-color="#35C5CD"/></linearGradient><linearGradient id="A" x1="50.002%" x2="50.002%" y1="99.92%" y2="-.027%"><stop offset="0%" stop-color="#35C5CD"/><stop offset="100%" stop-color="#0F9"/></linearGradient><linearGradient id="B" x1="49.969%" x2="49.969%" y1="99.843%" y2="-.059%"><stop offset="0%" stop-color="#FFF"/><stop offset="100%" stop-color="#FFF" stop-opacity="0"/></linearGradient></defs><g fill="none"><g opacity=".95"><path fill="url(#a)" d="M558.363 164.784c0-3.926-2.55-7.852-7.739-10.864L298.437 7.942c-10.379-6.025-27.313-6.025-37.6 0L8.648 153.92C3.459 156.932.91 160.858.91 164.784v16.341h.456c-1.457 4.747 1.001 9.86 7.374 13.603l252.187 145.977c10.38 6.025 27.313 6.025 37.6 0l252.188-145.977c6.373-3.652 8.74-8.764 7.375-13.603h.455v-16.341h-.182z"/><path fill="#6161AA" d="M8.649 150.725c-10.379 6.025-10.379 15.793 0 21.819L260.836 318.52c10.38 6.025 27.313 6.025 37.6 0l252.188-145.977c10.379-6.026 10.379-15.794 0-21.82L298.437 4.748c-10.379-6.025-27.313-6.025-37.6 0L8.648 150.725z"/></g><path fill="#6161AA" d="M418.641 147.035l-68.853-38.047-67.939 37.531-.991-.516-.914.442-67.71-37.457-68.777 38.047 68.777 38.121-68.015 37.678 68.853 38.121 68.853-38.121 67.863 37.531 68.853-38.121-67.939-37.604z" opacity=".2"/><path fill="url(#b)" d="M103.889 56.85l34.046 18.728V38.047L69.234.221v37.531z" opacity=".895" transform="translate(143 50)"/><path fill="url(#b)" d="M.609 38.047v37.531l33.97-18.728 34.655-19.098V.221z" opacity=".895" transform="translate(143 50)"/><path fill="url(#c)" d="M34.503.221L.305 19.097v25.881l34.198 18.876 34.122-18.876V19.097z" transform="translate(178.036 73.595)"/><g opacity=".6"><path fill="url(#d)" d="M34.503 44.802l34.122-18.876V.045l-34.122 18.95z" transform="translate(178.036 92.647)"/><path fill="url(#e)" d="M34.503 44.802L.305 25.926V.045l34.198 18.95z" transform="translate(178.036 92.647)"/><path fill="url(#f)" d="M34.503 18.995L.305.045v1.18l34.198 18.876L68.625 1.225V.045z" transform="translate(178.036 92.647)"/></g><path fill="url(#g)" d="M34.575 56.85L.226 38.047v37.531l69.391 37.9V75.947z" opacity=".895" transform="translate(143 50)"/><path fill="url(#h)" d="M137.935 75.578V38.047L103.889 56.85 69.234 75.947v37.531z" opacity=".15" transform="translate(143 50)"/><path fill="url(#g)" d="M103.584 56.85l34.046 18.728V38.047L68.929.221v37.531zM.228 38.047v37.531L34.274 56.85l34.655-19.098V.221z" opacity=".895" transform="translate(280.858 50)"/><path fill="url(#i)" d="M34.122.221L0 19.097v25.881l34.122 18.876L68.32 44.978V19.097z" transform="translate(315.894 73.595)"/><g opacity=".6"><path fill="url(#j)" d="M34.122 44.802L68.32 25.926V.045l-34.198 18.95z" transform="translate(315.894 92.647)"/><path fill="url(#k)" d="M34.122 44.802L0 25.926V.045l34.122 18.95z" transform="translate(315.894 92.647)"/><path fill="url(#l)" d="M34.122 18.995L0 .045v1.18l34.122 18.876L68.32 1.225V.045z" transform="translate(315.894 92.647)"/></g><path fill="url(#m)" d="M34.274 56.85L.228 38.047v37.531l68.701 37.9V75.947z" opacity=".15" transform="translate(280.858 50)"/><path fill="url(#b)" d="M137.63 75.578V38.047L103.584 56.85 68.929 75.947v37.531z" opacity=".895" transform="translate(280.858 50)"/><path fill="url(#g)" d="M103.965 56.997l33.97 18.729V38.195L69.31.369V37.9zM.609 38.195v37.531l34.046-18.729L69.31 37.9V.369z" opacity=".895" transform="translate(211.548 86.867)"/><path fill="url(#n)" d="M34.503.369L.305 19.245v25.881l34.198 18.876 34.122-18.876V19.245z" transform="translate(246.584 110.462)"/><g opacity=".6"><path fill="url(#o)" d="M34.503 44.831l34.122-18.876V.074l-34.122 18.95z" transform="translate(246.584 129.633)"/><path fill="url(#p)" d="M34.503 44.831L.305 25.955V.074l34.198 18.95z" transform="translate(246.584 129.633)"/><path fill="url(#q)" d="M34.503 19.024L.305.074v1.179L34.503 20.13 68.625 1.253V.074z" transform="translate(246.584 129.633)"/></g><path fill="url(#r)" d="M34.655 56.997L.609 38.195v37.531l68.701 37.899V76.094z" opacity=".15" transform="translate(211.548 86.867)"/><path fill="url(#s)" d="M137.935 75.726V38.195l-33.97 18.802L69.31 76.094v37.531z" opacity=".15" transform="translate(211.548 86.867)"/><g><path fill="url(#b)" d="M103.972 56.628l34.618 18.803V37.9L68.655 0v37.531z" opacity=".895" transform="translate(143.762 125.947)"/><path fill="url(#b)" d="M.609 37.9v37.531l34.046-18.803L69.31 37.531V0z" opacity=".895" transform="translate(143.762 125.947)"/><path fill="url(#t)" d="M34.503 0L.381 18.95v25.807l34.122 18.876 34.198-18.876V18.95z" transform="translate(178.798 149.542)"/><g opacity=".6"><path fill="url(#u)" d="M34.503 45.199l34.198-18.876V.516L34.503 19.392z" transform="translate(178.798 167.976)"/><path fill="url(#v)" d="M34.503 45.199L.381 26.323V.516l34.122 18.876z" transform="translate(178.798 167.976)"/><path fill="url(#w)" d="M34.503 19.392L.381.516v1.106l34.122 18.876L68.701 1.622V.516z" transform="translate(178.798 167.976)"/></g><path fill="url(#g)" d="M34.655 56.628L.609 37.9v37.531l68.701 37.826V75.726zm103.28 18.803V37.9l-33.97 18.728L69.31 75.726v37.531z" opacity=".895" transform="translate(143.762 125.947)"/></g><g><path fill="url(#g)" d="M103.584 56.776l34.046 18.802V38.047L68.929.147v37.531zM.228 38.047v37.531l34.046-18.802 34.655-19.098V.147z" opacity=".895" transform="translate(280.858 125.21)"/><path fill="url(#x)" d="M34.122.147L0 19.097v25.807l34.122 18.95 34.198-18.95V19.097z" transform="translate(315.894 148.805)"/><g opacity=".6"><path fill="url(#y)" d="M34.122.147L0 19.097l34.122 18.876L68.32 19.097z" transform="translate(315.894 148.805)"/><path fill="url(#z)" d="M34.122 63.854l34.198-18.95V19.097L34.122 37.973z" transform="translate(315.894 148.805)"/><path fill="url(#A)" d="M34.122 63.854L0 44.904V19.097l34.122 18.876z" transform="translate(315.894 148.805)"/><path fill="url(#B)" d="M34.122 37.973L0 19.097v1.106l34.122 18.95 34.198-18.95v-1.106z" transform="translate(315.894 148.805)"/></g><path fill="url(#g)" d="M34.274 56.776L.228 38.047v37.531l68.701 37.9V75.947zM137.63 75.578V38.047l-34.046 18.729-34.655 19.171v37.531z" opacity=".895" transform="translate(280.858 125.21)"/></g></g></svg>