<?xml version="1.0" encoding="UTF-8"?>
<!DOCTYPE svg PUBLIC "-//W3C//DTD SVG 1.1//EN" "http://www.w3.org/Graphics/SVG/1.1/DTD/svg11.dtd">
<!-- Creator: CorelDRAW 2019 (64-Bit) -->
<svg xmlns="http://www.w3.org/2000/svg" xml:space="preserve" width="1.17703in" height="1.17703in" version="1.1" style="shape-rendering:geometricPrecision; text-rendering:geometricPrecision; image-rendering:optimizeQuality; fill-rule:evenodd; clip-rule:evenodd"
viewBox="0 0 109.89 109.89"
 xmlns:xlink="http://www.w3.org/1999/xlink"
 xmlns:xodm="http://www.corel.com/coreldraw/odm/2003">
 <defs>
  <style type="text/css">
   <![CDATA[
    .str0 {stroke:white;stroke-width:1.95;stroke-miterlimit:2.61313}
    .fil3 {fill:none}
    .fil0 {fill:black}
    .fil4 {fill:#383A5B}
    .fil1 {fill:white}
    .fil6 {fill:white}
    .fil5 {fill:url(#id0)}
    .fil2 {fill:url(#id1)}
   ]]>
  </style>
  <linearGradient id="id0" gradientUnits="userSpaceOnUse" x1="97.43" y1="75.45" x2="12.47" y2="34.45">
   <stop offset="0" style="stop-opacity:1; stop-color:#74D69C"/>
   <stop offset="1" style="stop-opacity:1; stop-color:#28C767"/>
  </linearGradient>
  <linearGradient id="id1" gradientUnits="userSpaceOnUse" x1="8.26" y1="101.63" x2="101.63" y2="101.63">
   <stop offset="0" style="stop-opacity:1; stop-color:#2BDD9A"/>
   <stop offset="1" style="stop-opacity:1; stop-color:#1CC7CE"/>
  </linearGradient>
 </defs>
 <g id="Capa_x0020_1">
  <metadata id="CorelCorpID_0Corel-Layer"/>
  <g id="_2439528176064">
   <g id="Hifi---Final">
    <g id="Algolia-Partner_Visual-Designs_Page1">
     <g id="Choose-partners">
      <g id="Group-10">
       <g id="Technology-Partners">
        <g>
         <g id="Oval">
          <g filter="url(#filter-2)">
           <circle class="fil0" cx="54.95" cy="54.95" r="54.46"/>
          </g>
          <g>
           <circle class="fil1" cx="54.95" cy="54.95" r="54.46"/>
          </g>
         </g>
         <g id="Oval-Copy-5">
          <g>
           <circle class="fil2" cx="54.95" cy="54.95" r="46.68"/>
          </g>
          <g id="Group-8">
           <g>
            <polygon id="Polygon" class="fil3 str0" points="47.56,29.77 55.87,39.67 51.45,51.82 38.72,54.06 30.41,44.16 34.83,32.01 "/>
            <polygon id="Polygon-Copy" class="fil3 str0" points="75.53,40.16 83.83,50.06 79.41,62.21 66.68,64.45 58.37,54.55 62.79,42.4 "/>
            <polygon id="Polygon-Copy-2" class="fil3 str0" points="52.95,58.44 61.26,68.34 56.84,80.49 44.11,82.73 35.8,72.83 40.22,60.68 "/>
           </g>
          </g>
         </g>
        </g>
       </g>
      </g>
     </g>
    </g>
   </g>
  </g>
  <circle class="fil4" cx="54.95" cy="54.95" r="54.95"/>
  <circle class="fil5" cx="54.95" cy="54.95" r="47.17"/>
  <path class="fil6" d="M69.84 24.4c-5.79,0 -11.25,2.66 -14.89,6.98 -3.64,-4.33 -9.1,-6.98 -14.89,-6.98 -10.26,0 -18.2,7.99 -18.2,18.31 0,12.65 11.25,22.8 28.29,38.45l4.8 4.33 4.8 -4.33c17.04,-15.65 28.29,-25.8 28.29,-38.45 0,-10.32 -7.94,-18.31 -18.2,-18.31zm-12.85 52.39l-0.67 0.62 -1.37 1.24 -1.37 -1.24 -0.67 -0.62c-8.02,-7.37 -14.95,-13.73 -19.52,-19.41 -4.45,-5.52 -6.43,-10.04 -6.43,-14.67 0,-3.64 1.34,-6.98 3.77,-9.43 2.42,-2.45 5.73,-3.79 9.32,-3.79 4.15,0 8.27,1.94 10.99,5.17l3.9 4.63 3.9 -4.63c2.72,-3.25 6.84,-5.17 10.99,-5.17 3.6,0 6.9,1.34 9.34,3.79 2.43,2.45 3.77,5.81 3.77,9.43 0,4.61 -1.99,9.15 -6.43,14.67 -4.58,5.68 -11.5,12.04 -19.54,19.41z"/>
 </g>
</svg>
