<svg xmlns="http://www.w3.org/2000/svg" width="559" height="346"><defs><linearGradient id="a" x1="46.945%" x2="99.961%" y1="49.999%" y2="49.999%"><stop offset="0%" stop-color="#6161AA"/><stop offset="7.052%" stop-color="#8282D8"/><stop offset="100%" stop-color="#6161AA"/></linearGradient><linearGradient id="b" x1=".008%" x2="99.986%" y1="49.993%" y2="49.993%"><stop offset="0%" stop-color="#8282D8"/><stop offset="40.32%" stop-color="#8282D8"/></linearGradient><linearGradient id="c" x1="0%" y1="50%" y2="50%"><stop offset="0%" stop-color="#D0C4FF" stop-opacity="0"/><stop offset="100%" stop-color="#D0C4FF"/></linearGradient><linearGradient id="d" x1="-.009%" x2="99.997%" y1="49.986%" y2="49.986%"><stop offset="0%" stop-color="#0F9"/><stop offset="100%" stop-color="#35C5CD"/></linearGradient><linearGradient id="e" x1="17642%" x2="17642%" y1="20470%" y2="14722%"><stop offset="0%" stop-color="#0F9"/><stop offset="100%" stop-color="#35C5CD"/></linearGradient><linearGradient id="f" x1="50%" x2="50%" y1="99.998%" y2=".013%"><stop offset="0%" stop-color="#3D386B"/><stop offset="100%" stop-color="#211E39"/></linearGradient><linearGradient id="g" x1="49.999%" x2="49.999%" y1="99.931%" y2="-.137%"><stop offset="0%" stop-color="#FFF"/><stop offset="100%" stop-color="#FFF" stop-opacity="0"/></linearGradient><linearGradient id="h" x1=".02%" x2="99.891%" y1="50.003%" y2="50.003%"><stop offset="0%" stop-color="#0F9"/><stop offset="100%" stop-color="#35C5CD"/></linearGradient><linearGradient id="i" x1="17642%" x2="17642%" y1="15677%" y2="9928%"><stop offset="0%" stop-color="#0F9"/><stop offset="100%" stop-color="#35C5CD"/></linearGradient><linearGradient id="j" x1="17642%" x2="17642%" y1="15677%" y2="9928%"><stop offset="0%" stop-color="#3D386B"/><stop offset="100%" stop-color="#211E39"/></linearGradient><linearGradient id="k" x1="17642%" x2="17642%" y1="15704%" y2="12791%"><stop offset="0%" stop-color="#FFF"/><stop offset="100%" stop-color="#FFF" stop-opacity="0"/></linearGradient><linearGradient id="l" x1="17642%" x2="17642%" y1="10883%" y2="5135%"><stop offset="0%" stop-color="#0F9"/><stop offset="100%" stop-color="#35C5CD"/></linearGradient><linearGradient id="m" x1="17642%" x2="17642%" y1="10911%" y2="7998%"><stop offset="0%" stop-color="#FFF"/><stop offset="100%" stop-color="#FFF" stop-opacity="0"/></linearGradient><linearGradient id="n" x1="10642%" x2="10642%" y1="27566%" y2="21818%"><stop offset="0%" stop-color="#0F9"/><stop offset="100%" stop-color="#35C5CD"/></linearGradient><linearGradient id="o" x1="10642%" x2="10642%" y1="27566%" y2="21818%"><stop offset="0%" stop-color="#3D386B"/><stop offset="100%" stop-color="#211E39"/></linearGradient><linearGradient id="p" x1="10642%" x2="10642%" y1="27594%" y2="24681%"><stop offset="0%" stop-color="#FFF"/><stop offset="100%" stop-color="#FFF" stop-opacity="0"/></linearGradient><linearGradient id="q" x1="10642%" x2="10642%" y1="22773%" y2="17025%"><stop offset="0%" stop-color="#0F9"/><stop offset="100%" stop-color="#35C5CD"/></linearGradient><linearGradient id="r" x1="10642%" x2="10642%" y1="22773%" y2="17025%"><stop offset="0%" stop-color="#3D386B"/><stop offset="100%" stop-color="#211E39"/></linearGradient><linearGradient id="s" x1="10642%" x2="10642%" y1="22801%" y2="19888%"><stop offset="0%" stop-color="#FFF"/><stop offset="100%" stop-color="#FFF" stop-opacity="0"/></linearGradient><linearGradient id="t" x1="10642%" x2="10642%" y1="17979%" y2="12231%"><stop offset="0%" stop-color="#0F9"/><stop offset="100%" stop-color="#35C5CD"/></linearGradient><linearGradient id="u" x1="10642%" x2="10642%" y1="18007%" y2="15094%"><stop offset="0%" stop-color="#FFF"/><stop offset="100%" stop-color="#FFF" stop-opacity="0"/></linearGradient><linearGradient id="v" x1="24642%" x2="24642%" y1="27566%" y2="21818%"><stop offset="0%" stop-color="#0F9"/><stop offset="100%" stop-color="#35C5CD"/></linearGradient><linearGradient id="w" x1="24642%" x2="24642%" y1="27566%" y2="21818%"><stop offset="0%" stop-color="#3D386B"/><stop offset="100%" stop-color="#211E39"/></linearGradient><linearGradient id="x" x1="24642%" x2="24642%" y1="27594%" y2="24681%"><stop offset="0%" stop-color="#FFF"/><stop offset="100%" stop-color="#FFF" stop-opacity="0"/></linearGradient><linearGradient id="y" x1="24642%" x2="24642%" y1="22773%" y2="17025%"><stop offset="0%" stop-color="#0F9"/><stop offset="100%" stop-color="#35C5CD"/></linearGradient><linearGradient id="z" x1="24642%" x2="24642%" y1="22773%" y2="17025%"><stop offset="0%" stop-color="#3D386B"/><stop offset="100%" stop-color="#211E39"/></linearGradient><linearGradient id="A" x1="24642%" x2="24642%" y1="22801%" y2="19888%"><stop offset="0%" stop-color="#FFF"/><stop offset="100%" stop-color="#FFF" stop-opacity="0"/></linearGradient><linearGradient id="B" x1="24642%" x2="24642%" y1="17979%" y2="12231%"><stop offset="0%" stop-color="#0F9"/><stop offset="100%" stop-color="#35C5CD"/></linearGradient><linearGradient id="C" x1="49.986%" x2="49.986%" y1="99.994%" y2="-.039%"><stop offset="0%" stop-color="#A6FFDC"/><stop offset="100%" stop-color="#00C8D4"/></linearGradient><linearGradient id="D" x1="24642%" x2="24642%" y1="18007%" y2="15094%"><stop offset="0%" stop-color="#FFF"/><stop offset="100%" stop-color="#FFF" stop-opacity="0"/></linearGradient><linearGradient id="E" x1="49.941%" x2="49.941%" y1="100%" y2="0%"><stop offset="0%" stop-color="#FFF" stop-opacity="0"/><stop offset="100%" stop-color="#FFF"/></linearGradient></defs><g fill="none"><g opacity=".95"><path fill="url(#a)" d="M558.363 164.966c0-3.925-2.55-7.851-7.739-10.864L298.437 8.125c-10.379-6.025-27.313-6.025-37.6 0L8.648 154.102C3.459 157.115.91 161.041.91 164.966v16.342h.456c-1.457 4.747 1.001 9.86 7.374 13.602l252.187 145.978c10.38 6.025 27.313 6.025 37.6 0L550.716 194.91c6.373-3.651 8.74-8.764 7.375-13.602h.455v-16.342h-.182z"/><path fill="url(#b)" d="M8.649 150.907c-10.379 6.025-10.379 15.794 0 21.82l252.187 145.976c10.38 6.026 27.313 6.026 37.6 0l252.188-145.977c10.379-6.025 10.379-15.794 0-21.819L298.437 4.93c-10.379-6.026-27.313-6.026-37.6 0L8.648 150.907z"/></g><path fill="#15117C" d="M248.32 198.406c-17.092-7.316-17.092-19.39 0-26.836 17.093-7.446 44.982-7.446 62.01 0 17.03 7.445 17.008 19.52 0 26.836-17.007 7.316-44.917 7.316-62.01 0z" opacity=".1"/><path fill="#15117C" d="M202.082 241.01c-16.91-7.24-16.91-19.188 0-26.556 16.909-7.368 44.497-7.368 61.343 0 16.845 7.368 16.824 19.317 0 26.556-16.824 7.24-44.427 7.247-61.343 0z" opacity=".2"/><path fill="url(#c)" d="M5.117 134.407c5.572 8.161 15.62 15.863 30.221 22.314 47.118 20.816 124.415 20.816 171.74 0 14.68-6.451 24.798-14.153 30.378-22.314 3.42-5.002 5.138-10.175 5.138-15.348V22.383c0 5.173-1.718 10.346-5.138 15.348-5.58 8.161-15.678 15.856-30.379 22.314-47.353 20.816-124.65 20.816-171.739 0C20.737 53.615 10.69 45.92 5.117 37.758 1.71 32.757 0 27.583 0 22.383v96.683c0 5.145 1.71 10.34 5.117 15.34z" opacity=".505" transform="rotate(-180 200.297 108.358)"/><path fill="#15117C" d="M300.88 240.398c-18.723-8.052-18.723-21.343 0-29.538 18.725-8.195 49.275-8.195 67.928 0 18.654 8.195 18.63 21.486 0 29.538-18.63 8.053-49.203 8.06-67.927 0z" opacity=".2"/><path fill="url(#d)" d="M172.037 86.52c-.1-5.015-4.515-10.038-13.257-13.876-17.678-7.768-46.653-7.768-64.446 0-8.785 3.838-13.227 8.86-13.32 13.883-.044 2.064.035 24.526 0 26.507-.101 5.133 4.306 10.258 13.32 14.117 17.764 7.637 46.768 7.637 64.446 0 8.936-3.86 13.357-8.984 13.257-14.117-.043-1.988.036-24.43 0-26.514z" transform="translate(158 22)"/><path fill="url(#e)" d="M94.142 101.028c-17.523-7.723-17.523-20.463 0-28.318 17.523-7.856 46.133-7.856 63.57 0 17.438 7.855 17.438 20.595 0 28.318-17.437 7.724-46.047 7.717-63.57 0z" transform="translate(158 22)"/><path fill="url(#f)" d="M13.313 34.055C-4.43 26.4-4.43 13.772 13.313 5.986c17.743-7.786 46.713-7.786 64.37 0 17.658 7.786 17.658 20.414 0 28.07-17.657 7.654-46.627 7.647-64.37 0z" opacity=".6" transform="translate(239 87.606)"/><path fill="url(#g)" d="M45.844 20c-11.598 0-23.203-1.86-32.057-5.58C5.202 10.807.477 5.953.477.753h.468c0 5.074 4.64 9.82 13.076 13.367 17.575 7.387 46.093 7.387 63.582 0C86.096 10.533 90.715 5.727 90.616.593h.469c.106 5.267-4.598 10.18-13.247 13.84C69.033 18.127 57.442 20 45.844 20z" opacity=".7" transform="translate(237.744 107.606)"/><path fill="url(#h)" d="M172.037 53.187c-.1-5.016-4.515-10.038-13.257-13.877-17.678-7.767-46.653-7.767-64.446 0-8.785 3.84-13.227 8.861-13.32 13.883-.044 2.064.035 24.527 0 26.508-.101 5.132 4.306 10.258 13.32 14.117 17.764 7.637 46.768 7.637 64.446 0 8.936-3.86 13.357-8.985 13.257-14.117-.043-1.981.036-24.395 0-26.514z" transform="translate(158 22)"/><path fill="url(#i)" d="M94.142 67.693c-17.523-7.723-17.523-20.462 0-28.317s46.133-7.855 63.57 0c17.438 7.855 17.438 20.594 0 28.317-17.437 7.723-46.047 7.723-63.57 0z" transform="translate(158 22)"/><path fill="url(#j)" d="M13.313 34.097c-17.743-7.656-17.743-20.283 0-28.07 17.743-7.786 46.713-7.786 64.37 0 17.658 7.787 17.658 20.414 0 28.07-17.657 7.655-46.627 7.655-64.37 0z" opacity=".6" transform="translate(239 55.485)"/><path fill="url(#k)" d="M45.844 20c-11.598 0-23.203-1.86-32.057-5.58C5.202 10.807.477 5.953.477.753h.468c0 5.074 4.64 9.82 13.076 13.367 17.575 7.387 46.093 7.387 63.582 0C86.096 10.533 90.715 5.727 90.616.593h.469c.106 5.267-4.598 10.18-13.247 13.84C69.033 18.167 57.442 20 45.844 20z" opacity=".7" transform="translate(237.744 74.273)"/><path fill="url(#h)" d="M172.037 19.855c-.1-5.016-4.514-10.038-13.255-13.877-17.675-7.768-46.645-7.768-64.435 0-8.791 3.825-13.233 8.848-13.334 13.877-.043 2.064.036 24.529 0 26.51-.1 5.133 4.306 10.26 13.32 14.12 17.76 7.636 46.76 7.636 64.435 0 8.935-3.86 13.355-8.987 13.255-14.12-.03-1.988.05-24.446.014-26.51z" transform="translate(158 22)"/><path fill="url(#l)" d="M94.142 34.36c-17.523-7.723-17.523-20.462 0-28.317s46.133-7.855 63.57 0c17.438 7.855 17.438 20.594 0 28.316-17.437 7.723-46.047 7.723-63.57 0z" transform="translate(158 22)"/><path fill="url(#m)" d="M45.844 19.407c-11.598 0-23.203-1.86-32.057-5.58C5.202 10.213.477 5.36.477.16h.468c0 5.073 4.64 9.82 13.076 13.367 17.575 7.386 46.093 7.386 63.582 0C86.096 9.933 90.715 5.127 90.616 0h.469c.106 5.267-4.598 10.18-13.247 13.84-8.805 3.707-20.396 5.567-31.994 5.567z" opacity=".7" transform="translate(237.744 42.152)"/><path fill="url(#h)" d="M121.177 135.007c-.101-5.016-4.514-10.039-13.255-13.878-17.675-7.768-46.646-7.768-64.436 0-8.79 3.84-13.233 8.862-13.333 13.878-.043 2.064.036 24.529 0 26.51-.1 5.133 4.306 10.259 13.319 14.119 17.761 7.637 46.76 7.637 64.436 0 8.934-3.86 13.355-8.986 13.254-14.119-.029-1.981.05-24.425.015-26.51z" transform="translate(158 22)"/><path fill="url(#n)" d="M43.282 149.511c-17.523-7.723-17.523-20.462 0-28.317 17.522-7.855 46.132-7.855 63.57 0 17.438 7.855 17.438 20.594 0 28.317-17.438 7.723-46.048 7.723-63.57 0z" transform="translate(158 22)"/><path fill="url(#o)" d="M13.313 34.028c-17.743-7.656-17.743-20.283 0-28.07 17.743-7.786 46.713-7.786 64.37 0 17.658 7.787 17.658 20.414 0 28.07-17.657 7.655-46.627 7.655-64.37 0z" opacity=".6" transform="translate(188.14 136.697)"/><path fill="url(#p)" d="M45.844 19.96c-11.598 0-23.203-1.86-32.057-5.58C5.202 10.767.477 5.913.477.713h.468c0 5.074 4.64 9.82 13.076 13.367 17.575 7.387 46.093 7.387 63.582 0C86.096 10.493 90.715 5.687 90.616.553h.469c.106 5.267-4.598 10.18-13.247 13.84-8.805 3.707-20.396 5.567-31.994 5.567z" opacity=".7" transform="translate(188.14 156.09)"/><path fill="url(#h)" d="M121.177 101.671c-.101-5.015-4.514-10.037-13.255-13.876-17.675-7.767-46.646-7.767-64.436 0-8.79 3.839-13.233 8.861-13.333 13.883-.043 2.064.036 24.526 0 26.508-.1 5.132 4.306 10.257 13.319 14.117 17.761 7.636 46.76 7.636 64.436 0 8.934-3.86 13.355-8.985 13.254-14.117-.029-1.982.05-24.423.015-26.515z" transform="translate(158 22)"/><path fill="url(#q)" d="M43.282 116.18c-17.523-7.723-17.523-20.463 0-28.319 17.522-7.855 46.132-7.855 63.57 0 17.438 7.856 17.438 20.596 0 28.319-17.438 7.723-46.048 7.716-63.57 0z" transform="translate(158 22)"/><path fill="url(#r)" d="M13.313 34.076c-17.743-7.655-17.743-20.283 0-28.07 17.743-7.785 46.713-7.785 64.37 0 17.658 7.787 17.658 20.415 0 28.07-17.657 7.655-46.627 7.648-64.37 0z" opacity=".6" transform="translate(188.14 103.97)"/><path fill="url(#s)" d="M45.844 20c-11.598 0-23.203-1.86-32.057-5.58C5.202 10.807.477 5.953.477.753h.468c0 5.074 4.64 9.82 13.076 13.367 17.575 7.387 46.093 7.387 63.582 0C86.096 10.533 90.715 5.727 90.616.593h.469c.106 5.267-4.598 10.18-13.247 13.84C69.033 18.147 57.442 20 45.844 20z" opacity=".7" transform="translate(188.14 123.364)"/><path fill="url(#h)" d="M121.177 68.34c-.101-5.016-4.514-10.038-13.255-13.878-17.675-7.768-46.646-7.768-64.436 0-8.79 3.805-13.233 8.828-13.333 13.878-.043 2.064.036 24.529 0 26.51-.1 5.133 4.306 10.26 13.319 14.119 17.761 7.637 46.76 7.637 64.436 0 8.934-3.86 13.355-8.986 13.254-14.119-.029-2.009.05-24.446.015-26.51z" transform="translate(158 22)"/><path fill="url(#t)" d="M43.282 82.844c-17.523-7.722-17.523-20.461 0-28.316 17.522-7.855 46.132-7.855 63.57 0 17.438 7.855 17.438 20.594 0 28.316-17.438 7.723-46.048 7.723-63.57 0z" transform="translate(158 22)"/><path fill="url(#u)" d="M45.844 19.97c-11.598 0-23.203-1.91-32.057-5.728C5.202 10.534.477 5.552.477.215h.468c0 5.207 4.64 10.08 13.076 13.72 17.575 7.581 46.093 7.581 63.582 0C86.096 10.253 90.715 5.32 90.616.05h.469c.106 5.406-4.598 10.449-13.247 14.205-8.805 3.805-20.396 5.714-31.994 5.714z" opacity=".7" transform="translate(188.14 90.636)"/><path fill="url(#h)" d="M221.638 135.005c-.1-5.016-4.514-10.038-13.256-13.877-17.677-7.767-46.651-7.767-64.443 0-8.785 3.84-13.228 8.861-13.321 13.884-.043 2.064.036 24.526 0 26.507-.1 5.132 4.306 10.258 13.32 14.117 17.764 7.637 46.767 7.637 64.444 0 8.935-3.86 13.356-8.985 13.256-14.117-.036-1.988.043-24.43 0-26.514z" transform="translate(158 22)"/><path fill="url(#v)" d="M143.747 149.511c-17.523-7.723-17.523-20.462 0-28.317 17.522-7.855 46.132-7.855 63.57 0 17.438 7.855 17.438 20.594 0 28.317-17.438 7.723-46.048 7.723-63.57 0z" transform="translate(158 22)"/><path fill="url(#w)" d="M13.313 34.028c-17.743-7.656-17.743-20.283 0-28.07 17.743-7.786 46.713-7.786 64.37 0 17.658 7.787 17.658 20.414 0 28.07-17.657 7.655-46.627 7.655-64.37 0z" opacity=".6" transform="translate(288.605 136.697)"/><path fill="url(#x)" d="M45.844 19.96c-11.598 0-23.203-1.86-32.057-5.58C5.202 10.767.477 5.913.477.713h.468c0 5.074 4.64 9.82 13.076 13.367 17.575 7.387 46.093 7.387 63.582 0C86.096 10.493 90.715 5.687 90.616.553h.469c.106 5.267-4.598 10.18-13.247 13.84-8.812 3.707-20.396 5.567-31.994 5.567z" opacity=".7" transform="translate(287.349 156.09)"/><path fill="url(#h)" d="M221.638 101.671c-.1-5.015-4.514-10.037-13.256-13.876-17.677-7.767-46.651-7.767-64.443 0-8.785 3.839-13.228 8.861-13.321 13.883-.043 2.064.036 24.526 0 26.508-.1 5.132 4.306 10.257 13.32 14.117 17.764 7.636 46.767 7.636 64.444 0 8.935-3.86 13.356-8.985 13.256-14.117-.036-1.982.043-24.423 0-26.515z" transform="translate(158 22)"/><path fill="url(#y)" d="M143.747 116.18c-17.523-7.723-17.523-20.463 0-28.319 17.522-7.855 46.132-7.855 63.57 0 17.438 7.856 17.438 20.596 0 28.319-17.438 7.723-46.048 7.716-63.57 0z" transform="translate(158 22)"/><path fill="url(#z)" d="M13.313 34.076c-17.743-7.655-17.743-20.283 0-28.07 17.743-7.785 46.713-7.785 64.37 0 17.658 7.787 17.658 20.415 0 28.07-17.657 7.655-46.627 7.648-64.37 0z" opacity=".6" transform="translate(288.605 103.97)"/><path fill="url(#A)" d="M45.844 20c-11.598 0-23.203-1.86-32.057-5.58C5.202 10.807.477 5.953.477.753h.468c0 5.074 4.64 9.82 13.076 13.367 17.575 7.387 46.093 7.387 63.582 0C86.096 10.533 90.715 5.727 90.616.593h.469c.106 5.267-4.598 10.18-13.247 13.84C69.026 18.147 57.442 20 45.844 20z" opacity=".7" transform="translate(287.349 123.364)"/><path fill="url(#h)" d="M221.638 68.34c-.1-5.016-4.514-10.038-13.255-13.878-17.676-7.768-46.648-7.768-64.438 0-8.784 3.805-13.227 8.828-13.327 13.878-.043 2.064.036 24.529 0 26.51-.1 5.133 4.306 10.26 13.32 14.119 17.762 7.637 46.762 7.637 64.438 0 8.935-3.86 13.355-8.986 13.255-14.119-.029-2.009.05-24.446.007-26.51z" transform="translate(158 22)"/><path fill="url(#B)" d="M143.747 82.844c-17.523-7.722-17.523-20.461 0-28.316 17.522-7.855 46.132-7.855 63.57 0 17.438 7.855 17.438 20.594 0 28.316-17.438 7.723-46.048 7.723-63.57 0z" transform="translate(158 22)"/><path fill="url(#B)" d="M144.142 83.208c-17.523-7.723-17.523-20.462 0-28.317s46.133-7.855 63.57 0c17.438 7.855 17.438 20.594 0 28.317-17.437 7.723-46.047 7.723-63.57 0z" transform="translate(158 22)"/><path fill="url(#C)" d="M220.725 69c.612 5.458-3.793 11.025-13.215 15.208-17.695 7.855-46.587 7.855-64.196 0-9.377-4.183-13.76-9.75-13.151-15.208.535 4.796 4.918 9.535 13.151 13.208 17.61 7.855 46.5 7.855 64.196 0 8.272-3.673 12.677-8.412 13.215-13.208zm1 34c.617 5.458-3.823 11.025-13.32 15.208-17.833 7.855-46.952 7.855-64.7 0-9.45-4.183-13.868-9.75-13.254-15.208.539 4.796 4.957 9.535 13.254 13.208 17.748 7.855 46.867 7.855 64.7 0 8.339-3.673 12.778-8.412 13.32-13.208zm0 33c.617 5.458-3.823 11.025-13.32 15.208-17.833 7.855-46.952 7.855-64.7 0-9.45-4.183-13.868-9.75-13.254-15.208.539 4.796 4.957 9.535 13.254 13.208 17.748 7.855 46.867 7.855 64.7 0 8.339-3.673 12.778-8.412 13.32-13.208zm-101-67c.612 5.458-3.793 11.025-13.215 15.208-17.695 7.855-46.587 7.855-64.196 0-9.377-4.183-13.76-9.75-13.151-15.208.535 4.796 4.918 9.535 13.151 13.208 17.61 7.855 46.5 7.855 64.196 0 8.272-3.673 12.677-8.412 13.215-13.208zm.66 33c.615 5.458-3.809 11.025-13.27 15.208-17.768 7.855-46.778 7.855-64.46 0-9.414-4.183-13.816-9.75-13.204-15.208.537 4.796 4.938 9.535 13.205 13.208 17.681 7.855 46.691 7.855 64.46 0 8.306-3.673 12.73-8.412 13.269-13.208zm0 33c.615 5.458-3.809 11.025-13.27 15.208-17.768 7.855-46.778 7.855-64.46 0-9.414-4.183-13.816-9.75-13.204-15.208.537 4.796 4.938 9.535 13.205 13.208 17.681 7.855 46.691 7.855 64.46 0 8.306-3.673 12.73-8.412 13.269-13.208z" transform="translate(158 22)"/><path fill="url(#D)" d="M46.012 19.919c-11.689 0-23.385-1.91-32.31-5.727C5.05 10.482.288 5.502.288.164H.76c0 5.207 4.677 10.08 13.179 13.72 17.713 7.581 46.456 7.581 64.082 0C86.581 10.202 91.236 5.269 91.136 0h.472c.108 5.406-4.634 10.449-13.35 14.205C69.376 18.01 57.7 19.92 46.012 19.92z" opacity=".7" transform="translate(289.349 90.636)"/><path fill="url(#c)" d="M5.117 112.024c5.572 8.161 15.62 15.863 30.221 22.314 47.118 20.816 124.415 20.816 171.74 0 14.68-6.451 24.798-14.153 30.378-22.314 3.42-5.002 5.138-10.175 5.138-15.348V0c0 5.173-1.718 10.346-5.138 15.348-5.58 8.161-15.678 15.856-30.379 22.314-47.353 20.816-124.65 20.816-171.739 0-14.601-6.43-24.649-14.125-30.221-22.287C1.71 10.374 0 5.201 0 0v96.683c0 5.146 1.71 10.34 5.117 15.34z" opacity=".505" transform="translate(158 87)"/><path fill="url(#E)" d="M20 98.66a228.652 228.652 0 0 0 30.227-5.55L68.035 0a187.874 187.874 0 0 1-33.95 9.082L20 98.659zM7.064 12.323L0 100.248c3.556-.16 7.088-.389 10.596-.686L20.93 11c-4.577.562-9.176.974-13.866 1.324z" opacity=".6" transform="translate(291.744 132.848)"/></g></svg>