<?xml version="1.0" encoding="UTF-8"?>
<!DOCTYPE svg PUBLIC "-//W3C//DTD SVG 1.1//EN" "http://www.w3.org/Graphics/SVG/1.1/DTD/svg11.dtd">
<!-- Creator: CorelDRAW 2019 (64-Bit) -->
<svg xmlns="http://www.w3.org/2000/svg" xml:space="preserve" width="126.998mm" height="14.8975mm" version="1.1" style="shape-rendering:geometricPrecision; text-rendering:geometricPrecision; image-rendering:optimizeQuality; fill-rule:evenodd; clip-rule:evenodd"
viewBox="0 0 1236.63 145.06"
 xmlns:xlink="http://www.w3.org/1999/xlink"
 xmlns:xodm="http://www.corel.com/coreldraw/odm/2003">
 <defs>
  <style type="text/css">
   <![CDATA[
    .fil2 {fill:#375AEC}
    .fil4 {fill:white}
    .fil0 {fill:#1B1B38;fill-rule:nonzero}
    .fil1 {fill:#1B1B38;fill-rule:nonzero}
    .fil3 {fill:white;fill-rule:nonzero}
   ]]>
  </style>
 </defs>
 <g id="Capa_x0020_1">
  <metadata id="CorelCorpID_0Corel-Layer"/>
  <path class="fil0" d="M206.14 30.12c-8.01,-18.25 -26,-29.67 -45.82,-29.67 -27.44,0 -50.28,22.71 -50.28,50.15 0,27.7 22.84,50.94 50.68,50.94 18.91,0 37.42,-11.42 44.9,-29.01l-20.87 0c-6.83,7.48 -13.92,12.21 -24.42,12.21 -17.99,0 -32.3,-16.41 -32.3,-33.87 0,-17.2 13.79,-33.61 31.64,-33.61 10.76,0 19.17,4.86 26,12.87l20.48 0zm73.31 32.82c0,-21.4 -17.07,-38.73 -38.6,-38.73 -21.53,0 -38.86,17.59 -38.86,38.99 0,21.27 17.59,38.73 38.86,38.73 22.06,0 38.6,-16.94 38.6,-38.99zm-17.46 0.39c0,11.95 -8.8,22.58 -21.14,22.58 -12.6,0 -21.4,-10.5 -21.4,-22.71 0,-11.82 9.06,-22.97 21.4,-22.97 12.34,0 21.14,11.42 21.14,23.11zm92.61 36.23l0 -97.15 -17.46 0 0 30.72c-6.17,-6.56 -13.13,-8.93 -22.06,-8.93 -4.99,0 -9.85,1.18 -14.31,3.15 -14.44,6.43 -22.84,20.22 -22.84,35.84 0,20.74 15.89,38.73 37.15,38.73 8.93,0 18.38,-3.54 23.24,-11.29l0.26 0 0 8.93 16.02 0zm-16.15 -36.5c0,11.95 -9.19,22.84 -21.53,22.84 -12.74,0 -21.53,-11.29 -21.53,-23.37 0,-11.55 9.72,-22.32 21.53,-22.32 12.34,0 21.53,10.9 21.53,22.84l0 0zm92.48 -0.92c0,-21.14 -16.41,-37.94 -37.68,-37.94 -22.06,0 -38.34,17.33 -38.34,39.13 0,21.66 16.67,38.6 38.47,38.6 15.49,0 30.46,-10.5 35.19,-25.34l-18.38 0c-3.55,6.43 -9.72,9.32 -16.8,9.32 -7.22,0 -13.79,-3.68 -17.72,-9.72 -1.05,-1.58 -1.97,-3.28 -2.36,-5.25l56.59 0c0.66,-2.89 1.05,-5.91 1.05,-8.8zm-17.86 -5.25l-40.31 0c2.5,-10.37 9.98,-16.67 20.61,-16.67 10.63,0 17.99,6.17 19.69,16.67zm327.37 42.67l0 -97.15 -17.99 0 0 39.52 -34.79 0 0 -39.52 -17.99 0 0 97.15 17.99 0 0 -40.83 34.79 0 0 40.83 17.99 0zm80.4 0l0 -72.87 -16.02 0 0 9.19 -0.26 0c-0.66,-1.05 -1.84,-2.23 -2.63,-3.02 -5.91,-5.38 -13.52,-8.67 -21.53,-8.67 -21.53,0 -36.5,17.59 -36.5,38.47 0,20.74 13.52,39.25 35.45,39.25 8.93,0 19.69,-4.59 25.47,-11.42l0 9.06 16.02 0zm-16.54 -36.63c0,12.47 -8.27,22.98 -21.27,22.98 -12.47,0 -21.66,-10.24 -21.66,-22.45 0,-12.47 8.66,-23.24 21.66,-23.24 12.87,0 21.27,10.24 21.27,22.71l0 0zm55.06 -21.79l0 -16.94c-8.67,0 -12.21,1.84 -17.07,8.93l-0.26 0 0 -6.43 -16.02 0 0 72.87 17.46 0 0 -40.96c0,-10.63 4.46,-17.07 15.89,-17.46zm68.71 58.42l0 -97.15 -17.46 0 0 30.72c-6.17,-6.56 -13.13,-8.93 -22.06,-8.93 -4.99,0 -9.85,1.18 -14.31,3.15 -14.44,6.43 -22.84,20.22 -22.84,35.84 0,20.74 15.88,38.73 37.15,38.73 8.93,0 18.38,-3.54 23.24,-11.29l0.26 0 0 8.93 16.02 0zm-16.15 -36.5c0,11.95 -9.19,22.84 -21.53,22.84 -12.74,0 -21.53,-11.29 -21.53,-23.37 0,-11.55 9.72,-22.32 21.53,-22.32 12.34,0 21.53,10.9 21.53,22.84l0 0zm115.98 -36.37l-18.64 0 -13.39 44.51 -0.26 0 -11.82 -44.51 -13.92 0 -11.95 44.51 -0.26 0 -13.26 -44.51 -18.64 0 26.26 72.87 10.76 0 13.79 -47.26 0.26 0 13.65 47.26 10.77 0 26.65 -72.87zm72.65 72.87l0 -72.87 -16.02 0 0 9.19 -0.26 0c-0.66,-1.05 -1.84,-2.23 -2.63,-3.02 -5.91,-5.38 -13.52,-8.67 -21.53,-8.67 -21.53,0 -36.5,17.59 -36.5,38.47 0,20.74 13.52,39.25 35.45,39.25 8.93,0 19.69,-4.59 25.47,-11.42l0 9.06 16.02 0zm-16.54 -36.63c0,12.47 -8.27,22.98 -21.27,22.98 -12.47,0 -21.66,-10.24 -21.66,-22.45 0,-12.47 8.67,-23.24 21.66,-23.24 12.87,0 21.27,10.24 21.27,22.71l0 0zm55.06 -21.79l0 -16.94c-8.67,0 -12.21,1.84 -17.07,8.93l-0.26 0 0 -6.43 -16.02 0 0 72.87 17.46 0 0 -40.96c0,-10.63 4.46,-17.07 15.88,-17.46zm67.66 21.01c0,-21.14 -16.41,-37.94 -37.68,-37.94 -22.06,0 -38.34,17.33 -38.34,39.13 0,21.66 16.67,38.6 38.47,38.6 15.49,0 30.46,-10.5 35.19,-25.34l-18.38 0c-3.55,6.43 -9.72,9.32 -16.8,9.32 -7.22,0 -13.79,-3.68 -17.72,-9.72 -1.05,-1.58 -1.97,-3.28 -2.36,-5.25l56.59 0c0.66,-2.89 1.05,-5.91 1.05,-8.8zm-17.86 -5.25l-40.31 0c2.49,-10.37 9.98,-16.67 20.61,-16.67 10.63,0 17.99,6.17 19.69,16.67zm39.57 42.67l0 -17.46 -17.46 0 0 17.46 17.46 0z"/>
  <path class="fil1" d="M509.18 29.33l-9.72 0 0 14.84c-3.41,-8.01 -13.79,-16.81 -28.88,-16.81 -21.53,0 -36.63,16.54 -36.63,37.29 0,19.43 13.65,37.29 36.63,37.29 12.6,0 23.37,-5.91 28.88,-16.54l0 14.57 9.72 0 0 -70.63zm-65.64 35.32c0,-15.75 11.82,-28.36 28.09,-28.36 12.47,0 21.93,7.22 25.87,16.94 1.58,3.41 2.36,7.35 2.23,11.29 0,3.81 -0.79,7.75 -2.36,11.16 -3.81,9.98 -13,17.2 -25.47,17.2 -19.43,0 -28.23,-15.36 -28.36,-28.1l0 -0.13zm75.01 35.32l9.71 0 0 -39.91c0,-14.7 8.4,-23.5 22.98,-23.63 15.89,-0.26 22.71,10.11 22.71,25.34l0 38.2 9.58 0 0 -40.17c0,-17.2 -7.75,-32.17 -29.67,-32.43 -12.6,-0.26 -22.19,5.38 -26.26,14.57 0.13,-4.73 0.13,-8.67 0.13,-12.6l-9.19 0 0 70.63zm144.86 -97.16l-9.71 0 0 25.87 0 14.97c-3.15,-7.35 -13.39,-16.28 -28.88,-16.28 -21.14,0 -36.37,16.15 -36.37,37.16 0,19.83 13.92,37.42 36.5,37.42 14.71,0 24.16,-7.22 29.15,-16.54l0 14.57 9.32 0 0 -97.16zm-65.38 61.71c0,-15.89 11.95,-28.23 28.23,-28.23 7.88,0 14.97,3.02 19.96,8.14 5.12,4.99 8.14,11.82 8.14,19.83 0.26,7.88 -2.76,15.1 -7.88,20.35 -4.99,5.12 -12.21,8.27 -20.09,8.27 -18.38,0 -28.23,-14.05 -28.36,-28.23l0 -0.13z"/>
  <path class="fil1" d="M669.58 137.27l8.59 0c9.51,0 14.36,-5.65 14.36,-14.17 0,-4.01 -1.11,-7.33 -3.4,-9.86 -2.83,-3.36 -7.1,-4.24 -11.12,-4.24l-8.44 0 0 28.26zm3.13 -25.48l5.61 0c3.86,0 6.49,1.26 8.29,3.17 1.87,2.06 2.75,4.97 2.75,8.25 0,6.8 -3.78,11.27 -11.04,11.27l-5.61 0 0 -22.69zm45.23 16c0.31,-3.28 -0.84,-6.45 -3.21,-8.75 -1.95,-1.87 -4.62,-2.9 -7.52,-2.9 -6.15,0 -10.81,4.85 -10.81,10.89 0,5.12 3.71,10.81 10.85,10.81 2.1,0 4.12,-0.57 5.84,-1.68 1.76,-1.11 3.21,-2.79 4.16,-5l-2.94 0c-1.34,2.67 -3.9,4.24 -7.07,4.24 -3.48,0.04 -7.87,-2.44 -8.02,-7.6l18.72 0zm-18.68 -2.25c0.27,-3.74 3.55,-6.99 7.98,-6.99 4.24,-0.11 7.71,3.4 7.91,6.99l-15.89 0zm39.84 -8.82l-2.98 0 -6.57 17.07 -6.61 -17.07 -2.98 0 8.1 20.55 2.94 0 8.1 -20.55zm23.27 11.08c0.31,-3.28 -0.84,-6.45 -3.21,-8.75 -1.95,-1.87 -4.62,-2.9 -7.52,-2.9 -6.15,0 -10.81,4.85 -10.81,10.89 0,5.12 3.71,10.81 10.85,10.81 2.1,0 4.12,-0.57 5.84,-1.68 1.76,-1.11 3.21,-2.79 4.16,-5l-2.94 0c-1.34,2.67 -3.9,4.24 -7.07,4.24 -3.48,0.04 -7.87,-2.44 -8.02,-7.6l18.72 0zm-18.68 -2.25c0.27,-3.74 3.55,-6.99 7.98,-6.99 4.24,-0.11 7.71,3.4 7.91,6.99l-15.89 0zm23.84 11.73l2.83 0 0 -28.26 -2.83 0 0 28.26zm8.18 -10.27c0,5.77 4.28,10.81 10.89,10.81 6.65,0 10.92,-5.04 10.92,-10.81 0,-5.77 -4.28,-10.85 -10.92,-10.85 -6.61,0 -10.89,5.08 -10.89,10.81l0 0.04zm2.79 0c0,-4.7 3.55,-8.21 8.1,-8.21 4.58,0 8.1,3.51 8.1,8.21 0,4.7 -3.51,8.21 -8.1,8.21 -4.55,0 -8.1,-3.51 -8.1,-8.17l0 -0.04zm24.41 18.07l2.83 0 0 -7.79 0 -4.2c0.95,2.14 3.9,4.77 8.44,4.77 6.38,0 10.54,-5.04 10.54,-10.77 0,-5.31 -3.63,-10.92 -10.54,-10.92 -3.93,0 -6.91,1.87 -8.59,4.85l0 -4.28 -2.67 0 0 28.34zm18.98 -18.07c0,4.7 -3.55,8.21 -8.17,8.21 -2.29,0 -4.35,-0.88 -5.81,-2.33 -1.49,-1.49 -2.37,-3.55 -2.37,-5.84 0,-2.33 0.88,-4.39 2.29,-5.88 1.49,-1.49 3.51,-2.41 5.81,-2.41 5.54,0 8.25,4.35 8.25,8.21l0 0.04zm8.3 10.27l2.83 0 0 -11.46c0,-2.18 0.5,-3.74 1.37,-4.93 0.84,-1.22 2.44,-2.18 4.35,-2.1 2.1,0.04 3.55,0.84 4.51,2.18 0.8,1.26 1.15,2.6 1.07,4.89l0 11.42 2.83 0 0 -11.42c0,-2.33 0.19,-3.48 1.22,-4.93 0.96,-1.41 2.71,-2.14 4.51,-2.14 1.95,0 3.25,0.65 4.09,1.72 1.18,1.34 1.53,3.29 1.53,5.46l0 11.31 2.83 0 0 -11.42c0,-3.63 -0.54,-5.84 -2.33,-7.64 -1.41,-1.45 -3.44,-2.06 -5.54,-2.06 -2.29,0 -4.32,0.88 -5.65,2.29 -0.76,0.8 -1.18,1.6 -1.49,2.18 -0.11,-0.23 -0.8,-1.6 -1.34,-2.14 -1.45,-1.64 -3.48,-2.33 -5.61,-2.33 -2.33,0 -5.19,1.22 -6.49,3.82l0 -3.25 -2.67 0 0 20.55zm57.64 -9.47c0.31,-3.28 -0.84,-6.45 -3.21,-8.75 -1.95,-1.87 -4.62,-2.9 -7.52,-2.9 -6.15,0 -10.81,4.85 -10.81,10.89 0,5.12 3.71,10.81 10.85,10.81 2.1,0 4.12,-0.57 5.84,-1.68 1.76,-1.11 3.21,-2.79 4.16,-5l-2.94 0c-1.34,2.67 -3.9,4.24 -7.07,4.24 -3.48,0.04 -7.87,-2.44 -8.02,-7.6l18.72 0zm-18.68 -2.25c0.27,-3.74 3.55,-6.99 7.98,-6.99 4.24,-0.11 7.71,3.4 7.91,6.99l-15.89 0zm23.84 11.73l2.83 0 0 -11.61c0,-4.28 2.44,-6.84 6.68,-6.88 4.62,-0.08 6.61,2.94 6.61,7.37l0 11.11 2.79 0 0 -11.69c0,-5 -2.25,-9.36 -8.63,-9.43 -3.67,-0.08 -6.45,1.57 -7.64,4.24 0.04,-1.38 0.04,-2.52 0.04,-3.67l-2.67 0 0 20.55zm27.13 0l2.79 0 0 -18.3 4.51 0 0 -2.25 -4.51 0 0 -7.72 -2.79 0 0 7.72 -4.05 0 0 2.25 4.05 0 0 18.3zm43.17 -20.55l-2.83 0 0 4.32c-0.99,-2.33 -4.01,-4.89 -8.4,-4.89 -6.26,0 -10.66,4.81 -10.66,10.85 0,5.65 3.97,10.85 10.66,10.85 3.67,0 6.8,-1.72 8.4,-4.81l0 4.24 2.83 0 0 -20.55zm-19.1 10.27c0,-4.58 3.44,-8.25 8.17,-8.25 3.63,0 6.38,2.1 7.53,4.93 0.46,0.99 0.69,2.14 0.65,3.28 0,1.11 -0.23,2.25 -0.69,3.25 -1.11,2.9 -3.78,5 -7.41,5 -5.65,0 -8.21,-4.47 -8.25,-8.17l0 -0.04zm25.75 10.27l2.83 0 0 -11.61c0,-4.28 2.44,-6.84 6.68,-6.88 4.62,-0.08 6.61,2.94 6.61,7.37l0 11.11 2.79 0 0 -11.69c0,-5 -2.25,-9.36 -8.63,-9.43 -3.67,-0.08 -6.45,1.57 -7.64,4.24 0.04,-1.38 0.04,-2.52 0.04,-3.67l-2.67 0 0 20.55zm46.07 -28.26l-2.83 0 0 7.53 0 4.35c-0.92,-2.14 -3.9,-4.74 -8.4,-4.74 -6.15,0 -10.58,4.7 -10.58,10.81 0,5.77 4.05,10.89 10.62,10.89 4.28,0 7.03,-2.1 8.48,-4.81l0 4.24 2.71 0 0 -28.26zm-19.02 17.95c0,-4.62 3.48,-8.21 8.21,-8.21 2.29,0 4.35,0.88 5.81,2.37 1.49,1.45 2.37,3.44 2.37,5.77 0.08,2.29 -0.8,4.39 -2.29,5.92 -1.45,1.49 -3.55,2.41 -5.84,2.41 -5.35,0 -8.21,-4.09 -8.25,-8.21l0 -0.04zm36.56 10.31l3.17 0 0 -25.48 4.43 0c2.56,0 4.32,0.11 5.73,1.03 1.76,1.15 2.79,3.36 2.79,5.46 0,2.02 -0.65,3.74 -2.14,5.19 -1.53,1.41 -4.28,1.45 -6.26,1.45l-0.92 0 7.98 12.34 3.44 0 -7.03 -10.58c2.6,-0.27 4.62,-0.8 6.3,-3.09 1.18,-1.6 1.72,-3.63 1.68,-5.54 0,-3.21 -1.57,-6.23 -3.86,-7.6 -1.45,-0.92 -3.51,-1.45 -7.94,-1.45l-7.37 0 0 28.26zm43.74 -9.47c0.31,-3.28 -0.84,-6.45 -3.21,-8.75 -1.95,-1.87 -4.62,-2.9 -7.52,-2.9 -6.15,0 -10.81,4.85 -10.81,10.89 0,5.12 3.71,10.81 10.85,10.81 2.1,0 4.12,-0.57 5.84,-1.68 1.76,-1.11 3.21,-2.79 4.16,-5l-2.94 0c-1.34,2.67 -3.9,4.24 -7.07,4.24 -3.48,0.04 -7.87,-2.44 -8.02,-7.6l18.72 0zm-18.68 -2.25c0.27,-3.74 3.55,-6.99 7.98,-6.99 4.24,-0.11 7.71,3.4 7.91,6.99l-15.89 0zm35.87 -3.67c-0.19,-4.16 -3.4,-5.73 -6.26,-5.73 -3.48,0 -6.42,2.18 -6.42,5.88 0.08,3.25 2.37,4.43 5.31,5.31 3.55,1.03 5.08,1.99 5.16,4.32 0.04,2.1 -1.6,3.86 -3.97,3.86 -2.06,0 -4.16,-1.26 -4.28,-4.09l-2.79 0c0.04,4.32 3.71,6.42 7.03,6.42 3.9,0 6.95,-2.75 6.8,-6.53 -0.15,-4.39 -3.44,-5.23 -6.38,-6.04 -2.48,-0.73 -3.97,-1.53 -4.05,-3.48 -0.08,-1.8 1.3,-3.32 3.55,-3.32 2.06,0 3.51,1.22 3.51,3.4l2.79 0zm5.05 5.12c0,5.77 4.28,10.81 10.89,10.81 6.65,0 10.92,-5.04 10.92,-10.81 0,-5.77 -4.28,-10.85 -10.92,-10.85 -6.61,0 -10.89,5.08 -10.89,10.81l0 0.04zm2.79 0c0,-4.7 3.55,-8.21 8.1,-8.21 4.58,0 8.1,3.51 8.1,8.21 0,4.7 -3.51,8.21 -8.1,8.21 -4.55,0 -8.1,-3.51 -8.1,-8.17l0 -0.04zm43.32 -10.27l-2.83 0 0 11.61c0,4.28 -2.44,6.84 -6.72,6.88 -4.62,0.04 -6.61,-2.94 -6.61,-7.37l0 -11.11 -2.79 0 0 11.65c0,5 2.25,9.36 8.67,9.47 3.67,0.04 6.45,-1.57 7.6,-4.24l0 3.67 2.67 0 0 -20.55zm6.65 20.55l2.79 0 0 -11.19c0,-4.66 2.22,-7.14 6.19,-7.14l0.27 0 0 -2.79c-2.41,0.08 -5.08,0.88 -6.57,3.93l0 -3.36 -2.67 0 0 20.55zm28.92 -6.95c-0.88,2.48 -3.51,4.85 -7.45,4.89 -4.43,0 -8.1,-3.36 -8.1,-8.21 0,-2.37 0.96,-4.58 2.33,-5.92 1.72,-1.6 3.4,-2.33 5.81,-2.33 2.9,0 6.15,1.6 7.45,5.08l2.9 0c-1.41,-4.93 -5.84,-7.68 -10.47,-7.68 -6.23,0 -10.85,4.77 -10.85,10.85 0,5.5 4.09,10.85 11.04,10.85 4.93,0 8.94,-3.17 10.27,-7.52l-2.94 0zm28.12 -2.52c0.31,-3.28 -0.84,-6.45 -3.21,-8.75 -1.95,-1.87 -4.62,-2.9 -7.52,-2.9 -6.15,0 -10.81,4.85 -10.81,10.89 0,5.12 3.71,10.81 10.85,10.81 2.1,0 4.12,-0.57 5.84,-1.68 1.76,-1.11 3.21,-2.79 4.16,-5l-2.94 0c-1.34,2.67 -3.9,4.24 -7.07,4.24 -3.48,0.04 -7.87,-2.44 -8.02,-7.6l18.72 0zm-18.68 -2.25c0.27,-3.74 3.55,-6.99 7.98,-6.99 4.24,-0.11 7.71,3.4 7.91,6.99l-15.89 0zm35.87 -3.67c-0.19,-4.16 -3.4,-5.73 -6.26,-5.73 -3.48,0 -6.42,2.18 -6.42,5.88 0.08,3.25 2.37,4.43 5.31,5.31 3.55,1.03 5.08,1.99 5.16,4.32 0.04,2.1 -1.6,3.86 -3.97,3.86 -2.06,0 -4.16,-1.26 -4.28,-4.09l-2.79 0c0.04,4.32 3.71,6.42 7.03,6.42 3.9,0 6.95,-2.75 6.8,-6.53 -0.15,-4.39 -3.44,-5.23 -6.38,-6.04 -2.48,-0.73 -3.97,-1.53 -4.05,-3.48 -0.08,-1.8 1.3,-3.32 3.55,-3.32 2.06,0 3.51,1.22 3.51,3.4l2.79 0zm10.09 11.19l-2.98 0 0 4.2 2.98 0 0 -4.2z"/>
  <g id="_1516200381264">
   <path class="fil2" d="M10.04 0l81.14 0c5.52,0 10.04,4.52 10.04,10.04l0 81.14c0,5.52 -4.52,10.04 -10.04,10.04l-81.14 0c-5.52,0 -10.04,-4.52 -10.04,-10.04l0 -81.14c0,-5.52 4.52,-10.04 10.04,-10.04z"/>
   <path class="fil3" d="M36.88 88.92l0 -7.35 -3.67 0c-2.94,0 -3.35,-3.02 -3.35,-5.31l0 -17.31c0,-6.78 -4.41,-8.25 -10.21,-8.57l0 -0.25c4.9,-0.16 10.21,-1.96 10.21,-7.84l0 -17.31c0,-2.29 0.41,-5.31 3.35,-5.31l3.67 0 0 -7.35 -7.35 0c-1.22,0 -2.53,0.41 -3.67,0.9 -4.33,1.8 -7.19,5.55 -7.19,10.37l0 17.64c0,4 -4.74,4.98 -7.92,4.98l0 8.08c3.59,0 7.92,1.39 7.92,5.72l0 17.64c0,4.82 2.86,8.57 7.19,10.37 1.14,0.49 2.45,0.9 3.67,0.9l7.35 0zm53.6 -34.63l0 -8.08c-3.19,0 -7.92,-0.98 -7.92,-4.98l0 -17.64c0,-4.82 -2.86,-8.58 -7.19,-10.37 -1.14,-0.49 -2.45,-0.9 -3.67,-0.9l-7.35 0 0 7.35 3.67 0c2.94,0 3.35,3.02 3.35,5.31l0 17.31c0,5.88 5.31,7.68 10.21,7.84l0 0.25c-5.8,0.33 -10.21,1.8 -10.21,8.57l0 17.31c0,2.29 -0.41,5.31 -3.35,5.31l-3.67 0 0 7.35 7.35 0c1.22,0 2.53,-0.41 3.67,-0.9 4.33,-1.8 7.19,-5.55 7.19,-10.37l0 -17.64c0,-4.33 4.33,-5.72 7.92,-5.72z"/>
   <path class="fil4" d="M36.21 46.23l29.42 0c0.71,0 1.3,0.58 1.3,1.3l0 6.17c0,0.71 -0.58,1.3 -1.3,1.3l-29.42 0c-0.71,0 -1.3,-0.58 -1.3,-1.3l0 -6.17c0,-0.71 0.58,-1.3 1.3,-1.3z"/>
  </g>
 </g>
</svg>
