<?xml version="1.0" encoding="UTF-8"?>
<!DOCTYPE svg PUBLIC "-//W3C//DTD SVG 1.1//EN" "http://www.w3.org/Graphics/SVG/1.1/DTD/svg11.dtd">
<!-- Creator: CorelDRAW 2019 (64-Bit) -->
<svg xmlns="http://www.w3.org/2000/svg" xml:space="preserve" width="1.17703in" height="1.17703in" version="1.1" style="shape-rendering:geometricPrecision; text-rendering:geometricPrecision; image-rendering:optimizeQuality; fill-rule:evenodd; clip-rule:evenodd"
viewBox="0 0 87.89 87.89"
 xmlns:xlink="http://www.w3.org/1999/xlink"
 xmlns:xodm="http://www.corel.com/coreldraw/odm/2003">
 <defs>
  <style type="text/css">
   <![CDATA[
    .str0 {stroke:white;stroke-width:1.56;stroke-miterlimit:2.61313}
    .fil3 {fill:none}
    .fil0 {fill:black}
    .fil4 {fill:#383A5B}
    .fil1 {fill:white}
    .fil6 {fill:white}
    .fil5 {fill:url(#id0)}
    .fil2 {fill:url(#id1)}
   ]]>
  </style>
  <linearGradient id="id0" gradientUnits="userSpaceOnUse" x1="77.92" y1="60.34" x2="9.97" y2="27.55">
   <stop offset="0" style="stop-opacity:1; stop-color:#6666CC"/>
   <stop offset="1" style="stop-opacity:1; stop-color:#1B1B38"/>
  </linearGradient>
  <linearGradient id="id1" gradientUnits="userSpaceOnUse" x1="6.61" y1="81.28" x2="81.28" y2="81.28">
   <stop offset="0" style="stop-opacity:1; stop-color:#2BDD9A"/>
   <stop offset="1" style="stop-opacity:1; stop-color:#1CC7CE"/>
  </linearGradient>
 </defs>
 <g id="Capa_x0020_1">
  <metadata id="CorelCorpID_0Corel-Layer"/>
  <g id="_2439529752864">
   <g id="Hifi---Final">
    <g id="Algolia-Partner_Visual-Designs_Page1">
     <g id="Choose-partners">
      <g id="Group-10">
       <g id="Technology-Partners">
        <g>
         <g id="Oval">
          <g filter="url(#filter-2)">
           <circle class="fil0" cx="43.94" cy="43.94" r="43.56"/>
          </g>
          <g>
           <circle class="fil1" cx="43.94" cy="43.94" r="43.56"/>
          </g>
         </g>
         <g id="Oval-Copy-5">
          <g>
           <circle class="fil2" cx="43.94" cy="43.95" r="37.34"/>
          </g>
          <g id="Group-8">
           <g>
            <polygon id="Polygon" class="fil3 str0" points="38.04,23.81 44.69,31.73 41.15,41.44 30.97,43.24 24.32,35.32 27.86,25.6 "/>
            <polygon id="Polygon-Copy" class="fil3 str0" points="60.4,32.12 67.05,40.04 63.51,49.75 53.33,51.55 46.69,43.63 50.22,33.91 "/>
            <polygon id="Polygon-Copy-2" class="fil3 str0" points="42.35,46.74 48.99,54.66 45.46,64.37 35.27,66.17 28.63,58.25 32.17,48.53 "/>
           </g>
          </g>
         </g>
        </g>
       </g>
      </g>
     </g>
    </g>
   </g>
  </g>
  <circle class="fil4" cx="43.94" cy="43.94" r="43.94"/>
  <circle class="fil5" cx="43.94" cy="43.94" r="37.72"/>
  <g id="_2439529760448">
   <path class="fil6" d="M24.42 38.41c-0.26,0 -0.54,-0.07 -0.78,-0.21 -0.74,-0.43 -0.99,-1.36 -0.56,-2.1 1.95,-3.29 7.89,-10.99 20.87,-10.99 5.62,0 10.55,1.49 14.64,4.44 3.37,2.42 5.26,5.15 6.16,6.47 0.48,0.7 0.3,1.65 -0.41,2.13 -0.7,0.47 -1.67,0.3 -2.15,-0.41 -1.64,-2.37 -6.6,-9.57 -18.25,-9.57 -11.37,0 -16.51,6.63 -18.19,9.47 -0.29,0.5 -0.8,0.77 -1.34,0.77l0 0z"/>
   <path class="fil6" d="M50.48 68.54c-0.13,0 -0.25,-0.01 -0.38,-0.04 -9.41,-2.36 -12.92,-11.87 -13.06,-12.26l-0.02 -0.09c-0.08,-0.27 -1.96,-6.8 0.93,-10.62 1.33,-1.75 3.35,-2.63 6.02,-2.63 2.48,0 4.27,0.78 5.5,2.39 1.01,1.32 1.42,2.94 1.81,4.51 0.82,3.26 1.42,4.97 4.84,5.15 1.5,0.08 2.49,-0.81 3.05,-1.57 1.52,-2.06 1.78,-5.43 0.64,-8.4 -1.47,-3.84 -6.67,-11.08 -15.85,-11.08 -3.92,0 -7.52,1.27 -10.41,3.67 -2.39,1.99 -4.29,4.79 -5.2,7.66 -1.69,5.36 0.53,13.78 0.55,13.85 0.22,0.81 -0.27,1.66 -1.1,1.87 -0.82,0.22 -1.68,-0.27 -1.9,-1.09 -0.1,-0.38 -2.47,-9.36 -0.52,-15.56 2.13,-6.71 8.69,-13.47 18.58,-13.47 4.57,0 8.88,1.57 12.48,4.53 2.79,2.31 5.07,5.4 6.26,8.5 1.52,3.95 1.11,8.39 -1.03,11.29 -1.43,1.93 -3.46,2.94 -5.71,2.83 -5.86,-0.3 -6.92,-4.43 -7.68,-7.45 -0.79,-3.1 -1.3,-4.59 -4.31,-4.59 -1.66,0 -2.82,0.46 -3.55,1.42 -0.99,1.31 -1.06,3.35 -0.96,4.83 0.11,1.55 0.44,2.8 0.52,3.05 0.24,0.61 3.38,8.4 10.9,10.29 0.83,0.21 1.33,1.04 1.12,1.86 -0.19,0.69 -0.81,1.15 -1.5,1.15l0 0z"/>
   <path class="fil6" d="M38.4 67.83c-0.42,0 -0.82,-0.16 -1.13,-0.48 -3.77,-4 -5.9,-8.46 -6.7,-14.05l0 -0.03c-0.45,-3.7 0.21,-8.94 3.44,-12.54 2.38,-2.66 5.73,-4.01 9.94,-4.01 4.97,0 8.88,2.34 11.32,6.75 1.77,3.21 2.12,6.4 2.13,6.53 0.09,0.85 -0.54,1.59 -1.38,1.68 -0.85,0.09 -1.61,-0.53 -1.7,-1.36 0,-0.03 -0.31,-2.78 -1.81,-5.46 -1.89,-3.37 -4.76,-5.08 -8.56,-5.08 -3.28,0 -5.85,1 -7.62,2.97 -2.55,2.84 -3.04,7.22 -2.69,10.12 0.7,4.94 2.58,8.87 5.9,12.38 0.58,0.61 0.55,1.59 -0.08,2.16 -0.29,0.26 -0.67,0.41 -1.04,0.41l0 0z"/>
   <path class="fil6" d="M55.75 63.43c-3.29,0 -6.09,-0.92 -8.33,-2.76 -4.5,-3.67 -5.01,-9.64 -5.03,-9.89 -0.07,-0.85 0.57,-1.58 1.43,-1.65 0.86,-0.07 1.59,0.56 1.66,1.41 0.01,0.09 0.46,4.97 3.93,7.78 2.05,1.66 4.8,2.32 8.18,1.93 0.85,-0.1 1.61,0.51 1.71,1.35 0.1,0.85 -0.52,1.6 -1.36,1.69 -0.75,0.09 -1.48,0.13 -2.18,0.13zm2.6 -40.72c-1.28,-0.85 -5.84,-3.36 -14.4,-3.36 -8.99,0 -13.56,2.78 -14.57,3.48 -0.07,0.04 -0.13,0.09 -0.19,0.14 -0.01,0.01 -0.02,0.01 -0.02,0.01 -0.32,0.29 -0.52,0.69 -0.52,1.14 0,0.85 0.69,1.53 1.55,1.53 0.34,0 0.65,-0.11 0.9,-0.29l-0.01 0.01c0.04,-0.03 3.99,-2.96 12.86,-2.96 8.87,0 12.81,2.94 12.86,2.96l-0.01 -0.01 0.02 -0.02c0.26,0.2 0.58,0.31 0.93,0.31 0.86,0 1.55,-0.68 1.55,-1.53 0,-0.64 -0.38,-1.19 -0.94,-1.42l0 0z"/>
  </g>
 </g>
</svg>
