<svg xmlns="http://www.w3.org/2000/svg" width="559" height="352"><defs><linearGradient id="a" x1="46.703%" x2="99.961%" y1="50.709%" y2="49.997%"><stop offset="0%" stop-color="#8282D8"/><stop offset="8.797%" stop-color="#A6A6F4"/><stop offset="100%" stop-color="#8282D8"/></linearGradient><linearGradient id="b" x1="0%" y1="49.998%" y2="49.998%"><stop offset="0%" stop-color="#35C5CD"/><stop offset="100%" stop-color="#44DB99"/></linearGradient><linearGradient id="c" x1="50.002%" x2="50.002%" y1="100%" y2="0%"><stop offset="0%" stop-color="#0F9"/><stop offset="100%" stop-color="#35C5CD"/></linearGradient><linearGradient id="d" x1="11263%" x2="22358%" y1="18829%" y2="18829%"><stop offset="0%" stop-color="#0F9"/><stop offset="100%" stop-color="#35C5CD"/></linearGradient><linearGradient id="e" x1="50%" x2="50%" y1="100%" y2="0%"><stop offset="0%" stop-color="#35C5CD"/><stop offset="100%" stop-color="#0F9"/></linearGradient><linearGradient id="f" x1="50.002%" x2="50.002%" y1="100%" y2="0%"><stop offset="0%" stop-color="#FFF"/><stop offset="100%" stop-color="#FFF" stop-opacity="0"/></linearGradient><linearGradient id="g" x1="49.989%" x2="49.989%" y1="100%" y2="0%"><stop offset="3%" stop-color="#C6C6EF"/><stop offset="100%" stop-color="#FCFCFE"/></linearGradient><linearGradient id="h" x1="11297%" x2="11297%" y1="11482%" y2="0%"><stop offset="3%" stop-color="#C6C6EF"/><stop offset="100%" stop-color="#FCFCFE"/></linearGradient><linearGradient id="i" x1="11297%" x2="11297%" y1="17073%" y2="1261%"><stop offset="3%" stop-color="#C6C6EF"/><stop offset="100%" stop-color="#FCFCFE"/></linearGradient></defs><g fill="none"><g opacity=".95"><path fill="url(#a)" d="M558.817 167.262c0-4.01-2.555-8.02-7.757-11.099L298.255 7.025c-10.404-6.156-27.38-6.156-37.693 0L7.758 156.163C2.555 159.241 0 163.252 0 167.263v16.695h.456c-1.46 4.85 1.004 10.073 7.393 13.897l252.805 149.138c10.404 6.156 27.38 6.156 37.692 0l252.805-149.138c6.389-3.731 8.762-8.954 7.393-13.897H559v-16.696h-.183z"/><path fill="#A6A6F4" d="M7.803 154.163C-2.6 160.32-2.6 170.3 7.803 176.455l252.805 149.138c10.404 6.156 27.38 6.156 37.693 0l252.805-149.138c10.404-6.156 10.404-16.136 0-22.292L298.3 5.025c-10.405-6.156-27.38-6.156-37.693 0L7.803 154.163z"/></g><g transform="translate(203 41)"><path fill="#6161AA" d="M76.5 115L0 158.503 76.5 202l76.5-43.497z" opacity=".2"/><path fill="url(#b)" d="M77.503 29L1 72.526v63.948L77.503 180 154 136.474V72.526z"/><g opacity=".6"><path fill="url(#c)" d="M76.755.053L.461 43.466l76.294 43.42 76.287-43.42z" transform="translate(1 29)"/><path fill="url(#d)" d="M76.755 150.662l76.287-43.413V43.466l-76.287 43.42z" transform="translate(1 29)"/><path fill="url(#e)" d="M76.755 150.662L.461 107.249V43.466l76.294 43.42z" transform="translate(1 29)"/><path fill="url(#f)" d="M76.755 86.886L.461 43.466v2.593l76.294 43.412 76.287-43.412v-2.593z" transform="translate(1 29)"/></g><ellipse cx="114.5" cy="74" fill="#15117C" opacity=".1" rx="16.5" ry="6"/><ellipse cx="114.5" cy="74.5" fill="#15117C" opacity=".1" rx="11.5" ry="3.5"/><ellipse cx="40.5" cy="74" fill="#15117C" opacity=".1" rx="16.5" ry="6"/><ellipse cx="40.5" cy="74.5" fill="#15117C" opacity=".1" rx="11.5" ry="3.5"/><path fill="url(#g)" d="M77.49 0C52.379.03 32.03 19.915 32 44.455v26.717C32 76.014 36.014 77 40.969 77V44.375c.06-19.82 16.493-35.87 36.775-35.919 20.273.06 36.693 16.106 36.754 35.919v32.618c4.735-.067 8.502-1.133 8.502-5.82V44.454C122.97 19.908 102.608.018 77.49 0z"/><path fill="url(#h)" d="M78.02 8C57.604 8.047 41.06 23.97 41 43.633V76c4.988 0 9.029-.978 9.029-5.781V43.713c.239-14.586 12.585-26.29 27.733-26.29 15.147 0 27.493 11.704 27.732 26.29V70.22c0 4.803 4.042 5.781 9.03 5.781H115V43.633C114.94 23.986 98.422 8.07 78.02 8z"/><path fill="url(#i)" d="M78.02 8C57.604 8.047 41.06 23.97 41 43.633V76c4.988 0 9.029-.978 9.029-5.781V43.713c.239-14.586 12.585-26.29 27.733-26.29 15.147 0 27.493 11.704 27.732 26.29V70.22c0 4.803 4.042 5.781 9.03 5.781H115V43.633C114.94 23.986 98.422 8.07 78.02 8z"/></g></g></svg>