<svg width="500" height="500" xmlns="http://www.w3.org/2000/svg" xmlns:xlink="http://www.w3.org/1999/xlink"><defs><linearGradient x1="50%" y1="100%" x2="50%" y2="0%" id="g"><stop stop-color="#F5F5FA" offset="0%"/><stop stop-color="#FFF" offset="100%"/></linearGradient><filter x="-5.4%" y="-7%" width="110.8%" height="127.9%" filterUnits="objectBoundingBox" id="a"><feOffset dy="6" in="SourceAlpha" result="shadowOffsetOuter1"/><feGaussianBlur stdDeviation="3" in="shadowOffsetOuter1" result="shadowBlurOuter1"/><feColorMatrix values="0 0 0 0 0.145098039 0 0 0 0 0.17254902 0 0 0 0 0.380392157 0 0 0 0.15 0" in="shadowBlurOuter1" result="shadowMatrixOuter1"/><feMerge><feMergeNode in="shadowMatrixOuter1"/><feMergeNode in="SourceGraphic"/></feMerge></filter><path id="b" d="M0 .075h222.525v85.466H.001z"/><linearGradient x1="50%" y1="100%" x2="50%" y2="61.342%" id="c"><stop stop-color="#F5F5FA" offset="0%"/><stop stop-color="#FFF" offset="100%"/></linearGradient><path d="M0 142.343c-.117 14.851 15.24 29.416 44.48 38.95 49.211 16.042 119.11 11.757 156.123-9.572 15.083-8.691 22.377-18.871 22.397-28.97v-37.468L0 105v37.343z" id="f"/><filter x="-10.1%" y="-16.9%" width="120.2%" height="152.3%" filterUnits="objectBoundingBox" id="e"><feOffset dy="6" in="SourceAlpha" result="shadowOffsetOuter1"/><feGaussianBlur stdDeviation="5.5" in="shadowOffsetOuter1" result="shadowBlurOuter1"/><feColorMatrix values="0 0 0 0 0.145098039 0 0 0 0 0.17254902 0 0 0 0 0.380392157 0 0 0 0.15 0" in="shadowBlurOuter1" result="shadowMatrixOuter1"/><feOffset dy="2" in="SourceAlpha" result="shadowOffsetOuter2"/><feGaussianBlur stdDeviation="1.5" in="shadowOffsetOuter2" result="shadowBlurOuter2"/><feColorMatrix values="0 0 0 0 0.364705882 0 0 0 0 0.392156863 0 0 0 0 0.580392157 0 0 0 0.2 0" in="shadowBlurOuter2" result="shadowMatrixOuter2"/><feMerge><feMergeNode in="shadowMatrixOuter1"/><feMergeNode in="shadowMatrixOuter2"/></feMerge></filter><path d="M0 85.343c-.117 14.851 15.24 29.416 44.48 38.95 49.211 16.042 119.11 11.757 156.123-9.572C215.686 106.03 222.98 95.85 223 85.75V48.283L0 48v37.343z" id="i"/><filter x="-10.1%" y="-16.9%" width="120.2%" height="152.3%" filterUnits="objectBoundingBox" id="h"><feOffset dy="6" in="SourceAlpha" result="shadowOffsetOuter1"/><feGaussianBlur stdDeviation="5.5" in="shadowOffsetOuter1" result="shadowBlurOuter1"/><feColorMatrix values="0 0 0 0 0.145098039 0 0 0 0 0.17254902 0 0 0 0 0.380392157 0 0 0 0.15 0" in="shadowBlurOuter1" result="shadowMatrixOuter1"/><feOffset dy="2" in="SourceAlpha" result="shadowOffsetOuter2"/><feGaussianBlur stdDeviation="1.5" in="shadowOffsetOuter2" result="shadowBlurOuter2"/><feColorMatrix values="0 0 0 0 0.364705882 0 0 0 0 0.392156863 0 0 0 0 0.580392157 0 0 0 0.2 0" in="shadowBlurOuter2" result="shadowMatrixOuter2"/><feMerge><feMergeNode in="shadowMatrixOuter1"/><feMergeNode in="shadowMatrixOuter2"/></feMerge></filter></defs><g fill="none" fill-rule="evenodd"><g stroke-width="1.142"><path d="M236.301 214.795L148.401 0m66.211 231.648l-213.47-90.26" stroke="#C5C9E0"/><path d="M214.612 259.069L0 347.044" stroke="#C5C9E0" stroke-dasharray="11.416"/><path d="M236.301 285.205L146.12 498.857m117.579-213.652L351.599 500" stroke="#C5C9E0"/><path d="M285.388 259.069l212.329 90.26" stroke="#5468FF"/><path d="M285.388 231.648L500 143.674" stroke="#C5C9E0" stroke-dasharray="11.416"/><path d="M263.699 214.795L353.88 1.143m-103.302 209.94L250 47.7" stroke="#C5C9E0"/><path d="M224.886 221.366L81.05 77.406" stroke="#C5C9E0" stroke-dasharray="11.416"/><path d="M216.895 245.359l-204.338.578m212.329 26.843L81.05 416.737" stroke="#C5C9E0"/><path d="M250 292.202l.578 204.513" stroke="#C5C9E0" stroke-dasharray="11.416"/><path d="M273.973 272.78l143.835 143.958M284.247 245.937l204.337-.578m-214.611-23.993l143.835-143.96" stroke="#C5C9E0"/></g><g transform="translate(138 127)"><g filter="url(#a)" transform="translate(0 160)"><mask id="d" fill="#fff"><use xlink:href="#b"/></mask><path d="M.001 37.186c-.117 14.76 15.207 29.234 44.385 38.708 49.106 15.943 118.855 11.684 155.79-9.512 15.05-8.638 22.329-18.754 22.349-28.79V.358L0 .075v37.111z" fill="url(#c)" mask="url(#d)"/></g><path d="M0 160.715v-.252c.02-10.143 7.314-20.368 22.397-29.098 37.014-21.424 106.912-25.728 156.122-9.614 29.241 9.575 44.598 24.205 44.48 38.996v.127L223 161" fill="#BEBFEF"/><path d="M178.52 121.642c49.209 15.934 59.096 46.025 22.083 67.21-37.014 21.184-106.912 25.44-156.122 9.506-49.21-15.934-59.097-46.025-22.083-67.21 37.013-21.184 106.911-25.44 156.121-9.506" fill="#E8EAFC"/><use fill="#000" filter="url(#e)" xlink:href="#f"/><use fill="url(#g)" xlink:href="#f"/><path d="M0 104.716v-.253C.02 94.32 7.314 84.095 22.397 75.365 59.41 53.94 129.309 49.637 178.519 65.75c29.241 9.575 44.598 24.205 44.48 38.996v.127L223 105" fill="#BEBFEF"/><path d="M178.52 65.642c49.209 15.934 59.096 46.025 22.083 67.21-37.014 21.184-106.912 25.44-156.122 9.506-49.21-15.934-59.097-46.025-22.083-67.21 37.013-21.184 106.911-25.44 156.121-9.506" fill="#E8EAFC"/><use fill="#000" filter="url(#h)" xlink:href="#i"/><use fill="url(#g)" xlink:href="#i"/><path d="M178.52 9.642c49.209 15.934 59.096 46.025 22.083 67.21-37.014 21.184-106.912 25.44-156.122 9.506-49.21-15.934-59.097-46.025-22.083-67.21C59.41-2.035 129.309-6.291 178.519 9.643" fill="#E8EAFC"/><ellipse fill="#5468FF" opacity=".335" cx="27" cy="99" rx="7" ry="10"/><ellipse fill="#5468FF" opacity=".335" cx="27" cy="155" rx="7" ry="10"/><ellipse fill="#5468FF" opacity=".335" cx="27" cy="211" rx="7" ry="10"/><g transform="translate(148 170)"><circle fill="#5468FF" cx="38" cy="38" r="38"/><path d="M34.258 54.769a2.303 2.303 0 0 0 3.363-.178l20.725-24.699a2.303 2.303 0 0 0-3.529-2.96l-18.821 22.43L20.37 36.251a2.632 2.632 0 0 0-3.384 4.032l17.138 14.38c.044.037.088.072.134.106z" fill="#FFF"/></g></g></g></svg>