<?xml version="1.0" encoding="UTF-8"?>
<!DOCTYPE svg PUBLIC "-//W3C//DTD SVG 1.1//EN" "http://www.w3.org/Graphics/SVG/1.1/DTD/svg11.dtd">
<!-- Creator: CorelDRAW 2019 (64-Bit) -->
<svg xmlns="http://www.w3.org/2000/svg" xml:space="preserve" width="5.07091in" height="3.89985in" version="1.1" style="shape-rendering:geometricPrecision; text-rendering:geometricPrecision; image-rendering:optimizeQuality; fill-rule:evenodd; clip-rule:evenodd"
viewBox="0 0 652.63 501.91"
 xmlns:xlink="http://www.w3.org/1999/xlink"
 xmlns:xodm="http://www.corel.com/coreldraw/odm/2003">
 <defs>
  <style type="text/css">
   <![CDATA[
    .fil9 {fill:#6658D7}
    .fil3 {fill:#6658D7}
    .fil12 {fill:#6D84FE}
    .fil4 {fill:#74D69C}
    .fil8 {fill:#B1C3FF}
    .fil10 {fill:#EB5757}
    .fil11 {fill:#FFD14A}
    .fil5 {fill:white}
    .fil13 {fill:white;fill-rule:nonzero}
    .fil20 {fill:#15117C;fill-opacity:0.101961}
    .fil14 {fill:#6161AA;fill-opacity:0.200000}
    .fil7 {fill:#6666CC;fill-opacity:0.250980}
    .fil2 {fill:white;fill-opacity:0.250980}
    .fil1 {fill:#131924;fill-opacity:0.301961}
    .fil6 {fill:white;fill-opacity:0.501961}
    .fil15 {fill:url(#id2)}
    .fil19 {fill:url(#id3)}
    .fil21 {fill:url(#id4)}
    .fil23 {fill:url(#id5)}
    .fil22 {fill:url(#id6)}
    .fil0 {fill:url(#id7)}
    .fil16 {fill:url(#id8);fill-opacity:0.600000}
    .fil18 {fill:url(#id9);fill-opacity:0.600000}
    .fil17 {fill:url(#id10);fill-opacity:0.600000}
   ]]>
  </style>
   <mask id="id0">
  <linearGradient id="id1" gradientUnits="userSpaceOnUse" x1="558.13" y1="83.96" x2="558.13" y2="51.36">
   <stop offset="0" style="stop-opacity:1; stop-color:white"/>
   <stop offset="1" style="stop-opacity:0; stop-color:white"/>
  </linearGradient>
    <rect style="fill:url(#id1)" x="504.05" y="51.35" width="108.16" height="32.63"/>
   </mask>
  <linearGradient id="id2" gradientUnits="userSpaceOnUse" x1="503.74" y1="74.07" x2="612.17" y2="74.07">
   <stop offset="0" style="stop-opacity:1; stop-color:#35C5CD"/>
   <stop offset="1" style="stop-opacity:1; stop-color:#44DB99"/>
  </linearGradient>
  <linearGradient id="id3" gradientUnits="userSpaceOnUse" x1="558.13" y1="83.96" x2="558.13" y2="51.36">
   <stop offset="0" style="stop-opacity:1; stop-color:white"/>
   <stop offset="1" style="stop-opacity:1; stop-color:white"/>
  </linearGradient>
  <linearGradient id="id4" gradientUnits="userSpaceOnUse" x1="557.94" y1="54.57" x2="557.94" y2="0">
   <stop offset="0" style="stop-opacity:1; stop-color:#C6C6EF"/>
   <stop offset="0.0313725" style="stop-opacity:1; stop-color:#C6C6EF"/>
   <stop offset="1" style="stop-opacity:1; stop-color:#FCFCFE"/>
  </linearGradient>
  <linearGradient id="id5" gradientUnits="userSpaceOnUse" xlink:href="#id4" x1="6456.95" y1="-553.87" x2="6456.95" y2="-8174.45">
  </linearGradient>
  <linearGradient id="id6" gradientUnits="userSpaceOnUse" xlink:href="#id4" x1="6456.95" y1="53.86" x2="6456.95" y2="-5479.87">
  </linearGradient>
  <linearGradient id="id7" gradientUnits="userSpaceOnUse" x1="317.97" y1="308.56" x2="317.97" y2="308.56">
   <stop offset="0" style="stop-opacity:1; stop-color:#383A5B"/>
   <stop offset="0.501961" style="stop-opacity:1; stop-color:#2D2E4C"/>
   <stop offset="1" style="stop-opacity:1; stop-color:#262831"/>
  </linearGradient>
  <linearGradient id="id8" gradientUnits="userSpaceOnUse" x1="558.13" y1="82.13" x2="558.13" y2="20.59">
   <stop offset="0" style="stop-opacity:1; stop-color:#00FF99"/>
   <stop offset="1" style="stop-opacity:1; stop-color:#35C5CD"/>
  </linearGradient>
  <linearGradient id="id9" gradientUnits="userSpaceOnUse" x1="531.1" y1="127.33" x2="531.1" y2="51.36">
   <stop offset="0" style="stop-opacity:1; stop-color:#35C5CD"/>
   <stop offset="1" style="stop-opacity:1; stop-color:#00FF99"/>
  </linearGradient>
  <linearGradient id="id10" gradientUnits="userSpaceOnUse" xlink:href="#id8" x1="6647.73" y1="-14177.66" x2="12646.5" y2="-14177.66">
  </linearGradient>
 </defs>
 <g id="Capa_x0020_1">
  <metadata id="CorelCorpID_0Corel-Layer"/>
  <path class="fil0" d="M57.39 85.61c0,-5.92 4.8,-10.73 10.73,-10.73l537.59 0c5.92,0 10.73,4.8 10.73,10.73l0 364.65c0,5.92 -4.8,10.73 -10.73,10.73l-537.59 0c-5.92,0 -10.73,-4.8 -10.73,-10.73l0 -364.65z"/>
  <path class="fil1" d="M57.39 85.61c0,-5.92 4.8,-10.73 10.73,-10.73l49.6 0 0 386.1 -49.6 0c-5.92,0 -10.73,-4.8 -10.73,-10.73l0 -364.65z"/>
  <path class="fil2" d="M89.52 120.47l-4.86 0 0 -0.94 1.96 0 0 -7.17 -1.85 0.92 0 -1.07 2 -1.03 0.92 0 0 8.35 1.83 0 0 0.94zm-0.24 40.22l-5.08 0 0 -0.78c1.29,-1.44 2.12,-2.4 2.51,-2.89 0.38,-0.49 0.7,-1 0.94,-1.54 0.24,-0.54 0.36,-1.07 0.36,-1.6 0,-0.52 -0.16,-0.92 -0.47,-1.22 -0.31,-0.3 -0.75,-0.45 -1.31,-0.45 -0.43,0 -1.01,0.13 -1.74,0.4l-0.15 -0.92c0.66,-0.28 1.35,-0.42 2.07,-0.42 0.82,0 1.49,0.23 1.99,0.7 0.51,0.46 0.76,1.08 0.76,1.86 0,0.55 -0.13,1.1 -0.39,1.65 -0.26,0.55 -0.59,1.07 -0.99,1.57 -0.41,0.5 -1.2,1.4 -2.37,2.7l3.89 0 0 0.94zm-1.83 35.26c0.56,0.16 1.01,0.44 1.36,0.86 0.34,0.41 0.51,0.88 0.51,1.4 0,0.81 -0.32,1.49 -0.95,2.05 -0.63,0.55 -1.38,0.82 -2.24,0.82 -0.73,0 -1.39,-0.16 -1.97,-0.48l0.21 -0.88c0.61,0.28 1.21,0.43 1.8,0.43 0.56,0 1.03,-0.17 1.43,-0.52 0.4,-0.35 0.6,-0.8 0.6,-1.34 0,-0.54 -0.21,-0.97 -0.63,-1.31 -0.42,-0.34 -0.98,-0.5 -1.68,-0.5l-0.28 0 0 -0.88 0.08 0c0.67,0 1.23,-0.16 1.66,-0.47 0.44,-0.32 0.65,-0.75 0.65,-1.28 0,-0.44 -0.16,-0.78 -0.47,-1.02 -0.31,-0.25 -0.75,-0.37 -1.3,-0.37 -0.48,0 -1.01,0.13 -1.6,0.39l-0.14 -0.92c0.59,-0.27 1.19,-0.41 1.79,-0.41 0.82,0 1.5,0.22 2.04,0.65 0.54,0.43 0.81,0.99 0.81,1.67 0,0.47 -0.16,0.91 -0.49,1.32 -0.32,0.41 -0.71,0.66 -1.17,0.77l0 0.04zm2.43 43.05l-1.14 0 0 2.13 -1.07 0 0 -2.13 -4.02 0 0 -0.82 3.65 -6.28 1.45 0 0 6.17 1.14 0 0 0.94zm-2.21 -0.94l0 -5.11 -2.93 5.11 2.93 0zm-1.97 37.78c0.3,-0.08 0.59,-0.12 0.87,-0.12 0.87,0 1.56,0.27 2.07,0.8 0.51,0.53 0.76,1.2 0.76,2 0,0.84 -0.29,1.55 -0.88,2.13 -0.59,0.58 -1.31,0.87 -2.15,0.87 -0.81,0 -1.48,-0.14 -2.03,-0.41l0.22 -0.91c0.59,0.25 1.21,0.37 1.84,0.37 0.56,0 1.02,-0.18 1.36,-0.54 0.35,-0.36 0.52,-0.87 0.52,-1.52 0,-0.62 -0.16,-1.09 -0.49,-1.42 -0.33,-0.33 -0.75,-0.5 -1.26,-0.5 -0.38,0 -0.75,0.07 -1.11,0.22l-0.64 -0.29 0 -4.41 4.22 0 0 0.94 -3.29 0 0 2.79zm-0.47 40.92c0.58,-0.47 1.2,-0.7 1.88,-0.7 0.78,0 1.43,0.25 1.95,0.75 0.52,0.5 0.79,1.14 0.79,1.93 0,0.87 -0.23,1.59 -0.69,2.15 -0.46,0.57 -1.08,0.85 -1.85,0.85 -0.99,0 -1.77,-0.45 -2.34,-1.36 -0.58,-0.91 -0.86,-2.02 -0.86,-3.32 0,-1.4 0.3,-2.56 0.9,-3.5 0.6,-0.94 1.42,-1.41 2.47,-1.41 0.72,0 1.34,0.11 1.87,0.32l-0.17 0.96c-0.61,-0.22 -1.16,-0.33 -1.66,-0.33 -0.71,0 -1.27,0.34 -1.66,1.02 -0.4,0.68 -0.6,1.56 -0.6,2.64zm0.03 0.92c0,0.79 0.19,1.51 0.56,2.15 0.37,0.65 0.84,0.97 1.4,0.97 0.48,0 0.84,-0.17 1.1,-0.52 0.26,-0.35 0.39,-0.83 0.39,-1.45 0,-0.57 -0.14,-1.01 -0.43,-1.34 -0.28,-0.33 -0.68,-0.49 -1.2,-0.49 -0.67,0 -1.27,0.23 -1.82,0.68zm4.38 35.64l-3.66 8.47 -1.1 0 3.61 -8.3 -4.33 0 0 -0.94 5.48 0 0 0.77zm-1.83 43.62c0.63,0.18 1.12,0.49 1.46,0.94 0.35,0.44 0.52,0.96 0.52,1.54 0,0.85 -0.28,1.52 -0.84,2.02 -0.56,0.5 -1.25,0.75 -2.07,0.75 -0.86,0 -1.57,-0.25 -2.12,-0.75 -0.55,-0.5 -0.82,-1.17 -0.82,-2 0,-0.58 0.18,-1.1 0.54,-1.54 0.36,-0.44 0.86,-0.76 1.5,-0.95 -0.51,-0.13 -0.92,-0.38 -1.23,-0.75 -0.31,-0.38 -0.46,-0.79 -0.46,-1.26 0,-0.59 0.24,-1.13 0.71,-1.61 0.47,-0.49 1.09,-0.73 1.87,-0.73 0.76,0 1.39,0.24 1.89,0.72 0.5,0.48 0.75,1.02 0.75,1.62 0,0.45 -0.16,0.86 -0.47,1.24 -0.31,0.38 -0.72,0.63 -1.22,0.77zm-0.96 -0.45c0.02,0 0.13,-0.03 0.31,-0.08 0.19,-0.05 0.35,-0.12 0.48,-0.19 0.14,-0.08 0.26,-0.18 0.37,-0.29 0.11,-0.12 0.2,-0.26 0.27,-0.41 0.07,-0.16 0.1,-0.34 0.1,-0.54 0,-0.42 -0.15,-0.77 -0.45,-1.04 -0.3,-0.28 -0.67,-0.42 -1.09,-0.42 -0.41,0 -0.77,0.14 -1.07,0.42 -0.3,0.28 -0.44,0.63 -0.44,1.04 0,0.26 0.05,0.48 0.16,0.67 0.11,0.19 0.24,0.35 0.4,0.46 0.16,0.12 0.34,0.21 0.55,0.28 0.21,0.07 0.34,0.1 0.41,0.1zm0 0.92c-1.2,0.35 -1.79,1.01 -1.79,1.97 0,0.56 0.18,1.01 0.54,1.36 0.36,0.33 0.79,0.5 1.28,0.5 0.51,0 0.93,-0.17 1.28,-0.5 0.35,-0.34 0.52,-0.79 0.52,-1.36 0,-0.43 -0.12,-0.82 -0.36,-1.16 -0.24,-0.34 -0.73,-0.62 -1.47,-0.81z"/>
  <path class="fil3" d="M17.97 405.58c1.38,-3.57 4.57,-6.14 8.35,-6.72l47.19 -7.33c3.79,-0.59 7.6,0.89 10,3.87l29.94 37.2c2.4,2.98 3.03,7.02 1.65,10.6l-17.25 44.53c-1.38,3.57 -4.57,6.14 -8.35,6.72l-47.19 7.33c-3.79,0.59 -7.6,-0.89 -10,-3.87l-29.94 -37.2c-2.4,-2.98 -3.03,-7.02 -1.65,-10.6l17.25 -44.53z"/>
  <path class="fil4" d="M408.63 432.84c0,-3.7 3,-6.7 6.7,-6.7l230.59 0c3.7,0 6.7,3 6.7,6.7l0 56.31c0,3.7 -3,6.7 -6.7,6.7l-230.59 0c-3.7,0 -6.7,-3 -6.7,-6.7l0 -56.31z"/>
  <path class="fil5" d="M447.51 460.99c0,-2.96 2.4,-5.36 5.36,-5.36l34.86 0c2.96,0 5.36,2.4 5.36,5.36 0,2.96 -2.4,5.36 -5.36,5.36l-34.86 0c-2.96,0 -5.36,-2.4 -5.36,-5.36z"/>
  <path class="fil6" d="M503.82 460.99c0,-2.96 2.4,-5.36 5.36,-5.36l101.89 0c2.96,0 5.36,2.4 5.36,5.36 0,2.96 -2.4,5.36 -5.36,5.36l-101.89 0c-2.96,0 -5.36,-2.4 -5.36,-5.36z"/>
  <path class="fil7" d="M149.89 115.11c0,-2.96 2.4,-5.36 5.36,-5.36l34.86 0c2.96,0 5.36,2.4 5.36,5.36 0,2.96 -2.4,5.36 -5.36,5.36l-34.86 0c-2.96,0 -5.36,-2.4 -5.36,-5.36z"/>
  <path class="fil8" d="M206.2 115.11c0,-2.96 2.4,-5.36 5.36,-5.36l101.89 0c2.96,0 5.36,2.4 5.36,5.36 0,2.96 -2.4,5.36 -5.36,5.36l-101.89 0c-2.96,0 -5.36,-2.4 -5.36,-5.36z"/>
  <path class="fil2" d="M149.89 156.67c0,-2.96 2.4,-5.36 5.36,-5.36l34.86 0c2.96,0 5.36,2.4 5.36,5.36 0,2.96 -2.4,5.36 -5.36,5.36l-34.86 0c-2.96,0 -5.36,-2.4 -5.36,-5.36z"/>
  <path class="fil9" d="M206.2 156.67c0,-2.96 2.4,-5.36 5.36,-5.36l81.78 0c2.96,0 5.36,2.4 5.36,5.36 0,2.96 -2.4,5.36 -5.36,5.36l-81.78 0c-2.96,0 -5.36,-2.4 -5.36,-5.36z"/>
  <path class="fil2" d="M309.43 156.67c0,-2.96 2.4,-5.36 5.36,-5.36l166.24 0c2.96,0 5.36,2.4 5.36,5.36 0,2.96 -2.4,5.36 -5.36,5.36l-166.24 0c-2.96,0 -5.36,-2.4 -5.36,-5.36z"/>
  <path class="fil10" d="M149.89 235.77c0,-2.96 2.4,-5.36 5.36,-5.36l34.86 0c2.96,0 5.36,2.4 5.36,5.36 0,2.96 -2.4,5.36 -5.36,5.36l-34.86 0c-2.96,0 -5.36,-2.4 -5.36,-5.36z"/>
  <path class="fil2" d="M149.89 397.98c0,-2.96 2.4,-5.36 5.36,-5.36l34.86 0c2.96,0 5.36,2.4 5.36,5.36 0,2.96 -2.4,5.36 -5.36,5.36l-34.86 0c-2.96,0 -5.36,-2.4 -5.36,-5.36z"/>
  <path class="fil2" d="M206.2 235.77c0,-2.96 2.4,-5.36 5.36,-5.36l18.77 0c2.96,0 5.36,2.4 5.36,5.36 0,2.96 -2.4,5.36 -5.36,5.36l-18.77 0c-2.96,0 -5.36,-2.4 -5.36,-5.36z"/>
  <path class="fil2" d="M249.1 235.77c0,-2.96 2.4,-5.36 5.36,-5.36l130.04 0c2.96,0 5.36,2.4 5.36,5.36 0,2.96 -2.4,5.36 -5.36,5.36l-130.04 0c-2.96,0 -5.36,-2.4 -5.36,-5.36z"/>
  <path class="fil2" d="M206.2 275.98c0,-2.96 2.4,-5.36 5.36,-5.36l76.42 0c2.96,0 5.36,2.4 5.36,5.36 0,2.96 -2.4,5.36 -5.36,5.36l-76.42 0c-2.96,0 -5.36,-2.4 -5.36,-5.36z"/>
  <path class="fil11" d="M206.2 356.42c0,-2.96 2.4,-5.36 5.36,-5.36l40.22 0c2.96,0 5.36,2.4 5.36,5.36 0,2.96 -2.4,5.36 -5.36,5.36l-40.22 0c-2.96,0 -5.36,-2.4 -5.36,-5.36z"/>
  <path class="fil12" d="M309.43 275.98c0,-2.96 2.4,-5.36 5.36,-5.36l130.04 0c2.96,0 5.36,2.4 5.36,5.36 0,2.96 -2.4,5.36 -5.36,5.36l-130.04 0c-2.96,0 -5.36,-2.4 -5.36,-5.36z"/>
  <path class="fil2" d="M206.2 316.2c0,-2.96 2.4,-5.36 5.36,-5.36l233.27 0c2.96,0 5.36,2.4 5.36,5.36 0,2.96 -2.4,5.36 -5.36,5.36l-233.27 0c-2.96,0 -5.36,-2.4 -5.36,-5.36z"/>
  <path class="fil13" d="M84.64 476c4.89,-0.81 8.1,-5.26 7.18,-10.81l-2.49 -15.05c-0.38,-2.29 1.26,-4.34 4.97,-5.03l-1.97 -11.93c-3.56,0.52 -5.97,-1.01 -6.39,-3.57l-2.55 -15.4c-0.93,-5.62 -5.32,-8.67 -10.27,-7.85l-7.62 1.26 1.44 8.74 2.97 -0.49c2.62,-0.43 3.87,1 4.32,3.7l2.47 14.91c0.69,4.16 2.9,6.36 7.4,6.05l0.06 -0.01 0.05 0.28c-3.97,0.94 -5.8,3.95 -5.27,7.21l2.5 15.12c0.49,2.98 -0.51,4.5 -3.07,4.93l-2.79 0.46 1.44 8.74 7.62 -1.26zm-33.87 5.6l-1.44 -8.74 -2.79 0.46c-2.56,0.42 -4,-0.69 -4.49,-3.68l-2.5 -15.12c-0.54,-3.26 -3.24,-5.52 -7.31,-5.13l-0.05 -0.28 0.06 -0.01c4.35,-1.15 5.75,-3.94 5.06,-8.1l-2.47 -14.91c-0.45,-2.7 0.28,-4.46 2.9,-4.9l2.97 -0.49 -1.44 -8.74 -7.62 1.26c-4.95,0.82 -8.12,5.12 -7.19,10.74l2.55 15.4c0.42,2.57 -1.36,4.79 -4.9,5.44l1.97 11.93c3.74,-0.55 5.94,0.87 6.32,3.16l2.49 15.05c0.92,5.55 5.39,8.73 10.28,7.92l7.62 -1.26z"/>
  <rect class="fil5" transform="matrix(0.933758 -0.154376 0.103866 0.628246 40.0797 443.806)" width="37.37" height="13.91" rx="2.18" ry="2.18"/>
  <polygon class="fil14" points="557.25,81.5 503.03,112.34 557.25,143.16 611.46,112.34 "/>
  <polygon class="fil15" points="557.96,20.55 503.74,51.4 503.74,96.72 557.96,127.57 612.17,96.72 612.17,51.4 "/>
  <polygon class="fil16" points="558.13,20.59 504.06,51.36 558.13,82.13 612.2,51.36 "/>
  <polygon class="fil17" points="558.13,127.33 612.2,96.56 612.2,51.36 558.13,82.13 "/>
  <polygon class="fil18" points="558.13,127.33 504.06,96.56 504.06,51.36 558.13,82.13 "/>
  <polygon class="fil19" style="mask:url(#id0)" points="558.13,82.13 504.06,51.36 504.06,53.2 558.13,83.96 612.2,53.2 612.2,51.36 "/>
  <path class="fil20" d="M595.87 52.45c0,-2.35 -5.24,-4.25 -11.69,-4.25 -6.46,0 -11.69,1.9 -11.69,4.25 0,2.35 5.24,4.25 11.69,4.25 6.46,0 11.69,-1.9 11.69,-4.25z"/>
  <path class="fil20" d="M592.33 52.8c0,-1.37 -3.65,-2.48 -8.15,-2.48 -4.5,0 -8.15,1.11 -8.15,2.48 0,1.37 3.65,2.48 8.15,2.48 4.5,0 8.15,-1.11 8.15,-2.48z"/>
  <path class="fil20" d="M543.42 52.45c0,-2.35 -5.24,-4.25 -11.69,-4.25 -6.46,0 -11.69,1.9 -11.69,4.25 0,2.35 5.24,4.25 11.69,4.25 6.46,0 11.69,-1.9 11.69,-4.25z"/>
  <path class="fil20" d="M539.88 52.8c0,-1.37 -3.65,-2.48 -8.15,-2.48 -4.5,0 -8.15,1.11 -8.15,2.48 0,1.37 3.65,2.48 8.15,2.48 4.5,0 8.15,-1.11 8.15,-2.48z"/>
  <path class="fil21" d="M557.95 0c-17.8,0.02 -32.22,14.11 -32.24,31.51l0 18.94c0,3.43 2.85,4.13 6.36,4.13l0 -23.12c0.04,-14.05 11.69,-25.42 26.06,-25.46 14.37,0.04 26.01,11.41 26.05,25.46l0 23.12c3.36,-0.05 6.03,-0.8 6.03,-4.12l0 -18.94c-0.02,-17.4 -14.45,-31.49 -32.25,-31.51z"/>
  <path class="fil22" d="M558.32 5.67c-14.47,0.03 -26.19,11.32 -26.24,25.25l0 22.94c3.54,0 6.4,-0.69 6.4,-4.1l0 -18.79c0.17,-10.34 8.92,-18.63 19.66,-18.63 10.74,0 19.49,8.3 19.65,18.63l0 18.79c0,3.4 2.86,4.1 6.4,4.1l0.34 0 0 -22.94c-0.04,-13.92 -11.75,-25.21 -26.21,-25.25z"/>
  <path class="fil23" d="M558.32 5.67c-14.47,0.03 -26.19,11.32 -26.24,25.25l0 22.94c3.54,0 6.4,-0.69 6.4,-4.1l0 -18.79c0.17,-10.34 8.92,-18.63 19.66,-18.63 10.74,0 19.49,8.3 19.65,18.63l0 18.79c0,3.4 2.86,4.1 6.4,4.1l0.34 0 0 -22.94c-0.04,-13.92 -11.75,-25.21 -26.21,-25.25z"/>
 </g>
</svg>
