<svg width="522" height="350" viewBox="0 0 522 350" version="1.1" xmlns="http://www.w3.org/2000/svg" xmlns:xlink="http://www.w3.org/1999/xlink">
<title>Create Code Illustration</title>
<desc>Created using Figma</desc>
<g id="Canvas" transform="translate(-1993 -879)">
<g id="Create Code Illustration">
<g id="Rectangle 2">
<use xlink:href="#path0_fill" transform="translate(2061 879)" fill="url(#paint0_linear)"/>
</g>
<g id="Rectangle 2.1">
<use xlink:href="#path1_fill" transform="translate(2061 879)" fill="#131924" fill-opacity="0.3"/>
</g>
<g id="Polygon" filter="url(#filter0_d)">
<use xlink:href="#path2_fill" transform="matrix(0.778995 -0.62703 0.62703 0.778995 2003 1145.72)" fill="#74D69C"/>
</g>
<g id="Rectangle 3" filter="url(#filter1_d)">
<use xlink:href="#path3_fill" transform="translate(2323 1141)" fill="#6D84FE"/>
</g>
<g id="Rectangle 4.2">
<use xlink:href="#path4_fill" transform="translate(2352 1163)" fill="#FFFFFF"/>
</g>
<g id="Rectangle 4.3">
<use xlink:href="#path5_fill" transform="translate(2394 1163)" fill="#FFFFFF" fill-opacity="0.5"/>
</g>
<g id="1 2 3 4 5 6 7 8" opacity="0.5">
<use xlink:href="#path6_fill" transform="translate(2076 904)" fill="#FFFFFF"/>
</g>
<g id="Rectangle 4">
<use xlink:href="#path4_fill" transform="translate(2130 905)" fill="#FFFFFF" fill-opacity="0.25"/>
</g>
<g id="Rectangle 4.1">
<use xlink:href="#path5_fill" transform="translate(2172 905)" fill="#B1C3FF"/>
</g>
<g id="Rectangle 4.4">
<use xlink:href="#path4_fill" transform="translate(2130 936)" fill="#FFFFFF" fill-opacity="0.25"/>
</g>
<g id="Rectangle 4.5">
<use xlink:href="#path7_fill" transform="translate(2172 936)" fill="#6658D7"/>
</g>
<g id="Rectangle 4.6">
<use xlink:href="#path8_fill" transform="translate(2249 936)" fill="#FFFFFF" fill-opacity="0.25"/>
</g>
<g id="Rectangle 4.7">
<use xlink:href="#path4_fill" transform="translate(2130 995)" fill="#EB5757"/>
</g>
<g id="Rectangle 4.15">
<use xlink:href="#path4_fill" transform="translate(2130 1116)" fill="#FFFFFF" fill-opacity="0.25"/>
</g>
<g id="Rectangle 4.8">
<use xlink:href="#path9_fill" transform="translate(2172 995)" fill="#FFFFFF" fill-opacity="0.25"/>
</g>
<g id="Rectangle 4.9">
<use xlink:href="#path10_fill" transform="translate(2204 995)" fill="#FFFFFF" fill-opacity="0.25"/>
</g>
<g id="Rectangle 4.10">
<use xlink:href="#path11_fill" transform="translate(2172 1025)" fill="#FFFFFF" fill-opacity="0.25"/>
</g>
<g id="Rectangle 4.14">
<use xlink:href="#path12_fill" transform="translate(2172 1085)" fill="#FFD14A"/>
</g>
<g id="Rectangle 4.12">
<use xlink:href="#path10_fill" transform="translate(2249 1025)" fill="#71D49A"/>
</g>
<g id="Rectangle 4.13">
<use xlink:href="#path13_fill" transform="translate(2172 1055)" fill="#FFFFFF" fill-opacity="0.25"/>
</g>
</g>
</g>
<defs>
<filter id="filter0_d" filterUnits="userSpaceOnUse" x="1993" y="1091" width="137" height="138" color-interpolation-filters="sRGB">
<feFlood flood-opacity="0" result="BackgroundImageFix"/>
<feColorMatrix in="SourceAlpha" type="matrix" values="0 0 0 0 0 0 0 0 0 0 0 0 0 0 0 0 0 0 255 0"/>
<feOffset dx="0" dy="4"/>
<feGaussianBlur stdDeviation="5"/>
<feColorMatrix type="matrix" values="0 0 0 0 0.219608 0 0 0 0 0.227451 0 0 0 0 0.356863 0 0 0 0.2 0"/>
<feBlend mode="normal" in2="BackgroundImageFix" result="effect1_dropShadow"/>
<feBlend mode="normal" in="SourceGraphic" in2="effect1_dropShadow" result="shape"/>
</filter>
<filter id="filter1_d" filterUnits="userSpaceOnUse" x="2313" y="1135" width="202" height="72" color-interpolation-filters="sRGB">
<feFlood flood-opacity="0" result="BackgroundImageFix"/>
<feColorMatrix in="SourceAlpha" type="matrix" values="0 0 0 0 0 0 0 0 0 0 0 0 0 0 0 0 0 0 255 0"/>
<feOffset dx="0" dy="4"/>
<feGaussianBlur stdDeviation="5"/>
<feColorMatrix type="matrix" values="0 0 0 0 0.219608 0 0 0 0 0.227451 0 0 0 0 0.356863 0 0 0 0.2 0"/>
<feBlend mode="normal" in2="BackgroundImageFix" result="effect1_dropShadow"/>
<feBlend mode="normal" in="SourceGraphic" in2="effect1_dropShadow" result="shape"/>
</filter>
<linearGradient id="paint0_linear" x1="0" y1="0" x2="1" y2="0" gradientUnits="userSpaceOnUse" gradientTransform="matrix(-430.4 289.5 -421.076 -881.037 692.929 398.519)">
<stop offset="0" stop-color="#383A5B"/>
<stop offset="0.497828" stop-color="#2D2E4C"/>
<stop offset="1" stop-color="#262831"/>
</linearGradient>
<path id="path0_fill" d="M 0 8C 0 3.58172 3.58172 0 8 0L 409 0C 413.418 0 417 3.58172 417 8L 417 280C 417 284.418 413.418 288 409 288L 8 288C 3.58172 288 0 284.418 0 280L 0 8Z"/>
<path id="path1_fill" d="M 0 8C 0 3.58172 3.58172 0 8 0L 45 0L 45 288L 8 288C 3.58172 288 0 284.418 0 280L 0 8Z"/>
<path id="path2_fill" fill-rule="evenodd" d="M 34.8495 2.3094C 37.3247 0.880338 40.3743 0.880339 42.8495 2.3094L 73.699 20.1204C 76.1742 21.5494 77.699 24.1904 77.699 27.0486L 77.699 62.6705C 77.699 65.5286 76.1742 68.1696 73.699 69.5987L 42.8495 87.4096C 40.3743 88.8387 37.3247 88.8387 34.8495 87.4096L 4 69.5987C 1.52479 68.1696 0 65.5286 0 62.6705L 0 27.0486C 0 24.1904 1.52479 21.5494 4 20.1204L 34.8495 2.3094Z"/>
<path id="path3_fill" d="M 0 5C 0 2.23858 2.23858 0 5 0L 177 0C 179.761 0 182 2.23858 182 5L 182 47C 182 49.7614 179.761 52 177 52L 5 52C 2.23858 52 0 49.7614 0 47L 0 5Z"/>
<path id="path4_fill" d="M 0 4C 0 1.79086 1.79086 0 4 0L 30 0C 32.2091 0 34 1.79086 34 4C 34 6.20914 32.2091 8 30 8L 4 8C 1.79086 8 0 6.20914 0 4Z"/>
<path id="path5_fill" d="M 0 4C 0 1.79086 1.79086 0 4 0L 80 0C 82.2091 0 84 1.79086 84 4C 84 6.20914 82.2091 8 80 8L 4 8C 1.79086 8 0 6.20914 0 4Z"/>
<path id="path6_fill" d="M 8.96777 9L 5.34473 9L 5.34473 8.30176L 6.80469 8.30176L 6.80469 2.9502L 5.42773 3.63867L 5.42773 2.83789L 6.91699 2.07129L 7.60547 2.07129L 7.60547 8.30176L 8.96777 8.30176L 8.96777 9ZM 8.78711 39L 4.99805 39L 4.99805 38.4189C 5.95833 37.348 6.58171 36.6302 6.86816 36.2656C 7.15462 35.901 7.38737 35.5186 7.56641 35.1182C 7.74544 34.7178 7.83496 34.319 7.83496 33.9219C 7.83496 33.5378 7.71777 33.235 7.4834 33.0137C 7.25228 32.7923 6.92676 32.6816 6.50684 32.6816C 6.18457 32.6816 5.75163 32.7809 5.20801 32.9795L 5.0957 32.291C 5.58724 32.0827 6.10156 31.9785 6.63867 31.9785C 7.25391 31.9785 7.7487 32.1527 8.12305 32.501C 8.50065 32.846 8.68945 33.3083 8.68945 33.8877C 8.68945 34.3011 8.5918 34.7113 8.39648 35.1182C 8.20443 35.5251 7.95703 35.9157 7.6543 36.29C 7.35156 36.6644 6.76237 37.335 5.88672 38.3018L 8.78711 38.3018L 8.78711 39ZM 7.4248 65.2988C 7.84473 65.416 8.18164 65.6309 8.43555 65.9434C 8.68945 66.2526 8.81641 66.6009 8.81641 66.9883C 8.81641 67.5938 8.5804 68.1032 8.1084 68.5166C 7.63639 68.9268 7.07975 69.1318 6.43848 69.1318C 5.8916 69.1318 5.40169 69.0114 4.96875 68.7705L 5.125 68.1113C 5.57747 68.3229 6.02507 68.4287 6.46777 68.4287C 6.88444 68.4287 7.23926 68.3001 7.53223 68.043C 7.82845 67.7826 7.97656 67.4489 7.97656 67.042C 7.97656 66.6416 7.81868 66.3161 7.50293 66.0654C 7.18717 65.8148 6.76888 65.6895 6.24805 65.6895L 6.03809 65.6895L 6.03809 65.0303L 6.09668 65.0303C 6.59798 65.0303 7.01139 64.9131 7.33691 64.6787C 7.66243 64.4411 7.8252 64.1221 7.8252 63.7217C 7.8252 63.3962 7.70801 63.1423 7.47363 62.96C 7.23926 62.7744 6.91699 62.6816 6.50684 62.6816C 6.15202 62.6816 5.75488 62.7777 5.31543 62.9697L 5.20801 62.2812C 5.65072 62.0794 6.09668 61.9785 6.5459 61.9785C 7.16113 61.9785 7.66732 62.1413 8.06445 62.4668C 8.46484 62.7891 8.66504 63.2041 8.66504 63.7119C 8.66504 64.0635 8.54297 64.3923 8.29883 64.6982C 8.05794 65.001 7.7666 65.1914 7.4248 65.2695L 7.4248 65.2988ZM 9.23633 97.4082L 8.38672 97.4082L 8.38672 99L 7.58594 99L 7.58594 97.4082L 4.58789 97.4082L 4.58789 96.7979L 7.30762 92.1104L 8.38672 92.1104L 8.38672 96.71L 9.23633 96.71L 9.23633 97.4082ZM 7.58594 96.71L 7.58594 92.9014L 5.39844 96.71L 7.58594 96.71ZM 6.11621 124.889C 6.33757 124.83 6.55404 124.801 6.76562 124.801C 7.41667 124.801 7.93099 125.001 8.30859 125.401C 8.6862 125.799 8.875 126.295 8.875 126.891C 8.875 127.516 8.65527 128.046 8.21582 128.482C 7.77637 128.915 7.24089 129.132 6.60938 129.132C 6.00716 129.132 5.5026 129.031 5.0957 128.829L 5.25684 128.15C 5.69954 128.336 6.1569 128.429 6.62891 128.429C 7.04883 128.429 7.38737 128.294 7.64453 128.023C 7.90495 127.753 8.03516 127.376 8.03516 126.891C 8.03516 126.432 7.91309 126.078 7.66895 125.831C 7.4248 125.584 7.11068 125.46 6.72656 125.46C 6.44661 125.46 6.16992 125.514 5.89648 125.621L 5.41797 125.401L 5.41797 122.11L 8.56738 122.11L 8.56738 122.809L 6.11621 122.809L 6.11621 124.889ZM 5.76465 155.411C 6.19434 155.063 6.66146 154.889 7.16602 154.889C 7.7487 154.889 8.23372 155.076 8.62109 155.45C 9.01172 155.821 9.20703 156.301 9.20703 156.891C 9.20703 157.538 9.03451 158.074 8.68945 158.497C 8.3444 158.92 7.88379 159.132 7.30762 159.132C 6.57194 159.132 5.98926 158.795 5.55957 158.121C 5.12988 157.444 4.91504 156.617 4.91504 155.641C 4.91504 154.599 5.13802 153.728 5.58398 153.028C 6.0332 152.328 6.64681 151.979 7.4248 151.979C 7.96191 151.979 8.42578 152.058 8.81641 152.218L 8.68945 152.931C 8.23698 152.765 7.82357 152.682 7.44922 152.682C 6.91862 152.682 6.50521 152.936 6.20898 153.443C 5.91276 153.951 5.76465 154.607 5.76465 155.411ZM 5.78906 156.1C 5.78906 156.689 5.92741 157.224 6.2041 157.706C 6.48079 158.188 6.8291 158.429 7.24902 158.429C 7.60384 158.429 7.87728 158.299 8.06934 158.038C 8.26139 157.778 8.35742 157.418 8.35742 156.959C 8.35742 156.536 8.25163 156.202 8.04004 155.958C 7.82845 155.714 7.5306 155.592 7.14648 155.592C 6.64844 155.592 6.19596 155.761 5.78906 156.1ZM 9.05566 182.682L 6.32617 189L 5.50586 189L 8.19629 182.809L 4.96875 182.809L 4.96875 182.11L 9.05566 182.11L 9.05566 182.682ZM 7.68848 215.221C 8.15723 215.357 8.52018 215.59 8.77734 215.919C 9.03776 216.248 9.16797 216.632 9.16797 217.071C 9.16797 217.703 8.95801 218.204 8.53809 218.575C 8.12142 218.946 7.6071 219.132 6.99512 219.132C 6.35384 219.132 5.8265 218.945 5.41309 218.57C 5.00293 218.196 4.79785 217.7 4.79785 217.081C 4.79785 216.645 4.93132 216.261 5.19824 215.929C 5.46517 215.597 5.83789 215.361 6.31641 215.221C 5.93555 215.123 5.62956 214.936 5.39844 214.659C 5.17057 214.379 5.05664 214.067 5.05664 213.722C 5.05664 213.279 5.23242 212.879 5.58398 212.521C 5.93555 212.159 6.39941 211.979 6.97559 211.979C 7.54525 211.979 8.01562 212.158 8.38672 212.516C 8.76107 212.874 8.94824 213.276 8.94824 213.722C 8.94824 214.057 8.83105 214.366 8.59668 214.649C 8.3623 214.929 8.05957 215.12 7.68848 215.221ZM 6.97559 214.889C 6.99186 214.889 7.06999 214.869 7.20996 214.83C 7.34993 214.791 7.46875 214.744 7.56641 214.688C 7.66732 214.63 7.76009 214.557 7.84473 214.469C 7.92936 214.381 7.99772 214.278 8.0498 214.161C 8.10189 214.041 8.12793 213.907 8.12793 213.761C 8.12793 213.448 8.01562 213.189 7.79102 212.984C 7.56641 212.776 7.2946 212.672 6.97559 212.672C 6.66634 212.672 6.40104 212.778 6.17969 212.989C 5.95833 213.201 5.84766 213.458 5.84766 213.761C 5.84766 213.953 5.88672 214.12 5.96484 214.264C 6.04622 214.407 6.14551 214.522 6.2627 214.61C 6.38314 214.698 6.51986 214.767 6.67285 214.815C 6.8291 214.864 6.93001 214.889 6.97559 214.889ZM 6.97559 215.572C 6.08366 215.833 5.6377 216.323 5.6377 217.042C 5.6377 217.462 5.77279 217.799 6.04297 218.053C 6.31315 218.303 6.63053 218.429 6.99512 218.429C 7.37272 218.429 7.6901 218.305 7.94727 218.058C 8.20768 217.807 8.33789 217.468 8.33789 217.042C 8.33789 216.72 8.24837 216.432 8.06934 216.178C 7.8903 215.921 7.52572 215.719 6.97559 215.572Z"/>
<path id="path7_fill" d="M 0 4C 0 1.79086 1.79086 0 4 0L 65 0C 67.2091 0 69 1.79086 69 4C 69 6.20914 67.2091 8 65 8L 4 8C 1.79086 8 0 6.20914 0 4Z"/>
<path id="path8_fill" d="M 0 4C 0 1.79086 1.79086 0 4 0L 128 0C 130.209 0 132 1.79086 132 4C 132 6.20914 130.209 8 128 8L 4 8C 1.79086 8 0 6.20914 0 4Z"/>
<path id="path9_fill" d="M 0 4C 0 1.79086 1.79086 0 4 0L 18 0C 20.2091 0 22 1.79086 22 4C 22 6.20914 20.2091 8 18 8L 4 8C 1.79086 8 0 6.20914 0 4Z"/>
<path id="path10_fill" d="M 0 4C 0 1.79086 1.79086 0 4 0L 101 0C 103.209 0 105 1.79086 105 4C 105 6.20914 103.209 8 101 8L 4 8C 1.79086 8 0 6.20914 0 4Z"/>
<path id="path11_fill" d="M 0 4C 0 1.79086 1.79086 0 4 0L 61 0C 63.2091 0 65 1.79086 65 4C 65 6.20914 63.2091 8 61 8L 4 8C 1.79086 8 0 6.20914 0 4Z"/>
<path id="path12_fill" d="M 0 4C 0 1.79086 1.79086 0 4 0L 34 0C 36.2091 0 38 1.79086 38 4C 38 6.20914 36.2091 8 34 8L 4 8C 1.79086 8 0 6.20914 0 4Z"/>
<path id="path13_fill" d="M 0 4C 0 1.79086 1.79086 0 4 0L 178 0C 180.209 0 182 1.79086 182 4C 182 6.20914 180.209 8 178 8L 4 8C 1.79086 8 0 6.20914 0 4Z"/>
</defs>
</svg>
