<?xml version="1.0" encoding="UTF-8"?>
<!DOCTYPE svg PUBLIC "-//W3C//DTD SVG 1.1//EN" "http://www.w3.org/Graphics/SVG/1.1/DTD/svg11.dtd">
<!-- Creator: CorelDRAW 2019 (64-Bit) -->
<svg xmlns="http://www.w3.org/2000/svg" xml:space="preserve" width="1.16666in" height="1.16666in" version="1.1" style="shape-rendering:geometricPrecision; text-rendering:geometricPrecision; image-rendering:optimizeQuality; fill-rule:evenodd; clip-rule:evenodd"
viewBox="0 0 68.91 68.91"
 xmlns:xlink="http://www.w3.org/1999/xlink"
 xmlns:xodm="http://www.corel.com/coreldraw/odm/2003">
 <defs>
  <style type="text/css">
   <![CDATA[
    .str0 {stroke:white;stroke-width:1.23;stroke-miterlimit:2.61313}
    .fil3 {fill:none}
    .fil0 {fill:black}
    .fil1 {fill:white}
    .fil5 {fill:white}
    .fil4 {fill:url(#id0)}
    .fil2 {fill:url(#id1)}
   ]]>
  </style>
  <linearGradient id="id0" gradientUnits="userSpaceOnUse" x1="61.33" y1="47.42" x2="7.58" y2="21.49">
   <stop offset="0" style="stop-opacity:1; stop-color:#EB5757"/>
   <stop offset="1" style="stop-opacity:1; stop-color:#FA6270"/>
  </linearGradient>
  <linearGradient id="id1" gradientUnits="userSpaceOnUse" x1="4.92" y1="63.99" x2="63.99" y2="63.99">
   <stop offset="0" style="stop-opacity:1; stop-color:#2BDD9A"/>
   <stop offset="1" style="stop-opacity:1; stop-color:#1CC7CE"/>
  </linearGradient>
 </defs>
 <g id="Capa_x0020_1">
  <metadata id="CorelCorpID_0Corel-Layer"/>
  <g id="_2439182360816">
   <g id="Hifi---Final">
    <g id="Algolia-Partner_Visual-Designs_Page1">
     <g id="Choose-partners">
      <g id="Group-10">
       <g id="Technology-Partners">
        <g>
         <g id="Oval">
          <g filter="url(#filter-2)">
           <circle class="fil0" cx="34.45" cy="34.45" r="34.45"/>
          </g>
          <g>
           <circle class="fil1" cx="34.45" cy="34.45" r="34.45"/>
          </g>
         </g>
         <g id="Oval-Copy-5">
          <g>
           <circle class="fil2" cx="34.45" cy="34.45" r="29.53"/>
          </g>
          <g id="Group-8">
           <g>
            <polygon id="Polygon" class="fil3 str0" points="29.78,18.53 35.04,24.79 32.24,32.48 24.19,33.9 18.93,27.63 21.73,19.95 "/>
            <polygon id="Polygon-Copy" class="fil3 str0" points="47.47,25.1 52.73,31.36 49.93,39.05 41.88,40.47 36.62,34.2 39.42,26.52 "/>
            <polygon id="Polygon-Copy-2" class="fil3 str0" points="33.19,36.66 38.45,42.93 35.65,50.61 27.6,52.03 22.34,45.77 25.14,38.08 "/>
           </g>
          </g>
         </g>
        </g>
       </g>
      </g>
     </g>
    </g>
   </g>
  </g>
  <circle class="fil4" cx="34.45" cy="34.45" r="29.84"/>
  <path class="fil5" d="M34.45 11.75c-12.54,0 -22.7,10.16 -22.7,22.7 0,12.54 10.16,22.7 22.7,22.7 12.54,0 22.7,-10.16 22.7,-22.7 0,-12.54 -10.16,-22.7 -22.7,-22.7zm15.64 28.81c-0.88,-0.28 -2.59,-0.37 -3.22,-1.14 -0.32,-0.38 -0.11,-1.81 -0.11,-1.81 2.75,-0.15 3.38,-0.67 3.38,-0.67 0.43,-0.25 0.23,-0.29 0.01,-0.67 -1.19,-2 -0.65,-4.53 -0.71,-6.72 -0.04,-1.82 -0.52,-3.82 -2.18,-4.85 -0.83,-0.51 -2.15,-0.75 -3.43,-0.75 -1.04,0 -2.04,0.15 -2.76,0.45 -4.63,1.86 -1.9,7.99 -3.48,11.5 -0.27,0.59 -0.67,0.8 0.02,1.15 0,0 0.82,0.48 3.15,0.69 0,0 0.03,1.38 0,1.52 -0.12,0.53 -1.29,0.91 -1.72,1.03 -0.29,0.08 -0.95,0.27 -1.79,0.62 -0.4,0.16 -0.34,0.75 0.09,0.83 0.43,0.08 0.88,0.19 1.26,0.32 0,0 2.88,0.66 5.02,2.73 1.44,1.39 1.98,3.01 2.18,4.87 0.05,0.49 -0.19,0.97 -0.6,1.26l-0.62 0.39c-0.21,0.12 -0.46,-0.02 -0.47,-0.26 0,-3.22 -1.94,-6.06 -5,-7.12 -1.47,-0.51 -3.07,-0.55 -4.54,-1.06 -0.45,-0.15 -1.33,-0.34 -1.52,-0.85 -0.17,-0.5 -0.17,-1.09 -0.21,-1.62 -0.02,-0.41 -0.03,-0.83 -0.03,-1.24 0,-0.27 0.7,-0.85 0.85,-1.1 0.59,-0.98 0.64,-2.3 0.75,-3.42 0.95,0.26 1.07,-1.5 1.23,-2.03 0.12,-0.37 0.55,-2.28 -0.28,-2.58 0.27,-0.48 0.38,-1.07 0.46,-1.6 0.22,-1.4 0.31,-2.93 -0.12,-4.29 -0.88,-2.84 -3.6,-4.43 -6.47,-4.52 -2.91,-0.1 -5.84,1.3 -6.93,4.13 -0.52,1.38 -0.48,2.87 -0.31,4.31 0.08,0.66 0.19,1.39 0.51,1.98 -0.7,0.31 -0.49,1.93 -0.37,2.32 0.17,0.56 0.33,2.55 1.32,2.28 0.09,0.88 0.19,1.79 0.43,2.65 0.16,0.58 0.5,1.07 0.9,1.52 0.2,0.22 0.29,0.24 0.28,0.52 -0.01,0.85 0.01,1.77 -0.21,2.6 -0.22,0.83 -2.04,1.18 -2.77,1.33 -1.62,0.33 -3.12,0.51 -4.52,1.26 -1.8,-3 -2.76,-6.45 -2.76,-10.05 0,-5.23 2.1,-10.26 5.81,-13.94 3.66,-3.63 8.5,-5.66 13.65,-5.71 5.2,-0.04 10.23,1.98 13.95,5.62 3.8,3.72 5.89,8.72 5.89,14.03 0,2.72 -0.55,5.34 -1.58,7.76 -0.61,-0.76 -1.46,-1.34 -2.43,-1.66z"/>
 </g>
</svg>
