<svg width="500" height="500" xmlns="http://www.w3.org/2000/svg" xmlns:xlink="http://www.w3.org/1999/xlink"><defs><linearGradient x1="50%" y1="0%" x2="50%" y2="100%" id="a"><stop stop-color="#E4E6F2" offset="0%"/><stop stop-color="#C5C9E0" offset="100%"/></linearGradient><linearGradient x1="50%" y1="100%" x2="50%" y2="0%" id="d"><stop stop-color="#F5F5FA" offset="0%"/><stop stop-color="#FFF" offset="100%"/></linearGradient><path d="M159.87 209.726H66.288c0-8.568 6.983-15.514 15.597-15.514h62.388c8.614 0 15.597 6.946 15.597 15.514" id="c"/><filter x="-24.6%" y="-109.6%" width="149.2%" height="396.5%" filterUnits="objectBoundingBox" id="b"><feOffset dy="4" in="SourceAlpha" result="shadowOffsetOuter1"/><feGaussianBlur stdDeviation="6" in="shadowOffsetOuter1" result="shadowBlurOuter1"/><feColorMatrix values="0 0 0 0 0.145098039 0 0 0 0 0.17254902 0 0 0 0 0.380392157 0 0 0 0.15 0" in="shadowBlurOuter1" result="shadowMatrixOuter1"/><feOffset dy="2" in="SourceAlpha" result="shadowOffsetOuter2"/><feGaussianBlur stdDeviation="1.5" in="shadowOffsetOuter2" result="shadowBlurOuter2"/><feColorMatrix values="0 0 0 0 0.364705882 0 0 0 0 0.392156863 0 0 0 0 0.580392157 0 0 0 0.2 0" in="shadowBlurOuter2" result="shadowMatrixOuter2"/><feMerge><feMergeNode in="shadowMatrixOuter1"/><feMergeNode in="shadowMatrixOuter2"/></feMerge></filter><path d="M212.51 163.184H13.649C6.11 163.184 0 157.106 0 149.61v-17.453h226.158v17.453c0 7.497-6.11 13.575-13.647 13.575" id="f"/><filter x="-10.2%" y="-54.8%" width="120.3%" height="248.3%" filterUnits="objectBoundingBox" id="e"><feOffset dy="4" in="SourceAlpha" result="shadowOffsetOuter1"/><feGaussianBlur stdDeviation="6" in="shadowOffsetOuter1" result="shadowBlurOuter1"/><feColorMatrix values="0 0 0 0 0.145098039 0 0 0 0 0.17254902 0 0 0 0 0.380392157 0 0 0 0.15 0" in="shadowBlurOuter1" result="shadowMatrixOuter1"/><feOffset dy="2" in="SourceAlpha" result="shadowOffsetOuter2"/><feGaussianBlur stdDeviation="1.5" in="shadowOffsetOuter2" result="shadowBlurOuter2"/><feColorMatrix values="0 0 0 0 0.364705882 0 0 0 0 0.392156863 0 0 0 0 0.580392157 0 0 0 0.2 0" in="shadowBlurOuter2" result="shadowMatrixOuter2"/><feMerge><feMergeNode in="shadowMatrixOuter1"/><feMergeNode in="shadowMatrixOuter2"/></feMerge></filter><path d="M30.525 58.276h248.05a4.125 4.125 0 0 1 4.125 4.125v47.873a4.125 4.125 0 0 1-4.125 4.125H30.525a4.125 4.125 0 0 1-4.125-4.125V62.4a4.125 4.125 0 0 1 4.125-4.125z" id="h"/><filter x="-9%" y="-30.3%" width="117.9%" height="182%" filterUnits="objectBoundingBox" id="g"><feOffset dy="4" in="SourceAlpha" result="shadowOffsetOuter1"/><feGaussianBlur stdDeviation="6" in="shadowOffsetOuter1" result="shadowBlurOuter1"/><feColorMatrix values="0 0 0 0 0.145098039 0 0 0 0 0.17254902 0 0 0 0 0.380392157 0 0 0 0.15 0" in="shadowBlurOuter1" result="shadowMatrixOuter1"/><feOffset dy="2" in="SourceAlpha" result="shadowOffsetOuter2"/><feGaussianBlur stdDeviation="1.5" in="shadowOffsetOuter2" result="shadowBlurOuter2"/><feColorMatrix values="0 0 0 0 0.364705882 0 0 0 0 0.392156863 0 0 0 0 0.580392157 0 0 0 0.2 0" in="shadowBlurOuter2" result="shadowMatrixOuter2"/><feMerge><feMergeNode in="shadowMatrixOuter1"/><feMergeNode in="shadowMatrixOuter2"/></feMerge></filter><path d="M206.662.198H19.496c-6.46 0-11.698 5.23-11.698 11.68v128.486H218.36V11.878c0-6.45-5.238-11.68-11.698-11.68z" id="j"/><filter x="-5%" y="-6.1%" width="110%" height="115%" filterUnits="objectBoundingBox" id="i"><feOffset dy="1" in="SourceAlpha" result="shadowOffsetOuter1"/><feGaussianBlur stdDeviation="3" in="shadowOffsetOuter1" result="shadowBlurOuter1"/><feColorMatrix values="0 0 0 0 0.145098039 0 0 0 0 0.17254902 0 0 0 0 0.380392157 0 0 0 0.15 0" in="shadowBlurOuter1" result="shadowMatrixOuter1"/><feOffset dy="1" in="SourceAlpha" result="shadowOffsetOuter2"/><feGaussianBlur stdDeviation=".5" in="shadowOffsetOuter2" result="shadowBlurOuter2"/><feColorMatrix values="0 0 0 0 0.364705882 0 0 0 0 0.392156863 0 0 0 0 0.580392157 0 0 0 0.2 0" in="shadowBlurOuter2" result="shadowMatrixOuter2"/><feMerge><feMergeNode in="shadowMatrixOuter1"/><feMergeNode in="shadowMatrixOuter2"/></feMerge></filter><path d="M218.36 155.938H7.798c-4.307 0-7.798-3.486-7.798-7.787v-3.893a3.897 3.897 0 0 1 3.9-3.894h218.36a3.896 3.896 0 0 1 3.899 3.894v3.893c0 4.301-3.492 7.787-7.8 7.787z" id="l"/><filter x="-10.2%" y="-109.2%" width="120.3%" height="395.4%" filterUnits="objectBoundingBox" id="k"><feOffset dy="4" in="SourceAlpha" result="shadowOffsetOuter1"/><feGaussianBlur stdDeviation="6" in="shadowOffsetOuter1" result="shadowBlurOuter1"/><feColorMatrix values="0 0 0 0 0.145098039 0 0 0 0 0.17254902 0 0 0 0 0.380392157 0 0 0 0.15 0" in="shadowBlurOuter1" result="shadowMatrixOuter1"/><feOffset dy="2" in="SourceAlpha" result="shadowOffsetOuter2"/><feGaussianBlur stdDeviation="1.5" in="shadowOffsetOuter2" result="shadowBlurOuter2"/><feColorMatrix values="0 0 0 0 0.364705882 0 0 0 0 0.392156863 0 0 0 0 0.580392157 0 0 0 0.2 0" in="shadowBlurOuter2" result="shadowMatrixOuter2"/><feMerge><feMergeNode in="shadowMatrixOuter1"/><feMergeNode in="shadowMatrixOuter2"/></feMerge></filter><path d="M7.891 0h39.242c4.317 0 7.849 3.512 7.849 7.804v84.278c0 4.292-3.532 7.803-7.849 7.803H7.891c-4.316 0-7.848-3.511-7.848-7.803V7.804C.043 3.512 3.575 0 7.89 0z" id="n"/><filter x="-41.9%" y="-17%" width="183.7%" height="146.1%" filterUnits="objectBoundingBox" id="m"><feOffset dy="4" in="SourceAlpha" result="shadowOffsetOuter1"/><feGaussianBlur stdDeviation="6" in="shadowOffsetOuter1" result="shadowBlurOuter1"/><feColorMatrix values="0 0 0 0 0.145098039 0 0 0 0 0.17254902 0 0 0 0 0.380392157 0 0 0 0.15 0" in="shadowBlurOuter1" result="shadowMatrixOuter1"/><feOffset dy="2" in="SourceAlpha" result="shadowOffsetOuter2"/><feGaussianBlur stdDeviation="1.5" in="shadowOffsetOuter2" result="shadowBlurOuter2"/><feColorMatrix values="0 0 0 0 0.364705882 0 0 0 0 0.392156863 0 0 0 0 0.580392157 0 0 0 0.2 0" in="shadowBlurOuter2" result="shadowMatrixOuter2"/><feMerge><feMergeNode in="shadowMatrixOuter1"/><feMergeNode in="shadowMatrixOuter2"/></feMerge></filter></defs><g fill="none" fill-rule="evenodd"><g stroke-width="1.142"><path d="M236.301 214.795L148.401 0m66.211 231.648l-213.47-90.26" stroke="#C5C9E0"/><path d="M214.612 259.069L0 347.044" stroke="#C5C9E0" stroke-dasharray="11.416"/><path d="M236.301 285.205L146.12 498.857m117.579-213.652L351.599 500" stroke="#C5C9E0"/><path d="M285.388 259.069l212.329 90.26" stroke="#5468FF"/><path d="M285.388 231.648L500 143.674" stroke="#C5C9E0" stroke-dasharray="11.416"/><path d="M263.699 214.795L353.88 1.143m-103.302 209.94L250 47.7" stroke="#C5C9E0"/><path d="M224.886 221.366L81.05 77.406" stroke="#C5C9E0" stroke-dasharray="11.416"/><path d="M216.895 245.359l-204.338.578m212.329 26.843L81.05 416.737" stroke="#C5C9E0"/><path d="M250 292.202l.578 204.513" stroke="#C5C9E0" stroke-dasharray="11.416"/><path d="M273.973 272.78l143.835 143.958M284.247 245.937l204.337-.578m-214.611-23.993l143.835-143.96" stroke="#C5C9E0"/></g><g fill-rule="nonzero"><path d="M81 261.156V142.863c0-7.498 6.11-13.575 13.648-13.575H293.51c7.537 0 13.648 6.077 13.648 13.575v118.293H81z" fill="#C5C9E0"/><path d="M0 132.156V13.863C0 6.365 6.11.288 13.648.288H96.8c-.01 0-6.243 43.956-18.7 131.868H0z" fill-opacity=".3" fill="url(#a)" transform="translate(81 129)"/><g transform="translate(81 129)"><use fill="#000" filter="url(#b)" xlink:href="#c"/><use fill="url(#d)" fill-rule="evenodd" xlink:href="#c"/></g><path fill="#C5C9E0" opacity=".308" d="M221.374 323.212h-54.59l7.799-31.028h38.993z"/><g transform="translate(81 129)"><use fill="#000" filter="url(#e)" xlink:href="#f"/><use fill="url(#d)" fill-rule="evenodd" xlink:href="#f"/></g></g><g transform="translate(81 129)"><use fill="#000" filter="url(#g)" xlink:href="#h"/><use fill="url(#d)" xlink:href="#h"/></g><path d="M142.695 221.459c3.949-3.948 3.95-10.348.004-14.295-3.947-3.946-10.347-3.945-14.295.003-3.949 3.949-3.95 10.349-.004 14.295 3.947 3.947 10.347 3.945 14.295-.003zm1.878 1.622l.875-.875h-1.75l.875.875zm4.266 4.266l.875.875v-1.75l-.875.875zm-.256.256l-.875.875h1.75l-.875-.875zm-4.266-4.266l-.875-.875v1.75l.875-.875z" stroke="#5468FF" stroke-width="2.475"/><g fill-rule="nonzero"><g transform="translate(206.4 215.864)"><use fill="#000" filter="url(#i)" xlink:href="#j"/><use fill="url(#d)" fill-rule="evenodd" xlink:href="#j"/></g><g transform="translate(206.4 215.864)"><use fill="#000" filter="url(#k)" xlink:href="#l"/><use fill="url(#d)" fill-rule="evenodd" xlink:href="#l"/></g><path d="M332.667 364.015h-26.375a3.9 3.9 0 0 1-3.487-2.151l-2.822-5.635h38.993l-2.822 5.635a3.9 3.9 0 0 1-3.487 2.151z" fill-opacity=".5" fill="#C5C9E0"/></g><path d="M409.466 344.765H230.099a3.897 3.897 0 0 1-3.899-3.894V231.853a3.897 3.897 0 0 1 3.9-3.894h179.366c2.154 0 3.9 1.744 3.9 3.894v109.018a3.898 3.898 0 0 1-3.9 3.894z" fill="#C5C9E0"/><path d="M212.604 215.765h-63.505a3.897 3.897 0 0 1-3.899-3.894V102.853a3.897 3.897 0 0 1 3.9-3.894h82.705c-.049 0-5.15 37.638-15.302 112.912a3.898 3.898 0 0 1-3.9 3.894z" fill-opacity=".3" fill="url(#a)" transform="translate(81 129)"/><g fill-rule="nonzero"><g transform="translate(98.6 271.941)"><use fill="#000" filter="url(#m)" xlink:href="#n"/><use fill="url(#d)" fill-rule="evenodd" xlink:href="#n"/></g><path d="M104.922 285.987h42.38c.864 0 1.57.703 1.57 1.561v68.671a1.57 1.57 0 0 1-1.57 1.561h-42.38a1.57 1.57 0 0 1-1.57-1.56v-68.672c0-.858.707-1.56 1.57-1.56z" fill="#C5C9E0"/><path d="M6.322 14.046H35.2c-.037 0-4.28 23.41-12.73 70.232a1.57 1.57 0 0 1-1.57 1.56H6.322a1.57 1.57 0 0 1-1.57-1.56V15.607c0-.858.707-1.56 1.57-1.56z" fill-opacity=".3" fill="url(#a)" transform="translate(98.6 271.941)"/><path d="M126.113 360.901c2.197 0 3.924 1.717 3.924 3.902s-1.727 3.902-3.924 3.902c-2.198 0-3.925-1.717-3.925-3.902s1.727-3.902 3.925-3.902zm-4.71-83.497h9.418c.864 0 1.57.702 1.57 1.56a1.57 1.57 0 0 1-1.57 1.561h-9.418a1.57 1.57 0 0 1-1.57-1.56 1.57 1.57 0 0 1 1.57-1.561z" fill-opacity=".5" fill="#C5C9E0"/></g></g></svg>