<svg xmlns="http://www.w3.org/2000/svg" width="559" height="346"><defs><linearGradient id="a" x1="45.324%" x2="99.701%" y1="50.005%" y2="50.005%"><stop offset="0%" stop-color="#A6A6F4"/><stop offset="7.677%" stop-color="#E1E1FF"/><stop offset="99.93%" stop-color="#A6A6F4"/></linearGradient><linearGradient id="b" x1=".008%" x2="99.986%" y1="49.999%" y2="49.999%"><stop offset="0%" stop-color="#E1E1FF"/><stop offset="100%" stop-color="#E1E1FF"/></linearGradient><linearGradient id="c" x1=".002%" x2="99.989%" y1="50.005%" y2="50.005%"><stop offset="3%" stop-color="#35C5CD"/><stop offset="54%" stop-color="#0F9"/><stop offset="100%" stop-color="#35C5CD"/></linearGradient><linearGradient id="d" x1="49.999%" x2="49.999%" y1="100.027%" y2=".03%"><stop offset="0%" stop-color="#0F9"/><stop offset="100%" stop-color="#35C5CD"/></linearGradient><linearGradient id="e" x1=".026%" x2="99.974%" y1="50%" y2="50%"><stop offset="2%" stop-color="#1F8AAB"/><stop offset="6%" stop-color="#2498B3"/><stop offset="14%" stop-color="#2CACBF"/><stop offset="23%" stop-color="#31BAC7"/><stop offset="34%" stop-color="#34C3CC"/><stop offset="53%" stop-color="#35C5CD"/><stop offset="69%" stop-color="#34C2CB"/><stop offset="80%" stop-color="#31B9C6"/><stop offset="89%" stop-color="#2BAABE"/><stop offset="97%" stop-color="#2395B2"/><stop offset="100%" stop-color="#1F8AAB"/></linearGradient><linearGradient id="f" x1="93.793%" x2="-.33%" y1="50.006%" y2="50.006%"><stop offset="0%" stop-color="#E1E1FF"/><stop offset="31.118%" stop-color="#FCFCFE"/><stop offset="41.519%" stop-color="#E1E1FF"/><stop offset="100%" stop-color="#FCFCFE"/></linearGradient><linearGradient id="g" x1="-7.86%" x2="56.959%" y1="50.005%" y2="50.005%"><stop offset="0%" stop-color="#E1E1FF"/><stop offset="99.93%" stop-color="#A6A6F4"/></linearGradient><linearGradient id="h" x1="49.997%" x2="49.997%" y1=".014%" y2="99.983%"><stop offset="0%" stop-color="#FCFCFE"/><stop offset="100%" stop-color="#E4E4FF"/></linearGradient><linearGradient id="i" x1="41.001%" x2="100.002%" y1="50%" y2="50%"><stop offset="0%" stop-color="#35C5CD"/><stop offset="10.157%" stop-color="#0F9"/><stop offset="100%" stop-color="#35C5CD"/></linearGradient><linearGradient id="j" x1="49.997%" x2="49.997%" y1="99.983%" y2=".014%"><stop offset="0%" stop-color="#FCFCFE"/><stop offset="100%" stop-color="#E4E4FF"/></linearGradient><linearGradient id="k" x1="-.003%" x2="100.031%" y1="50.023%" y2="50.023%"><stop offset="0%" stop-color="#A6FFDC"/><stop offset="100%" stop-color="#00C8D4"/></linearGradient><linearGradient id="l" x1="50.014%" x2="50.014%" y1="100.039%" y2=".006%"><stop offset="0%" stop-color="#A6FFDC"/><stop offset="100%" stop-color="#00C8D4"/></linearGradient><linearGradient id="m" x1="12069%" x2="24940%" y1="3574%" y2="3574%"><stop offset="0%" stop-color="#FCFCFE"/><stop offset="100%" stop-color="#E1E1FF"/></linearGradient><linearGradient id="n" x1="12069%" x2="24940%" y1="2477%" y2="2477%"><stop offset="0%" stop-color="#FCFCFE"/><stop offset="100%" stop-color="#E1E1FF"/></linearGradient><linearGradient id="o" x1="12069%" x2="24940%" y1="5273%" y2="5273%"><stop offset="0%" stop-color="#FCFCFE"/><stop offset="100%" stop-color="#E1E1FF"/></linearGradient></defs><g fill="none"><g opacity=".95"><path fill="url(#a)" d="M558.363 165.423c0-3.926-2.55-7.851-7.739-10.864L298.437 8.582c-10.379-6.026-27.313-6.026-37.6 0L8.648 154.559C3.459 157.572.91 161.497.91 165.423v16.341h.456c-1.457 4.747 1.001 9.86 7.374 13.603l252.187 145.977c10.38 6.025 27.313 6.025 37.6 0l252.188-145.977c6.373-3.652 8.74-8.764 7.375-13.603h.455v-16.341h-.182z"/><path fill="url(#b)" d="M8.649 151.364c-10.379 6.025-10.379 15.793 0 21.819L260.836 319.16c10.38 6.025 27.313 6.025 37.6 0l252.188-145.977c10.379-6.026 10.379-15.794 0-21.82L298.437 5.387c-10.379-6.025-27.313-6.025-37.6 0L8.648 151.364z"/></g><path fill="#6161AA" d="M373.16 232.08l75.36-43.51c4.28-2.47 4.75-6.21 1-8.35l-65.22-37.68c-3.71-2.14-10.19-1.87-14.47.6l-17.92 10.34-65.67-37.91a8.13 8.13 0 0 0-4.29-.87l-27.59 1.14c-3.46.14-6.46 1.88-6.7 3.87l-2 16.44a2.55 2.55 0 0 0 1.51 2.48l5.68 3.28a8.13 8.13 0 0 0 4.29.87l8.92-.37c3.46-.14 6.05 1.36 5.81 3.35l-.36 2.91c-.25 2 2.35 3.5 5.81 3.35l5-.21c3.45-.14 6.05 1.36 5.81 3.35l-.64 5.15a2.55 2.55 0 0 0 1.51 2.49l23.4 13.51-17.92 10.34c-4.28 2.47-4.75 6.21-1 8.35l65.26 37.68c3.66 2.14 10.14 1.88 14.42-.6zm-170.07-1.68l69.58 40.17a8.13 8.13 0 0 0 4.29.87l27.59-1.14c3.46-.14 6.46-1.88 6.7-3.87l2-16.44a2.55 2.55 0 0 0-1.51-2.48l-5.68-3.28a8.13 8.13 0 0 0-4.29-.87l-8.92.37c-3.46.14-6.05-1.36-5.81-3.35l.36-2.91c.25-2-2.35-3.5-5.81-3.35l-5 .21c-3.45.14-6.05-1.36-5.81-3.35l.64-5.15a2.55 2.55 0 0 0-1.51-2.48l-27.31-15.76c8.83-12.45 5.83-26.28-9.77-35.28-21.73-12.55-59.69-11-84.78 3.51-25.09 14.51-27.8 36.4-6.05 48.94 15.57 9.01 39.53 10.74 61.09 5.64z" opacity=".2"/><path fill="url(#c)" d="M106.6 57.59C84.87 45 46.92 46.61 21.82 61.1 7.92 69.13.88 79.44 1.07 89.17c.06 2.93-.24 15.9.07 19.5.62 7.33 5.44 14.33 14.6 19.6 21.73 12.55 59.69 11 84.78-3.51 14.23-8.21 21.26-18.82 20.73-28.75-.15-2.69.2-14.89 0-18.34-.46-7.54-5.25-14.67-14.65-20.08z" transform="translate(125 65)"/><path fill="url(#d)" d="M100.52 106.53C75.43 121 37.47 122.59 15.74 110-6 97.5-3.27 75.59 21.82 61.1c25.1-14.49 63.05-16.1 84.79-3.51 21.73 12.54 19 34.41-6.09 48.94z" transform="translate(125 65)"/><path fill="url(#e)" d="M57.55 65.24c-6.62-3.82-17.45-3.82-24.08 0-6.63 3.82-6.62 10.08 0 13.9 6.62 3.82 17.45 3.82 24.08 0 6.63-3.82 6.62-10.08 0-13.9z" transform="translate(125 65)"/><path fill="url(#f)" d="M187.06 134.79a2.55 2.55 0 0 0-1.51-2.48l-5.68-3.31a8.12 8.12 0 0 0-4.29-.87l-8.92.37c-3.46.14-6.05-1.36-5.81-3.35l.36-2.91c.25-2-2.35-3.5-5.81-3.35l-5 .21c-3.45.14-6.05-1.36-5.81-3.35l.64-5.15a2.55 2.55 0 0 0-1.51-2.48l-27.39-16.19c-11.49 14.72-26.82 19.47-39.48 22.76v19.17L146.43 174a8.13 8.13 0 0 0 4.29.88l27.59-1.14c3.46-.14 6.46-1.88 6.7-3.87l2-16.44c.17-.94.05-18.64.05-18.64z" transform="translate(125 65)"/><path fill="url(#g)" d="M325.82 70.06a4.34 4.34 0 0 0-2.5-3.52l-65.26-37.68c-3.71-2.14-10.19-1.87-14.47.6L225.67 39.8 160 1.88a8.13 8.13 0 0 0-4.3-.88l-27.58 1.15c-3.46.14-6.46 1.88-6.7 3.87l-2 16.44c-.12 1 0 18.67 0 18.67a2.55 2.55 0 0 0 1.51 2.48l5.68 3.28a8.13 8.13 0 0 0 4.29.87l8.92-.37c3.46-.14 6.05 1.36 5.81 3.35l-.36 2.91c-.25 2 2.35 3.5 5.81 3.35l5-.21c3.45-.14 6.05 1.36 5.81 3.35l-.64 5.15a2.55 2.55 0 0 0 1.51 2.48L170 72l-1.75 1c-2.29 1.32-3.49 3-3.54 4.61 0 1.4.05 17.07 0 18.67 0 1.4.78 2.74 2.5 3.73l65.26 37.68c3.71 2.14 10.19 1.87 14.47-.6l75.36-43.51c2.33-1.35 3.53-3.07 3.54-4.71-.01-1.39.04-17.14-.02-18.81z" transform="translate(125 65)"/><path fill="url(#h)" d="M246.92 118.4l75.36-43.51c4.28-2.47 4.75-6.21 1-8.35l-65.22-37.68c-3.71-2.14-10.19-1.87-14.47.6L225.67 39.8 160 1.88a8.13 8.13 0 0 0-4.3-.88l-27.58 1.15c-3.46.14-6.46 1.88-6.7 3.87l-2 16.44a2.55 2.55 0 0 0 1.51 2.48l5.68 3.28a8.13 8.13 0 0 0 4.29.87l8.92-.37c3.46-.14 6.05 1.36 5.81 3.35l-.41 2.93c-.25 2 2.35 3.5 5.81 3.35l5-.21c3.45-.14 6.05 1.36 5.81 3.35l-.64 5.15a2.55 2.55 0 0 0 1.51 2.48l23.4 13.51L168.23 73c-4.28 2.47-4.75 6.21-1 8.35L232.45 119c3.71 2.14 10.19 1.87 14.47-.6z" transform="translate(125 65)"/><path fill="url(#i)" d="M325.8 71c.19-1.51-.62-3-2.48-4.05L258.06 29.3c-3.71-2.14-10.19-1.87-14.47.6l-75.36 43.51c-2.51 1.45-3.71 3.33-3.52 5.07.13 1.23.34 15.75.05 17.18-.32 1.6.47 3.19 2.43 4.32l65.26 37.68c3.71 2.14 10.19 1.87 14.47-.6l75.36-43.51c2.35-1.36 3.55-3.1 3.54-4.74 0-1.35-.21-16.26-.02-17.81z" transform="translate(125 65)"/><path fill="url(#d)" d="M168.23 73.41l75.36-43.51c4.28-2.47 10.76-2.74 14.47-.6L323.32 67c3.71 2.14 3.24 5.88-1 8.35l-75.36 43.51c-4.28 2.47-10.76 2.74-14.47.6l-65.3-37.7c-3.71-2.14-3.24-5.88 1.04-8.35z" transform="translate(125 65)"/><path fill="url(#e)" d="M274.88 77.24c-6.62-3.82-17.45-3.82-24.08 0-6.63 3.82-6.62 10.08 0 13.9 6.62 3.82 17.45 3.82 24.08 0 6.63-3.82 6.62-10.08 0-13.9z" transform="translate(125 65)"/><path fill="url(#j)" d="M76.85 114.69l69.58 40.74a8.13 8.13 0 0 0 4.29.87l27.59-1.14c3.46-.14 6.46-1.88 6.7-3.87l2-16.44a2.55 2.55 0 0 0-1.51-2.48l-5.68-3.28a8.13 8.13 0 0 0-4.29-.87l-8.92.37c-3.46.14-6.05-1.36-5.81-3.35l.36-2.91c.25-2-2.35-3.5-5.81-3.35l-5 .21c-3.45.14-6.05-1.36-5.81-3.35l.64-5.15a2.55 2.55 0 0 0-1.51-2.48l-27.34-16.28s-8.73 14.88-39.48 22.76z" transform="translate(125 65)"/><path fill="url(#k)" d="M33.95 65.205c6.62-3.82 17.45-3.82 24.07 0 2.8 1.62 4.4 3.67 4.83 5.78.59-2.89-1-5.91-4.83-8.12-6.62-3.82-17.45-3.82-24.07 0-3.82 2.21-5.42 5.22-4.83 8.12.43-2.12 2.03-4.17 4.83-5.78zm217 12c6.62-3.82 17.45-3.82 24.08 0 2.8 1.62 4.4 3.67 4.83 5.78.59-2.89-1-5.91-4.83-8.12-6.62-3.82-17.46-3.82-24.08 0-3.82 2.21-5.42 5.22-4.83 8.12.43-2.12 2.02-4.17 4.83-5.78z" transform="translate(125 65)"/><path fill="url(#l)" d="M100.44 104.59c-25.09 14.49-63.05 16.06-84.78 3.51-9.4-5.38-14.21-12.6-14.63-20.17-.46 8.36 4.34 16.41 14.63 22.36 21.73 12.55 59.69 11 84.78-3.51 14.24-8.22 21.27-18.84 20.72-28.78-.52 9.28-7.52 18.96-20.72 26.59zm222.15-31.01l-75.36 43.51c-4.28 2.47-10.76 2.74-14.47.6L167.5 80.01a4.85 4.85 0 0 1-2.32-2.56c-.56 1.75.18 3.51 2.32 4.74l65.26 37.72c3.71 2.14 10.19 1.87 14.47-.6l75.36-43.51c2.86-1.65 4-3.87 3.36-5.8a7 7 0 0 1-3.36 3.58z" transform="translate(125 65)"/><path fill="#FFF" d="M310.16 212.86c-.25 2-3.25 3.73-6.7 3.87l-27.59 1.14a8.13 8.13 0 0 1-4.29-.87l-66.09-37c-1.13.33-2.29.65-3.49 1l69.58 39.07a8.13 8.13 0 0 0 4.29.87l27.59-1.14c3.46-.14 6.46-1.88 6.7-3.87l2-16.44a2.06 2.06 0 0 0-.22-1.2l-1.78 14.57z"/><path fill="url(#m)" d="M161.667 39.29c.25-2-2.35-3.5-5.81-3.35l-5 .21c-2.71.11-4.89-.79-5.58-2.15l-.26 1.81c-.25 2 2.35 3.5 5.81 3.35l5-.21c2.71-.11 4.89.79 5.58 2.15l.26-1.81z" transform="translate(125 65)"/><path fill="url(#n)" d="M145.214 29.4c.25-2-2.35-3.5-5.81-3.35l-8.92.37a8.13 8.13 0 0 1-4.29-.87l-5.68-3.28a3.19 3.19 0 0 1-1.29-1.27l-.22 1.8a2.55 2.55 0 0 0 1.51 2.48l5.68 3.28a8.13 8.13 0 0 0 4.29.87l8.92-.37c2.71-.11 4.89.79 5.58 2.15l.23-1.81z" transform="translate(125 65)"/><path fill="url(#o)" d="M188.514 61.27l-26-15a3.2 3.2 0 0 1-1.29-1.27l-.22 1.8a2.55 2.55 0 0 0 1.51 2.48l23.4 13.51 2.6-1.52z" transform="translate(125 65)"/></g></svg>