<?xml version="1.0" encoding="UTF-8"?>
<!DOCTYPE svg PUBLIC "-//W3C//DTD SVG 1.1//EN" "http://www.w3.org/Graphics/SVG/1.1/DTD/svg11.dtd">
<!-- Creator: CorelDRAW 2019 (64-Bit) -->
<svg xmlns="http://www.w3.org/2000/svg" xml:space="preserve" width="1.56249in" height="0.389079in" version="1.1" style="shape-rendering:geometricPrecision; text-rendering:geometricPrecision; image-rendering:optimizeQuality; fill-rule:evenodd; clip-rule:evenodd"
viewBox="0 0 52.06 12.96"
 xmlns:xlink="http://www.w3.org/1999/xlink"
 xmlns:xodm="http://www.corel.com/coreldraw/odm/2003">
 <defs>
  <style type="text/css">
   <![CDATA[
    .fil0 {fill:#6658D7}
    .fil2 {fill:white}
    .fil1 {fill:white;fill-rule:nonzero}
    .fil3 {fill:white;fill-rule:nonzero}
   ]]>
  </style>
 </defs>
 <g id="Capa_x0020_1">
  <metadata id="CorelCorpID_0Corel-Layer"/>
  <path class="fil0" d="M6.42 12.83l-0 0c-3.53,0 -6.42,-2.89 -6.42,-6.42l0 -0c0,-3.53 2.89,-6.42 6.42,-6.42l0 0 6.42 0.04 0 6.38 0 0c0,3.53 -2.89,6.42 -6.42,6.42z"/>
  <path class="fil1" d="M9.14 10.9c0.64,0 1.15,-0.5 1.15,-1.23l0 -1.97c0,-0.3 0.25,-0.53 0.74,-0.54l0 -1.57c-0.47,-0.01 -0.74,-0.25 -0.74,-0.59l0 -2.02c0,-0.74 -0.5,-1.22 -1.15,-1.22l-1 0 0 1.15 0.39 0c0.34,0 0.47,0.21 0.47,0.56l0 1.96c0,0.55 0.24,0.87 0.82,0.93l0.01 0 0 0.04c-0.53,0.04 -0.82,0.38 -0.82,0.81l0 1.98c0,0.39 -0.16,0.56 -0.5,0.56l-0.37 0 0 1.15 1 0zm-4.44 0l0 -1.15 -0.37 0c-0.34,0 -0.5,-0.17 -0.5,-0.56l0 -1.98c0,-0.43 -0.3,-0.77 -0.82,-0.81l0 -0.04 0.01 0c0.58,-0.05 0.82,-0.38 0.82,-0.93l0 -1.96c0,-0.35 0.13,-0.56 0.47,-0.56l0.39 0 0 -1.15 -1 0c-0.65,0 -1.15,0.48 -1.15,1.22l0 2.02c0,0.34 -0.27,0.58 -0.74,0.59l0 1.57c0.49,0.01 0.74,0.24 0.74,0.54l0 1.97c0,0.73 0.5,1.23 1.15,1.23l1 0z"/>
  <rect class="fil2" x="4.13" y="5.84" width="4.58" height="1.15" rx="0.27" ry="0.18"/>
  <path class="fil3" d="M19.96 2.64c-0.11,-0.63 -0.46,-1.19 -1.04,-1.69 -0.61,-0.52 -1.29,-0.76 -2.14,-0.76 -1.76,0 -3.16,1.47 -3.16,3.09 0,0.93 0.28,1.71 0.95,2.36 0.63,0.62 1.44,0.92 2.29,0.92 1.45,0 2.72,-0.94 3.1,-2.41l-1.64 0c-0.32,0.69 -0.85,1.04 -1.48,1.04 -0.97,0 -1.65,-0.83 -1.65,-1.83 0,-0.95 0.66,-1.79 1.64,-1.79 0.64,0 1.22,0.4 1.49,1.07l1.64 0z"/>
  <path id="1" class="fil3" d="M24.82 4.13c0,-1.39 -1.1,-2.43 -2.48,-2.43 -1.38,0 -2.48,1.02 -2.48,2.45 0,1.41 1.08,2.45 2.48,2.45 1.39,0 2.48,-1.02 2.48,-2.46zm-2.48 1.18c-0.62,0 -1.1,-0.53 -1.1,-1.16 0,-0.63 0.49,-1.16 1.1,-1.16 0.65,0 1.11,0.55 1.11,1.16 0,0.61 -0.46,1.16 -1.1,1.16z"/>
  <path id="2" class="fil3" d="M29.75 6.45l0 -6.14 -1.38 0 0 1.92c-0.39,-0.39 -0.82,-0.55 -1.35,-0.55 -1.34,0 -2.28,1.07 -2.28,2.45 0,1.39 0.91,2.46 2.31,2.46 0.66,0 1.12,-0.22 1.38,-0.65l0.02 0 0 0.5 1.31 0zm-2.48 -1.14c-0.66,0 -1.15,-0.49 -1.15,-1.19 0,-0.67 0.51,-1.15 1.16,-1.15 0.68,0 1.17,0.51 1.17,1.15 0,0.68 -0.51,1.19 -1.18,1.19z"/>
  <path id="3" class="fil3" d="M34.67 4.57c0.02,-0.12 0.03,-0.23 0.03,-0.37 0,-1.43 -1.05,-2.51 -2.43,-2.51 -1.35,0 -2.41,1.15 -2.41,2.47 0,1.37 1.11,2.44 2.44,2.44 0.97,0 1.81,-0.59 2.25,-1.59l-1.41 0c-0.22,0.29 -0.46,0.43 -0.84,0.43 -0.56,0 -1,-0.35 -1.08,-0.87l3.45 0zm-3.44 -0.93c0.11,-0.49 0.54,-0.79 1.04,-0.79 0.53,0 0.95,0.32 1.05,0.79l-2.09 0z"/>
  <path id="4" class="fil3" d="M39.47 6.45l0 -4.54 -0.58 0 0 0.8 -0.02 0c-0.37,-0.57 -1.01,-0.91 -1.77,-0.91 -1.33,0 -2.44,1.01 -2.44,2.37 0,1.36 1.08,2.39 2.44,2.39 0.74,0 1.39,-0.34 1.77,-0.9l0.02 0 0 0.8 0.58 0zm-2.36 -0.41c-1.07,0 -1.86,-0.8 -1.86,-1.84 0,-1.08 0.8,-1.88 1.85,-1.88 1.03,0 1.83,0.85 1.83,1.87 0,1.02 -0.8,1.85 -1.82,1.85z"/>
  <path id="5" class="fil3" d="M43.94 6.45l0 -2.53c0,-1.26 -0.75,-2.12 -2,-2.12 -0.59,0 -1.1,0.26 -1.39,0.7l-0.02 0 0 -0.58 -0.58 0 0 4.54 0.58 0 0 -2.57c0,-0.89 0.54,-1.56 1.42,-1.56 0.8,0 1.41,0.58 1.41,1.6l0 2.53 0.58 0z"/>
  <path id="6" class="fil3" d="M49.02 6.45l0 -6.14 -0.58 0 0 2.38 -0.02 0c-0.39,-0.56 -1.06,-0.9 -1.77,-0.9 -1.33,0 -2.44,1.01 -2.44,2.37 0,1.36 1.08,2.39 2.44,2.39 0.71,0 1.37,-0.32 1.77,-0.9l0.02 0 0 0.8 0.58 0zm-2.36 -0.41c-1.08,0 -1.86,-0.8 -1.86,-1.84 0,-1.07 0.79,-1.88 1.85,-1.88 1.04,0 1.83,0.85 1.83,1.87 0,1.03 -0.81,1.85 -1.82,1.85l0 0z"/>
  <polygon id="7" class="fil3" points="19.01,12.81 19.01,6.67 17.45,6.67 17.45,8.97 15.44,8.97 15.44,6.67 13.87,6.67 13.87,12.81 15.44,12.81 15.44,10.35 17.45,10.35 17.45,12.81 "/>
  <path id="8" class="fil3" d="M24.26 12.81l0 -4.6 -1.38 0 0 0.49 -0.02 0c-0.27,-0.42 -0.79,-0.65 -1.35,-0.65 -1.32,0 -2.31,1.1 -2.31,2.46 0,1.39 0.95,2.46 2.31,2.46 0.61,0 1.15,-0.25 1.35,-0.66l0.02 0 0 0.5 1.38 0zm-2.53 -1.13c-0.64,0 -1.15,-0.52 -1.15,-1.16 0,-0.66 0.5,-1.19 1.13,-1.19 0.65,0 1.17,0.52 1.17,1.17 0,0.66 -0.51,1.18 -1.15,1.18z"/>
  <path id="9" class="fil3" d="M25.99 12.81l0 -2.54c0,-0.52 0.27,-0.83 1.09,-0.84l0 -1.39c-0.53,0 -0.91,0.16 -1.15,0.65l-0.02 0 0 -0.49 -1.29 0 0 4.6 1.38 0z"/>
  <path id="10" class="fil3" d="M31.72 12.81l0 -6.14 -1.38 0 0 1.92c-0.39,-0.39 -0.82,-0.55 -1.35,-0.55 -1.34,0 -2.28,1.07 -2.28,2.45 0,1.39 0.91,2.46 2.31,2.46 0.66,0 1.12,-0.22 1.38,-0.65l0.02 0 0 0.5 1.31 0zm-2.48 -1.14c-0.66,0 -1.15,-0.49 -1.15,-1.19 0,-0.67 0.51,-1.15 1.16,-1.15 0.68,0 1.17,0.51 1.17,1.15 0,0.68 -0.51,1.19 -1.18,1.19z"/>
  <polygon id="11" class="fil3" points="37.15,12.81 38.57,8.2 37.15,8.2 36.46,11.06 36.45,11.06 35.68,8.2 34.52,8.2 33.77,11.06 33.75,11.06 33.06,8.2 31.63,8.2 33.04,12.81 34.32,12.81 35.09,9.83 35.11,9.83 35.88,12.81 "/>
  <path id="12" class="fil3" d="M43.15 12.81l0 -4.6 -1.38 0 0 0.49 -0.02 0c-0.27,-0.42 -0.79,-0.65 -1.35,-0.65 -1.32,0 -2.31,1.1 -2.31,2.46 0,1.39 0.95,2.46 2.31,2.46 0.61,0 1.15,-0.25 1.35,-0.66l0.02 0 0 0.5 1.38 0zm-2.53 -1.13c-0.64,0 -1.15,-0.52 -1.15,-1.16 0,-0.66 0.5,-1.19 1.13,-1.19 0.65,0 1.17,0.52 1.17,1.17 0,0.66 -0.51,1.18 -1.15,1.18z"/>
  <path id="13" class="fil3" d="M44.88 12.81l0 -2.54c0,-0.52 0.27,-0.83 1.09,-0.84l0 -1.39c-0.53,0 -0.91,0.16 -1.15,0.65l-0.02 0 0 -0.49 -1.29 0 0 4.6 1.38 0z"/>
  <path id="14" class="fil3" d="M50.38 10.92c0.02,-0.12 0.03,-0.23 0.03,-0.37 0,-1.43 -1.05,-2.51 -2.43,-2.51 -1.35,0 -2.41,1.15 -2.41,2.47 0,1.37 1.11,2.44 2.44,2.44 0.97,0 1.81,-0.59 2.25,-1.59l-1.41 0c-0.22,0.29 -0.46,0.43 -0.84,0.43 -0.56,0 -1,-0.35 -1.08,-0.87l3.45 0zm-3.44 -0.93c0.11,-0.49 0.54,-0.79 1.04,-0.79 0.53,0 0.95,0.32 1.05,0.79l-2.09 0z"/>
  <polygon id="15" class="fil3" points="52.06,12.81 52.06,11.4 50.63,11.4 50.63,12.81 "/>
 </g>
</svg>
