<?xml version="1.0" encoding="UTF-8"?>
<!DOCTYPE svg PUBLIC "-//W3C//DTD SVG 1.1//EN" "http://www.w3.org/Graphics/SVG/1.1/DTD/svg11.dtd">
<!-- Creator: CorelDRAW 2019 (64-Bit) -->
<svg xmlns="http://www.w3.org/2000/svg" xml:space="preserve" width="50.8mm" height="4.2154mm" version="1.1" style="shape-rendering:geometricPrecision; text-rendering:geometricPrecision; image-rendering:optimizeQuality; fill-rule:evenodd; clip-rule:evenodd"
viewBox="0 0 210.1 17.43"
 xmlns:xlink="http://www.w3.org/1999/xlink"
 xmlns:xodm="http://www.corel.com/coreldraw/odm/2003">
 <defs>
  <style type="text/css">
   <![CDATA[
    .fil1 {fill:#5E6AD2}
    .fil2 {fill:white}
    .fil0 {fill:white;fill-rule:nonzero}
   ]]>
  </style>
 </defs>
 <g id="Capa_x0020_1">
  <metadata id="CorelCorpID_0Corel-Layer"/>
  <path class="fil0" d="M35.26 5.15c-1.37,-3.12 -4.45,-5.07 -7.84,-5.07 -4.69,0 -8.6,3.88 -8.6,8.58 0,4.74 3.91,8.71 8.67,8.71 3.23,0 6.4,-1.95 7.68,-4.96l-3.57 0c-1.17,1.28 -2.38,2.09 -4.18,2.09 -3.08,0 -5.52,-2.81 -5.52,-5.79 0,-2.94 2.36,-5.75 5.41,-5.75 1.84,0 3.28,0.83 4.45,2.2l3.5 0zm12.54 5.61c0,-3.66 -2.92,-6.62 -6.6,-6.62 -3.68,0 -6.65,3.01 -6.65,6.67 0,3.64 3.01,6.62 6.65,6.62 3.77,0 6.6,-2.9 6.6,-6.67zm-2.99 0.07c0,2.04 -1.5,3.86 -3.62,3.86 -2.16,0 -3.66,-1.8 -3.66,-3.88 0,-2.02 1.55,-3.93 3.66,-3.93 2.11,0 3.62,1.95 3.62,3.95zm15.84 6.2l0 -16.62 -2.99 0 0 5.25c-1.06,-1.12 -2.25,-1.53 -3.77,-1.53 -0.85,0 -1.68,0.2 -2.45,0.54 -2.47,1.1 -3.91,3.46 -3.91,6.13 0,3.55 2.72,6.62 6.35,6.62 1.53,0 3.14,-0.61 3.97,-1.93l0.05 0 0 1.53 2.74 0zm-2.76 -6.24c0,2.04 -1.57,3.91 -3.68,3.91 -2.18,0 -3.68,-1.93 -3.68,-4 0,-1.98 1.66,-3.82 3.68,-3.82 2.11,0 3.68,1.86 3.68,3.91l0 0zm15.82 -0.16c0,-3.62 -2.81,-6.49 -6.44,-6.49 -3.77,0 -6.56,2.96 -6.56,6.69 0,3.7 2.85,6.6 6.58,6.6 2.65,0 5.21,-1.8 6.02,-4.33l-3.14 0c-0.61,1.1 -1.66,1.59 -2.87,1.59 -1.23,0 -2.36,-0.63 -3.03,-1.66 -0.18,-0.27 -0.34,-0.56 -0.4,-0.9l9.68 0c0.11,-0.49 0.18,-1.01 0.18,-1.5zm-3.05 -0.9l-6.89 0c0.43,-1.77 1.71,-2.85 3.53,-2.85 1.82,0 3.08,1.06 3.37,2.85zm55.99 7.3l0 -16.62 -3.08 0 0 6.76 -5.95 0 0 -6.76 -3.08 0 0 16.62 3.08 0 0 -6.98 5.95 0 0 6.98 3.08 0zm13.75 0l0 -12.46 -2.74 0 0 1.57 -0.04 0c-0.11,-0.18 -0.31,-0.38 -0.45,-0.52 -1.01,-0.92 -2.31,-1.48 -3.68,-1.48 -3.68,0 -6.24,3.01 -6.24,6.58 0,3.55 2.31,6.71 6.06,6.71 1.53,0 3.37,-0.79 4.36,-1.95l0 1.55 2.74 0zm-2.83 -6.26c0,2.13 -1.41,3.93 -3.64,3.93 -2.13,0 -3.7,-1.75 -3.7,-3.84 0,-2.13 1.48,-3.97 3.7,-3.97 2.2,0 3.64,1.75 3.64,3.88l0 0zm9.42 -3.73l0 -2.9c-1.48,0 -2.09,0.31 -2.92,1.53l-0.05 0 0 -1.1 -2.74 0 0 12.46 2.99 0 0 -7.01c0,-1.82 0.76,-2.92 2.72,-2.99zm11.75 9.99l0 -16.62 -2.99 0 0 5.25c-1.06,-1.12 -2.25,-1.53 -3.77,-1.53 -0.85,0 -1.68,0.2 -2.45,0.54 -2.47,1.1 -3.91,3.46 -3.91,6.13 0,3.55 2.72,6.62 6.35,6.62 1.53,0 3.14,-0.61 3.97,-1.93l0.05 0 0 1.53 2.74 0zm-2.76 -6.24c0,2.04 -1.57,3.91 -3.68,3.91 -2.18,0 -3.68,-1.93 -3.68,-4 0,-1.98 1.66,-3.82 3.68,-3.82 2.11,0 3.68,1.86 3.68,3.91l0 0zm19.84 -6.22l-3.19 0 -2.29 7.61 -0.05 0 -2.02 -7.61 -2.38 0 -2.04 7.61 -0.05 0 -2.27 -7.61 -3.19 0 4.49 12.46 1.84 0 2.36 -8.08 0.05 0 2.34 8.08 1.84 0 4.56 -12.46zm12.43 12.46l0 -12.46 -2.74 0 0 1.57 -0.04 0c-0.11,-0.18 -0.31,-0.38 -0.45,-0.52 -1.01,-0.92 -2.31,-1.48 -3.68,-1.48 -3.68,0 -6.24,3.01 -6.24,6.58 0,3.55 2.31,6.71 6.06,6.71 1.53,0 3.37,-0.79 4.36,-1.95l0 1.55 2.74 0zm-2.83 -6.26c0,2.13 -1.41,3.93 -3.64,3.93 -2.13,0 -3.7,-1.75 -3.7,-3.84 0,-2.13 1.48,-3.97 3.7,-3.97 2.2,0 3.64,1.75 3.64,3.88l0 0zm9.42 -3.73l0 -2.9c-1.48,0 -2.09,0.31 -2.92,1.53l-0.05 0 0 -1.1 -2.74 0 0 12.46 2.99 0 0 -7.01c0,-1.82 0.76,-2.92 2.72,-2.99zm11.57 3.59c0,-3.62 -2.81,-6.49 -6.44,-6.49 -3.77,0 -6.56,2.96 -6.56,6.69 0,3.7 2.85,6.6 6.58,6.6 2.65,0 5.21,-1.8 6.02,-4.33l-3.14 0c-0.61,1.1 -1.66,1.59 -2.87,1.59 -1.23,0 -2.36,-0.63 -3.03,-1.66 -0.18,-0.27 -0.34,-0.56 -0.4,-0.9l9.68 0c0.11,-0.49 0.18,-1.01 0.18,-1.5zm-3.05 -0.9l-6.89 0c0.43,-1.77 1.71,-2.85 3.53,-2.85 1.82,0 3.08,1.06 3.37,2.85zm6.77 7.3l0 -2.99 -2.99 0 0 2.99 2.99 0z"/>
  <path class="fil0" d="M87.08 5.02l-1.66 0 0 2.54c-0.58,-1.37 -2.36,-2.87 -4.94,-2.87 -3.68,0 -6.26,2.83 -6.26,6.38 0,3.32 2.34,6.38 6.26,6.38 2.16,0 4,-1.01 4.94,-2.83l0 2.49 1.66 0 0 -12.08zm-11.23 6.04c0,-2.69 2.02,-4.85 4.8,-4.85 2.13,0 3.75,1.23 4.42,2.9 0.27,0.58 0.4,1.26 0.38,1.93 0,0.65 -0.13,1.32 -0.4,1.91 -0.65,1.71 -2.22,2.94 -4.36,2.94 -3.32,0 -4.83,-2.63 -4.85,-4.81l0 -0.02zm12.83 6.04l1.66 0 0 -6.83c0,-2.51 1.44,-4.02 3.93,-4.04 2.72,-0.04 3.88,1.73 3.88,4.33l0 6.53 1.64 0 0 -6.87c0,-2.94 -1.32,-5.5 -5.08,-5.55 -2.16,-0.04 -3.79,0.92 -4.49,2.49 0.02,-0.81 0.02,-1.48 0.02,-2.16l-1.57 0 0 12.08zm24.78 -16.62l-1.66 0 0 4.42 0 2.56c-0.54,-1.26 -2.29,-2.78 -4.94,-2.78 -3.62,0 -6.22,2.76 -6.22,6.35 0,3.39 2.38,6.4 6.24,6.4 2.51,0 4.13,-1.23 4.98,-2.83l0 2.49 1.59 0 0 -16.62zm-11.18 10.55c0,-2.72 2.04,-4.83 4.83,-4.83 1.35,0 2.56,0.52 3.41,1.39 0.88,0.85 1.39,2.02 1.39,3.39 0.05,1.35 -0.47,2.58 -1.35,3.48 -0.85,0.88 -2.09,1.41 -3.44,1.41 -3.14,0 -4.83,-2.4 -4.85,-4.83l0 -0.02z"/>
  <path class="fil1" d="M1.72 0l13.88 0c0.95,0 1.72,0.77 1.72,1.72l0 13.88c0,0.94 -0.77,1.72 -1.72,1.72l-13.88 0c-0.94,0 -1.72,-0.77 -1.72,-1.72l0 -13.88c0,-0.94 0.77,-1.72 1.72,-1.72z"/>
  <path class="fil0" d="M6.31 15.21l0 -1.26 -0.63 0c-0.5,0 -0.57,-0.52 -0.57,-0.91l0 -2.96c0,-1.16 -0.75,-1.41 -1.75,-1.47l0 -0.04c0.84,-0.03 1.75,-0.33 1.75,-1.34l0 -2.96c0,-0.39 0.07,-0.91 0.57,-0.91l0.63 0 0 -1.26 -1.26 0c-0.21,0 -0.43,0.07 -0.63,0.15 -0.74,0.31 -1.23,0.95 -1.23,1.77l0 3.02c0,0.68 -0.81,0.85 -1.35,0.85l0 1.38c0.61,0 1.35,0.24 1.35,0.98l0 3.02c0,0.82 0.49,1.47 1.23,1.77 0.2,0.08 0.42,0.15 0.63,0.15l1.26 0zm9.17 -5.92l0 -1.38c-0.55,0 -1.35,-0.17 -1.35,-0.85l0 -3.02c0,-0.82 -0.49,-1.47 -1.23,-1.77 -0.2,-0.08 -0.42,-0.15 -0.63,-0.15l-1.26 0 0 1.26 0.63 0c0.5,0 0.57,0.52 0.57,0.91l0 2.96c0,1.01 0.91,1.31 1.75,1.34l0 0.04c-0.99,0.06 -1.75,0.31 -1.75,1.47l0 2.96c0,0.39 -0.07,0.91 -0.57,0.91l-0.63 0 0 1.26 1.26 0c0.21,0 0.43,-0.07 0.63,-0.15 0.74,-0.31 1.23,-0.95 1.23,-1.77l0 -3.02c0,-0.74 0.74,-0.98 1.35,-0.98z"/>
  <path class="fil2" d="M6.19 7.91l5.03 0c0.12,0 0.22,0.1 0.22,0.22l0 1.06c0,0.12 -0.1,0.22 -0.22,0.22l-5.03 0c-0.12,0 -0.22,-0.1 -0.22,-0.22l0 -1.06c0,-0.12 0.1,-0.22 0.22,-0.22z"/>
 </g>
</svg>
