<?xml version="1.0" encoding="UTF-8"?>
<!DOCTYPE svg PUBLIC "-//W3C//DTD SVG 1.1//EN" "http://www.w3.org/Graphics/SVG/1.1/DTD/svg11.dtd">
<!-- Creator: CorelDRAW 2019 (64-Bit) -->
<svg xmlns="http://www.w3.org/2000/svg" xml:space="preserve" width="3.6458in" height="0.303606in" version="1.1" style="shape-rendering:geometricPrecision; text-rendering:geometricPrecision; image-rendering:optimizeQuality; fill-rule:evenodd; clip-rule:evenodd"
viewBox="0 0 322.93 26.89"
 xmlns:xlink="http://www.w3.org/1999/xlink"
 xmlns:xodm="http://www.corel.com/coreldraw/odm/2003">
 <defs>
  <style type="text/css">
   <![CDATA[
    .fil0 {fill:#5E6AD0}
    .fil2 {fill:white}
    .fil1 {fill:white;fill-rule:nonzero}
    .fil3 {fill:white;fill-rule:nonzero}
   ]]>
  </style>
 </defs>
 <g id="Capa_x0020_1">
  <metadata id="CorelCorpID_0Corel-Layer"/>
  <path class="fil0" d="M13.45 26.89l-0 0c-7.4,0 -13.45,-6.05 -13.45,-13.45l0 0c0,-7.4 6.05,-13.45 13.45,-13.45l0 0 13.45 0.09 0 13.36 0 0c0,7.4 -6.05,13.45 -13.45,13.45z"/>
  <path class="fil1" d="M19.15 22.83c1.34,0 2.4,-1.05 2.4,-2.57l0 -4.14c0,-0.63 0.53,-1.11 1.55,-1.13l0 -3.28c-0.98,-0.02 -1.55,-0.53 -1.55,-1.24l0 -4.23c0,-1.54 -1.04,-2.56 -2.4,-2.56l-2.1 0 0 2.4 0.82 0c0.72,0 0.99,0.44 0.99,1.18l0 4.1c0,1.14 0.5,1.83 1.71,1.94l0.02 0 0 0.08c-1.1,0.08 -1.73,0.8 -1.73,1.7l0 4.16c0,0.82 -0.34,1.18 -1.04,1.18l-0.77 0 0 2.4 2.1 0zm-9.31 0l0 -2.4 -0.77 0c-0.7,0 -1.04,-0.36 -1.04,-1.18l0 -4.16c0,-0.9 -0.62,-1.62 -1.73,-1.7l0 -0.08 0.02 0c1.22,-0.11 1.71,-0.8 1.71,-1.94l0 -4.1c0,-0.74 0.27,-1.18 0.99,-1.18l0.82 0 0 -2.4 -2.1 0c-1.36,0 -2.4,1.01 -2.4,2.56l0 4.23c0,0.71 -0.58,1.22 -1.55,1.24l0 3.28c1.02,0.02 1.55,0.5 1.55,1.13l0 4.14c0,1.53 1.06,2.57 2.4,2.57l2.1 0z"/>
  <rect class="fil2" x="8.65" y="12.25" width="9.59" height="2.4" rx="0.56" ry="0.38"/>
  <path class="fil3" d="M55.05 10.45c-0.43,-2.49 -1.8,-4.72 -4.1,-6.69 -2.43,-2.07 -5.11,-2.98 -8.46,-2.98 -6.95,0 -12.49,5.8 -12.49,12.23 0,3.67 1.11,6.75 3.74,9.31 2.49,2.46 5.67,3.64 9.05,3.64 5.74,0 10.75,-3.7 12.26,-9.54l-6.49 0c-1.28,2.72 -3.38,4.1 -5.84,4.1 -3.84,0 -6.52,-3.28 -6.52,-7.21 0,-3.77 2.62,-7.08 6.49,-7.08 2.52,0 4.82,1.57 5.87,4.23l6.49 0z"/>
  <path id="1" class="fil3" d="M74.25 16.32c0,-5.51 -4.33,-9.61 -9.8,-9.61 -5.44,0 -9.8,4.03 -9.8,9.67 0,5.57 4.26,9.67 9.8,9.67 5.48,0 9.8,-4.03 9.8,-9.74zm-9.8 4.66c-2.46,0 -4.36,-2.1 -4.36,-4.59 0,-2.49 1.93,-4.59 4.33,-4.59 2.56,0 4.39,2.16 4.39,4.59 0,2.43 -1.8,4.59 -4.36,4.59z"/>
  <path id="2" class="fil3" d="M93.74 25.5l0 -24.26 -5.44 0 0 7.61c-1.54,-1.54 -3.25,-2.16 -5.34,-2.16 -5.31,0 -9.02,4.23 -9.02,9.67 0,5.51 3.61,9.74 9.11,9.74 2.59,0 4.43,-0.89 5.44,-2.56l0.07 0 0 1.97 5.18 0zm-9.8 -4.49c-2.62,0 -4.56,-1.93 -4.56,-4.69 0,-2.66 2.03,-4.56 4.59,-4.56 2.69,0 4.62,2.03 4.62,4.56 0,2.69 -2,4.69 -4.66,4.69z"/>
  <path id="3" class="fil3" d="M113.17 18.05c0.1,-0.49 0.13,-0.92 0.13,-1.44 0,-5.64 -4.16,-9.93 -9.61,-9.93 -5.34,0 -9.54,4.52 -9.54,9.77 0,5.41 4.39,9.64 9.64,9.64 3.84,0 7.15,-2.33 8.89,-6.29l-5.57 0c-0.89,1.15 -1.84,1.7 -3.31,1.7 -2.23,0 -3.97,-1.38 -4.26,-3.44l13.64 0zm-13.57 -3.67c0.43,-1.93 2.13,-3.11 4.1,-3.11 2.1,0 3.74,1.25 4.16,3.11l-8.26 0z"/>
  <polygon id="4" class="fil3" points="192.35,25.5 192.35,1.23 186.15,1.23 186.15,10.35 178.22,10.35 178.22,1.23 172.02,1.23 172.02,25.5 178.22,25.5 178.22,15.79 186.15,15.79 186.15,25.5 "/>
  <path id="5" class="fil3" d="M213.08 25.5l0 -18.2 -5.44 0 0 1.93 -0.07 0c-1.05,-1.67 -3.11,-2.56 -5.34,-2.56 -5.21,0 -9.11,4.33 -9.11,9.7 0,5.51 3.74,9.74 9.11,9.74 2.39,0 4.56,-0.98 5.34,-2.59l0.07 0 0 1.97 5.44 0zm-10 -4.46c-2.52,0 -4.52,-2.07 -4.52,-4.59 0,-2.62 1.97,-4.69 4.46,-4.69 2.56,0 4.62,2.07 4.62,4.62 0,2.62 -2,4.66 -4.56,4.66z"/>
  <path id="6" class="fil3" d="M219.92 25.5l0 -10.03c0,-2.07 1.05,-3.28 4.29,-3.31l0 -5.48c-2.1,0 -3.61,0.62 -4.56,2.56l-0.07 0 0 -1.93 -5.11 0 0 18.2 5.44 0z"/>
  <path id="7" class="fil3" d="M242.56 25.5l0 -24.26 -5.44 0 0 7.61c-1.54,-1.54 -3.25,-2.16 -5.34,-2.16 -5.31,0 -9.02,4.23 -9.02,9.67 0,5.51 3.61,9.74 9.11,9.74 2.59,0 4.43,-0.89 5.44,-2.56l0.07 0 0 1.97 5.18 0zm-9.8 -4.49c-2.62,0 -4.56,-1.93 -4.56,-4.69 0,-2.66 2.03,-4.56 4.59,-4.56 2.69,0 4.62,2.03 4.62,4.56 0,2.69 -2,4.69 -4.66,4.69z"/>
  <polygon id="8" class="fil3" points="264.02,25.5 269.62,7.3 264.02,7.3 261.3,18.61 261.23,18.61 258.21,7.3 253.62,7.3 250.64,18.61 250.58,18.61 247.85,7.3 242.21,7.3 247.79,25.5 252.84,25.5 255.89,13.73 255.95,13.73 259,25.5 "/>
  <path id="9" class="fil3" d="M287.74 25.5l0 -18.2 -5.44 0 0 1.93 -0.07 0c-1.05,-1.67 -3.11,-2.56 -5.34,-2.56 -5.21,0 -9.11,4.33 -9.11,9.7 0,5.51 3.74,9.74 9.11,9.74 2.39,0 4.56,-0.98 5.34,-2.59l0.07 0 0 1.97 5.44 0zm-10 -4.46c-2.52,0 -4.52,-2.07 -4.52,-4.59 0,-2.62 1.97,-4.69 4.46,-4.69 2.56,0 4.62,2.07 4.62,4.62 0,2.62 -2,4.66 -4.56,4.66z"/>
  <path id="10" class="fil3" d="M294.58 25.5l0 -10.03c0,-2.07 1.05,-3.28 4.29,-3.31l0 -5.48c-2.1,0 -3.61,0.62 -4.56,2.56l-0.07 0 0 -1.93 -5.11 0 0 18.2 5.44 0z"/>
  <path id="11" class="fil3" d="M316.3 18.05c0.1,-0.49 0.13,-0.92 0.13,-1.44 0,-5.64 -4.16,-9.93 -9.61,-9.93 -5.34,0 -9.54,4.52 -9.54,9.77 0,5.41 4.39,9.64 9.64,9.64 3.84,0 7.15,-2.33 8.88,-6.29l-5.57 0c-0.89,1.15 -1.84,1.7 -3.31,1.7 -2.23,0 -3.97,-1.38 -4.26,-3.44l13.64 0zm-13.57 -3.67c0.43,-1.93 2.13,-3.11 4.1,-3.11 2.1,0 3.74,1.25 4.16,3.11l-8.26 0z"/>
  <polygon id="12" class="fil3" points="322.93,25.5 322.93,19.92 317.26,19.92 317.26,25.5 "/>
  <path id="13" class="fil3" d="M132.16 25.5l0 -17.93 -2.29 0 0 3.15 -0.07 0c-1.44,-2.26 -4,-3.61 -6.98,-3.61 -5.25,0 -9.64,4 -9.64,9.38 0,5.38 4.26,9.44 9.64,9.44 2.92,0 5.51,-1.34 6.98,-3.57l0.07 0 0 3.15 2.29 0zm-9.34 -1.64c-4.23,0 -7.34,-3.15 -7.34,-7.28 0,-4.26 3.18,-7.41 7.31,-7.41 4.07,0 7.21,3.38 7.21,7.38 0,4.03 -3.18,7.31 -7.18,7.31z"/>
  <path id="14" class="fil3" d="M149.82 25.5l0 -10c0,-4.98 -2.95,-8.39 -7.9,-8.39 -2.33,0 -4.36,1.02 -5.51,2.75l-0.07 0 0 -2.29 -2.29 0 0 17.93 2.29 0 0 -10.16c0,-3.51 2.13,-6.16 5.61,-6.16 3.15,0 5.57,2.29 5.57,6.33l0 10 2.29 0z"/>
  <path id="15" class="fil3" d="M169.9 25.5l0 -24.26 -2.29 0 0 9.41 -0.07 0c-1.54,-2.23 -4.2,-3.54 -6.98,-3.54 -5.25,0 -9.64,4 -9.64,9.38 0,5.38 4.26,9.44 9.64,9.44 2.79,0 5.41,-1.25 6.98,-3.57l0.07 0 0 3.15 2.29 0zm-9.34 -1.64c-4.26,0 -7.34,-3.18 -7.34,-7.28 0,-4.23 3.11,-7.41 7.31,-7.41 4.1,0 7.21,3.38 7.21,7.38 0,4.07 -3.21,7.31 -7.18,7.31l0 0z"/>
 </g>
</svg>
