<?xml version="1.0" encoding="UTF-8"?>
<!DOCTYPE svg PUBLIC "-//W3C//DTD SVG 1.1//EN" "http://www.w3.org/Graphics/SVG/1.1/DTD/svg11.dtd">
<!-- Creator: CorelDRAW 2019 (64-Bit) -->
<svg xmlns="http://www.w3.org/2000/svg" xml:space="preserve" width="42.3332mm" height="4.966mm" version="1.1" style="shape-rendering:geometricPrecision; text-rendering:geometricPrecision; image-rendering:optimizeQuality; fill-rule:evenodd; clip-rule:evenodd"
viewBox="0 0 146.95 17.24"
 xmlns:xlink="http://www.w3.org/1999/xlink"
 xmlns:xodm="http://www.corel.com/coreldraw/odm/2003">
 <defs>
  <style type="text/css">
   <![CDATA[
    .fil1 {fill:#375AEC}
    .fil2 {fill:white}
    .fil0 {fill:white;fill-rule:nonzero}
   ]]>
  </style>
 </defs>
 <g id="Capa_x0020_1">
  <metadata id="CorelCorpID_0Corel-Layer"/>
  <path class="fil0" d="M24.5 3.58c-0.95,-2.17 -3.09,-3.53 -5.44,-3.53 -3.26,0 -5.97,2.7 -5.97,5.96 0,3.29 2.71,6.05 6.02,6.05 2.25,0 4.45,-1.36 5.34,-3.45l-2.48 0c-0.81,0.89 -1.65,1.45 -2.9,1.45 -2.14,0 -3.84,-1.95 -3.84,-4.02 0,-2.04 1.64,-3.99 3.76,-3.99 1.28,0 2.28,0.58 3.09,1.53l2.43 0zm8.71 3.9c0,-2.54 -2.03,-4.6 -4.59,-4.6 -2.56,0 -4.62,2.09 -4.62,4.63 0,2.53 2.09,4.6 4.62,4.6 2.62,0 4.59,-2.01 4.59,-4.63zm-2.07 0.05c0,1.42 -1.05,2.68 -2.51,2.68 -1.5,0 -2.54,-1.25 -2.54,-2.7 0,-1.4 1.08,-2.73 2.54,-2.73 1.47,0 2.51,1.36 2.51,2.75zm11 4.31l0 -11.54 -2.08 0 0 3.65c-0.73,-0.78 -1.56,-1.06 -2.62,-1.06 -0.59,0 -1.17,0.14 -1.7,0.37 -1.72,0.76 -2.71,2.4 -2.71,4.26 0,2.46 1.89,4.6 4.41,4.6 1.06,0 2.18,-0.42 2.76,-1.34l0.03 0 0 1.06 1.9 0zm-1.92 -4.34c0,1.42 -1.09,2.71 -2.56,2.71 -1.51,0 -2.56,-1.34 -2.56,-2.78 0,-1.37 1.15,-2.65 2.56,-2.65 1.47,0 2.56,1.29 2.56,2.71l0 0zm10.99 -0.11c0,-2.51 -1.95,-4.51 -4.48,-4.51 -2.62,0 -4.56,2.06 -4.56,4.65 0,2.57 1.98,4.59 4.57,4.59 1.84,0 3.62,-1.25 4.18,-3.01l-2.18 0c-0.42,0.76 -1.15,1.11 -2,1.11 -0.86,0 -1.64,-0.44 -2.11,-1.15 -0.12,-0.19 -0.23,-0.39 -0.28,-0.62l6.72 0c0.08,-0.34 0.12,-0.7 0.12,-1.05zm-2.12 -0.62l-4.79 0c0.3,-1.23 1.19,-1.98 2.45,-1.98 1.26,0 2.14,0.73 2.34,1.98zm38.9 5.07l0 -11.54 -2.14 0 0 4.7 -4.13 0 0 -4.7 -2.14 0 0 11.54 2.14 0 0 -4.85 4.13 0 0 4.85 2.14 0zm9.55 0l0 -8.66 -1.9 0 0 1.09 -0.03 0c-0.08,-0.12 -0.22,-0.27 -0.31,-0.36 -0.7,-0.64 -1.61,-1.03 -2.56,-1.03 -2.56,0 -4.34,2.09 -4.34,4.57 0,2.46 1.61,4.66 4.21,4.66 1.06,0 2.34,-0.55 3.03,-1.36l0 1.08 1.9 0zm-1.97 -4.35c0,1.48 -0.98,2.73 -2.53,2.73 -1.48,0 -2.57,-1.22 -2.57,-2.67 0,-1.48 1.03,-2.76 2.57,-2.76 1.53,0 2.53,1.22 2.53,2.7l0 0zm6.54 -2.59l0 -2.01c-1.03,0 -1.45,0.22 -2.03,1.06l-0.03 0 0 -0.76 -1.9 0 0 8.66 2.08 0 0 -4.87c0,-1.26 0.53,-2.03 1.89,-2.08zm8.17 6.94l0 -11.54 -2.08 0 0 3.65c-0.73,-0.78 -1.56,-1.06 -2.62,-1.06 -0.59,0 -1.17,0.14 -1.7,0.37 -1.72,0.76 -2.71,2.4 -2.71,4.26 0,2.46 1.89,4.6 4.42,4.6 1.06,0 2.18,-0.42 2.76,-1.34l0.03 0 0 1.06 1.9 0zm-1.92 -4.34c0,1.42 -1.09,2.71 -2.56,2.71 -1.51,0 -2.56,-1.34 -2.56,-2.78 0,-1.37 1.15,-2.65 2.56,-2.65 1.47,0 2.56,1.29 2.56,2.71l0 0zm13.78 -4.32l-2.21 0 -1.59 5.29 -0.03 0 -1.4 -5.29 -1.65 0 -1.42 5.29 -0.03 0 -1.58 -5.29 -2.22 0 3.12 8.66 1.28 0 1.64 -5.62 0.03 0 1.62 5.62 1.28 0 3.17 -8.66zm8.63 8.66l0 -8.66 -1.9 0 0 1.09 -0.03 0c-0.08,-0.12 -0.22,-0.27 -0.31,-0.36 -0.7,-0.64 -1.61,-1.03 -2.56,-1.03 -2.56,0 -4.34,2.09 -4.34,4.57 0,2.46 1.61,4.66 4.21,4.66 1.06,0 2.34,-0.55 3.03,-1.36l0 1.08 1.9 0zm-1.97 -4.35c0,1.48 -0.98,2.73 -2.53,2.73 -1.48,0 -2.57,-1.22 -2.57,-2.67 0,-1.48 1.03,-2.76 2.57,-2.76 1.53,0 2.53,1.22 2.53,2.7l0 0zm6.54 -2.59l0 -2.01c-1.03,0 -1.45,0.22 -2.03,1.06l-0.03 0 0 -0.76 -1.9 0 0 8.66 2.07 0 0 -4.87c0,-1.26 0.53,-2.03 1.89,-2.08zm8.04 2.5c0,-2.51 -1.95,-4.51 -4.48,-4.51 -2.62,0 -4.56,2.06 -4.56,4.65 0,2.57 1.98,4.59 4.57,4.59 1.84,0 3.62,-1.25 4.18,-3.01l-2.18 0c-0.42,0.76 -1.15,1.11 -2,1.11 -0.86,0 -1.64,-0.44 -2.11,-1.15 -0.12,-0.19 -0.23,-0.39 -0.28,-0.62l6.72 0c0.08,-0.34 0.12,-0.7 0.12,-1.05zm-2.12 -0.62l-4.79 0c0.3,-1.23 1.19,-1.98 2.45,-1.98 1.26,0 2.14,0.73 2.34,1.98zm4.7 5.07l0 -2.08 -2.07 0 0 2.08 2.07 0z"/>
  <path class="fil0" d="M60.51 3.49l-1.15 0 0 1.76c-0.41,-0.95 -1.64,-2 -3.43,-2 -2.56,0 -4.35,1.97 -4.35,4.43 0,2.31 1.62,4.43 4.35,4.43 1.5,0 2.78,-0.7 3.43,-1.97l0 1.73 1.15 0 0 -8.39zm-7.8 4.2c0,-1.87 1.4,-3.37 3.34,-3.37 1.48,0 2.61,0.86 3.07,2.01 0.19,0.41 0.28,0.87 0.27,1.34 0,0.45 -0.09,0.92 -0.28,1.33 -0.45,1.19 -1.54,2.04 -3.03,2.04 -2.31,0 -3.35,-1.83 -3.37,-3.34l0 -0.02zm8.91 4.2l1.15 0 0 -4.74c0,-1.75 1,-2.79 2.73,-2.81 1.89,-0.03 2.7,1.2 2.7,3.01l0 4.54 1.14 0 0 -4.77c0,-2.04 -0.92,-3.82 -3.53,-3.85 -1.5,-0.03 -2.64,0.64 -3.12,1.73 0.02,-0.56 0.02,-1.03 0.02,-1.5l-1.09 0 0 8.39zm17.21 -11.54l-1.15 0 0 3.07 0 1.78c-0.37,-0.87 -1.59,-1.93 -3.43,-1.93 -2.51,0 -4.32,1.92 -4.32,4.42 0,2.36 1.65,4.45 4.34,4.45 1.75,0 2.87,-0.86 3.46,-1.97l0 1.73 1.11 0 0 -11.54zm-7.77 7.33c0,-1.89 1.42,-3.35 3.35,-3.35 0.94,0 1.78,0.36 2.37,0.97 0.61,0.59 0.97,1.4 0.97,2.36 0.03,0.94 -0.33,1.79 -0.94,2.42 -0.59,0.61 -1.45,0.98 -2.39,0.98 -2.18,0 -3.35,-1.67 -3.37,-3.35l0 -0.02z"/>
  <path class="fil0" d="M79.56 16.31l1.02 0c1.13,0 1.71,-0.67 1.71,-1.68 0,-0.48 -0.13,-0.87 -0.4,-1.17 -0.34,-0.4 -0.84,-0.5 -1.32,-0.5l-1 0 0 3.36zm0.37 -3.03l0.67 0c0.46,0 0.77,0.15 0.98,0.38 0.22,0.25 0.33,0.59 0.33,0.98 0,0.81 -0.45,1.34 -1.31,1.34l-0.67 0 0 -2.7zm5.37 1.9c0.04,-0.39 -0.1,-0.77 -0.38,-1.04 -0.23,-0.22 -0.55,-0.34 -0.89,-0.34 -0.73,0 -1.28,0.58 -1.28,1.29 0,0.61 0.44,1.28 1.29,1.28 0.25,0 0.49,-0.07 0.69,-0.2 0.21,-0.13 0.38,-0.33 0.49,-0.59l-0.35 0c-0.16,0.32 -0.46,0.5 -0.84,0.5 -0.41,0 -0.94,-0.29 -0.95,-0.9l2.22 0zm-2.22 -0.27c0.03,-0.44 0.42,-0.83 0.95,-0.83 0.5,-0.01 0.92,0.4 0.94,0.83l-1.89 0zm4.73 -1.05l-0.35 0 -0.78 2.03 -0.79 -2.03 -0.35 0 0.96 2.44 0.35 0 0.96 -2.44zm2.76 1.32c0.04,-0.39 -0.1,-0.77 -0.38,-1.04 -0.23,-0.22 -0.55,-0.34 -0.89,-0.34 -0.73,0 -1.28,0.58 -1.28,1.29 0,0.61 0.44,1.28 1.29,1.28 0.25,0 0.49,-0.07 0.69,-0.2 0.21,-0.13 0.38,-0.33 0.49,-0.59l-0.35 0c-0.16,0.32 -0.46,0.5 -0.84,0.5 -0.41,0 -0.94,-0.29 -0.95,-0.9l2.22 0zm-2.22 -0.27c0.03,-0.44 0.42,-0.83 0.95,-0.83 0.5,-0.01 0.92,0.4 0.94,0.83l-1.89 0zm2.83 1.39l0.34 0 0 -3.36 -0.34 0 0 3.36zm0.97 -1.22c0,0.69 0.51,1.28 1.29,1.28 0.79,0 1.3,-0.6 1.3,-1.28 0,-0.69 -0.51,-1.29 -1.3,-1.29 -0.79,0 -1.29,0.6 -1.29,1.28l0 0zm0.33 0c0,-0.56 0.42,-0.98 0.96,-0.98 0.54,0 0.96,0.42 0.96,0.98 0,0.56 -0.42,0.98 -0.96,0.98 -0.54,0 -0.96,-0.42 -0.96,-0.97l0 -0zm2.9 2.15l0.34 0 0 -0.93 0 -0.5c0.11,0.25 0.46,0.57 1,0.57 0.76,0 1.25,-0.6 1.25,-1.28 0,-0.63 -0.43,-1.3 -1.25,-1.3 -0.47,0 -0.82,0.22 -1.02,0.58l0 -0.51 -0.32 0 0 3.37zm2.26 -2.15c0,0.56 -0.42,0.98 -0.97,0.98 -0.27,0 -0.52,-0.1 -0.69,-0.28 -0.18,-0.18 -0.28,-0.42 -0.28,-0.69 0,-0.28 0.1,-0.52 0.27,-0.7 0.18,-0.18 0.42,-0.29 0.69,-0.29 0.66,0 0.98,0.52 0.98,0.98l0 0zm0.99 1.22l0.34 0 0 -1.36c0,-0.26 0.06,-0.44 0.16,-0.59 0.1,-0.15 0.29,-0.26 0.52,-0.25 0.25,0 0.42,0.1 0.54,0.26 0.1,0.15 0.14,0.31 0.13,0.58l0 1.36 0.34 0 0 -1.36c0,-0.28 0.02,-0.41 0.15,-0.59 0.11,-0.17 0.32,-0.25 0.54,-0.25 0.23,0 0.39,0.08 0.49,0.2 0.14,0.16 0.18,0.39 0.18,0.65l0 1.34 0.34 0 0 -1.36c0,-0.43 -0.06,-0.69 -0.28,-0.91 -0.17,-0.17 -0.41,-0.25 -0.66,-0.25 -0.27,0 -0.51,0.1 -0.67,0.27 -0.09,0.1 -0.14,0.19 -0.18,0.26 -0.01,-0.03 -0.1,-0.19 -0.16,-0.25 -0.17,-0.2 -0.41,-0.28 -0.67,-0.28 -0.28,0 -0.62,0.15 -0.77,0.45l0 -0.39 -0.32 0 0 2.44zm6.85 -1.13c0.04,-0.39 -0.1,-0.77 -0.38,-1.04 -0.23,-0.22 -0.55,-0.34 -0.89,-0.34 -0.73,0 -1.28,0.58 -1.28,1.29 0,0.61 0.44,1.28 1.29,1.28 0.25,0 0.49,-0.07 0.69,-0.2 0.21,-0.13 0.38,-0.33 0.49,-0.59l-0.35 0c-0.16,0.32 -0.46,0.5 -0.84,0.5 -0.41,0 -0.93,-0.29 -0.95,-0.9l2.22 0zm-2.22 -0.27c0.03,-0.44 0.42,-0.83 0.95,-0.83 0.5,-0.01 0.92,0.4 0.94,0.83l-1.89 0zm2.83 1.39l0.34 0 0 -1.38c0,-0.51 0.29,-0.81 0.79,-0.82 0.55,-0.01 0.79,0.35 0.79,0.88l0 1.32 0.33 0 0 -1.39c0,-0.59 -0.27,-1.11 -1.03,-1.12 -0.44,-0.01 -0.77,0.19 -0.91,0.5 0,-0.16 0,-0.3 0,-0.44l-0.32 0 0 2.44zm3.22 0l0.33 0 0 -2.17 0.54 0 0 -0.27 -0.54 0 0 -0.92 -0.33 0 0 0.92 -0.48 0 0 0.27 0.48 0 0 2.17zm5.13 -2.44l-0.34 0 0 0.51c-0.12,-0.28 -0.48,-0.58 -1,-0.58 -0.74,0 -1.27,0.57 -1.27,1.29 0,0.67 0.47,1.29 1.27,1.29 0.44,0 0.81,-0.2 1,-0.57l0 0.5 0.34 0 0 -2.44zm-2.27 1.22c0,-0.54 0.41,-0.98 0.97,-0.98 0.43,0 0.76,0.25 0.89,0.59 0.05,0.12 0.08,0.25 0.08,0.39 0,0.13 -0.03,0.27 -0.08,0.39 -0.13,0.35 -0.45,0.59 -0.88,0.59 -0.67,0 -0.98,-0.53 -0.98,-0.97l0 -0zm3.06 1.22l0.34 0 0 -1.38c0,-0.51 0.29,-0.81 0.79,-0.82 0.55,-0.01 0.79,0.35 0.79,0.88l0 1.32 0.33 0 0 -1.39c0,-0.59 -0.27,-1.11 -1.03,-1.12 -0.44,-0.01 -0.77,0.19 -0.91,0.5 0,-0.16 0,-0.3 0,-0.44l-0.32 0 0 2.44zm5.47 -3.36l-0.34 0 0 0.89 0 0.52c-0.11,-0.25 -0.46,-0.56 -1,-0.56 -0.73,0 -1.26,0.56 -1.26,1.28 0,0.69 0.48,1.29 1.26,1.29 0.51,0 0.84,-0.25 1.01,-0.57l0 0.5 0.32 0 0 -3.36zm-2.26 2.13c0,-0.55 0.41,-0.98 0.98,-0.98 0.27,0 0.52,0.1 0.69,0.28 0.18,0.17 0.28,0.41 0.28,0.69 0.01,0.27 -0.1,0.52 -0.27,0.7 -0.17,0.18 -0.42,0.29 -0.69,0.29 -0.64,0 -0.98,-0.49 -0.98,-0.98l0 -0zm4.34 1.23l0.38 0 0 -3.03 0.53 0c0.3,0 0.51,0.01 0.68,0.12 0.21,0.14 0.33,0.4 0.33,0.65 0,0.24 -0.08,0.44 -0.25,0.62 -0.18,0.17 -0.51,0.17 -0.74,0.17l-0.11 0 0.95 1.47 0.41 0 -0.84 -1.26c0.31,-0.03 0.55,-0.1 0.75,-0.37 0.14,-0.19 0.2,-0.43 0.2,-0.66 0,-0.38 -0.19,-0.74 -0.46,-0.9 -0.17,-0.11 -0.42,-0.17 -0.94,-0.17l-0.88 0 0 3.36zm5.2 -1.13c0.04,-0.39 -0.1,-0.77 -0.38,-1.04 -0.23,-0.22 -0.55,-0.34 -0.89,-0.34 -0.73,0 -1.28,0.58 -1.28,1.29 0,0.61 0.44,1.28 1.29,1.28 0.25,0 0.49,-0.07 0.69,-0.2 0.21,-0.13 0.38,-0.33 0.49,-0.59l-0.35 0c-0.16,0.32 -0.46,0.5 -0.84,0.5 -0.41,0 -0.94,-0.29 -0.95,-0.9l2.22 0zm-2.22 -0.27c0.03,-0.44 0.42,-0.83 0.95,-0.83 0.5,-0.01 0.92,0.4 0.94,0.83l-1.89 0zm4.26 -0.44c-0.02,-0.49 -0.4,-0.68 -0.74,-0.68 -0.41,0 -0.76,0.26 -0.76,0.7 0.01,0.39 0.28,0.53 0.63,0.63 0.42,0.12 0.6,0.24 0.61,0.51 0,0.25 -0.19,0.46 -0.47,0.46 -0.25,0 -0.49,-0.15 -0.51,-0.49l-0.33 0c0,0.51 0.44,0.76 0.84,0.76 0.46,0 0.83,-0.33 0.81,-0.78 -0.02,-0.52 -0.41,-0.62 -0.76,-0.72 -0.3,-0.09 -0.47,-0.18 -0.48,-0.41 -0.01,-0.21 0.15,-0.4 0.42,-0.4 0.25,0 0.42,0.15 0.42,0.4l0.33 0zm0.6 0.61c0,0.69 0.51,1.28 1.29,1.28 0.79,0 1.3,-0.6 1.3,-1.28 0,-0.69 -0.51,-1.29 -1.3,-1.29 -0.79,0 -1.29,0.6 -1.29,1.28l0 0zm0.33 0c0,-0.56 0.42,-0.98 0.96,-0.98 0.54,0 0.96,0.42 0.96,0.98 0,0.56 -0.42,0.98 -0.96,0.98 -0.54,0 -0.96,-0.42 -0.96,-0.97l0 -0zm5.15 -1.22l-0.34 0 0 1.38c0,0.51 -0.29,0.81 -0.8,0.82 -0.55,0 -0.79,-0.35 -0.79,-0.88l0 -1.32 -0.33 0 0 1.38c0,0.59 0.27,1.11 1.03,1.13 0.44,0 0.77,-0.19 0.9,-0.5l0 0.44 0.32 0 0 -2.44zm0.79 2.44l0.33 0 0 -1.33c0,-0.55 0.26,-0.85 0.74,-0.85l0.03 0 0 -0.33c-0.29,0.01 -0.6,0.1 -0.78,0.47l0 -0.4 -0.32 0 0 2.44zm3.44 -0.83c-0.1,0.3 -0.42,0.58 -0.88,0.58 -0.53,0 -0.96,-0.4 -0.96,-0.98 0,-0.28 0.11,-0.54 0.28,-0.7 0.2,-0.19 0.4,-0.28 0.69,-0.28 0.34,0 0.73,0.19 0.88,0.6l0.35 0c-0.17,-0.59 -0.69,-0.91 -1.24,-0.91 -0.74,0 -1.29,0.57 -1.29,1.29 0,0.65 0.49,1.29 1.31,1.29 0.59,0 1.06,-0.38 1.22,-0.89l-0.35 0zm3.34 -0.3c0.04,-0.39 -0.1,-0.77 -0.38,-1.04 -0.23,-0.22 -0.55,-0.34 -0.89,-0.34 -0.73,0 -1.28,0.58 -1.28,1.29 0,0.61 0.44,1.28 1.29,1.28 0.25,0 0.49,-0.07 0.69,-0.2 0.21,-0.13 0.38,-0.33 0.49,-0.59l-0.35 0c-0.16,0.32 -0.46,0.5 -0.84,0.5 -0.41,0 -0.93,-0.29 -0.95,-0.9l2.22 0zm-2.22 -0.27c0.03,-0.44 0.42,-0.83 0.95,-0.83 0.5,-0.01 0.92,0.4 0.94,0.83l-1.89 0zm4.26 -0.44c-0.02,-0.49 -0.4,-0.68 -0.74,-0.68 -0.41,0 -0.76,0.26 -0.76,0.7 0.01,0.39 0.28,0.53 0.63,0.63 0.42,0.12 0.6,0.24 0.61,0.51 0,0.25 -0.19,0.46 -0.47,0.46 -0.25,0 -0.49,-0.15 -0.51,-0.49l-0.33 0c0,0.51 0.44,0.76 0.84,0.76 0.46,0 0.83,-0.33 0.81,-0.78 -0.02,-0.52 -0.41,-0.62 -0.76,-0.72 -0.3,-0.09 -0.47,-0.18 -0.48,-0.41 -0.01,-0.21 0.15,-0.4 0.42,-0.4 0.25,0 0.42,0.15 0.42,0.4l0.33 0zm1.2 1.33l-0.35 0 0 0.5 0.35 0 0 -0.5z"/>
  <path class="fil1" d="M1.19 0l9.64 0c0.66,0 1.19,0.54 1.19,1.19l0 9.64c0,0.66 -0.54,1.19 -1.19,1.19l-9.64 0c-0.66,0 -1.19,-0.54 -1.19,-1.19l0 -9.64c0,-0.66 0.54,-1.19 1.19,-1.19z"/>
  <path class="fil0" d="M4.38 10.57l0 -0.87 -0.44 0c-0.35,0 -0.4,-0.36 -0.4,-0.63l0 -2.06c0,-0.81 -0.52,-0.98 -1.21,-1.02l0 -0.03c0.58,-0.02 1.21,-0.23 1.21,-0.93l0 -2.06c0,-0.27 0.05,-0.63 0.4,-0.63l0.44 0 0 -0.87 -0.87 0c-0.15,0 -0.3,0.05 -0.44,0.11 -0.51,0.21 -0.85,0.66 -0.85,1.23l0 2.1c0,0.48 -0.56,0.59 -0.94,0.59l0 0.96c0.43,0 0.94,0.16 0.94,0.68l0 2.1c0,0.57 0.34,1.02 0.85,1.23 0.14,0.06 0.29,0.11 0.44,0.11l0.87 0zm6.37 -4.11l0 -0.96c-0.38,0 -0.94,-0.12 -0.94,-0.59l0 -2.1c0,-0.57 -0.34,-1.02 -0.85,-1.23 -0.14,-0.06 -0.29,-0.11 -0.44,-0.11l-0.87 0 0 0.87 0.44 0c0.35,0 0.4,0.36 0.4,0.63l0 2.06c0,0.7 0.63,0.91 1.21,0.93l0 0.03c-0.69,0.04 -1.21,0.21 -1.21,1.02l0 2.06c0,0.27 -0.05,0.63 -0.4,0.63l-0.44 0 0 0.87 0.87 0c0.15,0 0.3,-0.05 0.44,-0.11 0.51,-0.21 0.85,-0.66 0.85,-1.23l0 -2.1c0,-0.51 0.51,-0.68 0.94,-0.68z"/>
  <path class="fil2" d="M4.3 5.49l3.5 0c0.08,0 0.15,0.07 0.15,0.15l0 0.73c0,0.09 -0.07,0.15 -0.15,0.15l-3.5 0c-0.09,0 -0.15,-0.07 -0.15,-0.15l0 -0.73c0,-0.09 0.07,-0.15 0.15,-0.15z"/>
 </g>
</svg>
