<?xml version="1.0" encoding="UTF-8"?>
<!DOCTYPE svg PUBLIC "-//W3C//DTD SVG 1.1//EN" "http://www.w3.org/Graphics/SVG/1.1/DTD/svg11.dtd">
<!-- Creator: CorelDRAW 2019 (64-Bit) -->
<svg xmlns="http://www.w3.org/2000/svg" xml:space="preserve" width="4.03043in" height="0.303606in" version="1.1" style="shape-rendering:geometricPrecision; text-rendering:geometricPrecision; image-rendering:optimizeQuality; fill-rule:evenodd; clip-rule:evenodd"
viewBox="0 0 394.67 29.73"
 xmlns:xlink="http://www.w3.org/1999/xlink"
 xmlns:xodm="http://www.corel.com/coreldraw/odm/2003">
 <defs>
  <style type="text/css">
   <![CDATA[
    .fil0 {fill:#5E6AD0}
    .fil4 {fill:#6666CC}
    .fil2 {fill:white}
    .fil1 {fill:white;fill-rule:nonzero}
    .fil5 {fill:white;fill-rule:nonzero}
    .fil3 {fill:white;fill-rule:nonzero}
   ]]>
  </style>
 </defs>
 <g id="Capa_x0020_1">
  <metadata id="CorelCorpID_0Corel-Layer"/>
  <path class="fil0" d="M14.86 29.73l-0 0c-8.18,0 -14.86,-6.69 -14.86,-14.86l0 0c0,-8.18 6.69,-14.86 14.86,-14.86l0 0 14.86 0.1 0 14.77 0 0c0,8.18 -6.69,14.86 -14.86,14.86z"/>
  <path class="fil1" d="M21.17 25.24c1.49,0 2.65,-1.16 2.65,-2.85l0 -4.57c0,-0.7 0.58,-1.22 1.72,-1.24l0 -3.63c-1.08,-0.02 -1.72,-0.59 -1.72,-1.37l0 -4.68c0,-1.71 -1.15,-2.82 -2.65,-2.82l-2.32 0 0 2.66 0.9 0c0.8,0 1.1,0.48 1.1,1.31l0 4.53c0,1.26 0.55,2.02 1.89,2.15l0.02 0 0 0.08c-1.22,0.08 -1.91,0.89 -1.91,1.88l0 4.6c0,0.91 -0.37,1.31 -1.15,1.31l-0.85 0 0 2.66 2.32 0zm-10.3 0l0 -2.66 -0.85 0c-0.78,0 -1.15,-0.4 -1.15,-1.31l0 -4.6c0,-0.99 -0.69,-1.79 -1.91,-1.88l0 -0.08 0.02 0c1.34,-0.13 1.89,-0.89 1.89,-2.15l0 -4.53c0,-0.82 0.3,-1.31 1.1,-1.31l0.9 0 0 -2.66 -2.32 0c-1.5,0 -2.65,1.12 -2.65,2.82l0 4.68c0,0.78 -0.64,1.35 -1.72,1.37l0 3.63c1.13,0.02 1.72,0.55 1.72,1.24l0 4.57c0,1.69 1.17,2.85 2.65,2.85l2.32 0z"/>
  <rect class="fil2" x="9.56" y="13.54" width="10.61" height="2.66" rx="0.62" ry="0.42"/>
  <path class="fil3" d="M60.86 11.55c-0.47,-2.75 -1.99,-5.22 -4.53,-7.39 -2.68,-2.28 -5.65,-3.3 -9.35,-3.3 -7.68,0 -13.81,6.42 -13.81,13.52 0,4.06 1.23,7.47 4.13,10.29 2.75,2.72 6.27,4.02 10,4.02 6.34,0 11.89,-4.1 13.56,-10.55l-7.18 0c-1.41,3.01 -3.73,4.53 -6.45,4.53 -4.24,0 -7.21,-3.62 -7.21,-7.97 0,-4.17 2.9,-7.83 7.18,-7.83 2.79,0 5.33,1.74 6.49,4.68l7.18 0z"/>
  <path id="1" class="fil3" d="M82.08 18.04c0,-6.09 -4.78,-10.62 -10.84,-10.62 -6.02,0 -10.84,4.46 -10.84,10.69 0,6.16 4.71,10.69 10.84,10.69 6.05,0 10.84,-4.46 10.84,-10.76zm-10.84 5.15c-2.72,0 -4.82,-2.32 -4.82,-5.07 0,-2.75 2.14,-5.07 4.78,-5.07 2.83,0 4.86,2.39 4.86,5.07 0,2.68 -1.99,5.07 -4.82,5.07z"/>
  <path id="2" class="fil3" d="M103.63 28.19l0 -26.82 -6.02 0 0 8.41c-1.7,-1.7 -3.59,-2.39 -5.91,-2.39 -5.87,0 -9.97,4.68 -9.97,10.69 0,6.09 3.99,10.76 10.08,10.76 2.86,0 4.89,-0.98 6.02,-2.83l0.07 0 0 2.17 5.73 0zm-10.84 -4.97c-2.9,0 -5.04,-2.14 -5.04,-5.18 0,-2.94 2.25,-5.04 5.07,-5.04 2.97,0 5.11,2.25 5.11,5.04 0,2.97 -2.21,5.18 -5.15,5.18z"/>
  <path id="3" class="fil3" d="M125.1 19.96c0.11,-0.54 0.14,-1.02 0.14,-1.59 0,-6.23 -4.6,-10.98 -10.62,-10.98 -5.91,0 -10.55,5 -10.55,10.8 0,5.98 4.86,10.66 10.66,10.66 4.24,0 7.9,-2.57 9.82,-6.96l-6.16 0c-0.98,1.27 -2.03,1.88 -3.66,1.88 -2.46,0 -4.39,-1.52 -4.71,-3.81l15.08 0zm-15.01 -4.06c0.47,-2.14 2.36,-3.44 4.53,-3.44 2.32,0 4.13,1.38 4.6,3.44l-9.13 0z"/>
  <polygon id="4" class="fil3" points="212.64,28.19 212.64,1.36 205.79,1.36 205.79,11.44 197.02,11.44 197.02,1.36 190.17,1.36 190.17,28.19 197.02,28.19 197.02,17.46 205.79,17.46 205.79,28.19 "/>
  <path id="5" class="fil3" d="M235.57 28.19l0 -20.12 -6.02 0 0 2.14 -0.07 0c-1.16,-1.85 -3.44,-2.83 -5.91,-2.83 -5.76,0 -10.08,4.78 -10.08,10.73 0,6.09 4.13,10.76 10.08,10.76 2.65,0 5.04,-1.09 5.91,-2.86l0.07 0 0 2.17 6.02 0zm-11.06 -4.93c-2.79,0 -5,-2.28 -5,-5.07 0,-2.9 2.17,-5.18 4.93,-5.18 2.83,0 5.11,2.28 5.11,5.11 0,2.9 -2.21,5.15 -5.04,5.15z"/>
  <path id="6" class="fil3" d="M243.12 28.19l0 -11.09c0,-2.28 1.16,-3.62 4.75,-3.66l0 -6.05c-2.32,0 -3.99,0.69 -5.04,2.83l-0.07 0 0 -2.14 -5.65 0 0 20.12 6.02 0z"/>
  <path id="7" class="fil3" d="M268.15 28.19l0 -26.82 -6.02 0 0 8.41c-1.7,-1.7 -3.59,-2.39 -5.91,-2.39 -5.87,0 -9.97,4.68 -9.97,10.69 0,6.09 3.99,10.76 10.08,10.76 2.86,0 4.89,-0.98 6.02,-2.83l0.07 0 0 2.17 5.73 0zm-10.84 -4.97c-2.9,0 -5.04,-2.14 -5.04,-5.18 0,-2.94 2.25,-5.04 5.07,-5.04 2.97,0 5.11,2.25 5.11,5.04 0,2.97 -2.21,5.18 -5.15,5.18z"/>
  <polygon id="8" class="fil3" points="291.87,28.19 298.07,8.07 291.87,8.07 288.86,20.57 288.79,20.57 285.46,8.07 280.38,8.07 277.08,20.57 277.01,20.57 274,8.07 267.77,8.07 273.93,28.19 279.51,28.19 282.88,15.17 282.96,15.17 286.33,28.19 "/>
  <path id="9" class="fil3" d="M318.1 28.19l0 -20.12 -6.02 0 0 2.14 -0.07 0c-1.16,-1.85 -3.44,-2.83 -5.91,-2.83 -5.76,0 -10.08,4.78 -10.08,10.73 0,6.09 4.13,10.76 10.08,10.76 2.65,0 5.04,-1.09 5.91,-2.86l0.07 0 0 2.17 6.02 0zm-11.06 -4.93c-2.79,0 -5,-2.28 -5,-5.07 0,-2.9 2.17,-5.18 4.93,-5.18 2.83,0 5.11,2.28 5.11,5.11 0,2.9 -2.21,5.15 -5.04,5.15z"/>
  <path id="10" class="fil3" d="M325.65 28.19l0 -11.09c0,-2.28 1.16,-3.62 4.75,-3.66l0 -6.05c-2.32,0 -3.99,0.69 -5.04,2.83l-0.07 0 0 -2.14 -5.65 0 0 20.12 6.02 0z"/>
  <path id="11" class="fil3" d="M349.67 19.96c0.11,-0.54 0.14,-1.02 0.14,-1.59 0,-6.23 -4.6,-10.98 -10.62,-10.98 -5.91,0 -10.55,5 -10.55,10.8 0,5.98 4.86,10.66 10.66,10.66 4.24,0 7.9,-2.57 9.82,-6.96l-6.16 0c-0.98,1.27 -2.03,1.88 -3.66,1.88 -2.46,0 -4.39,-1.52 -4.71,-3.81l15.08 0zm-15.01 -4.06c0.47,-2.14 2.36,-3.44 4.53,-3.44 2.32,0 4.13,1.38 4.6,3.44l-9.13 0z"/>
  <polygon id="12" class="fil3" points="357,28.19 357,22.02 350.73,22.02 350.73,28.19 "/>
  <path id="13" class="fil3" d="M146.11 28.19l0 -19.83 -2.54 0 0 3.48 -0.07 0c-1.59,-2.5 -4.42,-3.99 -7.72,-3.99 -5.8,0 -10.66,4.42 -10.66,10.37 0,5.94 4.71,10.44 10.66,10.44 3.23,0 6.09,-1.49 7.72,-3.95l0.07 0 0 3.48 2.54 0zm-10.33 -1.81c-4.68,0 -8.12,-3.48 -8.12,-8.05 0,-4.71 3.52,-8.19 8.08,-8.19 4.49,0 7.97,3.73 7.97,8.16 0,4.46 -3.52,8.08 -7.94,8.08z"/>
  <path id="14" class="fil3" d="M165.63 28.19l0 -11.05c0,-5.51 -3.26,-9.28 -8.74,-9.28 -2.57,0 -4.82,1.12 -6.09,3.04l-0.07 0 0 -2.54 -2.54 0 0 19.83 2.54 0 0 -11.24c0,-3.88 2.36,-6.81 6.2,-6.81 3.48,0 6.16,2.54 6.16,7l0 11.05 2.54 0z"/>
  <path id="15" class="fil3" d="M187.83 28.19l0 -26.82 -2.54 0 0 10.4 -0.07 0c-1.7,-2.46 -4.64,-3.91 -7.72,-3.91 -5.8,0 -10.66,4.42 -10.66,10.37 0,5.94 4.71,10.44 10.66,10.44 3.08,0 5.98,-1.38 7.72,-3.95l0.07 0 0 3.48 2.54 0zm-10.33 -1.81c-4.71,0 -8.12,-3.52 -8.12,-8.05 0,-4.68 3.44,-8.19 8.08,-8.19 4.53,0 7.97,3.73 7.97,8.16 0,4.49 -3.55,8.08 -7.94,8.08l0 0z"/>
  <rect class="fil4" x="359.15" y="14.24" width="35.52" height="14.03" rx="1.69" ry="1.69"/>
  <path class="fil5" d="M367.2 26.23c1.61,0 2.14,-0.12 2.94,-0.69 0.77,-0.54 1.19,-1.43 1.19,-2.41 0,-1.17 -0.57,-1.99 -1.68,-2.37 0.77,-0.43 1.19,-1.2 1.19,-2.07 0,-1.38 -0.96,-2.27 -2.12,-2.54 -0.36,-0.08 -0.9,-0.12 -1.63,-0.12l-3.27 0 0 10.2 3.39 0zm-0.9 -6.33l0 -1.59 1.05 0c0.65,0 0.98,0.23 0.98,0.77 0,0.54 -0.35,0.81 -0.99,0.81l-1.03 0zm0 4.04l0 -1.86 1.35 0c0.77,0 1.17,0.29 1.17,0.88 0,0.66 -0.45,0.98 -1.19,0.98l-1.34 0z"/>
  <path id="1" class="fil5" d="M378.81 23.1c0.04,-0.21 0.06,-0.39 0.06,-0.61 0,-2.37 -1.75,-4.18 -4.04,-4.18 -2.25,0 -4.01,1.9 -4.01,4.11 0,2.27 1.85,4.05 4.05,4.05 1.61,0 3.01,-0.98 3.74,-2.65l-2.34 0c-0.37,0.48 -0.77,0.72 -1.39,0.72 -0.94,0 -1.67,-0.58 -1.79,-1.45l5.74 0zm-5.71 -1.54c0.18,-0.81 0.9,-1.31 1.72,-1.31 0.88,0 1.57,0.52 1.75,1.31l-3.47 0z"/>
  <polygon id="2" class="fil5" points="381.48,26.23 381.48,20.31 382.59,20.31 382.59,18.58 381.48,18.58 381.48,16.02 379.19,16.02 379.19,18.58 378.06,18.58 378.06,20.31 379.19,20.31 379.19,26.23 "/>
  <path id="3" class="fil5" d="M390.01 26.23l0 -7.65 -2.29 0 0 0.81 -0.03 0c-0.44,-0.7 -1.31,-1.08 -2.25,-1.08 -2.19,0 -3.83,1.82 -3.83,4.08 0,2.32 1.57,4.1 3.83,4.1 1.01,0 1.92,-0.41 2.25,-1.09l0.03 0 0 0.83 2.29 0zm-4.21 -1.88c-1.06,0 -1.9,-0.87 -1.9,-1.93 0,-1.1 0.83,-1.97 1.88,-1.97 1.08,0 1.94,0.87 1.94,1.94 0,1.1 -0.84,1.96 -1.92,1.96z"/>
 </g>
</svg>
