<svg width="500" height="500" xmlns="http://www.w3.org/2000/svg" xmlns:xlink="http://www.w3.org/1999/xlink"><defs><path d="M125.75 104h155.5a3.75 3.75 0 0 1 3.75 3.75v224.5a3.75 3.75 0 0 1-3.75 3.75h-155.5a3.75 3.75 0 0 1-3.75-3.75v-224.5a3.75 3.75 0 0 1 3.75-3.75z" id="b"/><filter x="-13.2%" y="-6.7%" width="126.4%" height="118.5%" filterUnits="objectBoundingBox" id="a"><feOffset dy="4" in="SourceAlpha" result="shadowOffsetOuter1"/><feGaussianBlur stdDeviation="5.5" in="shadowOffsetOuter1" result="shadowBlurOuter1"/><feColorMatrix values="0 0 0 0 0.145098039 0 0 0 0 0.17254902 0 0 0 0 0.380392157 0 0 0 0.1 0" in="shadowBlurOuter1" result="shadowMatrixOuter1"/><feOffset dy="2" in="SourceAlpha" result="shadowOffsetOuter2"/><feGaussianBlur stdDeviation="1.5" in="shadowOffsetOuter2" result="shadowBlurOuter2"/><feColorMatrix values="0 0 0 0 0.364705882 0 0 0 0 0.392156863 0 0 0 0 0.580392157 0 0 0 0.15 0" in="shadowBlurOuter2" result="shadowMatrixOuter2"/><feMerge><feMergeNode in="shadowMatrixOuter1"/><feMergeNode in="shadowMatrixOuter2"/></feMerge></filter><linearGradient x1="50%" y1="100%" x2="50%" y2="0%" id="e"><stop stop-color="#F5F5FA" offset="0%"/><stop stop-color="#FFF" offset="100%"/></linearGradient><path d="M212.75 166h155.5a3.75 3.75 0 0 1 3.75 3.75v224.5a3.75 3.75 0 0 1-3.75 3.75h-155.5a3.75 3.75 0 0 1-3.75-3.75v-224.5a3.75 3.75 0 0 1 3.75-3.75z" id="d"/><filter x="-13.2%" y="-6.7%" width="126.4%" height="118.5%" filterUnits="objectBoundingBox" id="c"><feOffset dy="4" in="SourceAlpha" result="shadowOffsetOuter1"/><feGaussianBlur stdDeviation="5.5" in="shadowOffsetOuter1" result="shadowBlurOuter1"/><feColorMatrix values="0 0 0 0 0.145098039 0 0 0 0 0.17254902 0 0 0 0 0.380392157 0 0 0 0.15 0" in="shadowBlurOuter1" result="shadowMatrixOuter1"/><feOffset dy="2" in="SourceAlpha" result="shadowOffsetOuter2"/><feGaussianBlur stdDeviation="1.5" in="shadowOffsetOuter2" result="shadowBlurOuter2"/><feColorMatrix values="0 0 0 0 0.364705882 0 0 0 0 0.392156863 0 0 0 0 0.580392157 0 0 0 0.2 0" in="shadowBlurOuter2" result="shadowMatrixOuter2"/><feMerge><feMergeNode in="shadowMatrixOuter1"/><feMergeNode in="shadowMatrixOuter2"/></feMerge></filter><linearGradient x1="50%" y1="81.398%" x2="50%" y2="0%" id="f"><stop stop-color="#A0AAF8" stop-opacity="0" offset="0%"/><stop stop-color="#5468FF" stop-opacity=".4" offset="100%"/></linearGradient></defs><g fill="none" fill-rule="evenodd"><g stroke-width="1.142"><path d="M236.301 214.795L148.401 0m66.211 231.648l-213.47-90.26" stroke="#C5C9E0"/><path d="M214.612 259.069L0 347.044" stroke="#C5C9E0" stroke-dasharray="11.416"/><path d="M236.301 285.205L146.12 498.857m117.579-213.652L351.599 500" stroke="#C5C9E0"/><path d="M285.388 259.069l212.329 90.26" stroke="#5468FF"/><path d="M285.388 231.648L500 143.674" stroke="#C5C9E0" stroke-dasharray="11.416"/><path d="M263.699 214.795L353.88 1.143m-103.302 209.94L250 47.7" stroke="#C5C9E0"/><path d="M224.886 221.366L81.05 77.406" stroke="#C5C9E0" stroke-dasharray="11.416"/><path d="M216.895 245.359l-204.338.578m212.329 26.843L81.05 416.737" stroke="#C5C9E0"/><path d="M250 292.202l.578 204.513" stroke="#C5C9E0" stroke-dasharray="11.416"/><path d="M273.973 272.78l143.835 143.958M284.247 245.937l204.337-.578m-214.611-23.993l143.835-143.96" stroke="#C5C9E0"/></g><use fill="#000" filter="url(#a)" xlink:href="#b"/><use fill="#FFF" xlink:href="#b"/><path d="M139 293.759c7.839 0 8.119-13.075 16.424-13.075s7.932 8.939 16.05 8.939c8.12 0 7.933-20.946 16.238-20.946s7.839 17.744 15.957 17.744c8.119 0 8.026-36.421 16.331-36.421" stroke="#5468FF" stroke-width="2.4" opacity=".15" stroke-linecap="round"/><rect fill="#C5C9E0" opacity=".35" x="140" y="121" width="29" height="3" rx="1.5"/><rect fill="#C5C9E0" opacity=".35" x="140" y="230" width="41" height="3" rx="1.5"/><path d="M139 178.433a2.4 2.4 0 0 1 2.407-2.404 2.41 2.41 0 0 1 2.408 2.404v4.163a2.4 2.4 0 0 1-2.408 2.404 2.41 2.41 0 0 1-2.407-2.404v-4.163zm19.26-8.973a2.398 2.398 0 0 1 2.407-2.401 2.4 2.4 0 0 1 2.407 2.4v13.14a2.398 2.398 0 0 1-2.407 2.401 2.4 2.4 0 0 1-2.408-2.401v-13.14zm-9.63 4.796a2.408 2.408 0 0 1 4.815 0v8.33a2.408 2.408 0 0 1-4.815 0v-8.33zm19.259-1.207a2.399 2.399 0 0 1 2.407-2.402 2.407 2.407 0 0 1 2.408 2.402v9.549a2.399 2.399 0 0 1-2.408 2.402 2.407 2.407 0 0 1-2.407-2.402v-9.549zm9.63-7.171a2.401 2.401 0 0 1 2.407-2.407 2.41 2.41 0 0 1 2.407 2.407v16.715a2.401 2.401 0 0 1-2.407 2.407 2.41 2.41 0 0 1-2.407-2.407v-16.715zm9.63-3.587a2.409 2.409 0 0 1 4.815 0l-.001 20.3a2.409 2.409 0 0 1-4.815 0v-20.3zm9.629-2.384a2.406 2.406 0 1 1 4.815 0v22.676a2.406 2.406 0 1 1-4.815 0v-22.676zm9.63-13.76a2.404 2.404 0 0 1 2.407-2.412 2.411 2.411 0 0 1 2.407 2.412v36.44a2.404 2.404 0 0 1-2.407 2.413 2.411 2.411 0 0 1-2.408-2.412v-36.44zm9.629 8.366a2.4 2.4 0 0 1 2.407-2.405 2.406 2.406 0 0 1 2.408 2.405v28.082a2.4 2.4 0 0 1-2.408 2.405 2.406 2.406 0 0 1-2.407-2.405v-28.082zm9.63 2.393a2.4 2.4 0 0 1 2.407-2.406 2.412 2.412 0 0 1 2.407 2.406v25.688a2.4 2.4 0 0 1-2.407 2.406 2.412 2.412 0 0 1-2.407-2.406v-25.688zm9.63-12.558a2.401 2.401 0 0 1 2.407-2.407 2.413 2.413 0 0 1 2.407 2.407v38.245a2.401 2.401 0 0 1-2.407 2.407 2.413 2.413 0 0 1-2.408-2.407v-38.245zm9.629 5.978a2.4 2.4 0 0 1 2.407-2.404c1.33 0 2.408 1.07 2.408 2.404v32.27a2.4 2.4 0 0 1-2.408 2.404 2.402 2.402 0 0 1-2.407-2.404v-32.27zm9.63-11.967a2.397 2.397 0 0 1 2.407-2.398 2.4 2.4 0 0 1 2.407 2.398v44.243a2.397 2.397 0 0 1-2.407 2.398 2.4 2.4 0 0 1-2.407-2.398v-44.243zm9.63-11.949a2.403 2.403 0 0 1 2.407-2.41 2.412 2.412 0 0 1 2.407 2.41v56.18a2.403 2.403 0 0 1-2.407 2.41 2.412 2.412 0 0 1-2.408-2.41v-56.18z" fill="#5468FF" opacity=".15"/><use fill="#000" filter="url(#c)" xlink:href="#d"/><use fill="url(#e)" xlink:href="#d"/><rect fill="#5468FF" x="204" y="272" width="174" height="5" rx="2.5"/><path fill="url(#f)" d="M209 277h163v27H209z"/><rect fill="#5468FF" opacity=".3" x="225" y="195" width="29" height="3" rx="1.5"/><rect fill="#5468FF" opacity=".3" x="326" y="195" width="29" height="3" rx="1.5"/><rect fill="#5468FF" opacity=".3" x="258" y="195" width="15" height="3" rx="1.5"/><rect fill="#5468FF" opacity=".3" x="338" y="202" width="17" height="3" rx="1.5"/><rect fill="#5468FF" opacity=".3" x="277" y="195" width="45" height="3" rx="1.5"/><rect fill="#5468FF" opacity=".3" x="225" y="209" width="45" height="3" rx="1.5"/><g transform="matrix(-1 0 0 1 334 202)" fill="#5468FF" opacity=".3"><rect x="69" width="40" height="3" rx="1.5"/><rect width="26" height="3" rx="1.5"/><rect x="30" width="35" height="3" rx="1.5"/></g><rect fill="#5468FF" opacity=".6" x="225" y="184" width="45" height="3" rx="1.5"/><rect fill="#5468FF" opacity=".3" x="225" y="237" width="48" height="3" rx="1.5"/><rect fill="#5468FF" opacity=".3" x="292" y="237" width="29" height="3" rx="1.5"/><rect fill="#5468FF" opacity=".3" x="325" y="237" width="30" height="3" rx="1.5"/><rect fill="#5468FF" opacity=".3" x="318" y="244" width="37" height="3" rx="1.5"/><rect fill="#5468FF" opacity=".3" x="308" y="244" width="6" height="3" rx="1.5"/><rect fill="#5468FF" opacity=".3" x="277" y="237" width="11" height="3" rx="1.5"/><rect fill="#5468FF" opacity=".3" x="225" y="251" width="19" height="3" rx="1.5"/><g transform="matrix(-1 0 0 1 304 244)" fill="#5468FF" opacity=".3"><rect x="39" width="40" height="3" rx="1.5"/><rect width="35" height="3" rx="1.5"/></g><rect fill="#5468FF" opacity=".6" x="225" y="226" width="30" height="3" rx="1.5"/></g></svg>