<svg width="500" height="500" xmlns="http://www.w3.org/2000/svg" xmlns:xlink="http://www.w3.org/1999/xlink"><defs><linearGradient x1="50%" y1="100%" x2="50%" y2="0%" id="c"><stop stop-color="#F5F5FA" offset="0%"/><stop stop-color="#FFF" offset="100%"/></linearGradient><ellipse id="a" cx="119.921" cy="120" rx="119.921" ry="120"/><filter x="-9%" y="-6.5%" width="117.9%" height="117.9%" filterUnits="objectBoundingBox" id="b"><feOffset dy="4" in="SourceAlpha" result="shadowOffsetOuter1"/><feGaussianBlur stdDeviation="5.5" in="shadowOffsetOuter1" result="shadowBlurOuter1"/><feColorMatrix values="0 0 0 0 0.145098039 0 0 0 0 0.17254902 0 0 0 0 0.380392157 0 0 0 0.15 0" in="shadowBlurOuter1" result="shadowMatrixOuter1"/><feOffset dy="2" in="SourceAlpha" result="shadowOffsetOuter2"/><feGaussianBlur stdDeviation="1.5" in="shadowOffsetOuter2" result="shadowBlurOuter2"/><feColorMatrix values="0 0 0 0 0.364705882 0 0 0 0 0.392156863 0 0 0 0 0.580392157 0 0 0 0.2 0" in="shadowBlurOuter2" result="shadowMatrixOuter2"/><feMerge><feMergeNode in="shadowMatrixOuter1"/><feMergeNode in="shadowMatrixOuter2"/></feMerge></filter></defs><g fill="none" fill-rule="evenodd"><g stroke-width="1.142"><path d="M236.301 214.795L148.401 0m66.211 231.648l-213.47-90.26" stroke="#C5C9E0"/><path d="M214.612 259.069L0 347.044" stroke="#C5C9E0" stroke-dasharray="11.416"/><path d="M236.301 285.205L146.12 498.857m117.579-213.652L351.599 500" stroke="#C5C9E0"/><path d="M285.388 259.069l212.329 90.26" stroke="#5468FF"/><path d="M285.388 231.648L500 143.674" stroke="#C5C9E0" stroke-dasharray="11.416"/><path d="M263.699 214.795L353.88 1.143m-103.302 209.94L250 47.7" stroke="#C5C9E0"/><path d="M224.886 221.366L81.05 77.406" stroke="#C5C9E0" stroke-dasharray="11.416"/><path d="M216.895 245.359l-204.338.578m212.329 26.843L81.05 416.737" stroke="#C5C9E0"/><path d="M250 292.202l.578 204.513" stroke="#C5C9E0" stroke-dasharray="11.416"/><path d="M273.973 272.78l143.835 143.958M284.247 245.937l204.337-.578m-214.611-23.993l143.835-143.96" stroke="#C5C9E0"/></g><g transform="translate(133.377 130)"><mask id="d" fill="#fff"><use xlink:href="#a"/></mask><use fill="#000" filter="url(#b)" xlink:href="#a"/><use fill="url(#c)" xlink:href="#a"/><g mask="url(#d)" fill="#C5C9E0" fill-rule="nonzero" opacity=".5"><path d="M136.57 100.032h10.976l15.316-13.266 14.658 13.596h13.146l15.381-13.596V72.839H193.23l10.254 13.2h-24.847l-14.658-13.2v10.627h-12.423l-14.987 13.992V84.984l8.414-8.119 17.879-17.622h13.54V45.647l-13.54 10.692-11.7-11.022h18.667V32.051h8.02l13.54 11.748h39.899l15.71-13.2h14.592l14.658 11.022V14.099h14.658L305.5 29.873h82.295l13.541 13.926h-11.371v14.718L376.29 72.311V48.617l-15.184 9.9h-13.54v13.596l-13.87 12.475v13.596L319.04 87.162v14.322l-14.986 13.926h-12.095l11.7 11.418-13.146 14.322v-12.474l-11.306-11.748h-6.639l-9.86 12.474v11.022l-28.855-25.74-13.212 13.596-14.593-12.144v13.266l12.818 12.474-12.49 13.2v14.719l-14.592 13.596v22.77h-13.54v-8.118l-14.264-13.926v-41.515h-28.922l-14.263-13.596v-15.048zm-51.42-48.25l-5.803-30.027L71 13.326V-9.787L95.648-24.8l14.541 7.31v9.152h9.39l-10.498 37.731zM304.178 208.54l25.252-25.475h17.558l14.27 14.064v24.679h-18.676l-10.259-10.283-13.875 12.87zm-250.18-21.604v-30.264l13.751-13.721 13.62 13.524h15.999l12.495 13.655v30.33l-26.841 27.048v14.64L68.344 256v-57.378zM6.585 45.113H-31.76l-15.365-13.996h-15.364l-13.46 13.996 13.46 15.52h28.89l27.775 27.66v15.522l29.219 28.389 16.086.398 13.132 13.995v-14.725H38.76L25.561 118.54l12.082-13.598 13.526 13.266v-12.205L67.584 90.55V76.155h13.132V61.363H66.862L53.007 45.51v27.66L39.481 60.634H27.794l10.965-14.792h9.85L37.97 33.704 24.84 45.51 7.308 31.847z"/></g></g><g transform="translate(99 184)"><path d="M256.208 3.055c25.903-1.326 43.19 2.507 46.295 11.93 6.68 20.27-54.797 58.732-137.31 85.905-82.513 27.174-154.817 32.77-161.496 12.5-3.104-9.421 8.513-22.77 30.12-37.09" stroke="#5468FF" stroke-width="2"/><path d="M273.57 75.673c19.382 13.075 29.652 25.25 26.837 34.115-6.435 20.262-78.797 15.555-161.625-10.514C55.954 73.204-5.975 35.646.46 15.384 3.676 5.253 23.375 1.364 52.623 3.267" stroke="#5468FF" stroke-width="2"/><ellipse fill="#5468FF" cx="227.45" cy="147.2" rx="5.197" ry="5.2"/><ellipse fill="#5468FF" cx="104.331" cy="36" rx="5.197" ry="5.2"/><ellipse fill="#5468FF" cx="83.545" cy="19.2" rx="5.197" ry="5.2"/><ellipse fill="#5468FF" cx="87.542" cy="53.6" rx="5.197" ry="5.2"/><ellipse fill="#5468FF" cx="61.959" cy="47.2" rx="5.197" ry="5.2"/><ellipse fill="#5468FF" cx="179.482" cy="16.8" rx="5.197" ry="5.2"/><ellipse fill="#5468FF" cx="188.276" cy="26.4" rx="5.197" ry="5.2"/><ellipse fill="#5468FF" cx="238.642" cy="5.6" rx="5.197" ry="5.2"/><ellipse fill="#5468FF" cx="145.904" cy="135.2" rx="5.197" ry="5.2"/></g></g></svg>