<svg xmlns="http://www.w3.org/2000/svg" width="559" height="381"><defs><linearGradient id="a" x1="45.397%" x2="96.952%" y1="50.005%" y2="50.005%"><stop offset="0%" stop-color="#E1E1FF"/><stop offset="11.815%" stop-color="#FCFCFE"/><stop offset="100%" stop-color="#E1E1FF"/></linearGradient><linearGradient id="b" x1="49.997%" x2="49.997%" y1="99.983%" y2=".014%"><stop offset="0%" stop-color="#FCFCFE"/><stop offset="100%" stop-color="#E1E1FF"/></linearGradient><linearGradient id="c" x1="49.999%" x2="49.999%" y1=".03%" y2="100.027%"><stop offset="0%" stop-color="#0F9"/><stop offset="100%" stop-color="#35C5CD"/></linearGradient><linearGradient id="d" x1="0%" y1="49.984%" y2="49.984%"><stop offset="0%" stop-color="#3D386B"/><stop offset="100%" stop-color="#211E39"/></linearGradient><linearGradient id="e" x1="-4.63%" x2="255.696%" y1="50.023%" y2="50.023%"><stop offset="0%" stop-color="#FCFCFE"/><stop offset="100%" stop-color="#E1E1FF"/></linearGradient><linearGradient id="f" x1="0%" x2="0%" y1="0%" y2="76.602%"><stop offset="0%" stop-color="#EEF3FF"/><stop offset="100%" stop-color="#FFF"/></linearGradient><linearGradient id="g" x1="3999%" x2="15974%" y1="4056%" y2="4056%"><stop offset="0%" stop-color="#FCFCFE"/><stop offset="100%" stop-color="#E1E1FF"/></linearGradient><linearGradient id="h" x1="3999%" x2="15974%" y1="878%" y2="878%"><stop offset="0%" stop-color="#FCFCFE"/><stop offset="100%" stop-color="#E1E1FF"/></linearGradient><linearGradient id="i" x1="-2534%" x2="9441%" y1="878%" y2="878%"><stop offset="0%" stop-color="#FCFCFE"/><stop offset="100%" stop-color="#E1E1FF"/></linearGradient><linearGradient id="j" x1="61.965%" x2="20.749%" y1="8.308%" y2="64.001%"><stop offset="0%" stop-color="#EEF3FF"/><stop offset="100%" stop-color="#FFF"/></linearGradient><linearGradient id="k" x1="25577%" x2="32090%" y1="20211%" y2="20211%"><stop offset="0%" stop-color="#3D386B"/><stop offset="100%" stop-color="#211E39"/></linearGradient><linearGradient id="l" x1="22824%" x2="34799%" y1="12398%" y2="12398%"><stop offset="0%" stop-color="#FCFCFE"/><stop offset="100%" stop-color="#E1E1FF"/></linearGradient><linearGradient id="m" x1="22824%" x2="34799%" y1="9219%" y2="9219%"><stop offset="0%" stop-color="#FCFCFE"/><stop offset="100%" stop-color="#E1E1FF"/></linearGradient><linearGradient id="n" x1="16291%" x2="28265%" y1="9219%" y2="9219%"><stop offset="0%" stop-color="#FCFCFE"/><stop offset="100%" stop-color="#E1E1FF"/></linearGradient><linearGradient id="o" x1="71.191%" x2="29.538%" y1="0%" y2="50%"><stop offset="0%" stop-color="#EEF3FF"/><stop offset="100%" stop-color="#FFF"/></linearGradient><linearGradient id="p" x1="7372%" x2="25143%" y1="30284%" y2="30284%"><stop offset="0%" stop-color="#FCFCFE"/><stop offset="100%" stop-color="#E1E1FF"/></linearGradient><linearGradient id="q" x1="12933%" x2="19445%" y1="21904%" y2="21904%"><stop offset="0%" stop-color="#3D386B"/><stop offset="100%" stop-color="#211E39"/></linearGradient><linearGradient id="r" x1="10195%" x2="22170%" y1="16022%" y2="16022%"><stop offset="0%" stop-color="#FCFCFE"/><stop offset="100%" stop-color="#E1E1FF"/></linearGradient><linearGradient id="s" x1="10195%" x2="22170%" y1="12290%" y2="12290%"><stop offset="0%" stop-color="#35C5CD"/><stop offset="100%" stop-color="#44DB99"/></linearGradient><linearGradient id="t" x1="49.999%" x2="49.999%" y1="100.027%" y2=".03%"><stop offset="0%" stop-color="#0F9"/><stop offset="100%" stop-color="#35C5CD"/></linearGradient><linearGradient id="u" x1="10195%" x2="22170%" y1="14091%" y2="14091%"><stop offset="0%" stop-color="#35C5CD"/><stop offset="100%" stop-color="#44DB99"/></linearGradient><linearGradient id="v" x1="10195%" x2="22170%" y1="10913%" y2="10913%"><stop offset="0%" stop-color="#35C5CD"/><stop offset="100%" stop-color="#44DB99"/></linearGradient><linearGradient id="w" x1="3661%" x2="15636%" y1="10913%" y2="10913%"><stop offset="0%" stop-color="#35C5CD"/><stop offset="100%" stop-color="#44DB99"/></linearGradient></defs><g fill="none"><g opacity=".95"><path fill="url(#a)" d="M558.817 167.262c0-4.01-2.555-8.02-7.757-11.099L298.255 7.025c-10.404-6.156-27.38-6.156-37.693 0L7.758 156.163C2.555 159.241 0 163.252 0 167.263v16.695h.456c-1.46 4.85 1.004 10.073 7.393 13.897l252.805 149.138c10.404 6.156 27.38 6.156 37.692 0l252.805-149.138c6.389-3.731 8.762-8.954 7.393-13.897H559v-16.696h-.183z" transform="translate(0 29)"/><path fill="url(#b)" d="M7.803 154.163C-2.6 160.32-2.6 170.3 7.803 176.455l252.805 149.138c10.404 6.156 27.38 6.156 37.693 0l252.805-149.138c10.404-6.156 10.404-16.136 0-22.292L298.3 5.025c-10.405-6.156-27.38-6.156-37.693 0L7.803 154.163z" transform="translate(0 29)"/></g><g transform="translate(173)"><path fill="#6161AA" d="M117.15 147.34c-13.402-23.364-49.4-42.268-80.372-42.268-18.806 0-31.441 6.984-35.468 17.698-.54 3.144-.977 6.358-1.31 9.642.341 4.643 1.956 9.678 4.977 14.934 13.403 23.364 49.4 42.268 80.373 42.268 18.806 0 31.44-6.984 35.468-17.698a143.1 143.1 0 0 0 1.31-9.666c-.348-4.613-1.962-9.642-4.978-14.91z" opacity=".1"/><path fill="url(#c)" d="M61.338 62.802c-25.379 0-46.722 26.431-52.925 62.289a123.308 123.308 0 0 0-1.158 8.454c.3 4.06 1.733 8.46 4.403 13.054 11.881 20.42 43.751 36.976 71.188 36.976 16.657 0 27.846-6.078 31.41-15.467.478-2.764.864-5.582 1.158-8.454.444-4.342.667-8.703.668-13.067 0-46.268-24.51-83.785-54.744-83.785z"/><path fill="url(#d)" d="M61.131 62.802a34.723 34.723 0 0 0-20.019 6.534c5.117 7.907 12.151 12.79 19.921 12.79s14.866-4.92 19.982-12.883a34.69 34.69 0 0 0-19.884-6.441z" opacity=".3"/><ellipse cx="60.459" cy="36.232" fill="url(#c)" rx="36.276" ry="36.232"/><path fill="url(#e)" d="M51.209 11.085c.223-3.37.894-6.694 1.995-9.877-13.407 2.766-24.16 13.039-27.811 26.57 10.58-1.386 20.027-7.494 25.816-16.693z"/><path fill="url(#f)" d="M55.018 0c-15.156 3.143-26.101 12.401-30.23 27.778 11.961-1.575 22.035-6.1 28.58-16.554.251-3.83.405-7.607 1.65-11.224z"/><path fill="url(#g)" d="M61.296 0a37.036 37.036 0 0 0-4.656.305 36.299 36.299 0 0 1-4.547 10.112 35.3 35.3 0 0 0-.098 2.557c0 20.182 16.405 36.543 36.643 36.543a36.9 36.9 0 0 0 7.178-.696 36.465 36.465 0 0 0-4.57-33.334A36.68 36.68 0 0 0 61.296 0z"/><path fill="url(#h)" d="M51.995 9.662A33.109 33.109 0 0 0 56.832 0a44.92 44.92 0 0 0-2.689.385 31.677 31.677 0 0 0-2.148 9.277z"/><path fill="url(#i)" d="M51.995 9.662A33.109 33.109 0 0 0 56.832 0a44.92 44.92 0 0 0-2.689.385 31.677 31.677 0 0 0-2.148 9.277z"/><path fill="url(#j)" d="M61.296 0a37.036 37.036 0 0 0-4.656.305c-.851.11-1.696.238-2.528.403a36.292 36.292 0 0 0-2.02 9.71 35.3 35.3 0 0 0-.097 2.556c0 20.182 16.405 36.543 36.643 36.543a36.9 36.9 0 0 0 7.178-.696 36.465 36.465 0 0 0-4.57-33.334A36.68 36.68 0 0 0 61.296 0z"/><path fill="#6161AA" d="M232.023 197.479c-13.403-23.04-49.4-41.682-80.373-41.682-18.806 0-31.44 6.887-35.468 17.452-.54 3.093-.977 6.25-1.31 9.472.342 4.58 1.956 9.545 4.978 14.728 13.402 23.04 49.4 41.681 80.372 41.681 18.806 0 31.441-6.886 35.468-17.452.54-3.117.977-6.294 1.31-9.532-.347-4.525-1.962-9.49-4.977-14.667z" opacity=".1"/><path fill="url(#c)" d="M176.213 113.527c-25.404 0-46.724 26.412-52.928 62.277a123.35 123.35 0 0 0-1.157 8.455c.3 4.06 1.733 8.462 4.403 13.057 11.882 20.425 43.754 36.984 71.191 36.984 16.66 0 27.849-6.08 31.413-15.47.478-2.765.864-5.583 1.158-8.457.442-4.338.662-8.696.661-13.057.006-46.265-24.504-83.79-54.74-83.79z"/><path fill="url(#k)" d="M176.004 113.527a34.723 34.723 0 0 0-20.02 6.534c5.117 7.907 12.152 12.79 19.922 12.79 7.77 0 14.865-4.92 19.982-12.883a34.69 34.69 0 0 0-19.884-6.441z" opacity=".3"/><ellipse cx="175.332" cy="86.957" fill="url(#c)" rx="36.276" ry="36.232"/><path fill="url(#f)" d="M167.117 61.05a38.272 38.272 0 0 1 2.169-10.325c-14.573 2.892-26.26 13.631-30.23 27.777 11.501-1.448 21.77-7.834 28.061-17.452z"/><path fill="url(#l)" d="M176.168 50.737a37.036 37.036 0 0 0-4.657.305 36.288 36.288 0 0 1-4.546 10.11 35.287 35.287 0 0 0-.098 2.556 36.499 36.499 0 0 0 13.411 28.25 36.722 36.722 0 0 0 30.41 7.576 36.452 36.452 0 0 0-4.568-33.326 36.676 36.676 0 0 0-29.946-15.483l-.006.012z"/><path fill="url(#m)" d="M166.867 60.386a33.08 33.08 0 0 0 4.837-9.661c-.905.105-1.803.227-2.688.384a31.642 31.642 0 0 0-2.149 9.277z"/><path fill="url(#n)" d="M166.867 60.386a33.08 33.08 0 0 0 4.837-9.661c-.905.105-1.803.227-2.688.384a31.642 31.642 0 0 0-2.149 9.277z"/><path fill="url(#o)" d="M176.168 50.737a37.036 37.036 0 0 0-4.657.305c-.85.11-1.695.238-2.527.403a36.279 36.279 0 0 0-2.019 9.706 35.287 35.287 0 0 0-.098 2.557 36.499 36.499 0 0 0 13.411 28.25 36.722 36.722 0 0 0 30.41 7.576 36.452 36.452 0 0 0-4.568-33.326 36.676 36.676 0 0 0-29.946-15.483l-.006.012z"/><path fill="#6161AA" d="M154.635 207.723c-13.403-23.361-49.4-42.264-80.373-42.264-18.806 0-31.44 6.983-35.468 17.696-.54 3.14-.976 6.356-1.31 9.647.342 4.643 1.956 9.678 4.978 14.934C55.864 231.097 91.862 250 122.834 250c18.807 0 31.442-6.983 35.468-17.696.54-3.16.977-6.382 1.31-9.666-.347-4.624-1.955-9.66-4.977-14.915z" opacity=".1"/><path fill="url(#p)" d="M98.8 123.188c-25.355 0-46.699 26.441-52.903 62.295-.477 2.763-.863 5.58-1.157 8.453.3 4.06 1.733 8.46 4.403 13.053 11.882 20.419 43.754 36.972 71.192 36.972 16.658 0 27.848-6.077 31.412-15.465.478-2.763.864-5.581 1.158-8.453.442-4.338.663-8.694.661-13.054.006-46.294-24.51-83.8-54.765-83.8z"/><path fill="url(#q)" d="M98.616 123.188a34.715 34.715 0 0 0-20.02 6.53c5.118 7.91 12.152 12.794 19.922 12.794 7.77 0 14.865-4.92 19.982-12.887a34.683 34.683 0 0 0-19.884-6.437z" opacity=".3"/><ellipse cx="97.944" cy="97.826" fill="url(#r)" rx="36.276" ry="36.232"/><path fill="url(#s)" d="M88.694 71.471a37.88 37.88 0 0 1 1.995-9.877c-13.407 2.766-24.16 13.04-27.811 26.57 10.58-1.385 20.027-7.493 25.816-16.693z"/><path fill="url(#t)" d="M90.938 71.471c.243-3.37.972-6.693 2.17-9.877-14.573 2.766-26.26 13.04-30.23 26.57 11.5-1.385 21.769-7.493 28.06-16.693z"/><path fill="url(#u)" d="M98.78 61.606a37.036 37.036 0 0 0-4.656.305 36.288 36.288 0 0 1-4.547 10.11 35.287 35.287 0 0 0-.097 2.556 36.499 36.499 0 0 0 13.41 28.25 36.722 36.722 0 0 0 30.41 7.576 36.452 36.452 0 0 0-4.568-33.326 36.676 36.676 0 0 0-29.946-15.483l-.006.012z"/><path fill="url(#v)" d="M89.48 71.256a33.08 33.08 0 0 0 4.836-9.662c-.905.105-1.803.228-2.688.385a31.642 31.642 0 0 0-2.148 9.277z"/><path fill="url(#w)" d="M89.48 71.256a33.08 33.08 0 0 0 4.836-9.662c-.905.105-1.803.228-2.688.385a31.642 31.642 0 0 0-2.148 9.277z"/><path fill="url(#t)" d="M98.78 61.606a37.036 37.036 0 0 0-4.656.305c-.85.11-1.695.238-2.527.403a36.279 36.279 0 0 0-2.02 9.707 35.287 35.287 0 0 0-.097 2.556 36.499 36.499 0 0 0 13.41 28.25 36.722 36.722 0 0 0 30.41 7.576 36.452 36.452 0 0 0-4.568-33.326 36.676 36.676 0 0 0-29.946-15.483l-.006.012z"/></g></g></svg>