<svg xmlns="http://www.w3.org/2000/svg" width="559" height="352"><defs><linearGradient id="a" x1="45.397%" x2="96.952%" y1="50.005%" y2="50.005%"><stop offset="0%" stop-color="#E1E1FF"/><stop offset="11.815%" stop-color="#FCFCFE"/><stop offset="100%" stop-color="#E1E1FF"/></linearGradient><linearGradient id="b" x1="49.997%" x2="49.997%" y1="99.983%" y2=".014%"><stop offset="0%" stop-color="#FCFCFE"/><stop offset="100%" stop-color="#E1E1FF"/></linearGradient><linearGradient id="c" x1="5.293%" x2="100.002%" y1="49.165%" y2="50%"><stop offset="0%" stop-color="#35C5CD"/><stop offset="50.002%" stop-color="#0F9"/><stop offset="100%" stop-color="#35C5CD"/></linearGradient><linearGradient id="d" x1="49.999%" x2="49.999%" y1="100.027%" y2=".03%"><stop offset="0%" stop-color="#0F9"/><stop offset="100%" stop-color="#35C5CD"/></linearGradient><linearGradient id="e" x1="0%" x2="100.001%" y1="50.022%" y2="50.022%"><stop offset="0%" stop-color="#FFF" stop-opacity="0"/><stop offset="4%" stop-color="#FFF" stop-opacity=".16"/><stop offset="8%" stop-color="#FFF" stop-opacity=".36"/><stop offset="14%" stop-color="#FFF" stop-opacity=".53"/><stop offset="19%" stop-color="#FFF" stop-opacity=".67"/><stop offset="24%" stop-color="#FFF" stop-opacity=".79"/><stop offset="30%" stop-color="#FFF" stop-opacity=".88"/><stop offset="36%" stop-color="#FFF" stop-opacity=".95"/><stop offset="43%" stop-color="#FFF" stop-opacity=".99"/><stop offset="52%" stop-color="#FFF"/><stop offset="56%" stop-color="#FFF" stop-opacity=".98"/><stop offset="62%" stop-color="#FFF" stop-opacity=".91"/><stop offset="69%" stop-color="#FFF" stop-opacity=".8"/><stop offset="77%" stop-color="#FFF" stop-opacity=".65"/><stop offset="85%" stop-color="#FFF" stop-opacity=".45"/><stop offset="93%" stop-color="#FFF" stop-opacity=".21"/><stop offset="100%" stop-color="#FFF" stop-opacity="0"/></linearGradient><linearGradient id="f" x1="13962%" x2="26691%" y1="-23134%" y2="-23134%"><stop offset="0%" stop-color="#3D386B"/><stop offset="100%" stop-color="#211E39"/></linearGradient><linearGradient id="g" x1="10.872%" y1="50.003%" y2="50.003%"><stop offset="0%" stop-color="#E1E1FF"/><stop offset="60%" stop-color="#FCFCFE"/><stop offset="100%" stop-color="#E1E1FF"/></linearGradient><linearGradient id="h" x1="18.418%" x2="94.351%" y1="91.578%" y2="17.652%"><stop offset="0%" stop-color="#FCFCFE"/><stop offset="100%" stop-color="#E1E1FF"/></linearGradient><linearGradient id="i" x1="4477%" x2="21216%" y1="9978%" y2="9978%"><stop offset="0%" stop-color="#FFF" stop-opacity="0"/><stop offset="4%" stop-color="#FFF" stop-opacity=".16"/><stop offset="8%" stop-color="#FFF" stop-opacity=".36"/><stop offset="14%" stop-color="#FFF" stop-opacity=".53"/><stop offset="19%" stop-color="#FFF" stop-opacity=".67"/><stop offset="24%" stop-color="#FFF" stop-opacity=".79"/><stop offset="30%" stop-color="#FFF" stop-opacity=".88"/><stop offset="36%" stop-color="#FFF" stop-opacity=".95"/><stop offset="43%" stop-color="#FFF" stop-opacity=".99"/><stop offset="52%" stop-color="#FFF"/><stop offset="56%" stop-color="#FFF" stop-opacity=".98"/><stop offset="62%" stop-color="#FFF" stop-opacity=".91"/><stop offset="69%" stop-color="#FFF" stop-opacity=".8"/><stop offset="77%" stop-color="#FFF" stop-opacity=".65"/><stop offset="85%" stop-color="#FFF" stop-opacity=".45"/><stop offset="93%" stop-color="#FFF" stop-opacity=".21"/><stop offset="100%" stop-color="#FFF" stop-opacity="0"/></linearGradient><linearGradient id="j" x1="99.206%" x2="21.2%" y1="98.727%" y2="5.389%"><stop offset="0%" stop-color="#FFF" stop-opacity="0"/><stop offset="100%" stop-color="#FFF"/></linearGradient><linearGradient id="k" x1="24555%" x2="24555%" y1="-21153%" y2="-30945%"><stop offset="0%" stop-color="#FFF" stop-opacity="0"/><stop offset="100%" stop-color="#FFF"/></linearGradient><linearGradient id="l" x1="8.943%" x2="338.17%" y1="73.215%" y2="-118.048%"><stop offset="43%" stop-color="#A6A6F4"/><stop offset="50%" stop-color="#E1E1FF"/><stop offset="100%" stop-color="#A6A6F4"/></linearGradient><linearGradient id="m" x1="2656.044%" x2="6354.067%" y1="9296%" y2="4977%"><stop offset="43%" stop-color="#A6A6F4"/><stop offset="50%" stop-color="#E1E1FF"/><stop offset="100%" stop-color="#A6A6F4"/></linearGradient><linearGradient id="n" x1="2601.908%" x2="6305.355%" y1="8848%" y2="4529%"><stop offset="43%" stop-color="#A6A6F4"/><stop offset="50%" stop-color="#E1E1FF"/><stop offset="100%" stop-color="#A6A6F4"/></linearGradient><linearGradient id="o" x1="2300.797%" x2="5623.644%" y1="8514%" y2="4195%"><stop offset="43%" stop-color="#A6A6F4"/><stop offset="50%" stop-color="#E1E1FF"/><stop offset="100%" stop-color="#A6A6F4"/></linearGradient><linearGradient id="p" x1="3966.888%" x2="9241.592%" y1="10304%" y2="6156%"><stop offset="43%" stop-color="#A6A6F4"/><stop offset="50%" stop-color="#E1E1FF"/><stop offset="100%" stop-color="#A6A6F4"/></linearGradient><linearGradient id="q" x1="797.701%" x2="1827.551%" y1="9809%" y2="5662%"><stop offset="43%" stop-color="#A6A6F4"/><stop offset="50%" stop-color="#E1E1FF"/><stop offset="100%" stop-color="#A6A6F4"/></linearGradient><linearGradient id="r" x1="3134.053%" x2="7560.09%" y1="8939%" y2="4791%"><stop offset="43%" stop-color="#A6A6F4"/><stop offset="50%" stop-color="#E1E1FF"/><stop offset="100%" stop-color="#A6A6F4"/></linearGradient><linearGradient id="s" x1="1659.338%" x2="3918.222%" y1="9405%" y2="5257%"><stop offset="43%" stop-color="#A6A6F4"/><stop offset="50%" stop-color="#E1E1FF"/><stop offset="100%" stop-color="#A6A6F4"/></linearGradient><linearGradient id="t" x1="941.819%" x2="2215.618%" y1="9039%" y2="4891%"><stop offset="43%" stop-color="#A6A6F4"/><stop offset="50%" stop-color="#E1E1FF"/><stop offset="100%" stop-color="#A6A6F4"/></linearGradient><linearGradient id="u" x1="890.399%" x2="2095.04%" y1="8967%" y2="4819%"><stop offset="43%" stop-color="#A6A6F4"/><stop offset="50%" stop-color="#E1E1FF"/><stop offset="100%" stop-color="#A6A6F4"/></linearGradient><linearGradient id="v" x1="2876.707%" x2="7120.584%" y1="8026%" y2="3878%"><stop offset="43%" stop-color="#A6A6F4"/><stop offset="50%" stop-color="#E1E1FF"/><stop offset="100%" stop-color="#A6A6F4"/></linearGradient><linearGradient id="w" x1="789.294%" x2="1907.893%" y1="7869%" y2="3721%"><stop offset="43%" stop-color="#A6A6F4"/><stop offset="50%" stop-color="#E1E1FF"/><stop offset="100%" stop-color="#A6A6F4"/></linearGradient><linearGradient id="x" x1="7483.11%" x2="18461.956%" y1="8353%" y2="4205%"><stop offset="43%" stop-color="#A6A6F4"/><stop offset="50%" stop-color="#E1E1FF"/><stop offset="100%" stop-color="#A6A6F4"/></linearGradient><linearGradient id="y" x1="1651.051%" x2="3958.008%" y1="8856%" y2="4708%"><stop offset="43%" stop-color="#A6A6F4"/><stop offset="50%" stop-color="#E1E1FF"/><stop offset="100%" stop-color="#A6A6F4"/></linearGradient></defs><g fill="none"><g opacity=".5"><path fill="url(#a)" d="M558.817 167.262c0-4.01-2.555-8.02-7.757-11.099L298.255 7.025c-10.404-6.156-27.38-6.156-37.693 0L7.758 156.163C2.555 159.241 0 163.252 0 167.263v16.695h.456c-1.46 4.85 1.004 10.073 7.393 13.897l252.805 149.138c10.404 6.156 27.38 6.156 37.692 0l252.805-149.138c6.389-3.731 8.762-8.954 7.393-13.897H559v-16.696h-.183z"/><path fill="url(#b)" d="M7.803 154.163C-2.6 160.32-2.6 170.3 7.803 176.455l252.805 149.138c10.404 6.156 27.38 6.156 37.693 0l252.805-149.138c10.404-6.156 10.404-16.136 0-22.292L298.3 5.025c-10.405-6.156-27.38-6.156-37.693 0L7.803 154.163z"/></g><path fill="#6161AA" d="M339.76 113.845L327.914 107l-132.655 25.569L151 209.256a273.679 273.679 0 0 0 188.75 31.8l32.385-6.241c24.425-42.356 9.93-96.516-32.375-120.97z" opacity=".2"/><path fill="url(#c)" d="M188.74 6.873L176.897 0 44.254 25.638 0 102.53v18.626c57.046 33.065 124.049 44.385 188.731 31.886l32.382-6.258a88.636 88.636 0 0 0 11.854-43.685c0-3.334.074-17.806 0-21.717-.824-30.871-17.575-59.092-44.226-74.51z" transform="translate(151 66)"/><path fill="url(#d)" d="M188.763 6.854L176.917 0 44.259 25.569 0 102.256a273.687 273.687 0 0 0 188.754 31.8l32.385-6.241c24.419-42.354 9.925-96.507-32.376-120.96z" transform="translate(151 66)"/><path fill="url(#e)" d="M44.26 26L0 102.687a273.687 273.687 0 0 0 188.754 31.8l32.385-6.24C178 81.431 68 33.5 44.259 26z" opacity=".5" transform="translate(151 66)"/><path fill="url(#f)" d="M161.897 33.581l-7.9-4.581-88.503 17.059L36 97.272l3.435 1.993c68.189 44.416 148.707 7.002 148.707 7.002 16.293-28.251 1.968-56.353-26.245-72.686z" opacity=".3" transform="translate(151 66)"/><path fill="url(#g)" d="M168.325 23.574L160.395 19l-88.79 17.066L42 87.263v6.843c69.251 41.503 148.036 11.251 148.036 11.251 5.305-9.186 7.865-14.353 7.94-24.242 0-2.213.055-5.315 0-7.917-.555-20.568-11.787-39.366-29.65-49.624z" transform="translate(151 66)"/><path fill="url(#h)" d="M167.576 23.589L159.696 19 71.419 36.114 42 87.408c37.956 22.07 82.538 29.626 125.576 21.283l21.549-4.178c16.223-28.342 6.578-64.562-21.549-80.924z" transform="translate(151 66)"/><path fill="url(#e)" d="M221.138 125.779l-32.385 6.162C124.427 144.242 57.79 133.25.928 100.953L0 102.556c57.052 32.707 124.063 43.904 188.753 31.54l32.385-6.19A86.942 86.942 0 0 0 232.993 83a86.96 86.96 0 0 1-11.855 42.779z" opacity=".5" transform="translate(151 66)"/><path fill="url(#i)" d="M189.108 101.733l-25.428 4.955c-40.532 7.905-82.517.746-118.263-20.166l-2.491-1.464L42 86.691l3.426 2.008c35.746 20.912 77.731 28.07 118.263 20.166l25.428-4.955A59.97 59.97 0 0 0 196.99 73a59.962 59.962 0 0 1-7.88 28.733z" opacity=".5" transform="translate(151 66)"/><path fill="url(#j)" d="M71.02 35.981l-2.644 4.547L64 48.13 197.221 83a50.483 50.483 0 0 0-2.7-27.25c-5.438-13.963-17.17-26.667-34.733-36.75L71.021 35.981z" opacity=".75" style="mix-blend-mode:overlay" transform="translate(151 66)"/><path fill="url(#k)" d="M91.644.194L3.282 17.168.649 21.71 126.23 36.907C120.817 22.96 109.137 10.277 91.644.194z" opacity=".75" style="mix-blend-mode:overlay" transform="translate(219 85)"/><g opacity=".5"><path fill="url(#l)" d="M26.158 45.362c.206.062.405.146.594.25l.799.461 2.108 1.211 1.392.804c.158.094.302.209.428.342.116.115.219.242.306.38l-.409 3.243c-.11.165-.248.309-.408.425a4.31 4.31 0 0 1-.548.38l-.724.415-7.429 4.289-4.336 2.514a1.1 1.1 0 0 1-1.17.046l-3.445-1.978a.323.323 0 0 1-.205-.323.5.5 0 0 1 .288-.342l5.228-3.004 2.786-1.627 3.12-1.793a.555.555 0 0 0 .297-.333c0-.12 0-.23-.186-.314l-2.358-1.423a1.035 1.035 0 0 0-.567-.12 1.287 1.287 0 0 0-.603.166l-2.962 1.7-3.947 2.265-.464.268c-.21.116-.427.218-.65.305a5.84 5.84 0 0 1-.706.24l-5.646.231c-.24-.038-.477-.1-.705-.184a3.62 3.62 0 0 1-.576-.26l-.539-.313-3.25-1.849-.51-.296a2.488 2.488 0 0 1-.446-.332 1.017 1.017 0 0 1-.288-.389l.502-3.28a3.53 3.53 0 0 1 .399-.407 3.18 3.18 0 0 1 .52-.38l.622-.36 9.137-5.25 2.043-1.173c.184-.104.392-.161.604-.167a1.04 1.04 0 0 1 .566.12l3.464 2.07a.323.323 0 0 1 .204.324.5.5 0 0 1-.288.342l-2.303 1.322-6.045 3.466-2.136 1.23a.555.555 0 0 0-.297.332c0 .123.062.228.186.314l2.303 1.322c.173.093.37.135.566.12a1.29 1.29 0 0 0 .604-.166l2.098-1.211 4.467-2.56.79-.453a6.76 6.76 0 0 1 1.383-.564l5.645-.231c.223.074.455.136.697.185z" transform="translate(222 101)"/><path fill="url(#m)" d="M41.786 26.674c.226.045.449.104.668.175.207.063.406.146.595.25l.538.314 10.27 5.86 1.477.85c.157.093.301.208.427.342.116.114.219.241.306.379l-.408 3.244a1.67 1.67 0 0 1-.409.425 4.31 4.31 0 0 1-.548.38l-.687.397-7.958 4.575-1.773 1.016c-.21.116-.427.218-.65.305a3.932 3.932 0 0 1-.734.222l-5.646.231a3.076 3.076 0 0 1-.678-.166 3.63 3.63 0 0 1-.575-.26l-.595-.341-10.167-5.841-1.477-.85a2.515 2.515 0 0 1-.446-.333 1.035 1.035 0 0 1-.287-.388l.408-3.245a3.52 3.52 0 0 1 .4-.406c.16-.144.334-.27.52-.38l1.41-.812 6.882-3.965 2.107-1.211c.218-.119.445-.221.678-.305a7.64 7.64 0 0 1 .734-.24l5.618-.222zm-3.566 4.334l-7.726 4.437 10.28 5.906 7.725-4.437-10.279-5.906z" transform="translate(222 101)"/><path fill="url(#n)" d="M55.24 21.415c0 .123.063.228.186.314l9.221 5.305c.173.094.37.135.567.12a1.29 1.29 0 0 0 .603-.166l10.558-6.063c.179-.103.38-.163.585-.176.19-.02.381.019.548.111l3.714 2.163a.323.323 0 0 1 .204.323.5.5 0 0 1-.287.342L71.09 29.483l-2.005 1.156-.427.25c-.21.115-.427.217-.65.304a3.942 3.942 0 0 1-.734.222l-5.646.231a3.057 3.057 0 0 1-.678-.166 3.63 3.63 0 0 1-.575-.26l-.167-.1-3.018-1.738-6.779-3.891-1.513-.87-.771-.443a2.497 2.497 0 0 1-.446-.333 1.017 1.017 0 0 1-.288-.388l.409-3.244c.093-.12.204-.24.316-.36.09-.1.193-.187.306-.26l.297-.165.427-.25.13-.074h.065l.752-.434 11.143-6.405c.185-.104.392-.161.604-.167a1.04 1.04 0 0 1 .566.12l3.715 2.163a.323.323 0 0 1 .204.324.5.5 0 0 1-.288.342l-10.493 6.026a.546.546 0 0 0-.306.342z" transform="translate(222 101)"/><path fill="url(#o)" d="M89.143 1.682l4.271 2.459 2.433 1.404c.155.087.217.191.186.315a.555.555 0 0 1-.297.332l-3.157 1.849-6.64 3.817-1.253.72c-.31.18-.356.38-.14.602l2.535 1.46c.337.129.714.095 1.022-.092l.826-.472 7.494-4.307 2.73-1.571a1.19 1.19 0 0 1 .585-.157c.19-.007.38.037.548.13l3.445 1.977c.13.052.218.175.223.314 0 .124-.09.235-.27.333l-5.255 2.967-5.33 3.06-2.378 1.386-3.185 1.848a1.1 1.1 0 0 1-1.17.046l-2.795-1.617-1.625-.924-2.535-1.46-1.086-.62a1.173 1.173 0 0 1-.334-.499l.408-3.244c.125-.15.265-.286.418-.407.17-.137.35-.26.539-.37l.492-.286 4.401-2.532 2.303-1.322a.5.5 0 0 0 .288-.342.323.323 0 0 0-.204-.324l-2.303-1.321a.932.932 0 0 0-.548-.111 1.342 1.342 0 0 0-.585.175l-4.996 2.875-3.092 1.774-2.238 1.285a1.286 1.286 0 0 1-.603.166 1.025 1.025 0 0 1-.567-.12l-3.5-2.015a.323.323 0 0 1-.205-.323.5.5 0 0 1 .288-.342l1.356-.804 8.71-5.01 1.578-.924a4.43 4.43 0 0 1 .66-.295c.266-.099.517-.182.752-.25l5.646-.231c.261.037.519.096.77.176l.4.23.287.167a.28.28 0 0 0 .149.046h.056l.492.38z" transform="translate(222 101)"/></g><path fill="url(#p)" d="M93.504 90.11l3.192-1.784a.558.558 0 0 0 .304-.33V86l-3.506 1.959-2.85 1.618-5.349 2.989a.501.501 0 0 0-.294.34c-.01.14.074.27.209.322l1.377.772 4.057-2.262 2.86-1.628z" transform="translate(151 66)"/><path fill="url(#q)" d="M102.698 84.095a1.9 1.9 0 0 0-.42-.324l-1.373-.763-2.077-1.149-.787-.438a3.11 3.11 0 0 0-.586-.237A7.164 7.164 0 0 0 96.77 81l-5.563.22a6.782 6.782 0 0 0-1.363.534l-.778.43-4.401 2.446-2.077 1.149a1.305 1.305 0 0 1-.595.158 1.053 1.053 0 0 1-.558-.114L79 84.507v1.824c0 .114 0 .22.183.298l2.27 1.254c.17.089.364.128.557.114.21-.004.413-.059.595-.158l2.077-1.148 4.383-2.43.778-.429c.432-.226.89-.405 1.363-.535l5.563-.219c.213.047.442.108.686.184.204.06.4.139.586.237l.787.438 2.077 1.15 1.372.762a1.9 1.9 0 0 1 .421.324l.073.08.229-1.754a2.03 2.03 0 0 0-.302-.404z" transform="translate(151 66)"/><path fill="url(#r)" d="M72.772 84.314c.16-.14.335-.264.522-.37l.623-.35 9.158-5.12 2.038-1.146c.185-.1.393-.157.605-.162.197-.014.394.027.568.117l2.159 1.208 1.266-.712a.491.491 0 0 0 .288-.333.315.315 0 0 0-.205-.316l-3.499-2.01a1.061 1.061 0 0 0-.568-.117c-.212.005-.42.06-.605.162l-2.038 1.145-9.158 5.12-.623.351a3.19 3.19 0 0 0-.521.37 3.474 3.474 0 0 0-.373.36L72 85.676a.902.902 0 0 0 .233.325l.176-1.325a3.47 3.47 0 0 1 .363-.36z" transform="translate(151 66)"/><path fill="url(#s)" d="M102 71v2.151L112.276 79 120 74.606v-2.151l-7.724 4.394z" transform="translate(151 66)"/><path fill="url(#t)" d="M127.657 69.723a1.932 1.932 0 0 0-.426-.338l-1.428-.849-10.197-5.806-.537-.31a3.094 3.094 0 0 0-.593-.247 6.081 6.081 0 0 0-.668-.173l-5.636.228a7.675 7.675 0 0 0-.732.238c-.233.083-.46.183-.677.3l-2.132 1.206-6.896 3.916-1.41.803a3.185 3.185 0 0 0-.519.375 3.494 3.494 0 0 0-.398.401L95 72.671a.958.958 0 0 0 .232.329l.176-1.378c.121-.145.255-.279.398-.402.16-.142.334-.268.52-.374l1.409-.804 6.896-3.916 2.104-1.196a4.93 4.93 0 0 1 .677-.301c.24-.091.484-.17.732-.237l5.636-.229c.226.046.449.104.668.174.206.061.405.144.593.246l.565.302 10.197 5.805 1.474.84c.158.092.301.206.426.338l.065.082.232-1.826a2.108 2.108 0 0 0-.343-.401z" transform="translate(151 66)"/><path fill="url(#u)" d="M153 58.725a.34.34 0 0 0-.203-.339l-3.682-2.265a.883.883 0 0 0-.543-.116 1.287 1.287 0 0 0-.58.184l-10.5 6.36a1.234 1.234 0 0 1-.599.173.971.971 0 0 1-.56-.125L127 56.954v2.032c0 .097 0 .242.184.33l9.139 5.555a.971.971 0 0 0 .561.126c.21-.005.416-.065.599-.174l10.464-6.34a1.29 1.29 0 0 1 .58-.184.89.89 0 0 1 .542.116l2.384 1.452 1.252-.764a.517.517 0 0 0 .294-.378z" transform="translate(151 66)"/><path fill="url(#v)" d="M119.77 57.189c.09-.103.193-.192.306-.266l.297-.17.427-.257.13-.076h.065l.751-.445 11.132-6.573c.185-.106.392-.165.603-.17.197-.015.393.027.566.123l2.403 1.423 1.262-.75a.51.51 0 0 0 .287-.35.333.333 0 0 0-.204-.333l-3.71-2.219a1.011 1.011 0 0 0-.567-.123 1.268 1.268 0 0 0-.603.17l-11.132 6.573-.751.446h-.065l-.13.076-.427.256-.297.17a1.493 1.493 0 0 0-.306.266 3.72 3.72 0 0 0-.315.37L119 58.659a.94.94 0 0 0 .232.341l.176-1.432c.14-.133.241-.228.362-.38z" transform="translate(151 66)"/><path fill="url(#w)" d="M150.302 39.922l1.578-.94a4.31 4.31 0 0 1 .659-.302c.266-.1.516-.185.751-.254l5.643-.235c.261.037.519.097.77.179l.4.235.287.17a.281.281 0 0 0 .149.046h.055l.51.301 4.27 2.502 1.067.63 1.262-.743a.562.562 0 0 0 .297-.339c0-.122 0-.235-.186-.32l-2.45-1.429-4.24-2.492-.511-.3h-.056a.276.276 0 0 1-.148-.048l-.288-.17-.4-.234a4.588 4.588 0 0 0-.77-.179l-5.642.235c-.235.07-.486.154-.752.254a4.454 4.454 0 0 0-.659.301l-1.577.94-8.687 5.013-1.345.79a.506.506 0 0 0-.288.348.33.33 0 0 0 .204.329l1.346.79.083-.047 8.668-5.031z" transform="translate(151 66)"/><path fill="url(#x)" d="M149.806 49.072c.173-.142.357-.27.55-.382l.503-.296 4.495-2.615 2.352-1.364a.515.515 0 0 0 .294-.353V42l-2.646 1.537-4.457 2.615-.503.296c-.193.112-.377.24-.55.381a2.91 2.91 0 0 0-.427.42L149 50.6c.06.142.137.277.228.401l.19-1.498c.114-.156.245-.3.388-.43z" transform="translate(151 66)"/><path fill="url(#y)" d="M156.133 50.438l2.595 1.484c.344.13.73.096 1.046-.094l.846-.479 7.67-4.376 2.795-1.596c.183-.104.39-.159.6-.16.195-.007.389.038.56.131l2.149 1.221 1.33-.76c.178-.1.27-.213.276-.339a.357.357 0 0 0-.228-.319l-3.527-2.019a1.094 1.094 0 0 0-.56-.131c-.21 0-.417.056-.6.16l-2.794 1.596-7.671 4.376-.846.479c-.315.19-.702.224-1.046.094l-1.122-.639-1.568-.939c-.073.77-.04 1.548.095 2.31z" transform="translate(151 66)"/></g></svg>