<svg width="659" height="618" viewBox="0 0 659 618" version="1.1" xmlns="http://www.w3.org/2000/svg" xmlns:xlink="http://www.w3.org/1999/xlink">
<title>Code-Terminal</title>
<desc>Created using Figma</desc>
<g id="Canvas" transform="translate(4905 -2413)">
<g id="Code-Terminal">
<g id="Shadow" filter="url(#filter0_f)">
<use xlink:href="#path0_fill" transform="translate(-4802.17 2713.7)" fill="#131924"/>
</g>
<g id="Rectangle">
<use xlink:href="#path1_fill" transform="translate(-4888 2413)" fill="#3D3868"/>
</g>
<g id="Terminal">
<mask id="mask0_alpha" mask-type="alpha">
<g id="Rectangle">
<use xlink:href="#path1_fill" transform="translate(-4888 2413)" fill="#3D3868"/>
</g>
</mask>
<g id="Rectangle 2" mask="url(#mask0_alpha)">
<use xlink:href="#path2_fill" transform="translate(-4888 2457.43)" fill="url(#paint3_linear)"/>
</g>
<g id="UI" mask="url(#mask0_alpha)">
<g id="Rectangle">
<use xlink:href="#path3_fill" transform="translate(-4812.98 2492.45)" fill="#FFFFFF" fill-opacity="0.25"/>
</g>
<g id="Rectangle">
<use xlink:href="#path3_fill" transform="translate(-4812.98 2641.54)" fill="#FFFFFF" fill-opacity="0.25"/>
</g>
<g id="Rectangle">
<use xlink:href="#path4_fill" transform="translate(-4773.17 2511.01)" fill="#6D84FE"/>
</g>
<g id="Rectangle">
<use xlink:href="#path3_fill" transform="translate(-4812.98 2734.38)" fill="#FFFFFF" fill-opacity="0.25"/>
</g>
<g id="Rectangle">
<use xlink:href="#path3_fill" transform="translate(-4810.3 2771.88)" fill="#FFFFFF" fill-opacity="0.25"/>
</g>
<g id="Rectangle">
<use xlink:href="#path4_fill" transform="translate(-4773.17 2752.94)" fill="#6D84FE"/>
</g>
<g id="Rectangle">
<use xlink:href="#path5_fill" transform="translate(-4695.12 2511.01)" fill="#FFFFFF" fill-opacity="0.25"/>
</g>
<g id="Rectangle">
<use xlink:href="#path6_fill" transform="translate(-4695.12 2529.57)" fill="#FFFFFF" fill-opacity="0.25"/>
</g>
<g id="Rectangle">
<use xlink:href="#path7_fill" transform="translate(-4644.16 2529.57)" fill="#FFFFFF" fill-opacity="0.25"/>
</g>
<g id="Rectangle">
<use xlink:href="#path8_fill" transform="translate(-4695.12 2548.13)" fill="#FFFFFF" fill-opacity="0.25"/>
</g>
<g id="Rectangle">
<use xlink:href="#path9_fill" transform="translate(-4578.86 2548.13)" fill="#FFFFFF" fill-opacity="0.25"/>
</g>
<g id="Rectangle">
<use xlink:href="#path8_fill" transform="translate(-4545.41 2548.13)" fill="#FFFFFF" fill-opacity="0.25"/>
</g>
<g id="Rectangle">
<use xlink:href="#path6_fill" transform="translate(-4695.12 2585.24)" fill="#FFFFFF" fill-opacity="0.25"/>
</g>
<g id="Rectangle">
<use xlink:href="#path8_fill" transform="translate(-4695.12 2603.8)" fill="#FFFFFF" fill-opacity="0.25"/>
</g>
<g id="Rectangle">
<use xlink:href="#path9_fill" transform="translate(-4578.86 2603.8)" fill="#FFFFFF" fill-opacity="0.25"/>
</g>
<g id="Rectangle">
<use xlink:href="#path8_fill" transform="translate(-4545.41 2603.8)" fill="#FFD14A"/>
</g>
<g id="Rectangle">
<use xlink:href="#path10_fill" transform="translate(-4773.17 2566.69)" fill="#6D84FE"/>
</g>
<g id="Rectangle">
<use xlink:href="#path11_fill" transform="translate(-4644.16 2566.69)" fill="#FFFFFF" fill-opacity="0.25"/>
</g>
<g id="Rectangle">
<use xlink:href="#path8_fill" transform="translate(-4695.12 2697.21)" fill="#FFFFFF" fill-opacity="0.25"/>
</g>
<g id="Rectangle">
<use xlink:href="#path9_fill" transform="translate(-4578.86 2697.21)" fill="#FFFFFF" fill-opacity="0.25"/>
</g>
<g id="Rectangle">
<use xlink:href="#path8_fill" transform="translate(-4545.41 2697.21)" fill="#FFFFFF" fill-opacity="0.25"/>
</g>
<g id="Rectangle">
<use xlink:href="#path10_fill" transform="translate(-4773.17 2678.66)" fill="#6D84FE"/>
</g>
<g id="Rectangle">
<use xlink:href="#path11_fill" transform="translate(-4644.16 2678.66)" fill="#FFFFFF" fill-opacity="0.25"/>
</g>
<g id="Rectangle">
<use xlink:href="#path12_fill" transform="translate(-4644.16 2585.24)" fill="#71D49A"/>
</g>
<g id="Rectangle">
<use xlink:href="#path13_fill" transform="translate(-4773.17 2660.1)" fill="#71D49A"/>
</g>
<g id="Rectangle">
<use xlink:href="#path3_fill" transform="translate(-4810.3 2809.37)" fill="#FFFFFF" fill-opacity="0.25"/>
</g>
<g id="Rectangle">
<use xlink:href="#path10_fill" transform="translate(-4770.49 2846.49)" fill="#6D84FE"/>
</g>
<g id="Rectangle">
<use xlink:href="#path11_fill" transform="translate(-4641.48 2846.49)" fill="#FFFFFF" fill-opacity="0.25"/>
</g>
<g id="Rectangle">
<use xlink:href="#path14_fill" transform="translate(-4770.12 2864.72)" fill="#FFFFFF" fill-opacity="0.25"/>
</g>
<g id="Rectangle">
<use xlink:href="#path14_fill" transform="translate(-4687.06 2864.72)" fill="#FFD14A"/>
</g>
<g id="Rectangle">
<use xlink:href="#path13_fill" transform="translate(-4770.49 2827.93)" fill="#71D49A"/>
</g>
</g>
<g id="Rectangle 3" mask="url(#mask0_alpha)">
<use xlink:href="#path15_fill" transform="translate(-4888 2457.64)" fill="url(#paint35_linear)"/>
</g>
<g id="Ellipse" mask="url(#mask0_alpha)">
<use xlink:href="#path16_fill" transform="translate(-4867.94 2430.2)" fill="#EB5757"/>
</g>
<g id="Ellipse" mask="url(#mask0_alpha)">
<use xlink:href="#path16_fill" transform="translate(-4847.88 2430.2)" fill="#FEC06F"/>
</g>
<g id="Ellipse" mask="url(#mask0_alpha)">
<use xlink:href="#path16_fill" transform="translate(-4827.83 2430.2)" fill="#71D49A"/>
</g>
</g>
<g id="1 2 3 4 5 6 7 8 9 10 11 12 13 14 15 16 17 18 19 20 21">
<use xlink:href="#path17_fill" transform="translate(-4868.35 2490.67)" fill="#FFFFFF"/>
</g>
</g>
</g>
<defs>
<filter id="filter0_f" filterUnits="userSpaceOnUse" x="-4905" y="2611" width="659" height="420" color-interpolation-filters="sRGB">
<feFlood flood-opacity="0" result="BackgroundImageFix"/>
<feBlend mode="normal" in="SourceGraphic" in2="BackgroundImageFix" result="shape"/>
<feGaussianBlur stdDeviation="50.9678" result="effect1_foregroundBlur"/>
</filter>
<linearGradient id="paint3_linear" x1="0" y1="0" x2="1" y2="0" gradientUnits="userSpaceOnUse" gradientTransform="matrix(-702.074 516 -676.231 -1585.55 1040.19 748.339)">
<stop offset="0" stop-color="#383A5B"/>
<stop offset="0.522588" stop-color="#2D2E4C"/>
<stop offset="1" stop-color="#262831"/>
</linearGradient>
<linearGradient id="paint35_linear" x1="0" y1="0" x2="1" y2="0" gradientUnits="userSpaceOnUse" gradientTransform="matrix(98.6835 -1.87242e-06 1.64824e-07 9.52841 -5.18864e-07 222.883)">
<stop offset="0" stop-color="#383A5B"/>
<stop offset="1" stop-color="#383A5B" stop-opacity="0"/>
</linearGradient>
<path id="path0_fill" fill-rule="evenodd" d="M 0 8C 0 3.58172 3.58172 0 8 0L 445.547 0C 449.965 0 453.547 3.58172 453.547 8L 453.547 207.3C 453.547 211.718 449.965 215.3 445.547 215.3L 8.00001 215.3C 3.58173 215.3 0 211.718 0 207.3L 0 8Z"/>
<path id="path1_fill" d="M 0 8C 0 3.58172 3.58172 0 8 0L 610 0C 614.418 0 618 3.58172 618 8L 618 508C 618 512.418 614.418 516 610 516L 8 516C 3.58172 516 0 512.418 0 508L 0 8Z"/>
<path id="path2_fill" d="M 0 0L 618 0L 618 471.567L 0 471.567L 0 0Z"/>
<path id="path3_fill" d="M 0 1C 0 0.447715 0.447715 0 1 0L 38.8171 0C 39.3694 0 39.8171 0.447715 39.8171 1L 39.8171 5.54995C 39.8171 6.10224 39.3694 6.54995 38.8171 6.54995L 0.999999 6.54995C 0.447714 6.54995 0 6.10224 0 5.54995L 0 1Z"/>
<path id="path4_fill" d="M 0 1C 0 0.447715 0.447715 0 1 0L 64.3 0C 64.8523 0 65.3 0.447715 65.3 1L 65.3 5.54995C 65.3 6.10224 64.8523 6.54995 64.3 6.54995L 1 6.54995C 0.447715 6.54995 0 6.10224 0 5.54995L 0 1Z"/>
<path id="path5_fill" d="M 0 1C 0 0.447715 0.447715 0 1 0L 174.195 0C 174.747 0 175.195 0.447715 175.195 1L 175.195 5.54995C 175.195 6.10224 174.747 6.54995 174.195 6.54995L 0.999999 6.54995C 0.447715 6.54995 0 6.10224 0 5.54995L 0 1Z"/>
<path id="path6_fill" d="M 0 1C 0 0.447715 0.447715 0 1 0L 37.2244 0C 37.7767 0 38.2244 0.447715 38.2244 1L 38.2244 5.54995C 38.2244 6.10224 37.7767 6.54995 37.2244 6.54995L 1 6.54995C 0.447716 6.54995 0 6.10224 0 5.54995L 0 1Z"/>
<path id="path7_fill" d="M 0 1C 0 0.447715 0.447715 0 1 0L 269.756 0C 270.309 0 270.756 0.447715 270.756 1L 270.756 5.54995C 270.756 6.10224 270.309 6.54995 269.756 6.54995L 1 6.54995C 0.447717 6.54995 0 6.10224 0 5.54995L 0 1Z"/>
<path id="path8_fill" d="M 0 1C 0 0.447715 0.447715 0 1 0L 102.524 0C 103.077 0 103.524 0.447715 103.524 1L 103.524 5.54995C 103.524 6.10224 103.077 6.54995 102.524 6.54995L 1 6.54995C 0.447716 6.54995 0 6.10224 0 5.54995L 0 1Z"/>
<path id="path9_fill" d="M 0 1C 0 0.447715 0.447715 0 1 0L 19.7049 0C 20.2572 0 20.7049 0.447715 20.7049 1L 20.7049 5.54995C 20.7049 6.10224 20.2572 6.54995 19.7049 6.54995L 1 6.54995C 0.447715 6.54995 0 6.10224 0 5.54995L 0 1Z"/>
<path id="path10_fill" d="M 0 1C 0 0.447715 0.447715 0 1 0L 115.266 0C 115.818 0 116.266 0.447715 116.266 1L 116.266 5.54995C 116.266 6.10224 115.818 6.54995 115.266 6.54995L 1 6.54995C 0.447716 6.54995 0 6.10224 0 5.54995L 0 1Z"/>
<path id="path11_fill" d="M 0 1C 0 0.447715 0.447715 0 1 0L 201.271 0C 201.823 0 202.271 0.447715 202.271 1L 202.271 5.54995C 202.271 6.10224 201.823 6.54995 201.271 6.54995L 0.999999 6.54995C 0.447714 6.54995 0 6.10224 0 5.54995L 0 1Z"/>
<path id="path12_fill" d="M 0 1C 0 0.447715 0.447715 0 1 0L 271.349 0C 271.901 0 272.349 0.447715 272.349 1L 272.349 5.54995C 272.349 6.10224 271.901 6.54995 271.349 6.54995L 1 6.54995C 0.447716 6.54995 0 6.10224 0 5.54995L 0 1Z"/>
<path id="path13_fill" d="M 0 1C 0 0.447715 0.447715 0 1 0L 398.764 0C 399.316 0 399.764 0.447715 399.764 1L 399.764 5.54995C 399.764 6.10224 399.316 6.54995 398.764 6.54995L 1 6.54995C 0.447715 6.54995 0 6.10224 0 5.54995L 0 1Z"/>
<path id="path14_fill" d="M 0 1C 0 0.447715 0.447715 0 1 0L 68.659 0C 69.2112 0 69.659 0.447715 69.659 1L 69.659 5.24914C 69.659 5.80142 69.2112 6.24914 68.659 6.24914L 1 6.24914C 0.447716 6.24914 0 5.80142 0 5.24914L 0 1Z"/>
<path id="path15_fill" d="M 0 0L 45.5462 0L 45.5462 471.363L 0 471.363L 0 0Z"/>
<path id="path16_fill" d="M 11.4615 5.73333C 11.4615 8.89977 8.89576 11.4667 5.73075 11.4667C 2.56575 11.4667 0 8.89977 0 5.73333C 0 2.5669 2.56575 0 5.73075 0C 8.89576 0 11.4615 2.5669 11.4615 5.73333Z"/>
<path id="path17_fill" d="M 3.55957 9L 2.65137 9L 2.65137 2.97949L 0.830078 3.64844L 0.830078 2.82812L 3.41797 1.85645L 3.55957 1.85645L 3.55957 9ZM 5.24902 30L 0.59082 30L 0.59082 29.3506L 3.05176 26.6162C 3.41634 26.2028 3.66699 25.8675 3.80371 25.6104C 3.94368 25.3499 4.01367 25.0814 4.01367 24.8047C 4.01367 24.4336 3.90137 24.1292 3.67676 23.8916C 3.45215 23.654 3.15267 23.5352 2.77832 23.5352C 2.3291 23.5352 1.97917 23.6637 1.72852 23.9209C 1.48112 24.1748 1.35742 24.5296 1.35742 24.9854L 0.454102 24.9854C 0.454102 24.3311 0.664062 23.8021 1.08398 23.3984C 1.50716 22.9948 2.07194 22.793 2.77832 22.793C 3.43913 22.793 3.96159 22.9671 4.3457 23.3154C 4.72982 23.6605 4.92188 24.1211 4.92188 24.6973C 4.92188 25.3971 4.47591 26.2305 3.58398 27.1973L 1.67969 29.2627L 5.24902 29.2627L 5.24902 30ZM 1.9043 47.0059L 2.58301 47.0059C 3.00944 46.9993 3.34473 46.887 3.58887 46.6689C 3.83301 46.4508 3.95508 46.1562 3.95508 45.7852C 3.95508 44.9518 3.54004 44.5352 2.70996 44.5352C 2.31934 44.5352 2.00684 44.6475 1.77246 44.8721C 1.54134 45.0934 1.42578 45.388 1.42578 45.7559L 0.522461 45.7559C 0.522461 45.1927 0.727539 44.7256 1.1377 44.3545C 1.55111 43.9801 2.0752 43.793 2.70996 43.793C 3.38053 43.793 3.90625 43.9704 4.28711 44.3252C 4.66797 44.68 4.8584 45.1732 4.8584 45.8047C 4.8584 46.1139 4.75749 46.4134 4.55566 46.7031C 4.3571 46.9928 4.08529 47.2093 3.74023 47.3525C 4.13086 47.4762 4.43197 47.6813 4.64355 47.9678C 4.8584 48.2542 4.96582 48.6042 4.96582 49.0176C 4.96582 49.6556 4.75749 50.1618 4.34082 50.5361C 3.92415 50.9105 3.38216 51.0977 2.71484 51.0977C 2.04753 51.0977 1.50391 50.917 1.08398 50.5557C 0.667318 50.1943 0.458984 49.7174 0.458984 49.125L 1.36719 49.125C 1.36719 49.4993 1.48926 49.7988 1.7334 50.0234C 1.97754 50.248 2.30469 50.3604 2.71484 50.3604C 3.15104 50.3604 3.4847 50.2464 3.71582 50.0186C 3.94694 49.7907 4.0625 49.4635 4.0625 49.0371C 4.0625 48.6237 3.93555 48.3063 3.68164 48.085C 3.42773 47.8636 3.06152 47.7497 2.58301 47.7432L 1.9043 47.7432L 1.9043 47.0059ZM 4.4043 69.6123L 5.39062 69.6123L 5.39062 70.3496L 4.4043 70.3496L 4.4043 72L 3.49609 72L 3.49609 70.3496L 0.258789 70.3496L 0.258789 69.8174L 3.44238 64.8906L 4.4043 64.8906L 4.4043 69.6123ZM 1.28418 69.6123L 3.49609 69.6123L 3.49609 66.126L 3.38867 66.3213L 1.28418 69.6123ZM 1.00586 89.4355L 1.36719 85.8906L 5.00977 85.8906L 5.00977 86.7256L 2.13379 86.7256L 1.91895 88.6641C 2.26725 88.459 2.66276 88.3564 3.10547 88.3564C 3.75326 88.3564 4.26758 88.5713 4.64844 89.001C 5.0293 89.4274 5.21973 90.0052 5.21973 90.7344C 5.21973 91.4668 5.02116 92.0446 4.62402 92.4678C 4.23014 92.8877 3.67839 93.0977 2.96875 93.0977C 2.34049 93.0977 1.8278 92.9235 1.43066 92.5752C 1.03353 92.2269 0.807292 91.7451 0.751953 91.1299L 1.60645 91.1299C 1.66178 91.5368 1.80664 91.8444 2.04102 92.0527C 2.27539 92.2578 2.58464 92.3604 2.96875 92.3604C 3.38867 92.3604 3.71745 92.2171 3.95508 91.9307C 4.19596 91.6442 4.31641 91.2487 4.31641 90.7441C 4.31641 90.2689 4.1862 89.888 3.92578 89.6016C 3.66862 89.3118 3.3252 89.167 2.89551 89.167C 2.50163 89.167 2.19238 89.2533 1.96777 89.4258L 1.72852 89.6211L 1.00586 89.4355ZM 4.13574 106.886L 4.13574 107.652L 3.96973 107.652C 3.2666 107.665 2.70671 107.874 2.29004 108.277C 1.87337 108.681 1.63249 109.249 1.56738 109.981C 1.94173 109.552 2.4528 109.337 3.10059 109.337C 3.71908 109.337 4.21224 109.555 4.58008 109.991C 4.95117 110.427 5.13672 110.991 5.13672 111.681C 5.13672 112.413 4.93652 112.999 4.53613 113.438C 4.139 113.878 3.60514 114.098 2.93457 114.098C 2.25423 114.098 1.70247 113.837 1.2793 113.316C 0.85612 112.792 0.644531 112.118 0.644531 111.295L 0.644531 110.948C 0.644531 109.64 0.922852 108.64 1.47949 107.95C 2.03939 107.257 2.87109 106.902 3.97461 106.886L 4.13574 106.886ZM 2.94922 110.089C 2.63997 110.089 2.35514 110.182 2.09473 110.367C 1.83431 110.553 1.65365 110.785 1.55273 111.065L 1.55273 111.397C 1.55273 111.983 1.68457 112.455 1.94824 112.813C 2.21191 113.172 2.54069 113.351 2.93457 113.351C 3.34147 113.351 3.66048 113.201 3.8916 112.901C 4.12598 112.602 4.24316 112.21 4.24316 111.725C 4.24316 111.236 4.12435 110.842 3.88672 110.543C 3.65234 110.24 3.33984 110.089 2.94922 110.089ZM 5.18066 127.398L 2.23633 134L 1.28906 134L 4.22363 127.633L 0.375977 127.633L 0.375977 126.891L 5.18066 126.891L 5.18066 127.398ZM 4.90234 149.746C 4.90234 150.101 4.80794 150.417 4.61914 150.693C 4.43359 150.97 4.18132 151.187 3.8623 151.343C 4.2334 151.502 4.52637 151.735 4.74121 152.041C 4.95931 152.347 5.06836 152.694 5.06836 153.081C 5.06836 153.696 4.86003 154.186 4.44336 154.551C 4.02995 154.915 3.4847 155.098 2.80762 155.098C 2.12402 155.098 1.57552 154.915 1.16211 154.551C 0.751953 154.183 0.546875 153.693 0.546875 153.081C 0.546875 152.697 0.651042 152.35 0.859375 152.041C 1.07096 151.732 1.3623 151.497 1.7334 151.338C 1.41764 151.182 1.16862 150.965 0.986328 150.688C 0.804036 150.412 0.712891 150.098 0.712891 149.746C 0.712891 149.147 0.904948 148.672 1.28906 148.32C 1.67318 147.969 2.17936 147.793 2.80762 147.793C 3.43262 147.793 3.93717 147.969 4.32129 148.32C 4.70866 148.672 4.90234 149.147 4.90234 149.746ZM 4.16504 153.062C 4.16504 152.664 4.03809 152.34 3.78418 152.09C 3.53353 151.839 3.20475 151.714 2.79785 151.714C 2.39095 151.714 2.0638 151.838 1.81641 152.085C 1.57227 152.332 1.4502 152.658 1.4502 153.062C 1.4502 153.465 1.56901 153.783 1.80664 154.014C 2.04753 154.245 2.38118 154.36 2.80762 154.36C 3.23079 154.36 3.56283 154.245 3.80371 154.014C 4.0446 153.779 4.16504 153.462 4.16504 153.062ZM 2.80762 148.535C 2.4528 148.535 2.16471 148.646 1.94336 148.867C 1.72526 149.085 1.61621 149.383 1.61621 149.761C 1.61621 150.122 1.72363 150.415 1.93848 150.64C 2.15658 150.861 2.44629 150.972 2.80762 150.972C 3.16895 150.972 3.45703 150.861 3.67188 150.64C 3.88997 150.415 3.99902 150.122 3.99902 149.761C 3.99902 149.399 3.88672 149.105 3.66211 148.877C 3.4375 148.649 3.15267 148.535 2.80762 148.535ZM 4.05273 172.875C 3.86393 173.1 3.6377 173.28 3.37402 173.417C 3.11361 173.554 2.82715 173.622 2.51465 173.622C 2.10449 173.622 1.74642 173.521 1.44043 173.319C 1.1377 173.118 0.90332 172.834 0.737305 172.47C 0.571289 172.102 0.488281 171.697 0.488281 171.254C 0.488281 170.779 0.577799 170.351 0.756836 169.97C 0.939128 169.589 1.19629 169.298 1.52832 169.096C 1.86035 168.894 2.24772 168.793 2.69043 168.793C 3.39355 168.793 3.94694 169.057 4.35059 169.584C 4.75749 170.108 4.96094 170.824 4.96094 171.732L 4.96094 171.996C 4.96094 173.38 4.6875 174.39 4.14062 175.028C 3.59375 175.663 2.76855 175.989 1.66504 176.005L 1.48926 176.005L 1.48926 175.243L 1.67969 175.243C 2.42513 175.23 2.99805 175.036 3.39844 174.662C 3.79883 174.285 4.01693 173.689 4.05273 172.875ZM 2.66113 172.875C 2.96387 172.875 3.24219 172.782 3.49609 172.597C 3.75326 172.411 3.94043 172.182 4.05762 171.908L 4.05762 171.547C 4.05762 170.954 3.92904 170.473 3.67188 170.102C 3.41471 169.73 3.08919 169.545 2.69531 169.545C 2.29818 169.545 1.97917 169.698 1.73828 170.004C 1.4974 170.307 1.37695 170.707 1.37695 171.205C 1.37695 171.69 1.49251 172.09 1.72363 172.406C 1.95801 172.719 2.27051 172.875 2.66113 172.875ZM 3.55957 197L 2.65137 197L 2.65137 190.979L 0.830078 191.648L 0.830078 190.828L 3.41797 189.856L 3.55957 189.856L 3.55957 197ZM 10.6641 193.968C 10.6641 195.026 10.4834 195.812 10.1221 196.326C 9.76074 196.84 9.19596 197.098 8.42773 197.098C 7.66927 197.098 7.10775 196.847 6.74316 196.346C 6.37858 195.841 6.18978 195.089 6.17676 194.09L 6.17676 192.884C 6.17676 191.839 6.35742 191.062 6.71875 190.555C 7.08008 190.047 7.64648 189.793 8.41797 189.793C 9.18294 189.793 9.74609 190.039 10.1074 190.53C 10.4688 191.019 10.6543 191.774 10.6641 192.796L 10.6641 193.968ZM 9.76074 192.732C 9.76074 191.967 9.65332 191.411 9.43848 191.062C 9.22363 190.711 8.88346 190.535 8.41797 190.535C 7.95573 190.535 7.61882 190.709 7.40723 191.058C 7.19564 191.406 7.08659 191.941 7.08008 192.664L 7.08008 194.109C 7.08008 194.878 7.19076 195.446 7.41211 195.813C 7.63672 196.178 7.97526 196.36 8.42773 196.36C 8.8737 196.36 9.2041 196.188 9.41895 195.843C 9.63704 195.498 9.75098 194.954 9.76074 194.212L 9.76074 192.732ZM 3.55957 218L 2.65137 218L 2.65137 211.979L 0.830078 212.648L 0.830078 211.828L 3.41797 210.856L 3.55957 210.856L 3.55957 218ZM 9.1748 218L 8.2666 218L 8.2666 211.979L 6.44531 212.648L 6.44531 211.828L 9.0332 210.856L 9.1748 210.856L 9.1748 218ZM 3.55957 239L 2.65137 239L 2.65137 232.979L 0.830078 233.648L 0.830078 232.828L 3.41797 231.856L 3.55957 231.856L 3.55957 239ZM 10.8643 239L 6.20605 239L 6.20605 238.351L 8.66699 235.616C 9.03158 235.203 9.28223 234.868 9.41895 234.61C 9.55892 234.35 9.62891 234.081 9.62891 233.805C 9.62891 233.434 9.5166 233.129 9.29199 232.892C 9.06738 232.654 8.7679 232.535 8.39355 232.535C 7.94434 232.535 7.5944 232.664 7.34375 232.921C 7.09635 233.175 6.97266 233.53 6.97266 233.985L 6.06934 233.985C 6.06934 233.331 6.2793 232.802 6.69922 232.398C 7.1224 231.995 7.68717 231.793 8.39355 231.793C 9.05436 231.793 9.57682 231.967 9.96094 232.315C 10.3451 232.66 10.5371 233.121 10.5371 233.697C 10.5371 234.397 10.0911 235.23 9.19922 236.197L 7.29492 238.263L 10.8643 238.263L 10.8643 239ZM 3.55957 260L 2.65137 260L 2.65137 253.979L 0.830078 254.648L 0.830078 253.828L 3.41797 252.856L 3.55957 252.856L 3.55957 260ZM 7.51953 256.006L 8.19824 256.006C 8.62467 255.999 8.95996 255.887 9.2041 255.669C 9.44824 255.451 9.57031 255.156 9.57031 254.785C 9.57031 253.952 9.15527 253.535 8.3252 253.535C 7.93457 253.535 7.62207 253.647 7.3877 253.872C 7.15658 254.093 7.04102 254.388 7.04102 254.756L 6.1377 254.756C 6.1377 254.193 6.34277 253.726 6.75293 253.354C 7.16634 252.98 7.69043 252.793 8.3252 252.793C 8.99577 252.793 9.52148 252.97 9.90234 253.325C 10.2832 253.68 10.4736 254.173 10.4736 254.805C 10.4736 255.114 10.3727 255.413 10.1709 255.703C 9.97233 255.993 9.70052 256.209 9.35547 256.353C 9.74609 256.476 10.0472 256.681 10.2588 256.968C 10.4736 257.254 10.5811 257.604 10.5811 258.018C 10.5811 258.656 10.3727 259.162 9.95605 259.536C 9.53939 259.91 8.9974 260.098 8.33008 260.098C 7.66276 260.098 7.11914 259.917 6.69922 259.556C 6.28255 259.194 6.07422 258.717 6.07422 258.125L 6.98242 258.125C 6.98242 258.499 7.10449 258.799 7.34863 259.023C 7.59277 259.248 7.91992 259.36 8.33008 259.36C 8.76628 259.36 9.09993 259.246 9.33105 259.019C 9.56217 258.791 9.67773 258.464 9.67773 258.037C 9.67773 257.624 9.55078 257.306 9.29688 257.085C 9.04297 256.864 8.67676 256.75 8.19824 256.743L 7.51953 256.743L 7.51953 256.006ZM 3.55957 280L 2.65137 280L 2.65137 273.979L 0.830078 274.648L 0.830078 273.828L 3.41797 272.856L 3.55957 272.856L 3.55957 280ZM 10.0195 277.612L 11.0059 277.612L 11.0059 278.35L 10.0195 278.35L 10.0195 280L 9.11133 280L 9.11133 278.35L 5.87402 278.35L 5.87402 277.817L 9.05762 272.891L 10.0195 272.891L 10.0195 277.612ZM 6.89941 277.612L 9.11133 277.612L 9.11133 274.126L 9.00391 274.321L 6.89941 277.612ZM 3.55957 301L 2.65137 301L 2.65137 294.979L 0.830078 295.648L 0.830078 294.828L 3.41797 293.856L 3.55957 293.856L 3.55957 301ZM 6.62109 297.436L 6.98242 293.891L 10.625 293.891L 10.625 294.726L 7.74902 294.726L 7.53418 296.664C 7.88249 296.459 8.27799 296.356 8.7207 296.356C 9.36849 296.356 9.88281 296.571 10.2637 297.001C 10.6445 297.427 10.835 298.005 10.835 298.734C 10.835 299.467 10.6364 300.045 10.2393 300.468C 9.84538 300.888 9.29362 301.098 8.58398 301.098C 7.95573 301.098 7.44303 300.924 7.0459 300.575C 6.64876 300.227 6.42253 299.745 6.36719 299.13L 7.22168 299.13C 7.27702 299.537 7.42188 299.844 7.65625 300.053C 7.89062 300.258 8.19987 300.36 8.58398 300.36C 9.00391 300.36 9.33268 300.217 9.57031 299.931C 9.8112 299.644 9.93164 299.249 9.93164 298.744C 9.93164 298.269 9.80143 297.888 9.54102 297.602C 9.28385 297.312 8.94043 297.167 8.51074 297.167C 8.11686 297.167 7.80762 297.253 7.58301 297.426L 7.34375 297.621L 6.62109 297.436ZM 3.55957 322L 2.65137 322L 2.65137 315.979L 0.830078 316.648L 0.830078 315.828L 3.41797 314.856L 3.55957 314.856L 3.55957 322ZM 9.75098 314.886L 9.75098 315.652L 9.58496 315.652C 8.88184 315.665 8.32194 315.874 7.90527 316.277C 7.48861 316.681 7.24772 317.249 7.18262 317.981C 7.55697 317.552 8.06803 317.337 8.71582 317.337C 9.33431 317.337 9.82747 317.555 10.1953 317.991C 10.5664 318.427 10.752 318.991 10.752 319.681C 10.752 320.413 10.5518 320.999 10.1514 321.438C 9.75423 321.878 9.22038 322.098 8.5498 322.098C 7.86947 322.098 7.31771 321.837 6.89453 321.316C 6.47135 320.792 6.25977 320.118 6.25977 319.295L 6.25977 318.948C 6.25977 317.64 6.53809 316.64 7.09473 315.95C 7.65462 315.257 8.48633 314.902 9.58984 314.886L 9.75098 314.886ZM 8.56445 318.089C 8.25521 318.089 7.97038 318.182 7.70996 318.367C 7.44954 318.553 7.26888 318.785 7.16797 319.065L 7.16797 319.397C 7.16797 319.983 7.2998 320.455 7.56348 320.813C 7.82715 321.172 8.15592 321.351 8.5498 321.351C 8.95671 321.351 9.27572 321.201 9.50684 320.901C 9.74121 320.602 9.8584 320.21 9.8584 319.725C 9.8584 319.236 9.73958 318.842 9.50195 318.543C 9.26758 318.24 8.95508 318.089 8.56445 318.089ZM 3.55957 343L 2.65137 343L 2.65137 336.979L 0.830078 337.648L 0.830078 336.828L 3.41797 335.856L 3.55957 335.856L 3.55957 343ZM 10.7959 336.398L 7.85156 343L 6.9043 343L 9.83887 336.633L 5.99121 336.633L 5.99121 335.891L 10.7959 335.891L 10.7959 336.398ZM 3.55957 364L 2.65137 364L 2.65137 357.979L 0.830078 358.648L 0.830078 357.828L 3.41797 356.856L 3.55957 356.856L 3.55957 364ZM 10.5176 358.746C 10.5176 359.101 10.4232 359.417 10.2344 359.693C 10.0488 359.97 9.79655 360.187 9.47754 360.343C 9.84863 360.502 10.1416 360.735 10.3564 361.041C 10.5745 361.347 10.6836 361.694 10.6836 362.081C 10.6836 362.696 10.4753 363.186 10.0586 363.551C 9.64518 363.915 9.09993 364.098 8.42285 364.098C 7.73926 364.098 7.19076 363.915 6.77734 363.551C 6.36719 363.183 6.16211 362.693 6.16211 362.081C 6.16211 361.697 6.26628 361.35 6.47461 361.041C 6.6862 360.732 6.97754 360.497 7.34863 360.338C 7.03288 360.182 6.78385 359.965 6.60156 359.688C 6.41927 359.412 6.32812 359.098 6.32812 358.746C 6.32812 358.147 6.52018 357.672 6.9043 357.32C 7.28841 356.969 7.7946 356.793 8.42285 356.793C 9.04785 356.793 9.55241 356.969 9.93652 357.32C 10.3239 357.672 10.5176 358.147 10.5176 358.746ZM 9.78027 362.062C 9.78027 361.664 9.65332 361.34 9.39941 361.09C 9.14876 360.839 8.81999 360.714 8.41309 360.714C 8.00618 360.714 7.67904 360.838 7.43164 361.085C 7.1875 361.332 7.06543 361.658 7.06543 362.062C 7.06543 362.465 7.18424 362.783 7.42188 363.014C 7.66276 363.245 7.99642 363.36 8.42285 363.36C 8.84603 363.36 9.17806 363.245 9.41895 363.014C 9.65983 362.779 9.78027 362.462 9.78027 362.062ZM 8.42285 357.535C 8.06803 357.535 7.77995 357.646 7.55859 357.867C 7.34049 358.085 7.23145 358.383 7.23145 358.761C 7.23145 359.122 7.33887 359.415 7.55371 359.64C 7.77181 359.861 8.06152 359.972 8.42285 359.972C 8.78418 359.972 9.07227 359.861 9.28711 359.64C 9.50521 359.415 9.61426 359.122 9.61426 358.761C 9.61426 358.399 9.50195 358.105 9.27734 357.877C 9.05273 357.649 8.7679 357.535 8.42285 357.535ZM 3.55957 385L 2.65137 385L 2.65137 378.979L 0.830078 379.648L 0.830078 378.828L 3.41797 377.856L 3.55957 377.856L 3.55957 385ZM 9.66797 381.875C 9.47917 382.1 9.25293 382.28 8.98926 382.417C 8.72884 382.554 8.44238 382.622 8.12988 382.622C 7.71973 382.622 7.36165 382.521 7.05566 382.319C 6.75293 382.118 6.51855 381.834 6.35254 381.47C 6.18652 381.102 6.10352 380.697 6.10352 380.254C 6.10352 379.779 6.19303 379.351 6.37207 378.97C 6.55436 378.589 6.81152 378.298 7.14355 378.096C 7.47559 377.894 7.86296 377.793 8.30566 377.793C 9.00879 377.793 9.56217 378.057 9.96582 378.584C 10.3727 379.108 10.5762 379.824 10.5762 380.732L 10.5762 380.996C 10.5762 382.38 10.3027 383.39 9.75586 384.028C 9.20898 384.663 8.38379 384.989 7.28027 385.005L 7.10449 385.005L 7.10449 384.243L 7.29492 384.243C 8.04036 384.23 8.61328 384.036 9.01367 383.662C 9.41406 383.285 9.63216 382.689 9.66797 381.875ZM 8.27637 381.875C 8.5791 381.875 8.85742 381.782 9.11133 381.597C 9.36849 381.411 9.55566 381.182 9.67285 380.908L 9.67285 380.547C 9.67285 379.954 9.54427 379.473 9.28711 379.102C 9.02995 378.73 8.70443 378.545 8.31055 378.545C 7.91341 378.545 7.5944 378.698 7.35352 379.004C 7.11263 379.307 6.99219 379.707 6.99219 380.205C 6.99219 380.69 7.10775 381.09 7.33887 381.406C 7.57324 381.719 7.88574 381.875 8.27637 381.875ZM 5.24902 406L 0.59082 406L 0.59082 405.351L 3.05176 402.616C 3.41634 402.203 3.66699 401.868 3.80371 401.61C 3.94368 401.35 4.01367 401.081 4.01367 400.805C 4.01367 400.434 3.90137 400.129 3.67676 399.892C 3.45215 399.654 3.15267 399.535 2.77832 399.535C 2.3291 399.535 1.97917 399.664 1.72852 399.921C 1.48112 400.175 1.35742 400.53 1.35742 400.985L 0.454102 400.985C 0.454102 400.331 0.664062 399.802 1.08398 399.398C 1.50716 398.995 2.07194 398.793 2.77832 398.793C 3.43913 398.793 3.96159 398.967 4.3457 399.315C 4.72982 399.66 4.92188 400.121 4.92188 400.697C 4.92188 401.397 4.47591 402.23 3.58398 403.197L 1.67969 405.263L 5.24902 405.263L 5.24902 406ZM 10.6641 402.968C 10.6641 404.026 10.4834 404.812 10.1221 405.326C 9.76074 405.84 9.19596 406.098 8.42773 406.098C 7.66927 406.098 7.10775 405.847 6.74316 405.346C 6.37858 404.841 6.18978 404.089 6.17676 403.09L 6.17676 401.884C 6.17676 400.839 6.35742 400.062 6.71875 399.555C 7.08008 399.047 7.64648 398.793 8.41797 398.793C 9.18294 398.793 9.74609 399.039 10.1074 399.53C 10.4688 400.019 10.6543 400.774 10.6641 401.796L 10.6641 402.968ZM 9.76074 401.732C 9.76074 400.967 9.65332 400.411 9.43848 400.062C 9.22363 399.711 8.88346 399.535 8.41797 399.535C 7.95573 399.535 7.61882 399.709 7.40723 400.058C 7.19564 400.406 7.08659 400.941 7.08008 401.664L 7.08008 403.109C 7.08008 403.878 7.19076 404.446 7.41211 404.813C 7.63672 405.178 7.97526 405.36 8.42773 405.36C 8.8737 405.36 9.2041 405.188 9.41895 404.843C 9.63704 404.498 9.75098 403.954 9.76074 403.212L 9.76074 401.732ZM 5.24902 426L 0.59082 426L 0.59082 425.351L 3.05176 422.616C 3.41634 422.203 3.66699 421.868 3.80371 421.61C 3.94368 421.35 4.01367 421.081 4.01367 420.805C 4.01367 420.434 3.90137 420.129 3.67676 419.892C 3.45215 419.654 3.15267 419.535 2.77832 419.535C 2.3291 419.535 1.97917 419.664 1.72852 419.921C 1.48112 420.175 1.35742 420.53 1.35742 420.985L 0.454102 420.985C 0.454102 420.331 0.664062 419.802 1.08398 419.398C 1.50716 418.995 2.07194 418.793 2.77832 418.793C 3.43913 418.793 3.96159 418.967 4.3457 419.315C 4.72982 419.66 4.92188 420.121 4.92188 420.697C 4.92188 421.397 4.47591 422.23 3.58398 423.197L 1.67969 425.263L 5.24902 425.263L 5.24902 426ZM 9.1748 426L 8.2666 426L 8.2666 419.979L 6.44531 420.648L 6.44531 419.828L 9.0332 418.856L 9.1748 418.856L 9.1748 426Z"/>
</defs>
</svg>
