<svg xmlns="http://www.w3.org/2000/svg" width="559" height="346"><defs><linearGradient id="a" x1="45.397%" x2="96.952%" y1="50.005%" y2="50.005%"><stop offset="0%" stop-color="#E1E1FF"/><stop offset="11.815%" stop-color="#FCFCFE"/><stop offset="100%" stop-color="#E1E1FF"/></linearGradient><linearGradient id="b" x1="49.997%" x2="49.997%" y1="99.983%" y2=".014%"><stop offset="0%" stop-color="#FCFCFE"/><stop offset="100%" stop-color="#E1E1FF"/></linearGradient><linearGradient id="c" x1="100%" x2="0%" y1="50%" y2="50%"><stop offset="0%" stop-color="#D0C4FF" stop-opacity="0"/><stop offset="100%" stop-color="#D0C4FF"/></linearGradient><linearGradient id="d" x1="0%" y1="50%" y2="50%"><stop offset="0%" stop-color="#D0C4FF" stop-opacity="0"/><stop offset="100%" stop-color="#D0C4FF"/></linearGradient><linearGradient id="e" x1="0%" x2="100.004%" y1="50.002%" y2="50.002%"><stop offset="0%" stop-color="#35C5CD"/><stop offset="100%" stop-color="#44DB99"/></linearGradient><linearGradient id="f" x1="50.002%" x2="50.002%" y1="100%" y2="0%"><stop offset="0%" stop-color="#0F9"/><stop offset="100%" stop-color="#35C5CD"/></linearGradient><linearGradient id="g" x1=".02%" x2="99.891%" y1="50.003%" y2="50.003%"><stop offset="0%" stop-color="#0F9"/><stop offset="100%" stop-color="#35C5CD"/></linearGradient><linearGradient id="h" x1="50%" x2="50%" y1="100%" y2="0%"><stop offset="0%" stop-color="#35C5CD"/><stop offset="100%" stop-color="#0F9"/></linearGradient><linearGradient id="i" x1="50.002%" x2="50.002%" y1="100%" y2="0%"><stop offset="0%" stop-color="#FFF"/><stop offset="100%" stop-color="#FFF" stop-opacity="0"/></linearGradient><linearGradient id="j" x1="-.012%" y1="50.013%" y2="50.013%"><stop offset="0%" stop-color="#3D386B"/><stop offset="100%" stop-color="#211E39"/></linearGradient><linearGradient id="k" x1="7779%" x2="16028%" y1="18708%" y2="18708%"><stop offset="0%" stop-color="#3D386B"/><stop offset="100%" stop-color="#211E39"/></linearGradient><linearGradient id="l" x1="7694%" x2="15942%" y1="18763%" y2="18763%"><stop offset="0%" stop-color="#3D386B"/><stop offset="100%" stop-color="#211E39"/></linearGradient><linearGradient id="m" x1="7608%" x2="15856%" y1="18819%" y2="18819%"><stop offset="0%" stop-color="#3D386B"/><stop offset="100%" stop-color="#211E39"/></linearGradient><linearGradient id="n" x1="7522%" x2="15770%" y1="18874%" y2="18874%"><stop offset="0%" stop-color="#3D386B"/><stop offset="100%" stop-color="#211E39"/></linearGradient><linearGradient id="o" x1="7436%" x2="15684%" y1="18929%" y2="18929%"><stop offset="0%" stop-color="#3D386B"/><stop offset="100%" stop-color="#211E39"/></linearGradient><linearGradient id="p" x1="7350%" x2="15598%" y1="18984%" y2="18984%"><stop offset="0%" stop-color="#3D386B"/><stop offset="100%" stop-color="#211E39"/></linearGradient><linearGradient id="q" x1="7264%" x2="15512%" y1="19040%" y2="19040%"><stop offset="0%" stop-color="#3D386B"/><stop offset="100%" stop-color="#211E39"/></linearGradient><linearGradient id="r" x1="7178%" x2="15426%" y1="19095%" y2="19095%"><stop offset="0%" stop-color="#3D386B"/><stop offset="100%" stop-color="#211E39"/></linearGradient><linearGradient id="s" x1="7092%" x2="15340%" y1="19150%" y2="19150%"><stop offset="0%" stop-color="#3D386B"/><stop offset="100%" stop-color="#211E39"/></linearGradient><linearGradient id="t" x1="7006%" x2="15254%" y1="19206%" y2="19206%"><stop offset="0%" stop-color="#3D386B"/><stop offset="100%" stop-color="#211E39"/></linearGradient><linearGradient id="u" x1="6920%" x2="15168%" y1="19261%" y2="19261%"><stop offset="0%" stop-color="#3D386B"/><stop offset="100%" stop-color="#211E39"/></linearGradient><linearGradient id="v" x1="6834%" x2="15082%" y1="19316%" y2="19316%"><stop offset="0%" stop-color="#3D386B"/><stop offset="100%" stop-color="#211E39"/></linearGradient><linearGradient id="w" x1="6748%" x2="14996%" y1="19372%" y2="19372%"><stop offset="0%" stop-color="#3D386B"/><stop offset="100%" stop-color="#211E39"/></linearGradient><linearGradient id="x" x1="10872%" x2="10872%" y1="25328%" y2="13415%"><stop offset="0%" stop-color="#35C5CD"/><stop offset="100%" stop-color="#0F9"/></linearGradient><linearGradient id="y" x1="7601%" x2="13487%" y1="19381%" y2="19381%"><stop offset="0%" stop-color="#3D386B"/><stop offset="100%" stop-color="#211E39"/></linearGradient><linearGradient id="z" x1="0%" x2="99.677%" y1="50.02%" y2="50.02%"><stop offset="0%" stop-color="#FCFCFE"/><stop offset="97%" stop-color="#C6C6EF"/></linearGradient><linearGradient id="A" x1="23943%" x2="23943%" y1="24661%" y2="18469%"><stop offset="0%" stop-color="#3D386B"/><stop offset="100%" stop-color="#211E39"/></linearGradient><linearGradient id="B" x1="-2343552%" x2="-2343552%" y1="19236%" y2="13953%"><stop offset="0%" stop-color="#3D386B"/><stop offset="100%" stop-color="#211E39"/></linearGradient><linearGradient id="C" x1="24497%" x2="24497%" y1="24315%" y2="18123%"><stop offset="0%" stop-color="#FCFCFE"/><stop offset="97%" stop-color="#C6C6EF"/></linearGradient><linearGradient id="D" x1="50%" x2="50%" y1="99.996%" y2=".003%"><stop offset="3%" stop-color="#C6C6EF"/><stop offset="100%" stop-color="#FCFCFE"/></linearGradient><linearGradient id="E" x1="-2343615%" x2="-2343615%" y1="18365%" y2="13082%"><stop offset="3%" stop-color="#C6C6EF"/><stop offset="100%" stop-color="#FCFCFE"/></linearGradient><linearGradient id="F" x1="-2343704%" x2="-2343704%" y1="18417%" y2="13135%"><stop offset="3%" stop-color="#C6C6EF"/><stop offset="100%" stop-color="#FCFCFE"/></linearGradient><linearGradient id="G" x1="-2343793%" x2="-2343793%" y1="18470%" y2="13187%"><stop offset="3%" stop-color="#C6C6EF"/><stop offset="100%" stop-color="#FCFCFE"/></linearGradient><linearGradient id="H" x1="-2343883%" x2="-2343883%" y1="18522%" y2="13240%"><stop offset="3%" stop-color="#C6C6EF"/><stop offset="100%" stop-color="#FCFCFE"/></linearGradient><linearGradient id="I" x1="-2343972%" x2="-2343972%" y1="18575%" y2="13292%"><stop offset="3%" stop-color="#C6C6EF"/><stop offset="100%" stop-color="#FCFCFE"/></linearGradient><linearGradient id="J" x1="-2344062%" x2="-2344062%" y1="18628%" y2="13345%"><stop offset="3%" stop-color="#C6C6EF"/><stop offset="100%" stop-color="#FCFCFE"/></linearGradient><linearGradient id="K" x1="-2344151%" x2="-2344151%" y1="18680%" y2="13397%"><stop offset="3%" stop-color="#C6C6EF"/><stop offset="100%" stop-color="#FCFCFE"/></linearGradient><linearGradient id="L" x1="-2344241%" x2="-2344241%" y1="18733%" y2="13450%"><stop offset="3%" stop-color="#C6C6EF"/><stop offset="100%" stop-color="#FCFCFE"/></linearGradient><linearGradient id="M" x1="-2344330%" x2="-2344330%" y1="18785%" y2="13502%"><stop offset="3%" stop-color="#C6C6EF"/><stop offset="100%" stop-color="#FCFCFE"/></linearGradient><linearGradient id="N" x1="-2344420%" x2="-2344420%" y1="18838%" y2="13555%"><stop offset="3%" stop-color="#C6C6EF"/><stop offset="100%" stop-color="#FCFCFE"/></linearGradient><linearGradient id="O" x1="-2344509%" x2="-2344509%" y1="18890%" y2="13607%"><stop offset="3%" stop-color="#C6C6EF"/><stop offset="100%" stop-color="#FCFCFE"/></linearGradient></defs><g fill="none"><g opacity=".75"><path fill="url(#a)" d="M558.363 165.149c0-3.926-2.55-7.851-7.739-10.864L298.437 8.308c-10.379-6.026-27.313-6.026-37.6 0L8.648 154.285C3.459 157.298.91 161.223.91 165.149v16.341h.456c-1.457 4.747 1.001 9.86 7.374 13.603L260.927 341.07c10.38 6.026 27.313 6.026 37.6 0l252.188-145.977c6.373-3.652 8.74-8.764 7.375-13.603h.455v-16.34h-.182z"/><path fill="url(#b)" d="M8.649 151.09c-10.379 6.025-10.379 15.793 0 21.819l252.187 145.977c10.38 6.025 27.313 6.025 37.6 0l252.188-145.977c10.379-6.026 10.379-15.794 0-21.82L298.437 5.113c-10.379-6.025-27.313-6.025-37.6 0L8.648 151.09z"/></g><path fill="url(#c)" d="M0 71.565V181l68.364-35.453L138 109.435V0z" opacity=".505" transform="translate(142 7)"/><path fill="url(#d)" d="M207.632 145.547L276 181V71.565L138 0v109.435z" opacity=".505" transform="translate(142 7)"/><path fill="#15117C" d="M280.496 141L186 190l94.496 49L375 190z" opacity=".1"/><path fill="url(#e)" d="M138.504 5L45 53.553v109.894L138.504 212 232 163.447V53.553z" transform="translate(142 7)"/><g opacity=".6"><path fill="url(#f)" d="M93.852.071L.365 48.486l93.487 48.415 93.48-48.415z" transform="translate(187 12)"/><path fill="url(#g)" d="M93.852 206.484l93.48-48.415V48.486l-93.48 48.415z" transform="translate(187 12)"/><path fill="url(#h)" d="M93.852 206.484L.365 158.069V48.486l93.487 48.415z" transform="translate(187 12)"/><path fill="url(#i)" d="M93.852 96.901L.365 48.486v2.89l93.487 48.415 93.48-48.415v-2.89z" transform="translate(187 12)"/></g><g opacity=".2"><path fill="url(#j)" d="M73.33 56.242c0 22.132-14.457 34.303-32.124 27.016C23.54 75.97 9.083 51.934 9.083 29.802 9.083 7.671 23.54-4.5 41.206 2.787 58.873 10.074 73.33 34.125 73.33 56.242z" transform="translate(194 96)"/><path fill="url(#k)" d="M72.66 56.633c0 22.132-14.457 34.303-32.124 27.016C22.87 76.362 8.405 52.346 8.405 30.215c0-22.132 14.457-34.303 32.124-27.016C58.195 10.486 72.66 34.502 72.66 56.633z" transform="translate(194 96)"/><path fill="url(#l)" d="M71.99 57.024c0 22.132-14.457 34.303-32.123 27.016C22.2 76.753 7.743 52.716 7.743 30.585 7.743 8.453 22.2-3.718 39.867 3.569 57.533 10.856 71.99 34.893 71.99 57.024z" transform="translate(194 96)"/><path fill="url(#m)" d="M71.32 57.422c0 22.132-14.457 34.303-32.123 27.016C21.53 77.151 7.073 53.135 7.073 30.997 7.073 8.858 21.53-3.306 39.197 3.98 56.863 11.268 71.32 35.284 71.32 57.422z" transform="translate(194 96)"/><path fill="url(#n)" d="M70.65 57.813c0 22.132-14.457 34.303-32.123 27.016C20.86 77.542 6.403 53.505 6.403 31.374 6.403 9.242 20.86-2.93 38.527 4.358 56.193 11.645 70.65 35.682 70.65 57.813z" transform="translate(194 96)"/><path fill="url(#o)" d="M69.98 58.204c0 22.132-14.457 34.303-32.123 27.016C20.19 77.933 5.733 53.896 5.733 31.765c0-22.132 14.457-34.303 32.124-27.016C55.523 12.036 69.98 36.073 69.98 58.204z" transform="translate(194 96)"/><path fill="url(#p)" d="M69.326 58.603c0 22.131-14.457 34.302-32.123 27.015-17.667-7.287-32.14-31.302-32.14-53.441 0-22.139 14.457-34.303 32.124-27.016 17.666 7.288 32.14 31.303 32.14 53.442z" transform="translate(194 96)"/><path fill="url(#q)" d="M68.64 59.008c0 22.131-14.456 34.303-32.123 27.015-17.666-7.287-32.124-31.28-32.124-53.448 0-22.167 14.458-34.303 32.124-27.015 17.667 7.287 32.124 31.295 32.124 53.448z" transform="translate(194 96)"/><path fill="url(#r)" d="M67.97 59.385c0 22.131-14.456 34.302-32.123 27.015C18.181 79.113 3.723 55.098 3.723 32.966c0-22.131 14.458-34.303 32.124-27.015 17.667 7.287 32.124 31.302 32.124 53.434z" transform="translate(194 96)"/><path fill="url(#s)" d="M67.301 59.783c0 22.131-14.457 34.302-32.124 27.015C17.511 79.511 3.053 55.474 3.053 33.343c0-22.132 14.458-34.303 32.124-27.016 17.667 7.287 32.124 31.353 32.124 53.456z" transform="translate(194 96)"/><path fill="url(#t)" d="M66.631 60.174c0 22.131-14.457 34.302-32.124 27.015C16.841 79.902 2.384 55.865 2.384 33.734c0-22.132 14.457-34.303 32.123-27.016 17.667 7.287 32.124 31.317 32.124 53.456z" transform="translate(194 96)"/><path fill="url(#u)" d="M65.961 60.565c0 22.131-14.457 34.303-32.124 27.015C16.171 80.293 1.714 56.278 1.714 34.125S16.17-.178 33.837 7.109c17.667 7.287 32.124 31.324 32.124 53.456z" transform="translate(194 96)"/><path fill="url(#v)" d="M65.291 60.963c0 22.131-14.457 34.303-32.123 27.016C15.5 80.69 1.044 56.655 1.044 34.523 1.044 12.392 15.5.22 33.168 7.507 50.834 14.796 65.29 38.825 65.29 60.964z" transform="translate(194 96)"/><path fill="url(#w)" d="M64.653 61.354c0 22.131-14.458 34.303-32.124 27.016C14.862 81.082.405 57.046.405 34.914.405 12.783 14.862.611 32.53 7.9c17.666 7.287 32.124 31.316 32.124 53.455z" transform="translate(194 96)"/></g><path fill="url(#x)" d="M117 150.767c0 22.21-14.402 34.425-32 27.112-17.598-7.313-32-31.436-32-53.646s14.402-34.425 32-27.112c17.598 7.313 32 31.429 32 53.646z" transform="translate(142 7)"/><path fill="url(#y)" d="M45.899 39.77c0 15.761-10.323 24.422-22.946 19.251C10.331 53.851 0 36.721 0 20.96 0 5.2 10.323-3.461 22.945 1.71 35.568 6.88 45.9 24.01 45.9 39.77z" opacity=".5" transform="translate(201 114)"/><path fill="url(#z)" d="M81.034 117.034c-5.39-2.21-10.165-.76-13.034 3.237-.367.382-.704.788-1.008 1.213a10.86 10.86 0 0 0-1.01 1.213c-.368.379-.705.782-1.008 1.206a9.92 9.92 0 0 0-1 1.206 9.51 9.51 0 0 0-.994 1.198c-.366.372-.698.77-.993 1.191-.367.374-.7.775-.992 1.2-1.852 1.88-2.995 4.858-2.995 8.612 0 8.246 5.398 17.225 11.994 19.916a9.25 9.25 0 0 0 4.728.718 8.232 8.232 0 0 0 1.576-.036 8.648 8.648 0 0 0 1.576-.036 9.089 9.089 0 0 0 1.576-.036c.526.032 1.053.02 1.576-.036a9.774 9.774 0 0 0 1.521-.043c.508.024 1.016.01 1.521-.043.508.023 1.016.009 1.521-.043 6.572.28 11.411-5.354 11.411-14.354-.126-10.86-7.297-22.709-15.966-26.283z" transform="translate(142 7)"/><path fill="#FFF" d="M224 154.34c0 8.106-5.4 12.565-12 9.877-6.6-2.688-12-11.45-12-19.557 0-8.106 5.4-12.565 12-9.877 6.6 2.688 12 11.45 12 19.557zm.526-38.422l5.41-5.78a.217.217 0 0 0 .057-.206.24.24 0 0 0-.153-.161l-9.475-3.748a.274.274 0 0 0-.286.041.217.217 0 0 0-.059.259l4.08 9.54a.25.25 0 0 0 .196.135.268.268 0 0 0 .23-.08z"/><path fill="url(#A)" d="M186.5 131c-3.593 0-6.5 1.08-6.5 2.402v39.196c0 1.329 2.915 2.402 6.5 2.402s6.5-1.073 6.5-2.402v-39.196c0-1.329-2.907-2.402-6.5-2.402z" opacity=".2" transform="translate(142 7)"/><path fill="url(#B)" d="M.643 24.756c0 9.718 6.75 15.053 15.004 11.865 8.254-3.188 15.004-13.75 15.004-23.462 0-9.71-6.75-15.052-15.004-11.864C7.393 4.483.643 15.045.643 24.756z" opacity=".2" transform="translate(315 105)"/><path fill="#FFF" d="M329 137.402c0-1.329 2.915-2.402 6.5-2.402s6.5 1.073 6.5 2.402v39.196c0 1.329-2.915 2.402-6.5 2.402s-6.5-1.073-6.5-2.402v-39.196z"/><path fill="url(#C)" d="M193 128c-3.317 0-6 1.073-6 2.402v39.196c0 1.329 2.69 2.402 6 2.402v-44z" transform="translate(142 7)"/><path fill="url(#D)" d="M173 116.271c0 9.673 6.748 14.983 15 11.81 8.252-3.173 15-13.687 15-23.353 0-9.666-6.748-14.982-15-11.81-8.252 3.174-15 13.68-15 23.353z" transform="translate(142 7)"/><path fill="url(#E)" d="M174 117.269c0 9.675 6.747 14.985 14.996 11.812 8.25-3.174 15.004-13.683 15.004-23.35 0-9.669-6.747-14.986-14.996-11.812C180.754 97.092 174 107.6 174 117.269z" transform="translate(142 7)"/><path fill="url(#F)" d="M175 117.271c0 9.673 6.748 14.983 15 11.81 8.252-3.173 15-13.687 15-23.353 0-9.666-6.748-14.982-15-11.81-8.252 3.174-15 13.68-15 23.353z" transform="translate(142 7)"/><path fill="url(#G)" d="M175 118.282c0 9.665 6.741 14.97 14.985 11.8 8.243-3.17 15.015-13.669 15.015-23.361 0-9.693-6.741-14.97-14.985-11.8-8.243 3.17-15.015 13.703-15.015 23.361z" transform="translate(142 7)"/><path fill="url(#H)" d="M176 118.271c0 9.673 6.748 14.983 15 11.81 8.252-3.173 15-13.687 15-23.353 0-9.666-6.748-14.982-15-11.81-8.252 3.174-15 13.68-15 23.353z" transform="translate(142 7)"/><path fill="url(#I)" d="M177 119.274c0 9.671 6.748 14.98 15 11.807 8.252-3.172 15-13.684 15-23.349 0-9.664-6.756-14.987-14.977-11.814C183.803 99.09 177 109.602 177 119.274z" transform="translate(142 7)"/><path fill="url(#J)" d="M177 119.271c0 9.673 6.748 14.983 15 11.81 8.252-3.173 15-13.687 15-23.353 0-9.666-6.748-14.982-15-11.81-8.252 3.174-15 13.687-15 23.353z" transform="translate(142 7)"/><path fill="url(#K)" d="M178 119.271c0 9.673 6.748 14.983 15 11.81 8.252-3.173 15-13.687 15-23.353 0-9.666-6.748-14.982-15-11.81-8.252 3.174-15 13.68-15 23.353z" transform="translate(142 7)"/><path fill="url(#L)" d="M179 120.271c0 9.673 6.748 14.983 15 11.81 8.252-3.173 15-13.687 15-23.353 0-9.666-6.748-14.982-15-11.81-8.252 3.174-15 13.687-15 23.353z" transform="translate(142 7)"/><path fill="url(#M)" d="M179 120.272c0 9.673 6.748 14.982 15 11.809 8.252-3.173 15-13.686 15-23.351 0-9.666-6.748-14.989-14.977-11.809C185.795 100.101 179 110.6 179 120.272z" transform="translate(142 7)"/><path fill="url(#N)" d="M180 120.271c0 9.673 6.748 14.983 15 11.81 8.252-3.173 15-13.687 15-23.353 0-9.666-6.748-14.982-15-11.81-8.252 3.174-15 13.687-15 23.353z" transform="translate(142 7)"/><path fill="url(#O)" d="M181 120.271c0 9.673 6.748 14.983 15 11.81 8.252-3.173 15-13.687 15-23.353 0-9.666-6.748-14.982-15-11.81-8.252 3.174-15 13.68-15 23.353z" transform="translate(142 7)"/><path fill="#FFF" d="M323 127.271c0 9.673 6.748 14.983 15 11.81 8.252-3.173 15-13.687 15-23.353 0-9.666-6.748-14.982-15-11.81-8.252 3.174-15 13.68-15 23.353z"/><path fill="url(#d)" d="M0 72v109.435L138 253V143.565zm276 109.435V72l-138 71.565V253z" opacity=".505" transform="translate(142 7)"/></g></svg>