<?xml version="1.0" encoding="UTF-8"?>
<!DOCTYPE svg PUBLIC "-//W3C//DTD SVG 1.1//EN" "http://www.w3.org/Graphics/SVG/1.1/DTD/svg11.dtd">
<!-- Creator: CorelDRAW 2019 (64-Bit) -->
<svg xmlns="http://www.w3.org/2000/svg" xml:space="preserve" width="11.131in" height="0.924693in" version="1.1" style="shape-rendering:geometricPrecision; text-rendering:geometricPrecision; image-rendering:optimizeQuality; fill-rule:evenodd; clip-rule:evenodd"
viewBox="0 0 3007.2 249.82"
 xmlns:xlink="http://www.w3.org/1999/xlink"
 xmlns:xodm="http://www.corel.com/coreldraw/odm/2003">
 <defs>
  <style type="text/css">
   <![CDATA[
    .fil3 {fill:#6658D7}
    .fil1 {fill:white}
    .fil4 {fill:white}
    .fil2 {fill:#1B1B38;fill-rule:nonzero}
    .fil0 {fill:white;fill-rule:nonzero}
   ]]>
  </style>
 </defs>
 <g id="Capa_x0020_1">
  <metadata id="CorelCorpID_0Corel-Layer"/>
  <path class="fil0" d="M187.31 219.31c12.48,0 22.28,-9.74 22.28,-23.9l0 -38.41c0,-5.84 4.9,-10.27 14.41,-10.44l0 -30.45c-9.06,-0.18 -14.41,-4.96 -14.41,-11.51l0 -39.3c0,-14.34 -9.66,-23.72 -22.28,-23.72l-19.46 0 0 22.3 7.58 0c6.68,0 9.21,4.07 9.21,10.97l0 38.06c0,10.62 4.6,16.99 15.89,18.06l0.15 0 0 0.71c-10.25,0.71 -16.04,7.44 -16.04,15.75l0 38.59c0,7.61 -3.12,10.97 -9.65,10.97l-7.13 0 0 22.3 19.46 0zm-86.45 0l0 -22.3 -7.13 0c-6.53,0 -9.65,-3.36 -9.65,-10.97l0 -38.59c0,-8.32 -5.79,-15.05 -16.04,-15.75l0 -0.71 0.15 0c11.29,-1.06 15.89,-7.44 15.89,-18.06l0 -38.06c0,-6.9 2.53,-10.97 9.21,-10.97l7.58 0 0 -22.3 -19.46 0c-12.63,0 -22.28,9.38 -22.28,23.72l0 39.3c0,6.55 -5.35,11.33 -14.41,11.51l0 30.45c9.51,0.18 14.41,4.6 14.41,10.44l0 38.41c0,14.16 9.8,23.9 22.28,23.9l19.46 0z"/>
  <rect class="fil1" x="89.83" y="121.04" width="89.05" height="22.3" rx="5.19" ry="3.49"/>
  <path class="fil2" d="M520.56 104.34c-3.96,-23.13 -16.74,-43.83 -38.04,-62.09 -22.52,-19.17 -47.48,-27.7 -78.52,-27.7 -64.52,0 -115.95,53.87 -115.95,113.52 0,34.09 10.35,62.69 34.69,86.43 23.13,22.83 52.65,33.78 84,33.78 53.26,0 99.82,-34.39 113.82,-88.56l-60.26 0c-11.87,25.26 -31.35,38.04 -54.17,38.04 -35.61,0 -60.56,-30.43 -60.56,-66.96 0,-35 24.35,-65.74 60.26,-65.74 23.44,0 44.74,14.61 54.48,39.26l60.26 0z"/>
  <path id="1" class="fil2" d="M698.75 158.82c0,-51.13 -40.17,-89.17 -91,-89.17 -50.52,0 -91,37.43 -91,89.78 0,51.74 39.56,89.78 91,89.78 50.83,0 91,-37.43 91,-90.39zm-91 43.22c-22.83,0 -40.48,-19.48 -40.48,-42.61 0,-23.13 17.96,-42.61 40.17,-42.61 23.74,0 40.78,20.09 40.78,42.61 0,22.52 -16.74,42.61 -40.48,42.61z"/>
  <path id="2" class="fil2" d="M879.68 244.04l0 -225.22 -50.52 0 0 70.61c-14.3,-14.3 -30.13,-20.09 -49.61,-20.09 -49.3,0 -83.69,39.26 -83.69,89.78 0,51.13 33.48,90.39 84.61,90.39 24.04,0 41.09,-8.22 50.52,-23.74l0.61 0 0 18.26 48.09 0zm-91 -41.69c-24.35,0 -42.3,-17.96 -42.3,-43.52 0,-24.65 18.87,-42.3 42.61,-42.3 24.96,0 42.91,18.87 42.91,42.3 0,24.96 -18.56,43.52 -43.22,43.52z"/>
  <path id="3" class="fil2" d="M1060 174.95c0.91,-4.57 1.22,-8.52 1.22,-13.39 0,-52.35 -38.65,-92.22 -89.17,-92.22 -49.61,0 -88.56,42 -88.56,90.69 0,50.22 40.78,89.48 89.48,89.48 35.61,0 66.35,-21.61 82.48,-58.43l-51.74 0c-8.22,10.65 -17.04,15.83 -30.74,15.83 -20.7,0 -36.83,-12.78 -39.57,-31.96l126.61 0zm-126 -34.09c3.96,-17.96 19.78,-28.91 38.04,-28.91 19.48,0 34.7,11.57 38.65,28.91l-76.69 0z"/>
  <polygon id="4" class="fil2" points="1795.01,244.04 1795.01,18.82 1737.49,18.82 1737.49,103.43 1663.84,103.43 1663.84,18.82 1606.32,18.82 1606.32,244.04 1663.84,244.04 1663.84,153.95 1737.49,153.95 1737.49,244.04 "/>
  <path id="5" class="fil2" d="M1987.51 244.04l0 -168.91 -50.52 0 0 17.96 -0.61 0c-9.74,-15.52 -28.91,-23.74 -49.61,-23.74 -48.39,0 -84.61,40.17 -84.61,90.08 0,51.13 34.69,90.39 84.61,90.39 22.22,0 42.3,-9.13 49.61,-24.04l0.61 0 0 18.26 50.52 0zm-92.82 -41.39c-23.44,0 -42,-19.17 -42,-42.61 0,-24.35 18.26,-43.52 41.39,-43.52 23.74,0 42.91,19.17 42.91,42.91 0,24.35 -18.56,43.22 -42.3,43.22z"/>
  <path id="6" class="fil2" d="M2050.96 244.04l0 -93.13c0,-19.17 9.74,-30.43 39.87,-30.74l0 -50.82c-19.48,0 -33.48,5.78 -42.3,23.74l-0.61 0 0 -17.96 -47.48 0 0 168.91 50.52 0z"/>
  <path id="7" class="fil2" d="M2261.11 244.04l0 -225.22 -50.52 0 0 70.61c-14.3,-14.3 -30.13,-20.09 -49.61,-20.09 -49.3,0 -83.69,39.26 -83.69,89.78 0,51.13 33.48,90.39 84.61,90.39 24.04,0 41.09,-8.22 50.52,-23.74l0.61 0 0 18.26 48.09 0zm-91 -41.69c-24.35,0 -42.3,-17.96 -42.3,-43.52 0,-24.65 18.87,-42.3 42.61,-42.3 24.96,0 42.91,18.87 42.91,42.3 0,24.96 -18.56,43.52 -43.22,43.52z"/>
  <polygon id="8" class="fil2" points="2460.3,244.04 2512.35,75.12 2460.3,75.12 2435.04,180.12 2434.43,180.12 2406.44,75.12 2363.83,75.12 2336.13,180.12 2335.52,180.12 2310.26,75.12 2257.91,75.12 2309.65,244.04 2356.52,244.04 2384.83,134.78 2385.44,134.78 2413.74,244.04 "/>
  <path id="9" class="fil2" d="M2680.5 244.04l0 -168.91 -50.52 0 0 17.96 -0.61 0c-9.74,-15.52 -28.91,-23.74 -49.61,-23.74 -48.39,0 -84.61,40.17 -84.61,90.08 0,51.13 34.69,90.39 84.61,90.39 22.22,0 42.3,-9.13 49.61,-24.04l0.61 0 0 18.26 50.52 0zm-92.82 -41.39c-23.44,0 -42,-19.17 -42,-42.61 0,-24.35 18.26,-43.52 41.39,-43.52 23.74,0 42.91,19.17 42.91,42.91 0,24.35 -18.56,43.22 -42.3,43.22z"/>
  <path id="10" class="fil2" d="M2743.95 244.04l0 -93.13c0,-19.17 9.74,-30.43 39.87,-30.74l0 -50.82c-19.48,0 -33.48,5.78 -42.3,23.74l-0.61 0 0 -17.96 -47.48 0 0 168.91 50.52 0z"/>
  <path id="11" class="fil2" d="M2945.58 174.95c0.91,-4.57 1.22,-8.52 1.22,-13.39 0,-52.35 -38.65,-92.22 -89.17,-92.22 -49.61,0 -88.56,42 -88.56,90.69 0,50.22 40.78,89.48 89.48,89.48 35.61,0 66.35,-21.61 82.48,-58.43l-51.74 0c-8.22,10.65 -17.04,15.83 -30.74,15.83 -20.7,0 -36.83,-12.78 -39.57,-31.96l126.61 0zm-126 -34.09c3.96,-17.96 19.78,-28.91 38.04,-28.91 19.48,0 34.7,11.57 38.65,28.91l-76.69 0z"/>
  <polygon id="12" class="fil2" points="3007.2,244.04 3007.2,192.3 2954.55,192.3 2954.55,244.04 "/>
  <path id="13" class="fil2" d="M1236.37 244.04l0 -166.48 -21.3 0 0 29.22 -0.61 0c-13.39,-21 -37.13,-33.48 -64.83,-33.48 -48.69,0 -89.48,37.13 -89.48,87.04 0,49.91 39.56,87.65 89.48,87.65 27.09,0 51.13,-12.48 64.83,-33.17l0.61 0 0 29.22 21.3 0zm-86.74 -15.22c-39.26,0 -68.17,-29.22 -68.17,-67.56 0,-39.56 29.52,-68.78 67.87,-68.78 37.74,0 66.96,31.35 66.96,68.48 0,37.43 -29.52,67.87 -66.65,67.87z"/>
  <path id="14" class="fil2" d="M1400.27 244.04l0 -92.82c0,-46.26 -27.39,-77.91 -73.35,-77.91 -21.61,0 -40.48,9.43 -51.13,25.57l-0.61 0 0 -21.3 -21.3 0 0 166.48 21.3 0 0 -94.35c0,-32.56 19.78,-57.22 52.04,-57.22 29.22,0 51.74,21.3 51.74,58.74l0 92.82 21.3 0z"/>
  <path id="15" class="fil2" d="M1586.68 244.04l0 -225.22 -21.3 0 0 87.35 -0.61 0c-14.3,-20.7 -38.96,-32.87 -64.83,-32.87 -48.7,0 -89.48,37.13 -89.48,87.04 0,49.91 39.57,87.65 89.48,87.65 25.87,0 50.22,-11.56 64.83,-33.17l0.61 0 0 29.22 21.3 0zm-86.74 -15.22c-39.57,0 -68.17,-29.52 -68.17,-67.56 0,-39.26 28.91,-68.78 67.87,-68.78 38.04,0 66.96,31.35 66.96,68.48 0,37.74 -29.83,67.87 -66.65,67.87l0 0z"/>
  <g id="_2065808138304">
   <path class="fil0" d="M187.25 209.49c12.51,0 22.33,-9.76 22.33,-23.95l0 -38.5c0,-5.86 4.91,-10.29 14.44,-10.47l0 -30.52c-9.08,-0.18 -14.44,-4.97 -14.44,-11.53l0 -39.39c0,-14.37 -9.68,-23.78 -22.33,-23.78l-19.5 0 0 22.36 7.59 0c6.7,0 9.23,4.08 9.23,11l0 38.15c0,10.64 4.62,17.03 15.93,18.1l0.15 0 0 0.71c-10.27,0.71 -16.08,7.45 -16.08,15.79l0 38.68c0,7.63 -3.13,11 -9.68,11l-7.15 0 0 22.36 19.5 0zm-86.65 0l0 -22.36 -7.15 0c-6.55,0 -9.68,-3.37 -9.68,-11l0 -38.68c0,-8.34 -5.81,-15.08 -16.08,-15.79l0 -0.71 0.15 0c11.32,-1.06 15.93,-7.45 15.93,-18.1l0 -38.15c0,-6.92 2.53,-11 9.23,-11l7.59 0 0 -22.36 -19.5 0c-12.66,0 -22.33,9.4 -22.33,23.78l0 39.39c0,6.57 -5.36,11.36 -14.44,11.53l0 30.52c9.53,0.18 14.44,4.61 14.44,10.47l0 38.5c0,14.19 9.83,23.95 22.33,23.95l19.5 0z"/>
   <rect class="fil1" x="89.54" y="110.99" width="89.26" height="22.35" rx="5.2" ry="3.5"/>
   <g>
    <path class="fil3" d="M124.91 249.82l-0 0c-68.7,0 -124.91,-56.21 -124.91,-124.91l0 -0c0,-68.7 56.21,-124.91 124.91,-124.91l0 0 124.91 0.8 0 124.11 0 0c0,68.7 -56.21,124.91 -124.91,124.91z"/>
    <path class="fil4" d="M53.9 88.22l0 0 11.78 -0.11c-0.03,21.35 0.21,37.56 0.41,58.94 1.95,20.66 17.49,34.48 35.63,36.3 3.37,0.34 10.57,4.16 10.59,9.91l0.04 13.86 -10.63 -0.08c-26.75,-0.19 -49.39,-17.63 -56.92,-41.91 -1.63,-4.69 -2.67,-10.39 -2.67,-16.74l0 -0.93 0 -47.48c0,-6.47 5.29,-11.76 11.76,-11.76zm82.64 46.38l-23.78 -0.01 -0.09 26.07 -9.27 0.01c-9.63,-1.24 -14.85,-7.18 -14.55,-19.03l0 -27.68 0 0 0 -24.68 0 0 0 -35.66c1.53,-8.32 6.19,-11.81 13.58,-11.1l10.25 0 0 69.83 23.91 0 0.07 -23.11 10.92 0c7.43,-0.09 13.64,6.16 13.72,14.99l0 31.25 0.01 -0 0 24.74 -0.01 0 0 33.39c0.28,10.58 -5.66,14.05 -14.86,13.79l-9.61 0 -0.29 -72.79zm47.12 -37.32c-2.36,-17.54 -17.4,-30.23 -35.56,-31.06 -7.09,-0.33 -11.68,-5.36 -11.51,-11.92l-0.04 -11.67c25.22,-0.57 50.7,7.73 63.41,30.12 4.27,5.02 7.69,14.46 7.69,26.05l0 1.45c0.02,0.62 0.03,1.24 0.03,1.86 0,0.62 -0.01,1.24 -0.03,1.85l0 43.24c0,6.47 -5.29,11.76 -11.76,11.76l0 0 -11.78 0.11 0 -2.59 0.01 -6.91 -0.01 0.01 -0.45 -52.3z"/>
   </g>
  </g>
 </g>
</svg>
