<?xml version="1.0" encoding="UTF-8"?>
<!DOCTYPE svg PUBLIC "-//W3C//DTD SVG 1.1//EN" "http://www.w3.org/Graphics/SVG/1.1/DTD/svg11.dtd">
<!-- Creator: CorelDRAW 2019 (64-Bit) -->
<svg xmlns="http://www.w3.org/2000/svg" xml:space="preserve" width="84.6678mm" height="28.4592mm" version="1.1" style="shape-rendering:geometricPrecision; text-rendering:geometricPrecision; image-rendering:optimizeQuality; fill-rule:evenodd; clip-rule:evenodd"
viewBox="0 0 551.84 185.49"
 xmlns:xlink="http://www.w3.org/1999/xlink"
 xmlns:xodm="http://www.corel.com/coreldraw/odm/2003">
 <defs>
  <style type="text/css">
   <![CDATA[
    .fil1 {fill:#375AEC}
    .fil3 {fill:white}
    .fil0 {fill:#1B1B38;fill-rule:nonzero}
    .fil2 {fill:white;fill-rule:nonzero}
   ]]>
  </style>
 </defs>
 <g id="Capa_x0020_1">
  <metadata id="CorelCorpID_0Corel-Layer"/>
  <path class="fil0" d="M536.23 118.22c0,-14.97 -11.62,-26.87 -26.68,-26.87 -15.62,0 -27.15,12.27 -27.15,27.71 0,15.34 11.81,27.33 27.24,27.33 10.97,0 21.57,-7.44 24.92,-17.94l-13.02 0c-2.51,4.56 -6.88,6.6 -11.9,6.6 -5.11,0 -9.76,-2.6 -12.55,-6.88 -0.74,-1.12 -1.39,-2.32 -1.67,-3.72l40.07 0c0.46,-2.05 0.74,-4.18 0.74,-6.23zm-12.64 -3.72l-28.54 0c1.77,-7.34 7.07,-11.81 14.6,-11.81 7.53,0 12.74,4.37 13.95,11.81z"/>
  <polygon class="fil0" points="551.6,144.71 551.6,132.35 539.24,132.35 539.24,144.71 "/>
  <path class="fil0" d="M461.04 144.71l0 -51.6 -11.34 0 0 6.51 -0.19 0c-0.46,-0.74 -1.3,-1.58 -1.86,-2.14 -4.18,-3.81 -9.58,-6.14 -15.25,-6.14 -15.25,0 -25.85,12.46 -25.85,27.24 0,14.69 9.58,27.8 25.1,27.8 6.32,0 13.95,-3.25 18.04,-8.09l0 6.41 11.34 0zm-11.71 -25.94c0,8.83 -5.86,16.27 -15.06,16.27 -8.83,0 -15.34,-7.25 -15.34,-15.9 0,-8.83 6.14,-16.46 15.34,-16.46 9.11,0 15.06,7.25 15.06,16.08l0 0z"/>
  <path class="fil0" d="M488.31 103.34l0 -11.99c-6.14,0 -8.65,1.3 -12.09,6.32l-0.19 0 0 -4.55 -11.34 0 0 51.6 12.37 0 0 -29.01c0,-7.53 3.16,-12.09 11.25,-12.37z"/>
  <path class="fil0" d="M338.9 144.71l0 -68.8 -12.37 0 0 21.75c-4.37,-4.65 -9.3,-6.32 -15.62,-6.32 -3.53,0 -6.97,0.84 -10.13,2.23 -10.23,4.56 -16.18,14.32 -16.18,25.38 0,14.69 11.25,27.43 26.31,27.43 6.32,0 13.02,-2.51 16.46,-8l0.19 0 0 6.32 11.34 0zm-11.44 -25.84c0,8.46 -6.51,16.18 -15.25,16.18 -9.02,0 -15.25,-8 -15.25,-16.55 0,-8.18 6.88,-15.8 15.25,-15.8 8.74,0 15.25,7.72 15.25,16.18l0 0z"/>
  <polygon class="fil0" points="409.59,93.11 396.39,93.11 386.91,124.63 386.72,124.63 378.35,93.11 368.5,93.11 360.04,124.63 359.85,124.63 350.46,93.11 337.26,93.11 355.85,144.71 363.48,144.71 373.24,111.24 373.42,111.24 383.09,144.71 390.72,144.71 "/>
  <path class="fil0" d="M262.96 144.71l0 -51.6 -11.34 0 0 6.51 -0.19 0c-0.46,-0.74 -1.3,-1.58 -1.86,-2.14 -4.18,-3.81 -9.58,-6.14 -15.25,-6.14 -15.25,0 -25.84,12.46 -25.84,27.24 0,14.69 9.58,27.8 25.1,27.8 6.32,0 13.95,-3.25 18.04,-8.09l0 6.41 11.34 0zm-11.71 -25.94c0,8.83 -5.86,16.27 -15.06,16.27 -8.83,0 -15.34,-7.25 -15.34,-15.9 0,-8.83 6.14,-16.46 15.34,-16.46 9.11,0 15.06,7.25 15.06,16.08l0 0z"/>
  <path class="fil0" d="M290.24 103.34l0 -11.99c-6.14,0 -8.65,1.3 -12.09,6.32l-0.19 0 0 -4.55 -11.34 0 0 51.6 12.37 0 0 -29.01c0,-7.53 3.16,-12.09 11.25,-12.37z"/>
  <path class="fil0" d="M383.12 43.7c0,-14.97 -11.62,-26.87 -26.68,-26.87 -15.62,0 -27.15,12.27 -27.15,27.7 0,15.34 11.81,27.33 27.24,27.33 10.97,0 21.57,-7.44 24.92,-17.94l-13.02 0c-2.51,4.56 -6.88,6.6 -11.9,6.6 -5.11,0 -9.76,-2.6 -12.55,-6.88 -0.74,-1.12 -1.39,-2.32 -1.67,-3.72l40.07 0c0.46,-2.05 0.74,-4.18 0.74,-6.23zm-159.18 -22.68c-5.67,-12.92 -18.41,-21.01 -32.45,-21.01 -19.43,0 -35.61,16.08 -35.61,35.51 0,19.62 16.18,36.07 35.89,36.07 12.56,0 24.87,-7.12 30.72,-18.28 3.74,10.76 14.06,18.56 26.02,18.56 13.65,0 24.32,-9.16 26.79,-21.91 2.41,12.22 12.64,21.91 25.77,21.91 6.32,0 13.02,-2.51 16.46,-8l0.19 0 0 6.32 11.34 0 0 -68.8 -12.36 0 0 21.75c-4.37,-4.65 -9.3,-6.32 -15.62,-6.32 -3.53,0 -6.97,0.84 -10.13,2.23 -8.44,3.76 -13.96,11.06 -15.64,19.71 -2.51,-12.52 -13.44,-21.94 -26.79,-21.94 -15.25,0 -27.52,12.46 -27.52,27.61 0,2.27 0.28,4.48 0.82,6.6l-13.03 0c-4.83,5.3 -9.86,8.65 -17.29,8.65 -12.74,0 -22.87,-11.62 -22.87,-23.99 0,-12.18 9.76,-23.8 22.41,-23.8 7.62,0 13.57,3.44 18.41,9.11l14.5 0zm39.55 23.52c0,8.46 -6.23,15.99 -14.97,15.99 -8.93,0 -15.15,-7.44 -15.15,-16.08 0,-8.37 6.41,-16.27 15.15,-16.27 8.74,0 14.97,8.09 14.97,16.36zm54.14 -0.19c0,8.46 -6.51,16.18 -15.25,16.18 -9.02,0 -15.25,-8 -15.25,-16.55 0,-8.18 6.88,-15.8 15.25,-15.8 8.74,0 15.25,7.72 15.25,16.18l0 0zm52.84 -4.37l-28.54 0c1.77,-7.34 7.07,-11.81 14.6,-11.81 7.53,0 12.74,4.37 13.95,11.81z"/>
  <polygon class="fil0" points="206.03,144.71 206.03,75.91 193.29,75.91 193.29,103.9 168.66,103.9 168.66,75.91 155.92,75.91 155.92,144.71 168.66,144.71 168.66,115.8 193.29,115.8 193.29,144.71 "/>
  <path class="fil0" d="M436.99 25.4l-6.17 0 0 9.43c-2.17,-5.09 -8.76,-10.68 -18.35,-10.68 -13.68,0 -23.28,10.51 -23.28,23.7 0,12.35 8.68,23.69 23.28,23.69 8.01,0 14.85,-3.75 18.35,-10.51l0 9.26 6.17 0 0 -44.89zm-41.71 22.44c0,-10.01 7.51,-18.02 17.85,-18.02 7.93,0 13.93,4.59 16.44,10.76 1,2.17 1.5,4.67 1.42,7.17 0,2.42 -0.5,4.92 -1.5,7.09 -2.42,6.34 -8.26,10.93 -16.18,10.93 -12.35,0 -17.94,-9.76 -18.02,-17.85l0 -0.08zm47.67 22.44l6.17 0 0 -25.36c0,-9.34 5.34,-14.93 14.6,-15.02 10.1,-0.17 14.43,6.42 14.43,16.1l0 24.28 6.09 0 0 -25.53c0,-10.93 -4.92,-20.44 -18.86,-20.61 -8.01,-0.17 -14.1,3.42 -16.69,9.26 0.08,-3 0.08,-5.51 0.08,-8.01l-5.84 0 0 44.89zm92.05 -61.74l-6.17 0 0 16.44 0 9.51c-2,-4.67 -8.51,-10.35 -18.35,-10.35 -13.43,0 -23.11,10.26 -23.11,23.61 0,12.6 8.84,23.78 23.19,23.78 9.34,0 15.35,-4.59 18.52,-10.51l0 9.26 5.92 0 0 -61.74zm-41.55 39.21c0,-10.1 7.59,-17.94 17.94,-17.94 5.01,0 9.51,1.92 12.68,5.17 3.25,3.17 5.17,7.51 5.17,12.6 0.17,5.01 -1.75,9.59 -5.01,12.93 -3.17,3.25 -7.76,5.26 -12.76,5.26 -11.68,0 -17.94,-8.93 -18.02,-17.94l0 -0.08z"/>
  <path class="fil1" d="M14.03 1.91l113.39 0c7.72,0 14.03,6.31 14.03,14.03l0 113.39c0,7.72 -6.31,14.03 -14.03,14.03l-113.39 0c-7.72,0 -14.03,-6.31 -14.03,-14.03l0 -113.39c0,-7.72 6.31,-14.03 14.03,-14.03z"/>
  <path class="fil2" d="M51.54 126.16l0 -10.27 -5.14 0c-4.11,0 -4.68,-4.22 -4.68,-7.42l0 -24.19c0,-9.47 -6.16,-11.53 -14.27,-11.98l0 -0.34c6.85,-0.23 14.27,-2.74 14.27,-10.96l0 -24.19c0,-3.19 0.57,-7.42 4.68,-7.42l5.14 0 0 -10.27 -10.27 0c-1.71,0 -3.54,0.57 -5.14,1.26 -6.05,2.51 -10.04,7.76 -10.04,14.49l0 24.65c0,5.59 -6.62,6.96 -11.07,6.96l0 11.3c5.02,0 11.07,1.94 11.07,7.99l0 24.65c0,6.73 3.99,11.98 10.04,14.49 1.6,0.68 3.42,1.26 5.14,1.26l10.27 0zm74.9 -48.39l0 -11.3c-4.45,0 -11.07,-1.37 -11.07,-6.96l0 -24.65c0,-6.73 -3.99,-11.98 -10.04,-14.49 -1.6,-0.69 -3.42,-1.26 -5.14,-1.26l-10.27 0 0 10.27 5.14 0c4.11,0 4.68,4.22 4.68,7.42l0 24.19c0,8.22 7.42,10.73 14.27,10.96l0 0.34c-8.1,0.46 -14.27,2.51 -14.27,11.98l0 24.19c0,3.2 -0.57,7.42 -4.68,7.42l-5.14 0 0 10.27 10.27 0c1.71,0 3.54,-0.57 5.14,-1.26 6.05,-2.51 10.04,-7.76 10.04,-14.49l0 -24.65c0,-6.05 6.05,-7.99 11.07,-7.99z"/>
  <path class="fil0" d="M0.1 177.91l8.36 0c9.25,0 13.97,-5.5 13.97,-13.79 0,-3.9 -1.08,-7.14 -3.31,-9.59 -2.75,-3.27 -6.91,-4.13 -10.81,-4.13l-8.21 0 0 27.5zm3.05 -24.79l5.46 0c3.75,0 6.32,1.23 8.06,3.08 1.82,2.01 2.68,4.83 2.68,8.03 0,6.61 -3.68,10.96 -10.74,10.96l-5.46 0 0 -22.08zm44.01 15.57c0.3,-3.2 -0.82,-6.28 -3.12,-8.51 -1.89,-1.82 -4.5,-2.82 -7.32,-2.82 -5.98,0 -10.52,4.72 -10.52,10.59 0,4.98 3.6,10.52 10.55,10.52 2.04,0 4.01,-0.56 5.69,-1.64 1.71,-1.08 3.12,-2.71 4.05,-4.87l-2.86 0c-1.3,2.6 -3.79,4.13 -6.88,4.13 -3.38,0.04 -7.66,-2.38 -7.8,-7.4l18.21 0zm-18.17 -2.19c0.26,-3.64 3.46,-6.8 7.77,-6.8 4.13,-0.11 7.51,3.31 7.69,6.8l-15.46 0zm38.77 -8.58l-2.9 0 -6.39 16.61 -6.43 -16.61 -2.9 0 7.88 19.99 2.86 0 7.88 -19.99zm22.64 10.78c0.3,-3.2 -0.82,-6.28 -3.12,-8.51 -1.89,-1.82 -4.5,-2.82 -7.32,-2.82 -5.98,0 -10.52,4.72 -10.52,10.59 0,4.98 3.6,10.52 10.55,10.52 2.04,0 4.01,-0.56 5.69,-1.64 1.71,-1.08 3.12,-2.71 4.05,-4.87l-2.86 0c-1.3,2.6 -3.79,4.13 -6.88,4.13 -3.38,0.04 -7.66,-2.38 -7.8,-7.4l18.21 0zm-18.17 -2.19c0.26,-3.64 3.46,-6.8 7.77,-6.8 4.13,-0.11 7.51,3.31 7.69,6.8l-15.46 0zm23.2 11.41l2.75 0 0 -27.5 -2.75 0 0 27.5zm7.96 -10c0,5.61 4.16,10.52 10.59,10.52 6.47,0 10.63,-4.91 10.63,-10.52 0,-5.61 -4.16,-10.55 -10.63,-10.55 -6.43,0 -10.59,4.94 -10.59,10.52l0 0.04zm2.71 0c0,-4.57 3.46,-7.99 7.88,-7.99 4.46,0 7.88,3.42 7.88,7.99 0,4.57 -3.42,7.99 -7.88,7.99 -4.42,0 -7.88,-3.42 -7.88,-7.95l0 -0.04zm23.75 17.58l2.75 0 0 -7.58 0 -4.09c0.93,2.08 3.79,4.65 8.21,4.65 6.21,0 10.26,-4.91 10.26,-10.48 0,-5.17 -3.53,-10.63 -10.26,-10.63 -3.83,0 -6.73,1.82 -8.36,4.72l0 -4.16 -2.6 0 0 27.58zm18.47 -17.58c0,4.57 -3.46,7.99 -7.95,7.99 -2.23,0 -4.24,-0.85 -5.65,-2.27 -1.45,-1.45 -2.3,-3.46 -2.3,-5.69 0,-2.27 0.85,-4.27 2.23,-5.72 1.45,-1.45 3.42,-2.34 5.65,-2.34 5.39,0 8.03,4.24 8.03,7.99l0 0.04zm8.07 10l2.75 0 0 -11.15c0,-2.12 0.48,-3.64 1.34,-4.79 0.82,-1.19 2.38,-2.12 4.24,-2.04 2.04,0.04 3.46,0.82 4.38,2.12 0.78,1.23 1.12,2.53 1.04,4.76l0 11.11 2.75 0 0 -11.11c0,-2.27 0.19,-3.38 1.19,-4.79 0.93,-1.38 2.64,-2.08 4.39,-2.08 1.9,0 3.16,0.63 3.98,1.67 1.15,1.3 1.49,3.2 1.49,5.31l0 11 2.75 0 0 -11.11c0,-3.53 -0.52,-5.69 -2.27,-7.43 -1.37,-1.41 -3.34,-2.01 -5.39,-2.01 -2.23,0 -4.2,0.85 -5.5,2.23 -0.74,0.78 -1.15,1.56 -1.45,2.12 -0.11,-0.22 -0.78,-1.56 -1.3,-2.08 -1.41,-1.6 -3.38,-2.27 -5.46,-2.27 -2.27,0 -5.05,1.19 -6.32,3.72l0 -3.16 -2.6 0 0 19.99zm56.09 -9.22c0.3,-3.2 -0.82,-6.28 -3.12,-8.51 -1.89,-1.82 -4.5,-2.82 -7.32,-2.82 -5.98,0 -10.52,4.72 -10.52,10.59 0,4.98 3.6,10.52 10.55,10.52 2.04,0 4.01,-0.56 5.69,-1.64 1.71,-1.08 3.12,-2.71 4.05,-4.87l-2.86 0c-1.3,2.6 -3.79,4.13 -6.88,4.13 -3.38,0.04 -7.66,-2.38 -7.8,-7.4l18.21 0zm-18.17 -2.19c0.26,-3.64 3.46,-6.8 7.77,-6.8 4.13,-0.11 7.51,3.31 7.69,6.8l-15.46 0zm23.2 11.41l2.75 0 0 -11.3c0,-4.16 2.38,-6.65 6.5,-6.69 4.5,-0.07 6.43,2.86 6.43,7.17l0 10.81 2.71 0 0 -11.37c0,-4.87 -2.19,-9.11 -8.4,-9.18 -3.57,-0.07 -6.28,1.52 -7.43,4.13 0.04,-1.34 0.04,-2.45 0.04,-3.57l-2.6 0 0 19.99zm26.39 0l2.71 0 0 -17.8 4.39 0 0 -2.19 -4.39 0 0 -7.51 -2.71 0 0 7.51 -3.94 0 0 2.19 3.94 0 0 17.8zm42 -19.99l-2.75 0 0 4.2c-0.97,-2.27 -3.9,-4.76 -8.18,-4.76 -6.09,0 -10.37,4.68 -10.37,10.55 0,5.5 3.86,10.55 10.37,10.55 3.57,0 6.62,-1.67 8.18,-4.68l0 4.13 2.75 0 0 -19.99zm-18.58 10c0,-4.46 3.34,-8.03 7.95,-8.03 3.53,0 6.21,2.04 7.32,4.79 0.45,0.97 0.67,2.08 0.63,3.2 0,1.08 -0.22,2.19 -0.67,3.16 -1.08,2.82 -3.68,4.87 -7.21,4.87 -5.5,0 -7.99,-4.35 -8.03,-7.95l0 -0.04zm25.05 10l2.75 0 0 -11.3c0,-4.16 2.38,-6.65 6.5,-6.69 4.5,-0.07 6.43,2.86 6.43,7.17l0 10.81 2.71 0 0 -11.37c0,-4.87 -2.19,-9.11 -8.4,-9.18 -3.57,-0.07 -6.28,1.52 -7.43,4.13 0.04,-1.34 0.04,-2.45 0.04,-3.57l-2.6 0 0 19.99zm44.83 -27.5l-2.75 0 0 7.32 0 4.24c-0.89,-2.08 -3.79,-4.61 -8.18,-4.61 -5.98,0 -10.29,4.57 -10.29,10.52 0,5.61 3.94,10.59 10.33,10.59 4.16,0 6.84,-2.04 8.25,-4.68l0 4.13 2.64 0 0 -27.5zm-18.51 17.47c0,-4.5 3.38,-7.99 7.99,-7.99 2.23,0 4.24,0.85 5.65,2.3 1.45,1.41 2.3,3.34 2.3,5.61 0.07,2.23 -0.78,4.27 -2.23,5.76 -1.41,1.45 -3.46,2.34 -5.69,2.34 -5.2,0 -7.99,-3.98 -8.03,-7.99l0 -0.04zm35.57 10.03l3.08 0 0 -24.79 4.31 0c2.49,0 4.2,0.11 5.57,1 1.71,1.12 2.71,3.27 2.71,5.31 0,1.97 -0.63,3.64 -2.08,5.05 -1.49,1.38 -4.16,1.41 -6.09,1.41l-0.89 0 7.77 12 3.34 0 -6.84 -10.29c2.53,-0.26 4.5,-0.78 6.13,-3.01 1.15,-1.56 1.67,-3.53 1.64,-5.39 0,-3.12 -1.52,-6.06 -3.75,-7.4 -1.41,-0.89 -3.42,-1.41 -7.73,-1.41l-7.17 0 0 27.5zm42.56 -9.22c0.3,-3.2 -0.82,-6.28 -3.12,-8.51 -1.89,-1.82 -4.5,-2.82 -7.32,-2.82 -5.98,0 -10.52,4.72 -10.52,10.59 0,4.98 3.6,10.52 10.55,10.52 2.04,0 4.01,-0.56 5.69,-1.64 1.71,-1.08 3.12,-2.71 4.05,-4.87l-2.86 0c-1.3,2.6 -3.79,4.13 -6.88,4.13 -3.38,0.04 -7.66,-2.38 -7.8,-7.4l18.21 0zm-18.17 -2.19c0.26,-3.64 3.46,-6.8 7.77,-6.8 4.13,-0.11 7.51,3.31 7.69,6.8l-15.46 0zm34.9 -3.57c-0.19,-4.05 -3.31,-5.57 -6.09,-5.57 -3.38,0 -6.24,2.12 -6.24,5.72 0.07,3.16 2.3,4.31 5.17,5.17 3.46,1 4.94,1.93 5.02,4.2 0.04,2.04 -1.56,3.75 -3.86,3.75 -2.01,0 -4.05,-1.23 -4.16,-3.98l-2.71 0c0.04,4.2 3.6,6.24 6.84,6.24 3.79,0 6.76,-2.68 6.61,-6.35 -0.15,-4.27 -3.34,-5.09 -6.21,-5.87 -2.42,-0.71 -3.87,-1.49 -3.94,-3.38 -0.07,-1.75 1.26,-3.23 3.46,-3.23 2.01,0 3.42,1.19 3.42,3.31l2.71 0zm4.91 4.98c0,5.61 4.16,10.52 10.59,10.52 6.47,0 10.63,-4.91 10.63,-10.52 0,-5.61 -4.16,-10.55 -10.63,-10.55 -6.43,0 -10.59,4.94 -10.59,10.52l0 0.04zm2.71 0c0,-4.57 3.46,-7.99 7.88,-7.99 4.46,0 7.88,3.42 7.88,7.99 0,4.57 -3.42,7.99 -7.88,7.99 -4.42,0 -7.88,-3.42 -7.88,-7.95l0 -0.04zm42.15 -10l-2.75 0 0 11.3c0,4.16 -2.38,6.65 -6.54,6.69 -4.5,0.04 -6.43,-2.86 -6.43,-7.17l0 -10.81 -2.71 0 0 11.33c0,4.87 2.19,9.1 8.44,9.22 3.57,0.04 6.28,-1.52 7.4,-4.13l0 3.57 2.6 0 0 -19.99zm6.47 19.99l2.71 0 0 -10.89c0,-4.53 2.16,-6.95 6.02,-6.95l0.26 0 0 -2.71c-2.34,0.07 -4.94,0.85 -6.39,3.83l0 -3.27 -2.6 0 0 19.99zm28.14 -6.76c-0.85,2.42 -3.42,4.72 -7.25,4.76 -4.31,0 -7.88,-3.27 -7.88,-7.99 0,-2.3 0.93,-4.46 2.27,-5.76 1.67,-1.56 3.31,-2.27 5.65,-2.27 2.82,0 5.98,1.56 7.25,4.94l2.82 0c-1.38,-4.79 -5.69,-7.47 -10.18,-7.47 -6.06,0 -10.55,4.65 -10.55,10.55 0,5.35 3.98,10.55 10.74,10.55 4.79,0 8.7,-3.08 10,-7.32l-2.86 0zm27.36 -2.45c0.3,-3.2 -0.82,-6.28 -3.12,-8.51 -1.9,-1.82 -4.5,-2.82 -7.32,-2.82 -5.98,0 -10.52,4.72 -10.52,10.59 0,4.98 3.6,10.52 10.55,10.52 2.04,0 4.01,-0.56 5.69,-1.64 1.71,-1.08 3.12,-2.71 4.05,-4.87l-2.86 0c-1.3,2.6 -3.79,4.13 -6.88,4.13 -3.38,0.04 -7.66,-2.38 -7.8,-7.4l18.21 0zm-18.17 -2.19c0.26,-3.64 3.46,-6.8 7.77,-6.8 4.13,-0.11 7.51,3.31 7.69,6.8l-15.46 0zm34.9 -3.57c-0.19,-4.05 -3.31,-5.57 -6.1,-5.57 -3.38,0 -6.24,2.12 -6.24,5.72 0.07,3.16 2.3,4.31 5.17,5.17 3.46,1 4.94,1.93 5.02,4.2 0.04,2.04 -1.56,3.75 -3.86,3.75 -2.01,0 -4.05,-1.23 -4.16,-3.98l-2.71 0c0.04,4.2 3.6,6.24 6.84,6.24 3.79,0 6.76,-2.68 6.61,-6.35 -0.15,-4.27 -3.34,-5.09 -6.21,-5.87 -2.42,-0.71 -3.87,-1.49 -3.94,-3.38 -0.07,-1.75 1.26,-3.23 3.46,-3.23 2.01,0 3.42,1.19 3.42,3.31l2.71 0zm9.82 10.89l-2.9 0 0 4.09 2.9 0 0 -4.09z"/>
  <path class="fil3" d="M50.61 66.51l41.11 0c1,0 1.81,0.81 1.81,1.81l0 8.62c0,1 -0.81,1.81 -1.81,1.81l-41.11 0c-1,0 -1.81,-0.81 -1.81,-1.81l0 -8.62c0,-1 0.81,-1.81 1.81,-1.81z"/>
 </g>
</svg>
