<?xml version="1.0" encoding="UTF-8"?>
<!DOCTYPE svg PUBLIC "-//W3C//DTD SVG 1.1//EN" "http://www.w3.org/Graphics/SVG/1.1/DTD/svg11.dtd">
<!-- Creator: CorelDRAW 2019 (64-Bit) -->
<svg xmlns="http://www.w3.org/2000/svg" xml:space="preserve" width="11.0957in" height="0.923988in" version="1.1" style="shape-rendering:geometricPrecision; text-rendering:geometricPrecision; image-rendering:optimizeQuality; fill-rule:evenodd; clip-rule:evenodd"
viewBox="0 0 2993.28 249.26"
 xmlns:xlink="http://www.w3.org/1999/xlink"
 xmlns:xodm="http://www.corel.com/coreldraw/odm/2003">
 <defs>
  <style type="text/css">
   <![CDATA[
    .fil0 {fill:#6658D7}
    .fil2 {fill:white}
    .fil3 {fill:#1B1B38;fill-rule:nonzero}
    .fil1 {fill:white;fill-rule:nonzero}
   ]]>
  </style>
 </defs>
 <g id="Capa_x0020_1">
  <metadata id="CorelCorpID_0Corel-Layer"/>
  <path class="fil0" d="M124.63 0l0 0c68.55,0 124.63,56.08 124.63,124.63l0 0c0,68.55 -56.08,124.63 -124.63,124.63l-0 0 -124.63 -0.8 -0 -123.83 0 -0c0,-68.55 56.08,-124.63 124.63,-124.63z"/>
  <path class="fil1" d="M177.51 211.62c12.46,0 22.25,-9.72 22.25,-23.86l0 -38.35c0,-5.83 4.9,-10.25 14.39,-10.43l0 -30.4c-9.05,-0.18 -14.39,-4.95 -14.39,-11.49l0 -39.24c0,-14.32 -9.64,-23.68 -22.25,-23.68l-19.43 0 0 22.27 7.56 0c6.68,0 9.2,4.07 9.2,10.96l0 38c0,10.6 4.6,16.97 15.87,18.03l0.15 0 0 0.71c-10.23,0.71 -16.02,7.43 -16.02,15.73l0 38.53c0,7.6 -3.12,10.96 -9.64,10.96l-7.12 0 0 22.27 19.43 0zm-86.32 0l0 -22.27 -7.12 0c-6.52,0 -9.64,-3.36 -9.64,-10.96l0 -38.53c0,-8.31 -5.78,-15.02 -16.02,-15.73l0 -0.71 0.15 0c11.27,-1.06 15.87,-7.43 15.87,-18.03l0 -38c0,-6.89 2.52,-10.96 9.2,-10.96l7.56 0 0 -22.27 -19.43 0c-12.61,0 -22.25,9.37 -22.25,23.68l0 39.24c0,6.54 -5.34,11.31 -14.39,11.49l0 30.4c9.49,0.18 14.39,4.6 14.39,10.43l0 38.35c0,14.14 9.79,23.86 22.25,23.86l19.43 0z"/>
  <rect class="fil2" x="80.17" y="113.5" width="88.92" height="22.27" rx="5.18" ry="3.49"/>
  <path class="fil3" d="M510.27 96.83c-3.95,-23.1 -16.71,-43.76 -37.99,-62 -22.49,-19.15 -47.41,-27.65 -78.41,-27.65 -64.43,0 -115.79,53.79 -115.79,113.36 0,34.04 10.33,62.6 34.64,86.31 23.1,22.79 52.58,33.73 83.88,33.73 53.18,0 99.68,-34.34 113.66,-88.43l-60.17 0c-11.85,25.22 -31.3,37.99 -54.09,37.99 -35.56,0 -60.48,-30.39 -60.48,-66.86 0,-34.95 24.31,-65.64 60.17,-65.64 23.4,0 44.67,14.59 54.4,39.2l60.17 0z"/>
  <path id="1" class="fil3" d="M688.2 151.22c0,-51.05 -40.11,-89.04 -90.87,-89.04 -50.45,0 -90.87,37.38 -90.87,89.65 0,51.66 39.51,89.65 90.87,89.65 50.75,0 90.87,-37.38 90.87,-90.26zm-90.87 43.15c-22.79,0 -40.42,-19.45 -40.42,-42.55 0,-23.1 17.93,-42.55 40.11,-42.55 23.7,0 40.72,20.06 40.72,42.55 0,22.49 -16.72,42.55 -40.42,42.55z"/>
  <path id="2" class="fil3" d="M868.87 236.32l0 -224.89 -50.45 0 0 70.5c-14.28,-14.28 -30.09,-20.06 -49.54,-20.06 -49.23,0 -83.57,39.2 -83.57,89.65 0,51.06 33.43,90.26 84.48,90.26 24.01,0 41.03,-8.2 50.45,-23.7l0.61 0 0 18.23 48.02 0zm-90.87 -41.63c-24.31,0 -42.24,-17.93 -42.24,-43.46 0,-24.62 18.84,-42.24 42.55,-42.24 24.92,0 42.85,18.84 42.85,42.24 0,24.92 -18.54,43.46 -43.15,43.46z"/>
  <path id="3" class="fil3" d="M1048.93 167.33c0.91,-4.56 1.22,-8.51 1.22,-13.37 0,-52.27 -38.6,-92.08 -89.04,-92.08 -49.54,0 -88.43,41.94 -88.43,90.56 0,50.14 40.72,89.35 89.35,89.35 35.56,0 66.25,-21.58 82.36,-58.35l-51.66 0c-8.2,10.64 -17.02,15.8 -30.69,15.8 -20.67,0 -36.77,-12.76 -39.51,-31.91l126.42 0zm-125.81 -34.04c3.95,-17.93 19.75,-28.87 37.99,-28.87 19.45,0 34.65,11.55 38.6,28.87l-76.58 0z"/>
  <polygon id="4" class="fil3" points="1782.86,236.32 1782.86,11.43 1725.43,11.43 1725.43,95.91 1651.88,95.91 1651.88,11.43 1594.45,11.43 1594.45,236.32 1651.88,236.32 1651.88,146.36 1725.43,146.36 1725.43,236.32 "/>
  <path id="5" class="fil3" d="M1975.08 236.32l0 -168.66 -50.45 0 0 17.93 -0.61 0c-9.72,-15.5 -28.87,-23.7 -49.54,-23.7 -48.32,0 -84.48,40.11 -84.48,89.95 0,51.06 34.64,90.26 84.48,90.26 22.18,0 42.24,-9.12 49.54,-24.01l0.61 0 0 18.23 50.45 0zm-92.69 -41.33c-23.4,0 -41.94,-19.15 -41.94,-42.55 0,-24.31 18.23,-43.46 41.33,-43.46 23.7,0 42.85,19.15 42.85,42.85 0,24.31 -18.54,43.15 -42.24,43.15z"/>
  <path id="6" class="fil3" d="M2038.44 236.32l0 -92.99c0,-19.15 9.73,-30.39 39.81,-30.69l0 -50.75c-19.45,0 -33.43,5.77 -42.24,23.7l-0.61 0 0 -17.93 -47.41 0 0 168.66 50.45 0z"/>
  <path id="7" class="fil3" d="M2248.28 236.32l0 -224.89 -50.45 0 0 70.5c-14.28,-14.28 -30.09,-20.06 -49.54,-20.06 -49.23,0 -83.57,39.2 -83.57,89.65 0,51.06 33.43,90.26 84.48,90.26 24.01,0 41.03,-8.2 50.45,-23.7l0.61 0 0 18.23 48.02 0zm-90.87 -41.63c-24.31,0 -42.24,-17.93 -42.24,-43.46 0,-24.62 18.84,-42.24 42.55,-42.24 24.92,0 42.85,18.84 42.85,42.24 0,24.92 -18.54,43.46 -43.15,43.46z"/>
  <polygon id="8" class="fil3" points="2447.18,236.32 2499.15,67.65 2447.18,67.65 2421.96,172.5 2421.35,172.5 2393.39,67.65 2350.85,67.65 2323.19,172.5 2322.58,172.5 2297.36,67.65 2245.09,67.65 2296.75,236.32 2343.55,236.32 2371.82,127.22 2372.42,127.22 2400.69,236.32 "/>
  <path id="9" class="fil3" d="M2667.05 236.32l0 -168.66 -50.45 0 0 17.93 -0.61 0c-9.72,-15.5 -28.87,-23.7 -49.54,-23.7 -48.32,0 -84.48,40.11 -84.48,89.95 0,51.06 34.64,90.26 84.48,90.26 22.18,0 42.24,-9.12 49.54,-24.01l0.61 0 0 18.23 50.45 0zm-92.69 -41.33c-23.4,0 -41.94,-19.15 -41.94,-42.55 0,-24.31 18.23,-43.46 41.33,-43.46 23.7,0 42.85,19.15 42.85,42.85 0,24.31 -18.54,43.15 -42.24,43.15z"/>
  <path id="10" class="fil3" d="M2730.41 236.32l0 -92.99c0,-19.15 9.73,-30.39 39.81,-30.69l0 -50.75c-19.45,0 -33.43,5.77 -42.24,23.7l-0.61 0 0 -17.93 -47.41 0 0 168.66 50.45 0z"/>
  <path id="11" class="fil3" d="M2931.75 167.33c0.91,-4.56 1.22,-8.51 1.22,-13.37 0,-52.27 -38.6,-92.08 -89.04,-92.08 -49.54,0 -88.43,41.94 -88.43,90.56 0,50.14 40.72,89.35 89.35,89.35 35.56,0 66.25,-21.58 82.36,-58.35l-51.66 0c-8.2,10.64 -17.02,15.8 -30.69,15.8 -20.67,0 -36.77,-12.76 -39.51,-31.91l126.42 0zm-125.81 -34.04c3.95,-17.93 19.75,-28.87 37.99,-28.87 19.45,0 34.65,11.55 38.6,28.87l-76.58 0z"/>
  <polygon id="12" class="fil3" points="2993.28,236.32 2993.28,184.65 2940.71,184.65 2940.71,236.32 "/>
  <path id="13" class="fil3" d="M1225.04 236.32l0 -166.23 -21.27 0 0 29.17 -0.61 0c-13.37,-20.97 -37.08,-33.43 -64.73,-33.43 -48.62,0 -89.35,37.08 -89.35,86.92 0,49.84 39.51,87.52 89.35,87.52 27.05,0 51.06,-12.46 64.73,-33.13l0.61 0 0 29.17 21.27 0zm-86.61 -15.2c-39.2,0 -68.07,-29.17 -68.07,-67.47 0,-39.51 29.48,-68.68 67.77,-68.68 37.68,0 66.86,31.3 66.86,68.38 0,37.38 -29.48,67.77 -66.55,67.77z"/>
  <path id="14" class="fil3" d="M1388.69 236.32l0 -92.69c0,-46.19 -27.35,-77.8 -73.24,-77.8 -21.58,0 -40.42,9.42 -51.06,25.53l-0.61 0 0 -21.27 -21.27 0 0 166.23 21.27 0 0 -94.21c0,-32.52 19.75,-57.13 51.97,-57.13 29.17,0 51.66,21.27 51.66,58.65l0 92.69 21.27 0z"/>
  <path id="15" class="fil3" d="M1574.84 236.32l0 -224.89 -21.27 0 0 87.22 -0.61 0c-14.28,-20.67 -38.9,-32.82 -64.73,-32.82 -48.62,0 -89.35,37.08 -89.35,86.92 0,49.84 39.51,87.52 89.35,87.52 25.83,0 50.14,-11.55 64.73,-33.13l0.61 0 0 29.17 21.27 0zm-86.61 -15.2c-39.51,0 -68.07,-29.48 -68.07,-67.47 0,-39.2 28.87,-68.68 67.77,-68.68 37.99,0 66.86,31.3 66.86,68.38 0,37.68 -29.78,67.77 -66.55,67.77l0 0z"/>
 </g>
</svg>
